<?xml version="1.0" encoding="UTF-8"?>
<!DOCTYPE svg PUBLIC "-//W3C//DTD SVG 1.1//EN" "http://www.w3.org/Graphics/SVG/1.1/DTD/svg11.dtd">
<!-- Creator: CorelDRAW Home & Student X7 -->
<svg xmlns="http://www.w3.org/2000/svg" xml:space="preserve" width="21.7896mm" height="29mm" version="1.1" style="shape-rendering:geometricPrecision; text-rendering:geometricPrecision; image-rendering:optimizeQuality; fill-rule:evenodd; clip-rule:evenodd"
viewBox="0 0 250 333"
 xmlns:xlink="http://www.w3.org/1999/xlink">
 <defs>
  <style type="text/css">
   <![CDATA[
    .fil0 {fill:#009F93;fill-rule:nonzero}
    .fil1 {fill:#FDC122;fill-rule:nonzero}
   ]]>
  </style>
 </defs>
 <g id="__x0023_Layer_x0020_1">
  <metadata id="CorelCorpID_0Corel-Layer"/>
  <g id="_450077224">
   <g>
    <path class="fil0" d="M0 0c83,0 167,0 250,0 0,69 1,139 0,208 -41,-41 -82,-81 -122,-122 -1,-1 -3,-1 -3,-1 0,82 0,164 0,247 -2,-1 -4,-3 -5,-4 -40,-40 -80,-80 -120,-120 0,-69 0,-139 0,-208z"/>
   </g>
   <g>
    <path class="fil1" d="M125 85c0,0 2,0 3,1 40,41 81,81 122,122 -33,34 -67,67 -100,100 -9,8 -17,17 -26,25l1 -1c0,-83 0,-165 0,-247z"/>
   </g>
  </g>
 </g>
</svg>
