<?xml version="1.0" encoding="UTF-8"?>
<!DOCTYPE svg PUBLIC "-//W3C//DTD SVG 1.1//EN" "http://www.w3.org/Graphics/SVG/1.1/DTD/svg11.dtd">
<!-- Creator: CorelDRAW Home & Student X7 -->
<svg xmlns="http://www.w3.org/2000/svg" xml:space="preserve" width="30mm" height="30mm" version="1.1" style="shape-rendering:geometricPrecision; text-rendering:geometricPrecision; image-rendering:optimizeQuality; fill-rule:evenodd; clip-rule:evenodd"
viewBox="0 0 789 789"
 xmlns:xlink="http://www.w3.org/1999/xlink">
 <defs>
  <style type="text/css">
   <![CDATA[
    .fil0 {fill:#256BFF;fill-rule:nonzero}
    .fil1 {fill:#51AE52;fill-rule:nonzero}
    .fil2 {fill:white;fill-rule:nonzero}
   ]]>
  </style>
 </defs>
 <g id="__x0023_Layer_x0020_1">
  <metadata id="CorelCorpID_0Corel-Layer"/>
  <g id="_625781176">
   <g>
    <g>
     <path class="fil0" d="M0 0l789 0 0 789 -789 0 0 -789zm668 177l0 0c-24,4 -35,36 -19,55 16,20 52,13 59,-12 9,-24 -16,-50 -40,-43zm-581 209l0 0c-3,59 43,117 103,123 34,3 71,-5 95,-31 0,9 0,18 0,27 18,0 35,0 53,0 0,-79 0,-157 0,-236 -18,0 -36,0 -53,0 0,11 0,22 0,33 -20,-26 -52,-40 -85,-38 -63,0 -116,60 -113,122zm276 -7l0 0c-4,56 34,114 90,128 38,7 81,-1 109,-29 -1,20 -5,42 -20,57 -34,32 -96,27 -125,-10 -13,11 -24,23 -36,35 -4,3 2,7 4,9 31,31 77,45 121,39 31,-3 62,-17 81,-42 20,-26 26,-60 27,-92 0,-68 0,-137 0,-205 -18,0 -35,0 -52,0 0,11 0,22 0,33 -20,-27 -53,-39 -85,-38 -61,-1 -113,55 -114,115zm287 -111l0 0c0,79 0,158 0,237 18,0 35,0 53,0 0,-79 -1,-158 0,-236 -18,-1 -35,-1 -53,-1z"/>
    </g>
    <path class="fil0" d="M187 314c24,-7 52,-3 72,13 35,27 36,85 4,115 -28,28 -79,27 -106,-2 -19,-19 -24,-48 -18,-74 5,-24 25,-44 48,-52z"/>
    <path class="fil0" d="M465 314c24,-7 53,-2 72,15 34,29 34,88 0,116 -19,17 -47,20 -71,15 -29,-8 -52,-36 -53,-67 -4,-34 18,-69 52,-79z"/>
   </g>
   <g>
    <path class="fil1" d="M668 177c24,-7 49,19 40,43 -7,25 -43,32 -59,12 -16,-19 -5,-51 19,-55z"/>
   </g>
   <g>
    <g>
     <path class="fil2" d="M87 386c-3,-62 50,-122 113,-122 33,-2 65,12 85,38 0,-11 0,-22 0,-33 17,0 35,0 53,0 0,79 0,157 0,236 -18,0 -35,0 -53,0 0,-9 0,-18 0,-27 -24,26 -61,34 -95,31 -60,-6 -106,-64 -103,-123zm100 -72l0 0c-23,8 -43,28 -48,52 -6,26 -1,55 18,74 27,29 78,30 106,2 32,-30 31,-88 -4,-115 -20,-16 -48,-20 -72,-13z"/>
    </g>
    <g>
     <path class="fil2" d="M363 379c1,-60 53,-116 114,-115 32,-1 65,11 85,38 0,-11 0,-22 0,-33 17,0 34,0 52,0 0,68 0,137 0,205 -1,32 -7,66 -27,92 -19,25 -50,39 -81,42 -44,6 -90,-8 -121,-39 -2,-2 -8,-6 -4,-9 12,-12 23,-24 36,-35 29,37 91,42 125,10 15,-15 19,-37 20,-57 -28,28 -71,36 -109,29 -56,-14 -94,-72 -90,-128zm102 -65l0 0c-34,10 -56,45 -52,79 1,31 24,59 53,67 24,5 52,2 71,-15 34,-28 34,-87 0,-116 -19,-17 -48,-22 -72,-15z"/>
    </g>
    <path class="fil2" d="M650 268c18,0 35,0 53,1 -1,78 0,157 0,236 -18,0 -35,0 -53,0 0,-79 0,-158 0,-237z"/>
   </g>
  </g>
 </g>
</svg>
