<?xml version="1.0" encoding="UTF-8"?>
<!DOCTYPE svg PUBLIC "-//W3C//DTD SVG 1.1//EN" "http://www.w3.org/Graphics/SVG/1.1/DTD/svg11.dtd">
<!-- Creator: CorelDRAW Home & Student X7 -->
<svg xmlns="http://www.w3.org/2000/svg" xml:space="preserve" width="29mm" height="29mm" version="1.1" style="shape-rendering:geometricPrecision; text-rendering:geometricPrecision; image-rendering:optimizeQuality; fill-rule:evenodd; clip-rule:evenodd"
viewBox="0 0 744 744"
 xmlns:xlink="http://www.w3.org/1999/xlink">
 <defs>
  <style type="text/css">
   <![CDATA[
    .fil4 {fill:#000034;fill-rule:nonzero}
    .fil3 {fill:#000139;fill-rule:nonzero}
    .fil7 {fill:#000241;fill-rule:nonzero}
    .fil6 {fill:#000242;fill-rule:nonzero}
    .fil5 {fill:#010442;fill-rule:nonzero}
    .fil0 {fill:#1D2C51;fill-rule:nonzero}
    .fil2 {fill:#D9A600;fill-rule:nonzero}
    .fil1 {fill:white;fill-rule:nonzero}
   ]]>
  </style>
 </defs>
 <g id="__x0023_Layer_x0020_1">
  <metadata id="CorelCorpID_0Corel-Layer"/>
  <g id="_439148832">
   <g>
    <g>
     <path class="fil0" d="M0 0l744 0 0 744 -744 0 0 -744zm185 575l0 0c13,0 27,0 40,0 28,0 55,0 83,0 17,2 35,-2 53,1 4,-1 9,-1 13,-2l3 2c4,0 9,0 13,0 24,-2 47,-1 70,-1 17,2 35,-1 53,0 18,-1 37,3 56,-1 -65,-127 -129,-255 -193,-382 -65,127 -127,255 -191,383z"/>
    </g>
    <path class="fil0" d="M332 304c29,0 58,0 87,1 -12,28 -29,53 -42,79 -17,-25 -29,-54 -45,-80z"/>
    <path class="fil0" d="M328 302c16,28 30,56 46,83 -17,4 -33,2 -50,3 -12,-1 -25,1 -36,-4 12,-28 28,-54 40,-82z"/>
    <path class="fil0" d="M415 319c3,-5 4,-12 10,-15 11,25 25,49 37,75 4,5 -3,9 -8,8 -25,1 -50,1 -74,0 9,-24 25,-45 35,-68z"/>
    <path class="fil0" d="M289 389c28,1 56,1 84,0 -12,30 -28,58 -42,86 -13,-29 -29,-57 -42,-86z"/>
    <path class="fil0" d="M380 389c27,1 55,1 82,0 0,12 -9,22 -13,33 -10,17 -17,36 -29,52 -11,-29 -29,-55 -40,-85z"/>
    <path class="fil0" d="M262 437c7,-15 14,-31 23,-46 16,25 29,53 41,80 -27,5 -56,-2 -83,6 4,-14 12,-27 19,-40z"/>
    <path class="fil0" d="M450 424c6,-11 11,-23 18,-33 13,27 27,54 41,80 -1,2 -2,4 -2,6 -27,-7 -56,-6 -83,0 7,-19 17,-35 26,-53z"/>
    <path class="fil0" d="M374 393c8,3 10,13 14,20 10,21 23,41 31,64l-2 0c-26,-6 -54,-7 -81,0 0,-2 0,-5 0,-6 4,-6 5,-14 11,-18 1,-2 2,-5 3,-7 5,-18 19,-34 24,-53z"/>
    <path class="fil0" d="M245 480c28,1 56,0 84,1 -1,3 -3,6 -5,10 -2,4 -4,8 -6,12 -10,21 -21,41 -31,62 -3,-6 -6,-11 -9,-17l-1 -1c-9,-23 -22,-44 -32,-67z"/>
    <path class="fil0" d="M335 481c28,-2 57,-2 85,0 -13,27 -29,52 -40,80 -1,0 -5,0 -7,0 -9,-28 -26,-53 -38,-80z"/>
    <path class="fil0" d="M426 481c28,-1 56,-2 83,1 -10,22 -22,43 -32,65 -3,6 -6,12 -7,18 -8,-10 -13,-22 -19,-34 -9,-17 -18,-33 -25,-50z"/>
    <path class="fil0" d="M222 516c6,-12 11,-24 19,-35 15,28 31,56 42,86 -29,2 -58,0 -87,1 9,-17 18,-34 26,-52z"/>
    <path class="fil0" d="M323 498c3,-5 7,-10 11,-14 9,21 21,41 31,61 3,8 6,15 9,22 -28,1 -57,2 -85,0 11,-23 24,-45 34,-69z"/>
    <path class="fil0" d="M380 567c13,-29 28,-57 43,-86 13,30 29,57 43,86 -29,2 -58,1 -86,0z"/>
    <path class="fil0" d="M476 554c12,-24 24,-48 37,-72 15,28 29,57 44,86 -29,0 -57,0 -86,0 1,-5 3,-9 5,-14z"/>
   </g>
   <g>
    <g>
     <path class="fil1" d="M185 575c64,-128 126,-256 191,-383 64,127 128,255 193,382 -19,4 -38,0 -56,1 -18,-1 -36,2 -53,0 -23,0 -46,-1 -70,1 -4,0 -9,0 -13,0l-3 -2c-4,1 -9,1 -13,2 -18,-3 -36,1 -53,-1 -28,0 -55,0 -83,0 -13,0 -27,0 -40,0zm146 -277l0 0c30,0 61,0 91,1 -16,-30 -30,-61 -46,-91 -15,30 -30,60 -45,90zm1 3l0 0 0 3c16,26 28,55 45,80 13,-26 30,-51 42,-79 1,-1 4,-3 5,-3 -31,-2 -61,-1 -92,-1zm-4 1l0 0c-12,28 -28,54 -40,82 11,5 24,3 36,4 17,-1 33,1 50,-3 -16,-27 -30,-55 -46,-83zm87 17l0 0c-10,23 -26,44 -35,68 24,1 49,1 74,0 5,1 12,-3 8,-8 -12,-26 -26,-50 -37,-75 -6,3 -7,10 -10,15zm-126 70l0 0c13,29 29,57 42,86 14,-28 30,-56 42,-86 -28,1 -56,1 -84,0zm91 0l0 0c11,30 29,56 40,85 12,-16 19,-35 29,-52 4,-11 13,-21 13,-33 -27,1 -55,1 -82,0zm-118 48l0 0c-7,13 -15,26 -19,40 29,2 57,0 86,1 -1,-2 -2,-5 -3,-7 -12,-27 -25,-55 -41,-80 -9,15 -16,31 -23,46zm188 -13l0 0c-9,18 -19,34 -26,53 28,1 55,1 83,0 0,-2 1,-4 2,-6 -14,-26 -28,-53 -41,-80 -7,10 -12,22 -18,33zm-76 -31l0 0c-5,19 -19,35 -24,53 -1,1 -3,3 -4,4l1 3c-6,4 -7,12 -11,18 0,1 0,4 0,6 27,1 54,1 81,0l2 0c-8,-23 -21,-43 -31,-64 -4,-7 -6,-17 -14,-20zm-129 87l0 0c10,23 23,44 32,67l1 1c3,6 6,11 9,17 10,-21 21,-41 31,-62 2,-4 4,-8 6,-12 2,-4 4,-7 5,-10 -28,-1 -56,0 -84,-1zm90 1l0 0c12,27 29,52 38,80 2,0 6,0 7,0 11,-28 27,-53 40,-80 -28,-2 -57,-2 -85,0zm91 0l0 0c7,17 16,33 25,50 6,12 11,24 19,34 1,-6 4,-12 7,-18 10,-22 22,-43 32,-65 -27,-3 -55,-2 -83,-1zm-204 35l0 0c-8,18 -17,35 -26,52 29,-1 58,1 87,-1 -11,-30 -27,-58 -42,-86 -8,11 -13,23 -19,35zm101 -18l0 0c-10,24 -23,46 -34,69 28,2 57,1 85,0 -3,-7 -6,-14 -9,-22 -10,-20 -22,-40 -31,-61 -4,4 -8,9 -11,14zm57 69l0 0c28,1 57,2 86,0 -14,-29 -30,-56 -43,-86 -15,29 -30,57 -43,86zm96 -13l0 0c-2,5 -4,9 -5,14 29,0 57,0 86,0 -15,-29 -29,-58 -44,-86 -13,24 -25,48 -37,72z"/>
    </g>
   </g>
   <g>
    <path class="fil2" d="M331 298c15,-30 30,-60 45,-90 16,30 30,61 46,91 -30,-1 -61,-1 -91,-1z"/>
   </g>
   <g>
    <path class="fil3" d="M332 301c31,0 61,-1 92,1 -1,0 -4,2 -5,3 -29,-1 -58,-1 -87,-1l0 -3z"/>
   </g>
   <g>
    <path class="fil4" d="M346 450c1,-1 3,-3 4,-4 -1,2 -2,5 -3,7l-1 -3z"/>
   </g>
   <g>
    <path class="fil5" d="M243 477c27,-8 56,-1 83,-6 1,2 2,5 3,7 -29,-1 -57,1 -86,-1z"/>
   </g>
   <g>
    <path class="fil6" d="M336 477c27,-7 55,-6 81,0 -27,1 -54,1 -81,0z"/>
   </g>
   <g>
    <path class="fil7" d="M424 477c27,-6 56,-7 83,0 -28,1 -55,1 -83,0z"/>
   </g>
  </g>
 </g>
</svg>
