<?xml version="1.0" encoding="UTF-8"?>
<!DOCTYPE svg PUBLIC "-//W3C//DTD SVG 1.1//EN" "http://www.w3.org/Graphics/SVG/1.1/DTD/svg11.dtd">
<!-- Creator: CorelDRAW Home & Student X7 -->
<svg xmlns="http://www.w3.org/2000/svg" xml:space="preserve" width="29.0762mm" height="29.0762mm" version="1.1" style="shape-rendering:geometricPrecision; text-rendering:geometricPrecision; image-rendering:optimizeQuality; fill-rule:evenodd; clip-rule:evenodd"
viewBox="0 0 2908 2908"
 xmlns:xlink="http://www.w3.org/1999/xlink">
 <defs>
  <style type="text/css">
   <![CDATA[
    .str0 {stroke:#4B4B4D;stroke-width:7.62005}
    .str1 {stroke:#373435;stroke-width:7.62005}
    .fil11 {fill:#0D0D0D;fill-rule:nonzero}
    .fil7 {fill:#111111;fill-rule:nonzero}
    .fil10 {fill:#131313;fill-rule:nonzero}
    .fil2 {fill:#16615D;fill-rule:nonzero}
    .fil9 {fill:#1C1C1C;fill-rule:nonzero}
    .fil6 {fill:#222322;fill-rule:nonzero}
    .fil5 {fill:#272727;fill-rule:nonzero}
    .fil8 {fill:#27534F;fill-rule:nonzero}
    .fil1 {fill:#2F2F2F;fill-rule:nonzero}
    .fil0 {fill:#383838;fill-rule:nonzero}
    .fil4 {fill:#C5C5C5;fill-rule:nonzero}
    .fil3 {fill:white;fill-rule:nonzero}
   ]]>
  </style>
 </defs>
 <g id="__x0023_Layer_x0020_1">
  <metadata id="CorelCorpID_0Corel-Layer"/>
  <g id="_676677200">
   <g>
    <path class="fil0 str0" d="M4 4l2900 0 0 1142c-19,-96 -8,-194 -13,-290 3,-129 0,-258 -2,-387 -365,-5 -729,-1 -1094,-1 -537,-2 -1074,0 -1611,-1 -24,0 -47,2 -71,3 -5,16 -9,33 -14,49 -4,-18 -7,-35 -11,-52 -10,16 -20,33 -30,49 -11,-59 -14,-119 -21,-178 -43,184 0,377 -33,563l0 -897z"/>
   </g>
   <g>
    <path class="fil1" d="M4 901c33,-186 -10,-379 33,-563 7,59 10,119 21,178 10,-16 20,-33 30,-49 4,17 7,34 11,52 5,-16 9,-33 14,-49 24,-1 47,-3 71,-3 537,1 1074,-1 1611,1 365,0 729,-4 1094,1 2,129 5,258 2,387 -181,1 -361,-1 -541,1 -25,0 -50,0 -73,-7 -15,-21 -8,-48 -9,-71 -22,31 -41,66 -45,104 -13,-24 -27,-48 -51,-62 -12,-57 -21,-115 -35,-172 0,-3 -1,-8 -1,-11 -120,-11 -249,-6 -356,57 -71,-27 -139,-66 -217,-69 -166,-18 -338,0 -489,73 -87,46 -164,106 -240,167 -29,15 -61,29 -74,61 -29,60 -75,108 -121,155 -11,-29 -18,-59 -21,-90 -90,43 -193,-5 -287,23 -33,12 -69,34 -104,14 -37,-20 -77,-26 -118,-18 -1,45 -1,92 -13,136 -25,-43 -14,-94 -19,-141 -4,3 -12,8 -16,11 -7,41 -4,83 -10,124 -9,-45 -5,-91 -17,-135 -12,108 -19,217 -18,325 0,124 -7,248 -3,371 0,77 6,154 -9,230l0 -1031z"/>
   </g>
   <g>
    <path class="fil2" d="M1074 699c151,-73 323,-91 489,-73 78,3 146,42 217,69 -106,61 -175,166 -230,273 -211,378 -420,758 -634,1136 -90,-65 -159,-154 -213,-250 -42,-92 -82,-188 -91,-290 -16,-99 -4,-199 12,-297 31,-150 117,-281 210,-401 76,-61 153,-121 240,-167z"/>
    <path class="fil2" d="M1839 1215c11,10 27,19 30,35 17,61 23,125 37,186 10,40 8,87 41,117 34,162 58,326 91,489 -100,92 -217,169 -347,211 -158,45 -329,50 -487,4 -75,-25 -152,-50 -213,-101 24,-7 48,-13 71,-20 57,-10 114,-19 166,-45 105,-49 182,-142 236,-241 78,-149 163,-293 243,-441 73,-36 108,-120 132,-194z"/>
   </g>
   <g>
    <path class="fil3" d="M1780 695c107,-63 236,-68 356,-57 0,3 1,8 1,11 -50,63 -81,138 -121,207 -53,89 -100,181 -152,270 -49,96 -106,188 -157,283 -80,148 -165,292 -243,441 -54,99 -131,192 -236,241 -52,26 -109,35 -166,45 -55,4 -109,1 -164,-3 6,-10 12,-20 18,-29 214,-378 423,-758 634,-1136 55,-107 124,-212 230,-273z"/>
   </g>
   <g>
    <path class="fil4" d="M2016 856c40,-69 71,-144 121,-207 14,57 23,115 35,172 8,44 15,89 26,133 8,39 15,78 22,118 23,150 52,299 80,448 14,112 -3,231 -63,328 -39,61 -93,111 -150,155 -16,13 -33,26 -49,39 -33,-163 -57,-327 -91,-489 -27,-142 -47,-286 -83,-427 52,-89 99,-181 152,-270z"/>
   </g>
   <g>
    <path class="fil5 str0" d="M2223 883c4,-38 23,-73 45,-104 1,23 -6,50 9,71 23,7 48,7 73,7 180,-2 360,0 541,-1 5,96 -6,194 13,290l0 811c-6,-32 -12,-64 -12,-97 -1,-111 -2,-223 -4,-334 -48,-12 -93,9 -138,23 -88,7 -177,-4 -265,3 -5,16 -9,32 -14,48 -39,5 -79,3 -112,-20 -5,10 -10,19 -16,29 -11,-31 -26,-61 -43,-89 -28,-149 -57,-298 -80,-448 21,-39 11,-89 -22,-118 -11,-44 -18,-89 -26,-133 24,14 38,38 51,62z"/>
   </g>
   <g>
    <path class="fil6" d="M760 927c13,-32 45,-46 74,-61 -93,120 -179,251 -210,401 -16,98 -28,198 -12,297 9,102 49,198 91,290 -7,-1 -21,-2 -28,-2 7,21 14,43 20,65 -31,-23 -48,-59 -65,-92 -174,-2 -347,-4 -521,0 -7,34 -14,68 -21,102 -5,-36 -10,-73 -13,-109 -24,20 -20,54 -28,82 -8,-67 -7,-135 -7,-202 -7,1 -20,3 -27,4 -4,-123 3,-247 3,-371 -1,-108 6,-217 18,-325 12,44 8,90 17,135 6,-41 3,-83 10,-124 4,-3 12,-8 16,-11 5,47 -6,98 19,141 12,-44 12,-91 13,-136 41,-8 81,-2 118,18 35,20 71,-2 104,-14 94,-28 197,20 287,-23 3,31 10,61 21,90 46,-47 92,-95 121,-155z"/>
   </g>
   <g>
    <path class="fil7" d="M2198 954c33,29 43,79 22,118 -7,-40 -14,-79 -22,-118z"/>
   </g>
   <g>
    <path class="fil8" d="M1707 1409c51,-95 108,-187 157,-283 36,141 56,285 83,427 -33,-30 -31,-77 -41,-117 -14,-61 -20,-125 -37,-186 -3,-16 -19,-25 -30,-35 -24,74 -59,158 -132,194z"/>
   </g>
   <g>
    <path class="fil9 str0" d="M2300 1520c17,28 32,58 43,89 6,-10 11,-19 16,-29 33,23 73,25 112,20 5,-16 9,-32 14,-48 88,-7 177,4 265,-3 45,-14 90,-35 138,-23 2,111 3,223 4,334 0,33 6,65 12,97l0 684c-4,-16 -8,-31 -12,-47 1,-175 0,-351 -4,-526 -188,-7 -377,9 -564,-13 -72,8 -145,13 -217,7 5,-9 11,-19 16,-29 -12,-10 -24,-20 -36,-30 57,-44 111,-94 150,-155 60,-97 77,-216 63,-328z"/>
   </g>
   <g>
    <path class="fil10" d="M13 1702c7,-1 20,-3 27,-4 0,67 -1,135 7,202 8,-28 4,-62 28,-82 3,36 8,73 13,109 7,-34 14,-68 21,-102 174,-4 347,-2 521,0 17,33 34,69 65,92 -6,-22 -13,-44 -20,-65 7,0 21,1 28,2 54,96 123,185 213,250 -6,9 -12,19 -18,29 55,4 109,7 164,3 -23,7 -47,13 -71,20 61,51 138,76 213,101 158,46 329,41 487,-4 130,-42 247,-119 347,-211 16,-13 33,-26 49,-39 12,10 24,20 36,30 -5,10 -11,20 -16,29 72,6 145,1 217,-7 187,22 376,6 564,13 4,175 5,351 4,526 -82,0 -164,2 -246,-11 -81,-12 -163,8 -245,11 -399,-1 -799,-1 -1199,0 -68,-8 -137,-18 -205,-2 -159,5 -318,-1 -477,2 -71,3 -142,-22 -212,-6 -65,14 -132,-3 -196,10 -12,24 -20,50 -29,75 -5,-68 8,-138 -14,-204 -25,56 -8,119 -20,178 -9,-69 -2,-140 -12,-209 -35,72 -5,155 -33,230l0 -736c15,-76 9,-153 9,-230z"/>
   </g>
   <g>
    <path class="fil11 str1" d="M4 2668c28,-75 -2,-158 33,-230 10,69 3,140 12,209 12,-59 -5,-122 20,-178 22,66 9,136 14,204 9,-25 17,-51 29,-75 64,-13 131,4 196,-10 70,-16 141,9 212,6 159,-3 318,3 477,-2 68,-16 137,-6 205,2 400,-1 800,-1 1199,0 82,-3 164,-23 245,-11 82,13 164,11 246,11 4,16 8,31 12,47l0 263 -2900 0 0 -236z"/>
   </g>
  </g>
 </g>
</svg>
