<?xml version="1.0" encoding="UTF-8"?>
<!DOCTYPE svg PUBLIC "-//W3C//DTD SVG 1.1//EN" "http://www.w3.org/Graphics/SVG/1.1/DTD/svg11.dtd">
<!-- Creator: CorelDRAW Home & Student X7 -->
<svg xmlns="http://www.w3.org/2000/svg" xml:space="preserve" width="30.02mm" height="30.02mm" version="1.1" style="shape-rendering:geometricPrecision; text-rendering:geometricPrecision; image-rendering:optimizeQuality; fill-rule:evenodd; clip-rule:evenodd"
viewBox="0 0 1670 1670"
 xmlns:xlink="http://www.w3.org/1999/xlink">
 <defs>
  <style type="text/css">
   <![CDATA[
    .str0 {stroke:#FEFEFE;stroke-width:1.1067}
    .fil0 {fill:#FEFEFE}
    .fil4 {fill:#0061A0;fill-rule:nonzero}
    .fil2 {fill:#00805B;fill-rule:nonzero}
    .fil3 {fill:#F4D700;fill-rule:nonzero}
    .fil1 {fill:white;fill-rule:nonzero}
   ]]>
  </style>
 </defs>
 <g id="Camada_x0020_1">
  <metadata id="CorelCorpID_0Corel-Layer"/>
  <g id="_634340744">
   <rect class="fil0 str0" x="1" y="1" width="1668" height="1668" rx="71" ry="96"/>
   <g>
    <g>
     <g>
      <path class="fil1" d="M28 571l1537 0 0 540 -1537 0 0 -540zm313 20l0 0c23,154 45,309 67,463 3,13 2,27 12,36 14,14 37,12 53,2 16,-9 22,-28 31,-43 83,-152 165,-305 249,-458 -19,0 -38,0 -57,0 -12,0 -24,0 -36,0 -69,0 -137,0 -206,0 -1,11 -2,22 0,33 -3,-11 -1,-22 0,-33 -9,0 -18,0 -28,0 -28,0 -57,0 -85,0zm619 58l0 0c-75,7 -140,77 -137,153 1,34 29,58 56,73 23,12 48,20 66,39 15,15 8,41 -7,54 -16,12 -37,15 -56,12 -25,-4 -44,-23 -52,-46 -18,9 -36,20 -54,29 11,32 36,60 70,68 48,12 103,6 145,-22 36,-24 60,-66 64,-109 1,-20 -5,-39 -19,-53 -28,-31 -73,-38 -105,-66 -20,-16 -15,-49 3,-65 16,-13 39,-14 58,-10 21,6 37,25 45,45 15,-11 31,-20 45,-31 -9,-21 -22,-43 -43,-55 -23,-15 -52,-18 -79,-16zm-725 30l0 0c-64,117 -128,234 -191,351 19,0 38,0 57,0 19,-38 40,-75 59,-113 21,-1 43,-1 64,-1 5,-13 8,-27 12,-41 -18,0 -36,0 -54,0 22,-41 43,-82 65,-122 12,92 24,185 36,277 29,0 57,0 86,0 -17,-113 -34,-225 -51,-338 -2,-11 -1,-26 -12,-34 -23,-18 -60,-6 -71,21zm1200 -24l0 0c-14,6 -22,20 -28,33 -62,114 -124,228 -186,342 20,0 39,0 58,-1 19,-38 39,-75 59,-113 22,0 43,0 64,0 4,-13 8,-27 12,-41 -18,0 -36,0 -55,0 23,-40 42,-83 66,-122 10,93 25,184 35,277 29,0 58,0 86,0 -17,-115 -35,-231 -51,-346 -2,-8 -2,-16 -8,-22 -13,-15 -36,-15 -52,-7zm-702 1l0 0c-24,125 -49,250 -73,374 28,0 56,0 84,0 25,-124 49,-249 74,-374 -28,0 -57,0 -85,0zm371 0l0 0c-4,21 -8,43 -12,65 27,0 54,-1 82,1 -21,102 -41,206 -61,308 29,0 58,0 87,0 21,-103 40,-206 61,-309 28,0 57,0 85,0 5,-22 9,-43 13,-65 -85,0 -170,0 -255,0z"/>
     </g>
    </g>
    <g>
     <path class="fil2" d="M361 558c30,0 60,0 90,0 18,139 37,277 55,415 1,6 2,12 3,17 76,-144 153,-288 229,-432 20,0 40,0 60,0 -88,163 -176,325 -265,488 -9,16 -15,35 -32,45 -17,10 -42,12 -57,-2 -10,-10 -10,-25 -12,-38 -24,-164 -47,-329 -71,-493z"/>
     <path class="fil2" d="M1019 620c28,-2 59,1 84,17 22,13 35,36 45,59 -15,11 -32,21 -47,32 -10,-21 -26,-41 -49,-47 -20,-5 -44,-4 -61,10 -19,17 -25,52 -3,70 33,29 81,36 111,69 15,15 22,36 20,56 -4,47 -30,91 -68,116 -45,30 -102,36 -154,24 -35,-9 -63,-38 -74,-73 19,-9 38,-21 57,-30 8,24 29,45 55,49 20,3 43,0 59,-13 17,-13 25,-41 9,-58 -20,-19 -47,-28 -70,-41 -30,-16 -59,-41 -60,-77 -3,-81 66,-156 146,-163z"/>
     <path class="fil2" d="M248 652c11,-28 51,-42 76,-22 11,9 10,24 12,36 18,120 36,239 54,359 -30,0 -60,0 -91,0 -13,-98 -25,-197 -38,-295 -24,43 -47,87 -69,131 19,0 38,0 57,0 -4,14 -8,29 -12,43 -23,0 -46,0 -69,0 -20,41 -42,81 -63,121 -20,0 -40,0 -60,0 67,-124 135,-249 203,-373z"/>
     <path class="fil2" d="M1523 626c17,-8 42,-9 55,8 6,6 7,15 8,23 18,123 37,245 55,368 -30,0 -61,0 -91,0 -11,-99 -27,-196 -38,-294 -25,41 -46,87 -69,130 19,0 38,0 57,0 -4,14 -8,29 -12,43 -23,0 -45,0 -68,0 -21,40 -42,80 -63,120 -20,1 -41,1 -61,1 66,-121 131,-242 197,-363 7,-14 15,-29 30,-36z"/>
     <path class="fil2" d="M777 628c30,-1 60,0 90,-1 -26,133 -51,266 -78,398 -30,0 -59,0 -89,0 25,-132 52,-265 77,-397z"/>
     <path class="fil2" d="M1172 627c90,0 180,0 270,0 -4,23 -8,47 -13,70 -30,0 -61,0 -91,0 -22,109 -43,219 -65,328 -30,0 -61,0 -92,0 21,-109 42,-219 64,-328 -29,-1 -58,0 -87,0 5,-23 9,-47 14,-70z"/>
    </g>
    <g>
     <path class="fil3" d="M451 558c10,0 20,0 30,0 -2,12 -3,24 -1,35 5,41 40,74 80,78 67,9 133,-46 139,-113 13,0 26,0 39,0 -76,144 -153,288 -229,432 -1,-5 -2,-11 -3,-17 -18,-138 -37,-276 -55,-415z"/>
    </g>
    <g>
     <path class="fil4" d="M481 558c73,0 146,0 218,0 -6,67 -72,122 -139,113 -40,-4 -75,-37 -80,-78 -1,-11 0,-23 1,-35z"/>
    </g>
   </g>
  </g>
 </g>
</svg>
