<?xml version="1.0" encoding="UTF-8"?>
<!DOCTYPE svg PUBLIC "-//W3C//DTD SVG 1.1//EN" "http://www.w3.org/Graphics/SVG/1.1/DTD/svg11.dtd">
<!-- Creator: CorelDRAW Home & Student X7 -->
<svg xmlns="http://www.w3.org/2000/svg" xml:space="preserve" width="29.001mm" height="29.001mm" version="1.1" style="shape-rendering:geometricPrecision; text-rendering:geometricPrecision; image-rendering:optimizeQuality; fill-rule:evenodd; clip-rule:evenodd"
viewBox="0 0 744 744"
 xmlns:xlink="http://www.w3.org/1999/xlink">
 <defs>
  <style type="text/css">
   <![CDATA[
    .str0 {stroke:#A21407;stroke-width:0.0256644}
    .fil0 {fill:#A21407}
    .fil1 {fill:#FEFEFE}
    .fil2 {fill:white}
   ]]>
  </style>
 </defs>
 <g id="__x0023_Layer_x0020_1">
  <metadata id="CorelCorpID_0Corel-Layer"/>
  <g id="_646406736">
   <polygon class="fil0 str0" points="0,0 744,0 744,744 0,744 "/>
   <path class="fil1" d="M283 257c0,0 -1,0 -2,0 -2,1 -1,1 -2,1 -1,1 0,0 -1,1 3,0 1,0 4,-1 1,0 2,0 3,0 4,0 2,-1 4,-1l36 0c3,0 14,1 16,-1 1,-1 0,-26 0,-27 0,-25 0,-55 0,-79 0,-1 0,-1 0,-1 0,0 0,0 0,-1l62 0 0 109c5,0 47,-1 50,0 3,1 6,2 9,1 -1,-1 0,-1 -3,-1 -1,-1 -2,-1 -3,-1 -3,0 -4,-1 -7,-1 -9,0 -39,1 -43,0 -2,0 -2,-2 -2,-5 1,-28 0,-59 0,-87 0,-11 -1,-13 4,-12 1,0 3,0 4,0 4,1 -1,1 6,2 9,1 28,8 37,11 3,1 14,6 17,8 1,1 3,1 5,2 5,2 15,9 20,12 12,9 24,18 34,29 7,8 26,28 29,36 1,1 3,6 5,7 1,3 3,6 4,9 5,8 12,25 15,34 6,19 6,23 10,41l1 11c0,4 1,7 1,11l-3 42c0,2 0,3 -1,4 0,3 -2,11 -3,14l-7 24c-1,2 -1,3 -2,6 -1,1 -1,4 -2,6l-10 20c-2,3 -11,19 -13,20 -1,3 -11,14 -13,17 -2,3 -5,5 -7,8 -6,7 -18,17 -24,22 -8,7 -18,13 -27,19 -16,9 -36,17 -54,22 -2,0 -4,1 -6,2 -2,0 -17,3 -19,3l0 -104c9,-2 34,0 46,-1 2,0 5,0 7,-1 4,0 4,0 5,-2l-58 1c-7,1 -3,1 -11,1l-46 0c-11,0 -7,-1 -12,-1l-46 0c-7,0 -5,-3 -10,-1l0 0c1,1 1,1 1,1l2 0c1,1 1,1 3,1l6 1c4,1 12,0 16,0 34,0 31,-2 31,7l0 72c0,7 1,19 0,26 -4,0 -19,-3 -23,-4 -12,-3 -31,-10 -40,-15 -28,-14 -43,-25 -64,-46l-10 -11c-2,-1 -2,-2 -2,-3 -3,-2 -6,-6 -8,-9 -2,-3 -4,-6 -6,-9 -7,-10 -9,-15 -14,-25 -2,-2 -2,-3 -3,-5 -2,-3 -4,-7 -5,-11 -1,-4 -7,-19 -7,-23 -1,0 0,1 -1,0 0,-1 0,-1 0,-1 0,0 0,0 0,0 -2,-5 -6,-28 -6,-32 0,-6 -2,-12 -2,-18 0,-18 1,-37 5,-55 2,-5 5,-26 9,-30 0,-3 1,-7 3,-9l14 -29c1,-2 3,-4 4,-6 1,-3 8,-12 9,-13 1,-3 4,-6 6,-9l7 -7c4,-5 10,-11 15,-15 5,-5 10,-9 15,-14 4,-2 14,-10 18,-12l39 -19c11,-5 37,-12 47,-12l-1 104c-12,1 -28,0 -42,0 -5,0 -8,1 -13,2zm-111 -90c0,2 -6,7 -7,9 -3,2 -5,5 -8,8 -14,16 -28,36 -38,55 -14,27 -25,59 -30,94 -2,13 -3,23 -3,37 0,7 1,13 1,19 0,7 1,13 1,19l3 16c1,5 2,10 3,15 2,10 8,24 9,30l1 1c1,2 1,5 4,10 0,1 0,1 1,2l1 3c0,0 0,0 0,0 1,1 1,2 1,3 0,0 1,3 2,4 4,11 20,38 27,47 3,4 7,9 10,12 3,4 6,8 10,12 2,2 9,10 11,11 0,1 1,2 2,3 1,0 1,0 2,1 1,1 0,0 1,2 0,0 0,-1 1,0l19 17c2,2 4,3 6,4l12 8c1,1 4,3 6,4l25 15c2,1 4,1 6,3 7,3 29,12 35,13 17,5 32,9 49,11 2,0 3,0 4,0 16,4 55,1 70,0 11,-2 24,-4 33,-6 3,-1 5,-2 8,-2l22 -8c7,-3 23,-9 27,-12l37 -22c5,-3 8,-5 11,-8l11 -9c2,-1 4,-3 5,-5 1,-1 2,-1 3,-2l22 -23c3,-4 10,-11 13,-16 1,-1 3,-5 4,-5l9 -14c8,-12 21,-41 22,-42 0,-3 2,-5 3,-8 3,-9 6,-18 8,-27l8 -38c0,-6 1,-12 2,-18 0,-7 1,-33 -1,-38 0,0 -2,-25 -3,-31 -1,-2 -1,-2 -1,-3 -1,-4 -1,-6 -2,-9l-3 -11c0,-2 0,-3 -1,-5 -2,-8 -4,-14 -7,-21 -1,-6 -9,-22 -12,-28 -1,-3 -4,-7 -4,-9 -2,-2 -8,-13 -10,-15 -5,-9 -9,-14 -14,-21l-16 -19c-8,-10 -26,-26 -36,-34l-13 -10c-4,-1 -7,-4 -10,-6 -13,-7 -16,-10 -30,-16l-14 -6c-6,-3 -12,-5 -19,-7 -4,-1 -7,-3 -11,-4 -7,-1 -17,-4 -25,-6l-14 -2c-9,-2 -47,-2 -59,-2 -9,1 -8,1 -14,2 -5,0 -6,1 -13,1 -5,1 -10,2 -14,3l-35 10c-6,2 -5,1 -11,4 -11,5 -21,9 -31,15 -10,6 -19,11 -28,18 -10,7 -14,9 -22,18l-12 9z"/>
   <path class="fil2" d="M300 318c3,-1 1,-1 6,-1l123 0c7,0 17,-2 17,7 0,2 0,5 0,8l0 82c0,5 1,10 -4,12 -1,2 -2,1 -6,1l-122 0c-16,0 -18,1 -18,-14l0 -81c0,-6 -1,-11 4,-14zm-22 -59c-3,0 -9,3 -11,5l-6 3c-1,1 -2,2 -5,3 0,1 -4,5 -5,7l-8 11c-1,2 -1,3 -2,4 -2,3 -3,6 -4,9 -3,13 -2,33 -2,48l1 76c0,8 -1,8 1,15l2 7c0,2 5,11 6,13 8,12 15,17 27,23 2,1 5,2 8,2 5,-2 3,1 10,1l46 0c5,0 1,1 12,1l46 0c8,0 4,0 11,-1l58 -1c4,1 13,-4 15,-6 12,-7 20,-16 25,-29 1,-2 2,-7 3,-8 0,-3 1,-3 1,-6 2,-11 1,-7 1,-19 0,-14 1,-102 0,-106 -3,-14 -6,-25 -17,-36 -1,-2 -2,-2 -3,-4 -1,0 -2,-1 -2,-1 0,0 -1,0 -1,-1 0,0 -1,0 -1,-1 -1,-1 -6,-4 -8,-5 -3,-1 -11,-6 -14,-5 -3,1 -6,0 -9,-1 -3,-1 -45,0 -50,0l0 -109 -62 0c0,1 0,1 0,1 0,0 0,0 0,1 0,24 0,54 0,79 0,1 1,26 0,27 -2,2 -13,1 -16,1l-36 0c-2,0 0,1 -4,1 -1,0 -2,0 -3,0 -3,1 -1,1 -4,1z"/>
  </g>
 </g>
</svg>
