<?xml version="1.0" encoding="UTF-8"?>
<!DOCTYPE svg PUBLIC "-//W3C//DTD SVG 1.1//EN" "http://www.w3.org/Graphics/SVG/1.1/DTD/svg11.dtd">
<!-- Creator: CorelDRAW Home & Student X7 -->
<svg xmlns="http://www.w3.org/2000/svg" xml:space="preserve" width="29mm" height="29mm" version="1.1" style="shape-rendering:geometricPrecision; text-rendering:geometricPrecision; image-rendering:optimizeQuality; fill-rule:evenodd; clip-rule:evenodd"
viewBox="0 0 1529 1529"
 xmlns:xlink="http://www.w3.org/1999/xlink">
 <defs>
  <style type="text/css">
   <![CDATA[
    .fil0 {fill:#AE131E;fill-rule:nonzero}
    .fil1 {fill:white;fill-rule:nonzero}
   ]]>
  </style>
 </defs>
 <g id="__x0023_Layer_x0020_1">
  <metadata id="CorelCorpID_0Corel-Layer"/>
  <g id="_451829792">
   <g>
    <g>
     <path class="fil0" d="M0 0l1529 0 0 1529 -1529 0 0 -1529zm295 402l0 0c22,173 55,347 50,522 1,45 -6,91 -20,134 -18,-1 -36,-1 -54,-2 -14,30 -39,54 -66,72 0,11 0,22 0,32 81,1 162,0 244,0 73,5 139,-38 190,-87 75,-78 113,-190 107,-298 0,-87 -53,-172 -135,-204 1,-5 1,-15 1,-20 48,-32 92,-73 121,-123 20,-35 30,-77 18,-115 -12,-45 -51,-78 -94,-94 -46,-21 -97,-14 -145,-13 -86,48 -160,116 -217,196zm730 -16l0 0c-87,47 -169,113 -210,205 -28,59 -36,126 -25,191 11,83 63,162 142,196 -54,39 -105,85 -135,145 -19,37 -25,82 -6,120 17,34 47,61 79,79 29,5 59,1 88,3 51,3 100,-16 146,-36 67,-28 118,-84 152,-147 -22,-152 -49,-303 -58,-456 0,-62 -4,-130 30,-185 7,-15 25,-14 39,-16 20,-19 39,-38 58,-57 0,-16 0,-31 0,-46 -100,2 -201,-1 -300,4z"/>
    </g>
    <path class="fil0" d="M418 331c35,-20 77,-30 116,-20 64,14 115,78 110,145 0,42 -26,79 -59,105 -12,0 -24,1 -36,1 -29,31 -58,60 -87,90 -7,6 -4,15 -5,23 34,-2 70,-1 100,19 50,30 74,91 79,148 4,61 -4,126 -37,178 -14,21 -35,43 -62,42 -66,1 -132,1 -197,0 6,-28 42,-26 60,-44 58,-43 65,-122 65,-189 -3,-59 -9,-118 -22,-176 -21,-83 -41,-167 -41,-253 4,-23 1,-51 16,-69z"/>
    <path class="fil0" d="M933 525c13,-20 33,-41 59,-41 65,0 131,1 196,0 -28,39 -81,60 -90,110 -20,80 -16,163 -2,243 5,12 -7,21 -14,29 -32,0 -67,8 -96,-10 -48,-26 -70,-82 -80,-133 -10,-66 -7,-138 27,-198z"/>
    <path class="fil0" d="M1012 963c42,-23 76,-60 88,-106 11,91 43,179 47,271 0,33 -3,69 -27,93 -25,20 -58,25 -88,19 -52,-8 -103,-38 -126,-86 -25,-52 -10,-117 28,-159 21,-21 53,-19 78,-32z"/>
   </g>
   <g>
    <g>
     <path class="fil1" d="M295 402c57,-80 131,-148 217,-196 48,-1 99,-8 145,13 43,16 82,49 94,94 12,38 2,80 -18,115 -29,50 -73,91 -121,123 0,5 0,15 -1,20 82,32 135,117 135,204 6,108 -32,220 -107,298 -51,49 -117,92 -190,87 -82,0 -163,1 -244,0 0,-10 0,-21 0,-32 27,-18 52,-42 66,-72 18,1 36,1 54,2 14,-43 21,-89 20,-134 5,-175 -28,-349 -50,-522zm123 -71l0 0c-15,18 -12,46 -16,69 0,86 20,170 41,253 13,58 19,117 22,176 0,67 -7,146 -65,189 -18,18 -54,16 -60,44 65,1 131,1 197,0 27,1 48,-21 62,-42 33,-52 41,-117 37,-178 -5,-57 -29,-118 -79,-148 -30,-20 -66,-21 -100,-19 1,-8 -2,-17 5,-23 29,-30 58,-59 87,-90 12,0 24,-1 36,-1 33,-26 59,-63 59,-105 5,-67 -46,-131 -110,-145 -39,-10 -81,0 -116,20z"/>
    </g>
    <g>
     <path class="fil1" d="M1025 386c99,-5 200,-2 300,-4 0,15 0,30 0,46 -19,19 -38,38 -58,57 -14,2 -32,1 -39,16 -34,55 -30,123 -30,185 9,153 36,304 58,456 -34,63 -85,119 -152,147 -46,20 -95,39 -146,36 -29,-2 -59,2 -88,-3 -32,-18 -62,-45 -79,-79 -19,-38 -13,-83 6,-120 30,-60 81,-106 135,-145 -79,-34 -131,-113 -142,-196 -11,-65 -3,-132 25,-191 41,-92 123,-158 210,-205zm-92 139l0 0c-34,60 -37,132 -27,198 10,51 32,107 80,133 29,18 64,10 96,10 7,-8 19,-17 14,-29 -14,-80 -18,-163 2,-243 9,-50 62,-71 90,-110 -65,1 -131,0 -196,0 -26,0 -46,21 -59,41zm79 438l0 0c-25,13 -57,11 -78,32 -38,42 -53,107 -28,159 23,48 74,78 126,86 30,6 63,1 88,-19 24,-24 27,-60 27,-93 -4,-92 -36,-180 -47,-271 -12,46 -46,83 -88,106z"/>
    </g>
   </g>
  </g>
 </g>
</svg>
