<?xml version="1.0" encoding="UTF-8"?>
<!DOCTYPE svg PUBLIC "-//W3C//DTD SVG 1.1//EN" "http://www.w3.org/Graphics/SVG/1.1/DTD/svg11.dtd">
<!-- Creator: CorelDRAW Home & Student X7 -->
<svg xmlns="http://www.w3.org/2000/svg" xml:space="preserve" width="60.371mm" height="60.371mm" version="1.1" style="shape-rendering:geometricPrecision; text-rendering:geometricPrecision; image-rendering:optimizeQuality; fill-rule:evenodd; clip-rule:evenodd"
viewBox="0 0 7101 7101"
 xmlns:xlink="http://www.w3.org/1999/xlink">
 <defs>
  <style type="text/css">
   <![CDATA[
    .str0 {stroke:#FF7A00;stroke-width:0.11762}
    .fil0 {fill:#FF7A00}
   ]]>
  </style>
 </defs>
 <g id="__x0023_Layer_x0020_1">
  <metadata id="CorelCorpID_0Corel-Layer"/>
  <path class="fil0 str0" d="M1411 0l4278 0c777,0 1412,635 1412,1411l0 4278c0,777 -635,1412 -1412,1412l-4278 0c-776,0 -1411,-635 -1411,-1412l0 -4278c0,-776 635,-1411 1411,-1411zm114 5367l0 153 4050 0 0 -3916 -734 0 -2 2058c-3,30 3,-3 -4,25 -7,30 0,14 -12,32 -58,48 -71,-59 -118,-186 -30,-82 -61,-160 -91,-241 -79,-214 -535,-1436 -564,-1470l-458 190c40,147 133,343 189,490l384 975c37,93 178,417 190,504l-55 39c-54,-62 -106,-132 -162,-198l-1150 -1409 -308 240c-17,17 -9,6 -21,24 38,66 118,155 164,214l1157 1478c-15,23 -25,34 -41,56 -49,-14 -363,-258 -429,-308l-1047 -783c-63,-47 -154,-124 -216,-158 -71,67 -116,178 -177,262 47,53 138,111 201,158l1493 1119c-41,75 -24,56 -216,-25 -84,-35 -161,-66 -245,-102 -192,-82 -1406,-604 -1501,-625l-75 224 1917 836 -20 75 -2025 -434 -42 217c54,32 890,192 1025,220l896 185c8,2 69,14 70,15 54,26 32,-20 30,52 -32,20 -46,15 -110,15l-1943 -1z"/>
 </g>
</svg>
