<?xml version="1.0" encoding="UTF-8"?>
<!DOCTYPE svg PUBLIC "-//W3C//DTD SVG 1.1//EN" "http://www.w3.org/Graphics/SVG/1.1/DTD/svg11.dtd">
<!-- Creator: CorelDRAW Home & Student X7 -->
<svg xmlns="http://www.w3.org/2000/svg" xml:space="preserve" width="29.0762mm" height="29.0762mm" version="1.1" style="shape-rendering:geometricPrecision; text-rendering:geometricPrecision; image-rendering:optimizeQuality; fill-rule:evenodd; clip-rule:evenodd"
viewBox="0 0 609 609"
 xmlns:xlink="http://www.w3.org/1999/xlink">
 <defs>
  <style type="text/css">
   <![CDATA[
    .str1 {stroke:#861431;stroke-width:1.59483}
    .str0 {stroke:#B81C43;stroke-width:1.59483}
    .fil23 {fill:#661125;fill-rule:nonzero}
    .fil22 {fill:#6F122A;fill-rule:nonzero}
    .fil21 {fill:#7C132D;fill-rule:nonzero}
    .fil20 {fill:#80132E;fill-rule:nonzero}
    .fil18 {fill:#861431;fill-rule:nonzero}
    .fil19 {fill:#891533;fill-rule:nonzero}
    .fil17 {fill:#921636;fill-rule:nonzero}
    .fil16 {fill:#931636;fill-rule:nonzero}
    .fil15 {fill:#971738;fill-rule:nonzero}
    .fil13 {fill:#9A1738;fill-rule:nonzero}
    .fil14 {fill:#9B1739;fill-rule:nonzero}
    .fil11 {fill:#9C1739;fill-rule:nonzero}
    .fil10 {fill:#A0183A;fill-rule:nonzero}
    .fil9 {fill:#A1183A;fill-rule:nonzero}
    .fil7 {fill:#A3183B;fill-rule:nonzero}
    .fil5 {fill:#A7183C;fill-rule:nonzero}
    .fil8 {fill:#A81A3C;fill-rule:nonzero}
    .fil6 {fill:#A91A3C;fill-rule:nonzero}
    .fil3 {fill:#AC1A3E;fill-rule:nonzero}
    .fil2 {fill:#AD1A3E;fill-rule:nonzero}
    .fil0 {fill:#B81C43;fill-rule:nonzero}
    .fil12 {fill:#C2687E;fill-rule:nonzero}
    .fil1 {fill:#F68A1F;fill-rule:nonzero}
    .fil4 {fill:white;fill-rule:nonzero}
   ]]>
  </style>
 </defs>
 <g id="__x0023_Layer_x0020_1">
  <metadata id="CorelCorpID_0Corel-Layer"/>
  <g id="_670815496">
   <g>
    <path class="fil0 str0" d="M46 1l516 0c14,1 27,8 35,19 6,7 10,17 11,26l0 79c-37,0 -74,0 -111,0 -4,0 -9,-1 -13,1 -12,-14 -30,-22 -48,-22 -84,0 -168,0 -253,0 -21,0 -42,12 -52,31 -3,0 -6,0 -9,0 -41,0 -81,-1 -121,0l0 -89c1,-10 5,-20 11,-28 9,-10 21,-16 34,-17z"/>
   </g>
   <g>
    <path class="fil1" d="M131 135c10,-19 31,-31 52,-31 85,0 169,0 253,0 18,0 36,8 48,22 8,11 13,24 14,38 0,40 0,81 0,121 0,45 -1,89 0,133 -1,16 -7,32 -18,43 -12,11 -27,18 -43,18 -74,0 -149,0 -223,0 -1,-2 0,-4 0,-6 0,-9 -1,-18 0,-26 72,0 145,0 218,0 11,0 22,-6 28,-15 5,-8 6,-17 6,-26 0,-16 0,-33 0,-50 0,-40 0,-79 0,-119 0,-24 0,-47 -1,-70 0,-17 -15,-31 -31,-31 -82,0 -164,0 -246,0 -13,0 -26,8 -31,20 -4,9 -2,19 -3,28 0,18 0,35 0,53 0,22 0,45 0,67 0,3 2,8 -1,10 -11,10 -21,21 -30,32 -1,-14 -1,-28 -1,-42 0,-33 0,-65 0,-98 0,-13 0,-26 0,-39 0,-11 3,-22 9,-32z"/>
   </g>
   <g>
    <path class="fil2 str0" d="M484 126c4,-2 9,-1 13,-1 37,0 74,0 111,0l0 60c-35,0 -70,-1 -105,0 -1,0 -3,-1 -4,-1 -1,-6 1,-13 -1,-20 -1,-14 -6,-27 -14,-38z"/>
    <path class="fil2 str0" d="M157 156c5,-12 18,-20 31,-20 82,0 164,0 246,0 16,0 31,14 31,31 1,23 1,46 1,70 -8,0 -16,-1 -24,0 0,4 1,8 -1,12 0,-29 0,-58 0,-87 -36,4 -71,19 -96,45 -5,-2 -10,-1 -16,-1 -17,0 -34,0 -51,0 -2,0 -4,0 -6,1 -25,-26 -60,-41 -96,-45 0,8 0,15 0,23 -7,0 -14,0 -22,-1 1,-9 -1,-19 3,-28z"/>
   </g>
   <g>
    <path class="fil3" d="M1 135c40,-1 80,0 121,0 3,0 6,0 9,0 -6,10 -9,21 -9,32 0,13 0,26 0,39 -40,0 -81,0 -121,0l0 -71z"/>
   </g>
   <g>
    <path class="fil4" d="M176 162c36,4 71,19 96,45 21,22 33,52 36,82 0,1 0,3 0,4 -10,-12 -24,-22 -38,-28 -29,-14 -62,-18 -94,-16 0,-4 0,-8 0,-12 0,-18 0,-35 0,-52 0,-8 0,-15 0,-23z"/>
    <path class="fil4" d="M345 207c25,-26 60,-41 96,-45 0,29 0,58 0,87 -36,-2 -72,3 -104,21 -10,6 -20,14 -28,23l-1 0c1,-1 1,-3 1,-4 3,-30 15,-60 36,-82z"/>
    <path class="fil4" d="M240 305c19,-6 39,-9 59,-10 2,0 4,0 6,0 -22,8 -41,21 -58,36 -20,19 -35,41 -46,66 -10,24 -17,50 -20,76 -1,10 -1,20 -2,30 0,14 0,27 1,40 0,3 1,5 0,8 -30,0 -59,0 -89,0 -1,-8 -1,-17 0,-25 0,-11 1,-22 3,-32 1,-10 3,-21 6,-31 4,-19 11,-38 20,-56 17,-34 42,-63 74,-82 14,-8 30,-15 46,-20z"/>
    <path class="fil4" d="M309 295c2,0 4,0 5,0 13,1 25,4 37,8 28,10 51,30 66,55 9,15 16,31 20,49 2,6 3,13 4,19 -29,0 -58,0 -87,0 0,-10 0,-19 0,-29 -2,-23 -7,-46 -17,-67 -7,-14 -16,-26 -28,-35z"/>
   </g>
   <g>
    <path class="fil5 str0" d="M498 164c2,7 0,14 1,20 1,0 3,1 4,1 35,-1 70,0 105,0l0 100c-37,1 -74,0 -110,0 0,-40 0,-81 0,-121z"/>
   </g>
   <g>
    <path class="fil6" d="M154 184c8,1 15,1 22,1 0,17 0,34 0,52 -7,0 -14,0 -22,0 0,-18 0,-35 0,-53z"/>
   </g>
   <g>
    <path class="fil7 str0" d="M1 206c40,0 81,0 121,0 0,33 0,65 0,98 -40,0 -81,0 -121,0l0 -98z"/>
   </g>
   <g>
    <path class="fil8" d="M272 207c2,-1 4,-1 6,-1 17,0 34,0 51,0 6,0 11,-1 16,1 -21,22 -33,52 -36,82l-1 0c-3,-30 -15,-60 -36,-82z"/>
   </g>
   <g>
    <path class="fil9" d="M154 237c8,0 15,0 22,0 0,4 0,8 0,12 32,-2 65,2 94,16 14,6 28,16 38,28l0 0c-3,0 -6,1 -9,2 -20,1 -40,4 -59,10 -3,0 -5,-1 -7,-1 -26,0 -52,0 -79,0 0,-22 0,-45 0,-67z"/>
   </g>
   <g>
    <path class="fil10 str0" d="M442 237c8,-1 16,0 24,0 0,40 0,79 0,119 -14,0 -27,1 -41,0 -3,0 -5,1 -8,2 -15,-25 -38,-45 -66,-55 -12,-4 -24,-7 -37,-8 -2,-1 -3,-1 -5,-2 8,-9 18,-17 28,-23 32,-18 68,-23 104,-21 2,-4 1,-8 1,-12z"/>
   </g>
   <g>
    <path class="fil11 str0" d="M498 285c36,0 73,1 110,0l0 102c-30,0 -60,0 -90,0 -7,0 -13,0 -19,0 -1,11 1,21 -1,31 -1,-44 0,-88 0,-133z"/>
   </g>
   <g>
    <path class="fil12" d="M308 289l1 0c0,1 0,3 -1,4l1 0c2,1 3,1 5,2 -1,0 -3,0 -5,0 -1,-1 -2,0 -4,0 -2,0 -4,0 -6,0 3,-1 6,-2 9,-2l0 0c0,-1 0,-3 0,-4z"/>
   </g>
   <g>
    <path class="fil13" d="M305 295c2,0 3,-1 4,0 12,9 21,21 28,35 10,21 15,44 17,67 -51,0 -102,0 -153,0 11,-25 26,-47 46,-66 17,-15 36,-28 58,-36z"/>
   </g>
   <g>
    <path class="fil14" d="M1 304c40,0 81,0 121,0 0,14 0,28 1,42 9,-11 19,-22 30,-32 3,-2 1,-7 1,-10 27,0 53,0 79,0 2,0 4,1 7,1 -16,5 -32,12 -46,20 -32,19 -57,48 -74,82 -4,-1 -8,-1 -11,-1 -36,0 -72,0 -108,0l0 -102z"/>
   </g>
   <g>
    <path class="fil15" d="M417 358c3,-1 5,-2 8,-2 14,1 27,0 41,0 0,17 0,34 0,50 -10,0 -19,0 -29,1 -4,-18 -11,-34 -20,-49z"/>
   </g>
   <g>
    <path class="fil16" d="M499 387c6,0 12,0 19,0 30,0 60,0 90,0l0 74c-43,0 -86,0 -128,0 11,-11 17,-27 18,-43 2,-10 0,-20 1,-31z"/>
   </g>
   <g>
    <path class="fil17 str1" d="M201 397c51,0 102,0 153,0 0,10 0,19 0,29 29,0 58,0 87,0 -1,-6 -2,-13 -4,-19 10,-1 19,-1 29,-1 0,9 -1,18 -6,26 -6,9 -17,15 -28,15 -73,0 -146,0 -218,0 -1,8 0,17 0,26 -11,0 -22,-1 -33,0 3,-26 10,-52 20,-76z"/>
    <path class="fil17 str1" d="M1 406c36,0 72,0 108,0 3,0 7,0 11,1 -9,18 -16,37 -20,56 -33,0 -66,0 -99,0l0 -57z"/>
   </g>
   <g>
    <path class="fil18 str1" d="M437 479c16,0 31,-7 43,-18 42,0 85,0 128,0l0 42c-143,1 -286,0 -429,0 1,-10 1,-20 2,-30 11,-1 22,0 33,0 0,2 -1,4 0,6 74,0 149,0 223,0z"/>
   </g>
   <g>
    <path class="fil19" d="M1 463c33,0 66,0 99,0 -3,10 -5,21 -6,31 -31,0 -62,0 -93,0l0 -31z"/>
   </g>
   <g>
    <path class="fil20 str1" d="M1 494c31,0 62,0 93,0 -2,10 -3,21 -3,32 -1,1 -2,4 -4,4 -28,0 -57,0 -86,0l0 -36z"/>
   </g>
   <g>
    <path class="fil21 str1" d="M179 503c143,0 286,1 429,0l0 36c-134,0 -268,0 -402,0 -8,0 -16,0 -24,0 -1,1 -2,3 -2,4 -1,-13 -1,-26 -1,-40z"/>
   </g>
   <g>
    <path class="fil22" d="M87 530c2,0 3,-3 4,-4 -1,8 -1,17 0,25 30,0 59,0 89,0 1,-3 0,-5 0,-8 0,-1 1,-3 2,-4 8,0 16,0 24,0 134,0 268,0 402,0l0 23c-1,9 -4,18 -9,25 -5,-1 -9,-1 -14,-1 -187,0 -374,0 -562,0 -4,0 -9,0 -13,1 -6,-7 -8,-16 -9,-25l0 -32c29,0 58,0 86,0z"/>
   </g>
   <g>
    <path class="fil23 str1" d="M10 587c4,-1 9,-1 13,-1 188,0 375,0 562,0 5,0 9,0 14,1 -8,12 -22,20 -37,21l-516 0c-14,-1 -28,-9 -36,-21z"/>
   </g>
  </g>
 </g>
</svg>
