<?xml version="1.0" encoding="UTF-8"?>
<!DOCTYPE svg PUBLIC "-//W3C//DTD SVG 1.1//EN" "http://www.w3.org/Graphics/SVG/1.1/DTD/svg11.dtd">
<!-- Creator: CorelDRAW Home & Student X7 -->
<svg xmlns="http://www.w3.org/2000/svg" xml:space="preserve" width="29mm" height="29mm" version="1.1" style="shape-rendering:geometricPrecision; text-rendering:geometricPrecision; image-rendering:optimizeQuality; fill-rule:evenodd; clip-rule:evenodd"
viewBox="0 0 744 744"
 xmlns:xlink="http://www.w3.org/1999/xlink">
 <defs>
  <style type="text/css">
   <![CDATA[
    .fil0 {fill:#001F5F}
   ]]>
  </style>
 </defs>
 <g id="__x0023_Layer_x0020_1">
  <metadata id="CorelCorpID_0Corel-Layer"/>
  <path class="fil0" d="M151 322l14 0c8,0 17,-2 22,-9 2,-2 3,-6 3,-9 0,-3 -1,-6 -3,-8 -2,-2 -4,-4 -8,-4 -2,-1 -7,-1 -14,-1l-7 0 -7 31zm-60 85l30 -142c17,0 38,0 50,0 19,0 47,-1 56,16 3,5 4,10 4,16 0,8 -2,15 -6,21 -5,5 -14,12 -24,15 8,2 12,6 16,11 4,5 6,11 6,17 0,9 -2,17 -7,25 -5,7 -12,13 -21,16 -9,4 -21,5 -36,5l-68 0zm49 -26l14 0c8,0 17,-1 22,-8 2,-3 3,-6 3,-10 0,-3 -1,-6 -3,-8 -2,-2 -4,-3 -8,-4 -2,0 -7,-1 -14,-1l-7 0 -7 31zm195 -59l14 0c7,0 17,-2 22,-9 2,-2 3,-6 3,-9 0,-3 -1,-6 -3,-8 -2,-2 -5,-4 -8,-4 -2,-1 -7,-1 -15,-1l-7 0 -6 31zm-61 85l31 -142c16,0 37,0 49,0 20,0 47,-1 57,16 3,5 4,10 4,16 0,8 -2,15 -7,21 -4,5 -14,12 -23,15 7,2 11,6 15,11 4,5 7,11 7,17 0,9 -3,17 -8,25 -5,7 -12,13 -20,16 -9,4 -21,5 -36,5l-69 0zm50 -26l13 0c8,0 18,-1 23,-8 2,-3 3,-6 3,-10 0,-3 -1,-6 -3,-8 -2,-2 -5,-3 -8,-4 -2,0 -7,-1 -15,-1l-7 0 -6 31zm-105 27l43 0 31 -144 -43 0 -31 144zm471 20l-304 0c65,-44 116,-101 144,-179l177 0 -17 179zm-655 72l8 -46 13 0c2,0 4,0 5,0 2,1 4,1 5,2 1,1 2,2 3,4 1,2 1,3 1,5 0,3 0,5 -2,7 -1,2 -3,3 -5,4 2,1 3,2 4,4 2,1 2,3 2,5 0,3 -1,6 -2,8 -1,3 -3,5 -5,6 -2,1 -6,1 -9,1l-18 0zm12 -27l6 0c3,0 5,0 6,-1 1,0 2,-1 3,-2 0,-1 0,-2 0,-4 0,-1 0,-2 0,-2 -1,-1 -2,-2 -3,-2 0,0 -2,0 -4,0l-6 0 -2 11zm-3 20l7 0c3,0 6,0 7,-1 1,0 2,-1 2,-2 1,-1 1,-3 1,-4 0,-1 0,-3 -1,-4 -1,-1 -3,-1 -5,-1l-9 0 -2 12zm39 -17l-7 -1c1,-3 2,-5 4,-7 2,-1 5,-2 8,-2 4,0 7,1 8,3 2,1 3,3 3,6 0,1 0,2 0,3 -1,1 -1,4 -2,9 -1,4 -1,7 -1,9 0,1 0,3 1,4l-8 0c0,-1 0,-2 0,-3 -1,1 -2,2 -4,3 -1,1 -3,1 -4,1 -2,0 -4,-1 -6,-3 -1,-1 -2,-4 -2,-7 0,-3 1,-5 2,-7 2,-2 5,-3 9,-4 4,0 6,-1 7,-1 1,-1 1,-2 1,-3 0,-1 -1,-2 -1,-3 -1,0 -2,-1 -3,-1 -1,0 -2,1 -3,1 -1,1 -2,2 -2,3zm7 9c0,0 -1,0 -2,0 -3,1 -6,1 -7,2 -1,1 -1,2 -1,4 0,1 0,2 1,2 1,1 1,1 2,1 1,0 3,0 4,-1 1,0 1,-1 2,-2 0,-1 1,-3 1,-5l0 -1zm18 -18l7 0 -1 4c2,-2 4,-3 5,-4 2,-1 3,-1 5,-1 2,0 4,1 5,2 2,2 2,4 2,7 0,1 0,3 -1,6l-3 19 -7 0 3 -19c0,-3 1,-4 1,-5 0,-1 -1,-2 -1,-3 -1,0 -1,-1 -2,-1 -2,0 -3,1 -4,2 -1,1 -2,3 -3,5 -1,1 -1,4 -2,8l-2 13 -8 0 6 -33zm45 21l7 1c-1,4 -3,7 -5,9 -3,2 -5,3 -8,3 -4,0 -7,-1 -9,-4 -2,-2 -3,-6 -3,-10 0,-4 1,-7 2,-11 1,-3 3,-5 6,-7 2,-2 5,-3 8,-3 3,0 6,1 8,3 1,2 3,5 3,8l-7 1c0,-2 -1,-3 -2,-4 0,-1 -1,-1 -3,-1 -1,0 -2,0 -4,2 -1,1 -2,3 -2,6 -1,2 -1,5 -1,7 0,2 0,3 1,4 1,2 2,2 3,2 1,0 2,0 3,-2 1,-1 2,-2 3,-4zm12 -2c0,-6 1,-11 4,-14 3,-4 6,-6 11,-6 4,0 7,1 9,4 3,3 4,6 4,11 0,6 -2,10 -4,14 -3,4 -7,6 -12,6 -2,0 -5,0 -7,-2 -2,-1 -3,-3 -4,-5 -1,-2 -1,-5 -1,-8zm21 -6c0,-2 -1,-4 -2,-5 -1,-2 -2,-2 -4,-2 -1,0 -3,0 -4,2 -1,1 -2,3 -3,5 -1,2 -1,4 -1,6 0,3 1,5 2,6 1,1 2,2 4,2 2,0 3,-1 5,-3 2,-3 3,-7 3,-11zm24 20l8 -46 8 0 -8 46 -8 0zm21 -33l7 0 -1 4c2,-2 3,-3 5,-4 1,-1 3,-1 5,-1 2,0 4,1 5,2 1,2 2,4 2,7 0,1 0,3 -1,6l-3 19 -8 0 4 -19c0,-3 1,-4 1,-5 0,-1 -1,-2 -1,-3 -1,0 -2,-1 -3,-1 -1,0 -2,1 -3,2 -2,1 -3,3 -3,5 -1,1 -2,4 -2,8l-3 13 -7 0 6 -33zm51 33l-7 0 1 -3c-2,1 -3,2 -4,3 -1,1 -3,1 -5,1 -2,0 -5,-1 -6,-3 -2,-3 -3,-6 -3,-11 0,-5 1,-10 4,-15 2,-4 6,-6 10,-6 3,0 6,2 8,5l3 -17 7 0 -8 46zm-17 -13c0,2 1,4 2,5 1,2 2,2 3,2 2,0 3,0 4,-1 1,-1 2,-3 3,-6 1,-2 1,-4 1,-6 0,-3 -1,-5 -2,-6 -1,-2 -2,-2 -3,-2 -3,0 -4,1 -6,4 -1,3 -2,6 -2,10zm30 -20l7 0 -3 20c-1,2 -1,4 -1,4 0,1 0,2 1,3 0,0 1,1 2,1 1,0 1,0 2,-1 0,0 1,-1 1,-1 1,-1 2,-2 2,-2 1,-1 1,-2 1,-4 1,-1 1,-2 1,-4l3 -16 8 0 -6 33 -7 0 0 -4c-2,3 -5,5 -9,5 -2,0 -3,-1 -5,-2 -1,-2 -1,-4 -1,-7 0,-1 0,-3 1,-7l3 -18zm25 24l7 -1c1,1 2,3 3,4 1,0 2,1 4,1 1,0 3,-1 4,-2 0,0 1,-1 1,-2 0,-1 0,-1 -1,-2 0,0 -1,-1 -3,-1 -4,-2 -7,-4 -8,-5 -2,-1 -3,-3 -3,-6 0,-3 1,-5 3,-7 2,-3 5,-4 10,-4 3,0 6,1 8,2 2,2 3,4 3,7l-7 1c0,-1 -1,-2 -1,-3 -1,0 -3,-1 -4,-1 -2,0 -3,1 -4,1 0,1 -1,2 -1,2 0,1 1,2 1,2 1,1 2,1 5,2 3,2 5,3 7,4 1,2 2,4 2,6 0,4 -1,6 -3,9 -2,2 -5,3 -9,3 -4,0 -7,-1 -9,-3 -2,-1 -4,-4 -5,-7zm32 -17l2 -7 3 0 1 -5 8 -7 -2 12 5 0 -1 7 -5 0 -2 14c0,2 -1,4 -1,4 0,1 0,1 1,2 0,0 1,0 2,0 0,0 1,0 2,0l-1 7c-1,0 -3,0 -4,0 -2,0 -4,0 -6,-2 -1,-1 -1,-3 -1,-5 0,-1 0,-3 1,-7l2 -13 -4 0zm21 -7l7 0 -1 6c3,-5 6,-7 8,-7 2,0 3,0 4,1l-3 7c-1,0 -1,0 -2,0 -1,0 -3,0 -4,2 -1,1 -2,2 -3,4 -1,2 -2,6 -2,10l-2 10 -7 0 5 -33zm23 -13l8 0 -2 8 -7 0 1 -8zm-2 13l8 0 -6 33 -7 0 5 -33zm20 9l-8 -1c1,-3 3,-5 5,-7 2,-1 4,-2 8,-2 3,0 6,1 8,3 1,1 2,3 2,6 0,1 0,2 0,3 0,1 -1,4 -2,9 0,4 -1,7 -1,9 0,1 1,3 1,4l-7 0c-1,-1 -1,-2 -1,-3 -1,1 -2,2 -4,3 -1,1 -2,1 -4,1 -2,0 -4,-1 -5,-3 -2,-1 -3,-4 -3,-7 0,-3 1,-5 3,-7 1,-2 4,-3 9,-4 3,0 5,-1 7,-1 0,-1 0,-2 0,-3 0,-1 0,-2 -1,-3 -1,0 -2,-1 -3,-1 -1,0 -2,1 -3,1 -1,1 -1,2 -1,3zm7 9c-1,0 -1,0 -2,0 -4,1 -6,1 -7,2 -1,1 -2,2 -2,4 0,1 1,2 1,2 1,1 2,1 3,1 1,0 2,0 3,-1 1,0 2,-1 2,-2 1,-1 1,-3 1,-5l1 -1zm11 15l8 -46 8 0 -8 46 -8 0zm55 0l-7 0 0 -3c-1,1 -2,2 -3,3 -2,1 -3,1 -5,1 -3,0 -5,-1 -7,-3 -1,-3 -2,-6 -2,-11 0,-5 1,-10 3,-15 3,-4 6,-6 10,-6 4,0 7,2 9,5l3 -17 7 0 -8 46zm-17 -13c0,2 0,4 1,5 1,2 3,2 4,2 1,0 3,0 4,-1 1,-1 2,-3 3,-6 0,-2 1,-4 1,-6 0,-3 -1,-5 -2,-6 -1,-2 -2,-2 -4,-2 -2,0 -4,1 -5,4 -2,3 -2,6 -2,10zm25 -1c0,-6 1,-11 4,-14 3,-4 7,-6 11,-6 4,0 8,1 10,4 2,3 3,6 3,11 0,6 -1,10 -4,14 -3,4 -7,6 -11,6 -3,0 -5,0 -7,-2 -2,-1 -4,-3 -5,-5 -1,-2 -1,-5 -1,-8zm21 -6c0,-2 -1,-4 -2,-5 -1,-2 -2,-2 -4,-2 -1,0 -3,0 -4,2 -1,1 -2,3 -3,5 0,2 -1,4 -1,6 0,3 1,5 2,6 1,1 2,2 4,2 2,0 4,-1 5,-3 2,-3 3,-7 3,-11zm25 20l7 -46 13 0c3,0 5,0 6,0 2,1 4,1 5,2 1,1 2,2 3,4 1,2 1,3 1,5 0,3 -1,5 -2,7 -1,2 -3,3 -5,4 2,1 3,2 4,4 1,1 2,3 2,5 0,3 -1,6 -2,8 -1,3 -3,5 -5,6 -3,1 -6,1 -10,1l-17 0zm12 -27l6 0c3,0 4,0 6,-1 1,0 2,-1 2,-2 1,-1 1,-2 1,-4 0,-1 0,-2 -1,-2 0,-1 -1,-2 -2,-2 -1,0 -2,0 -4,0l-6 0 -2 11zm-3 20l7 0c3,0 5,0 6,-1 1,0 2,-1 3,-2 1,-1 1,-3 1,-4 0,-1 -1,-3 -1,-4 -1,-1 -3,-1 -5,-1l-9 0 -2 12zm34 -26l7 0 -1 6c2,-5 5,-7 8,-7 1,0 2,0 3,1l-2 7c-1,0 -2,0 -3,0 -1,0 -2,0 -3,2 -2,1 -3,2 -4,4 0,2 -1,6 -2,10l-2 10 -7 0 6 -33zm25 9l-7 -1c1,-3 2,-5 5,-7 2,-1 4,-2 8,-2 3,0 6,1 7,3 2,1 3,3 3,6 0,1 0,2 0,3 0,1 -1,4 -2,9 0,4 -1,7 -1,9 0,1 0,3 1,4l-7 0c-1,-1 -1,-2 -1,-3 -1,1 -2,2 -4,3 -1,1 -2,1 -4,1 -2,0 -4,-1 -6,-3 -1,-1 -2,-4 -2,-7 0,-3 1,-5 3,-7 1,-2 4,-3 8,-4 4,0 6,-1 7,-1 1,-1 1,-2 1,-3 0,-1 0,-2 -1,-3 -1,0 -2,-1 -3,-1 -1,0 -2,1 -3,1 -1,1 -1,2 -2,3zm7 9c0,0 -1,0 -1,0 -4,1 -6,1 -8,2 0,1 -1,2 -1,4 0,1 1,2 1,2 1,1 2,1 3,1 1,0 2,0 3,-1 1,0 1,-1 2,-2 0,-1 1,-3 1,-5l0 -1zm11 6l7 -1c1,1 2,3 3,4 1,0 2,1 4,1 1,0 3,-1 4,-2 0,0 1,-1 1,-2 0,-1 0,-1 -1,-2 0,0 -1,-1 -3,-1 -4,-2 -7,-4 -8,-5 -2,-1 -3,-3 -3,-6 0,-3 1,-5 3,-7 2,-3 5,-4 10,-4 3,0 6,1 8,2 2,2 3,4 3,7l-7 1c0,-1 -1,-2 -1,-3 -1,0 -3,-1 -4,-1 -2,0 -3,1 -4,1 0,1 -1,2 -1,2 0,1 1,2 1,2 1,1 2,1 5,2 3,2 5,3 7,4 1,2 2,4 2,6 0,4 -1,6 -3,9 -2,2 -5,3 -9,3 -4,0 -7,-1 -9,-3 -2,-1 -4,-4 -5,-7zm38 -37l8 0 -2 8 -7 0 1 -8zm-2 13l8 0 -6 33 -7 0 5 -33zm9 33l8 -46 7 0 -8 46 -7 0zm-672 -500l744 0 0 744 -744 0 0 -744z"/>
 </g>
</svg>
