<?xml version="1.0" encoding="UTF-8"?>
<!DOCTYPE svg PUBLIC "-//W3C//DTD SVG 1.1//EN" "http://www.w3.org/Graphics/SVG/1.1/DTD/svg11.dtd">
<!-- Creator: CorelDRAW Home & Student X7 -->
<svg xmlns="http://www.w3.org/2000/svg" xml:space="preserve" width="30mm" height="30mm" version="1.1" style="shape-rendering:geometricPrecision; text-rendering:geometricPrecision; image-rendering:optimizeQuality; fill-rule:evenodd; clip-rule:evenodd"
viewBox="0 0 652 652"
 xmlns:xlink="http://www.w3.org/1999/xlink">
 <defs>
  <style type="text/css">
   <![CDATA[
    .fil0 {fill:#FEFEFE}
    .fil3 {fill:#5463B1}
    .fil1 {fill:#5F74CA}
    .fil10 {fill:#6494A7}
    .fil7 {fill:#8291D4}
    .fil2 {fill:#87C9E0}
    .fil9 {fill:#9EA9DD}
    .fil6 {fill:#B2BAE2}
    .fil8 {fill:#C6CCEA}
    .fil5 {fill:#D4E4F2}
    .fil4 {fill:white}
   ]]>
  </style>
 </defs>
 <g id="__x0023_Layer_x0020_1">
  <metadata id="CorelCorpID_0Corel-Layer"/>
  <rect class="fil0" width="652" height="652" rx="28" ry="38"/>
  <g id="_625789912">
   <path class="fil1" d="M290 222c0,7 -2,7 -3,8 -2,2 -2,4 -6,6 -6,3 0,2 -10,4 -3,0 -2,1 -5,2 -4,1 -45,0 -54,0 -3,0 -5,1 -7,0 -1,0 -3,0 -4,0 -1,0 -1,0 -2,-1 -2,-2 -1,-34 -1,-38 0,-3 -1,-11 1,-14 1,-1 1,-2 2,-2 3,-1 55,0 58,0l16 3c2,1 1,1 3,2 1,1 2,1 3,2 2,1 0,1 3,2 1,1 1,1 2,3 0,1 0,1 1,2 2,2 4,13 3,15 0,2 -1,4 0,6zm-204 85c5,0 20,0 23,1l0 -2c1,0 3,0 3,0 3,1 0,0 1,1 2,0 3,1 6,0 4,-1 5,-1 10,-1 10,0 65,0 69,0 1,18 -2,39 0,57 12,1 65,0 77,-1 4,-1 2,-1 4,-3 3,-1 2,2 6,-3l1 -1c0,0 1,0 1,0 -3,0 -2,1 -4,2 -2,1 -3,1 -5,2 -10,4 -19,3 -32,3l-36 0c-4,0 -10,1 -10,-3l0 -41c0,-5 -1,-8 2,-11 1,-1 45,0 51,0 19,0 8,-1 23,2 5,1 3,1 8,4 2,1 4,3 5,4 1,2 1,1 2,2 0,-4 -4,-1 -2,-6 0,0 1,0 2,0 2,0 7,4 8,5 4,4 3,4 4,5 3,4 1,1 3,5l1 1c3,6 1,3 3,7l2 4c0,2 0,4 1,6 1,2 0,0 1,2l3 9c1,2 1,1 3,6l0 1c0,1 0,2 1,2 0,1 0,1 0,2 3,4 1,2 2,5 1,2 3,2 3,6l1 4c2,4 1,3 2,6 0,0 0,0 0,0l1 0c0,1 0,1 0,1 1,1 1,1 1,3l5 17c1,1 -1,5 -1,4 0,0 0,1 0,1l-5 2c-5,3 -10,1 -14,6l5 -1c1,0 2,-1 3,-1 2,-1 3,-1 5,-2 2,0 6,-2 8,-2 2,-1 3,0 4,0 2,2 1,1 1,4 2,1 1,1 2,3 0,1 0,1 1,2 2,3 1,3 2,6 1,1 1,1 2,2l5 14c1,5 1,3 2,5l8 22c1,2 2,3 3,6 0,2 1,3 2,5 0,2 0,1 1,3 0,2 1,6 2,8 3,4 1,2 3,6 2,6 8,13 13,17 1,1 3,2 5,3 12,6 15,3 24,5 7,1 28,1 37,1 4,0 3,-1 6,-1 11,-1 9,-2 13,-2 -2,-9 -2,-4 -3,-10 -2,-5 -3,-7 -4,-9 -1,-4 -3,-11 -5,-14 -1,-2 -1,-3 -1,-5 -2,-7 -3,-5 -4,-10 -1,-6 -2,-2 -3,-9 0,-1 -1,-2 -1,-2 0,-1 0,-1 -1,-2 -2,-3 0,-4 -3,-10 -3,-4 1,-2 -4,-8l-4 -9c-1,-3 0,-5 -2,-8 -2,-5 -1,-4 -3,-6 -2,-2 -2,-1 -3,-4 -2,-8 -2,-2 -3,-9 -2,-7 -3,-4 -4,-9l-8 -23c-2,-2 -2,-1 -2,-5 0,-1 -1,-3 -1,-5 -1,-1 -2,-3 -2,-4 -2,-2 -1,-3 -2,-5 0,-2 -1,-3 -3,-9 -1,-3 -1,-3 -2,-5 -1,-1 -1,-3 -2,-4 0,-2 -1,-3 -2,-5 0,-2 0,-3 -1,-5 -1,-3 -2,-3 -3,-6 -1,-6 -2,-3 -3,-7 -2,-11 -1,-5 -3,-10 -2,-9 -2,-3 -4,-8l-5 -8c0,-1 0,-1 -1,-2l-4 -5c-2,-2 -2,-2 -4,-3 0,-1 -3,-5 -6,-6 -3,-2 -2,-2 -5,-5 -1,-1 -1,0 -2,-1 -4,-4 -10,-6 -6,-11 0,0 8,-7 9,-9 0,-4 0,-3 2,-5 1,-1 1,-2 2,-4 1,-2 1,-1 2,-4 2,-6 2,-3 4,-6 0,-3 0,-4 2,-7 3,-7 3,-29 2,-36 -1,-9 -3,-3 -4,-9 -1,-7 0,-1 -3,-9 -1,-2 -2,-2 -3,-3 -1,-2 0,-1 -1,-3 -1,-2 0,0 -1,-2 -1,-1 -1,0 -2,-2 -2,-4 -2,-2 -4,-5 -1,-2 0,-1 -1,-2 -5,-3 -1,-1 -3,-3l-5 -4c-3,-2 -2,-1 -4,-3 -2,-2 -2,0 -4,-2 -2,-2 1,-1 -4,-2 -3,-1 -1,-3 -12,-5 -3,0 -1,0 -4,-2 0,0 -1,0 -2,0l-7 -2c-7,-3 -11,-2 -14,-3 -7,-3 -2,-1 -10,-2 -4,-1 -8,0 -12,-1 -7,-2 -130,-1 -157,-1 -1,0 -2,0 -3,0 0,0 -1,0 -1,0 -4,0 -3,6 -3,10 0,16 1,100 0,103l-2 4c-1,1 -2,1 -4,2 -10,0 -35,0 -46,0l-11 -1c0,0 0,1 0,1 -2,-3 -1,61 -1,63l37 1c-1,-1 0,0 0,0z"/>
   <path class="fil2" d="M364 253c0,-1 0,-1 0,-1 0,0 0,0 0,0 0,-3 2,-3 4,-6 0,0 0,-1 0,-1 3,-5 4,-9 6,-12 -1,2 -2,3 -3,5 -1,2 -5,12 -8,13 -1,2 -9,9 -9,9 -4,5 2,7 6,11 1,1 1,0 2,1 3,3 2,3 5,5 3,1 6,5 6,6 2,1 2,1 4,3l4 5c1,1 1,1 1,2l5 8c2,5 2,-1 4,8 2,5 1,-1 3,10 1,4 2,1 3,7 1,3 2,3 3,6 1,2 1,3 1,5 1,2 2,3 2,5 1,1 1,3 2,4 1,2 1,2 2,5 2,6 3,7 3,9 1,2 0,3 2,5 0,1 1,3 2,4 0,2 1,4 1,5 0,4 0,3 2,5l8 23c1,5 2,2 4,9 1,7 1,1 3,9 1,3 1,2 3,4 2,2 1,1 3,6 2,3 1,5 2,8l4 9c5,6 1,4 4,8 3,6 1,7 3,10 1,1 1,1 1,2 0,0 1,1 1,2 1,7 2,3 3,9 1,5 2,3 4,10 0,2 0,3 1,5 2,3 4,10 5,14 1,2 2,4 4,9 1,6 1,1 3,10 -4,0 -2,1 -13,2 -3,0 -2,1 -6,1 -9,0 -30,0 -37,-1 -9,-2 -12,1 -24,-5 -2,-1 -4,-2 -5,-3 -5,-4 -11,-11 -13,-17 -2,-4 0,-2 -3,-6 -1,-2 -2,-6 -2,-8 -1,-2 -1,-1 -1,-3 -1,-2 -2,-3 -2,-5 -1,-3 -2,-4 -3,-6l-8 -22c-1,-2 -1,0 -2,-5l-5 -14c-1,-1 -1,-1 -2,-2 -1,-3 0,-3 -2,-6 -1,-1 -1,-1 -1,-2 -1,-2 0,-2 -2,-3 1,7 2,5 3,7 1,2 1,4 1,6 1,3 3,2 3,7 1,3 5,6 4,11 2,1 3,5 3,7 1,4 6,11 6,14 2,5 4,10 6,15l3 8c0,2 2,4 3,7 1,4 1,3 3,6 1,3 3,6 5,8 7,5 6,4 11,7 2,2 11,5 14,5 12,1 39,2 49,1 6,-1 13,0 18,-3 6,-4 13,-7 16,-14 2,-2 1,0 3,-2 0,-1 1,-3 1,-4 1,-1 2,-1 3,-3 0,-2 0,-3 0,-4 1,-4 3,-3 3,-7 1,-4 2,-4 3,-7l3 -7c2,-3 1,-5 3,-8 2,-2 2,-4 3,-7 0,-4 3,-7 4,-11 0,-1 1,-3 1,-4l11 -29c1,-5 2,-3 3,-8 1,-2 1,-2 1,-4 2,-3 2,-2 3,-7 1,-2 1,-1 2,-3 1,-3 1,-6 2,-8 1,-1 2,-1 2,-3 1,-2 0,-3 1,-4 1,-2 1,-2 2,-4l3 -7c1,-1 1,-2 1,-3 1,-4 3,-5 3,-8 2,-8 1,-3 3,-7 1,-1 1,-5 3,-7 1,-3 1,-5 2,-8 1,-2 2,-4 3,-6 1,-2 1,-3 2,-5l4 -11c0,0 0,-1 0,-1 1,-1 1,-1 1,-2 0,0 0,0 0,0l13 -34c1,-3 0,-5 2,-7 2,-2 1,-1 2,-4 1,-2 1,-3 2,-5 1,-1 1,-1 1,-2l4 -11c1,-2 3,-3 3,-6 2,-6 3,-5 4,-12 1,-2 1,-2 2,-3 1,-3 1,-5 2,-8 1,-1 3,-3 2,-5 0,-4 -3,-3 -6,-2l-53 0c-5,0 -7,0 -11,0 -2,1 -3,1 -4,2 -8,2 -14,6 -19,11 -1,1 -1,2 -2,4 -1,2 -2,2 -3,3 -1,1 -1,3 -2,4 -2,5 -2,7 -3,9 0,2 -1,1 -2,4 0,2 0,3 -1,5 -1,1 -1,1 -2,4l-3 8c-1,1 -1,3 -2,4 -1,2 -1,2 -2,4 0,2 0,4 -1,5 -1,2 -2,1 -2,3 -1,2 -1,4 -1,5 -1,3 -1,2 -2,5l-6 17c-1,1 -1,2 -1,3 -1,3 -3,7 -4,10 0,3 0,3 -1,5 -2,3 -3,5 -4,8 -1,3 -1,2 -2,4 -1,2 -1,3 -1,5 -1,2 -5,9 -6,12 -1,4 -1,4 -3,8 -1,2 -1,3 -1,5 -1,2 -1,2 -2,4 -1,2 -1,3 -2,5 0,2 -1,2 -2,4 0,1 0,3 -1,4 -1,4 -1,1 -2,4 -1,1 -1,3 -1,5 -1,2 -1,1 -2,4 -2,4 -1,4 -4,8 -3,4 1,10 -6,11 -1,-3 -1,-5 -2,-6 -1,-2 -2,-3 -2,-5 -2,-6 -4,-12 -6,-17 -1,-2 -1,-3 -2,-6l-6 -15c-1,-2 -1,-5 -2,-6 -2,-4 -5,-12 -6,-17 0,-1 -1,-3 -2,-4 -1,-2 -1,-4 -2,-6 -1,-2 -2,-2 -2,-5 -1,-4 0,-2 -2,-5 -2,-3 -1,-6 -3,-9 -3,-5 -1,-3 -3,-8 -1,-2 -1,-1 -2,-5 -1,-3 -1,-2 -2,-5 -2,-1 -1,0 -2,-2 0,-1 0,-2 -1,-3l-6 -8c-1,-2 -2,-3 -3,-4 -5,-6 -8,-7 -11,-11 -2,-2 -3,-2 -4,-3l-8 -7c0,-2 7,-10 9,-11z"/>
   <path class="fil1" d="M110 322l-1 1 3 19 0 61c0,7 -1,21 2,25 1,1 42,0 47,0 14,0 110,1 116,0 3,0 19,-1 21,-2 -5,-1 -9,0 -14,-1 0,-3 0,-2 3,-3 1,-1 1,0 1,-1 0,-2 1,-5 -2,-5 -3,0 1,3 -4,3 0,-9 -1,-4 -4,-8 0,-1 0,-1 -1,-2 -2,0 -7,1 -9,0 -2,-1 0,0 -1,-1 -2,-2 1,-1 -2,-2 -2,0 -3,0 -4,-1 0,0 0,0 0,0 -3,-4 -1,-1 -3,-3 -1,-1 0,-1 -2,-3 -4,-1 -2,1 -3,-2 -4,-1 -6,0 -9,-1 -2,-8 3,-6 -13,-7 -1,-1 0,1 -1,0 0,0 0,-1 0,-1l-1 -4c0,0 0,0 0,-1l-4 -1c-2,0 -3,0 -4,0 -2,-1 -2,-1 -2,-3 -3,-1 -1,0 -3,-2l0 0c-2,-2 -1,0 -3,-3 -1,-1 0,-1 -2,-2 -4,-1 -2,2 -5,-2 -2,-1 -1,-1 -3,-1 -4,-1 -3,0 -5,-4l-8 0c0,-4 0,-6 -2,-6 -2,-1 -5,-1 -7,-1 -11,1 -1,-3 -12,-3 -1,-1 0,-1 -1,-2l-1 -1c-3,-3 -1,-1 -2,-3 -3,-3 -2,1 -5,-5l-8 0c-1,-10 -1,-2 -4,-9 -2,-3 -4,1 -4,1 0,0 1,1 -1,0 -2,0 0,0 -4,-2 -4,-2 0,-3 -4,-4l-5 -1c0,-1 1,-2 0,-3 0,-5 -2,-1 -5,-3 -1,-1 -2,-2 -3,-3 -2,0 -3,0 -4,-1 -2,-1 -1,-1 -3,-2 -3,2 0,4 -2,8 -1,-1 -1,-1 -2,-1l-1 -2c0,0 0,0 0,0z"/>
   <path class="fil3" d="M109 308l0 1c1,2 1,5 1,7 -1,1 0,-1 -1,1 1,2 1,2 1,5 0,0 0,0 0,0l1 2c1,0 1,0 2,1 2,-4 -1,-6 2,-8 2,1 1,1 3,2 1,1 2,1 4,1 1,1 2,2 3,3 3,2 5,-2 5,3 1,1 0,2 0,3l5 1c4,1 0,2 4,4 4,2 2,2 4,2 2,1 1,0 1,0 0,0 2,-4 4,-1 3,7 3,-1 4,9l8 0c3,6 2,2 5,5 1,2 -1,0 2,3l1 1c1,1 0,1 1,2 11,0 1,4 12,3 2,0 5,0 7,1 2,0 2,2 2,6l8 0c2,4 1,3 5,4 2,0 1,0 3,1 3,4 1,1 5,2 2,1 1,1 2,2 2,3 1,1 3,3l0 0c2,2 0,1 3,2 0,2 0,2 2,3 1,0 2,0 4,0l4 1c0,1 0,1 0,1l1 4c0,0 0,1 0,1 1,1 0,-1 1,0 16,1 11,-1 13,7 3,1 5,0 9,1 1,3 -1,1 3,2 2,2 1,2 2,3 2,2 0,-1 3,3 0,0 0,0 0,0 1,1 2,1 4,1 3,1 0,0 2,2 1,1 -1,0 1,1 2,1 7,0 9,0 1,1 1,1 1,2 3,4 4,-1 4,8 5,0 1,-3 4,-3 3,0 2,3 2,5 0,1 0,0 -1,1 -3,1 -3,0 -3,3 5,1 9,0 14,1 4,0 6,-1 9,-2 2,-1 5,-1 9,-1 4,-5 9,-3 14,-6l5 -2c0,0 0,-1 0,-1 0,1 2,-3 1,-4l-5 -17c0,-2 0,-2 -1,-3 0,0 0,0 0,-1l-1 0c0,0 0,0 0,0 -1,-3 0,-2 -2,-6l-1 -4c0,-4 -2,-4 -3,-6 -1,-3 1,-1 -2,-5 0,-1 0,-1 0,-2 -1,0 -1,-1 -1,-2l0 -1c-2,-5 -2,-4 -3,-6l-3 -9c-1,-2 0,0 -1,-2 -1,-2 -1,-4 -1,-6l-2 -4c-2,-4 0,-1 -3,-7l-1 -1c-2,-4 0,-1 -3,-5 -1,-1 0,-1 -4,-5 -1,-1 -6,-5 -8,-5 -1,0 -2,0 -2,0 -2,5 2,2 2,6 1,6 4,3 4,8 0,4 0,8 0,12 0,9 -1,5 -3,10 -1,2 -1,1 -3,3 -1,1 0,2 -2,3 0,0 -1,0 -1,0l-1 1c-4,5 -3,2 -6,3 -2,2 0,2 -4,3 -12,1 -65,2 -77,1 -2,-18 1,-39 0,-57 -4,0 -59,0 -69,0 -5,0 -6,0 -10,1 -3,1 -4,0 -6,0 -1,-1 2,0 -1,-1 0,0 -2,0 -3,0l0 2z"/>
   <path class="fil4" d="M204 360c12,1 26,0 39,0 7,0 22,1 28,-1 2,-1 6,-2 9,-2 1,-2 -1,-2 1,-3 1,0 3,0 4,-1 2,-1 1,0 2,-2 3,-3 2,1 4,-6 1,-6 2,-2 3,-6l0 -10c-1,-2 -1,-1 -2,-2 -1,-2 -1,-2 -1,-4 -1,-2 -1,-1 -2,-3 -2,-1 -1,-1 -3,-2 -3,-3 -1,-3 -4,-3 0,-1 -1,-1 -2,-1 -2,0 -1,-1 -3,-2 -3,-3 -28,-2 -35,-2 -13,0 -26,-1 -38,0 -1,3 -1,1 -1,5 0,2 0,5 0,7 0,4 -1,34 0,37l1 1z"/>
   <path class="fil4" d="M270 191l0 0c-4,1 -13,0 -18,0l-43 0c-4,0 -4,-1 -7,1l1 46c1,0 59,0 66,-1 2,0 8,-3 10,-4l5 -4c0,0 0,-1 0,-1l2 -2c2,-2 2,-11 2,-15 -1,-5 0,-4 -2,-7 -4,-5 -1,-4 -5,-6 -1,0 -1,-1 -2,-2 -2,-1 -8,-4 -9,-5 0,0 0,0 0,0z"/>
   <path class="fil5" d="M364 253c-2,1 -9,9 -9,11l8 7c1,1 2,1 4,3 3,4 6,5 11,11 1,1 2,2 3,4l6 8c1,1 1,2 1,3 1,2 0,1 2,2 1,3 1,2 2,5 1,4 1,3 2,5 2,5 0,3 3,8 2,3 1,6 3,9 2,3 1,1 2,5 0,3 1,3 2,5 1,2 1,4 2,6 1,1 2,3 2,4 1,5 4,13 6,17 1,1 1,4 2,6l6 15c1,3 1,4 2,6 2,5 4,11 6,17 0,2 1,3 2,5 1,1 1,3 2,6 7,-1 3,-7 6,-11 3,-4 2,-4 4,-8 1,-3 1,-2 2,-4 0,-2 0,-4 1,-5 1,-3 1,0 2,-4 1,-1 1,-3 1,-4 1,-2 2,-2 2,-4 1,-2 1,-3 2,-5 1,-2 1,-2 2,-4 0,-2 0,-3 1,-5 2,-4 2,-4 3,-8 1,-3 5,-10 6,-12 0,-2 0,-3 1,-5 1,-2 1,-1 2,-4 1,-3 2,-5 4,-8 1,-2 1,-2 1,-5 1,-3 3,-7 4,-10 0,-1 0,-2 1,-3l6 -17c1,-3 1,-2 2,-5 0,-1 0,-3 1,-5 0,-2 1,-1 2,-3 1,-1 1,-3 1,-5 1,-2 1,-2 2,-4 1,-1 1,-3 2,-4l3 -8c1,-3 1,-3 2,-4 1,-2 1,-3 1,-5 1,-3 2,-2 2,-4 1,-2 1,-4 3,-9 1,-1 1,-3 2,-4 1,-1 2,-1 3,-3 1,-2 1,-3 2,-4 5,-5 11,-9 19,-11 1,-1 2,-1 4,-2 4,0 6,0 11,0l53 0c3,-1 6,-2 6,2 1,2 -1,4 -2,5 -1,3 -1,5 -2,8 -1,1 -1,1 -2,3 -1,7 -2,6 -4,12 0,3 -2,4 -3,6l-4 11c0,1 0,1 -1,2 -1,2 -1,3 -2,5 -1,3 0,2 -2,4 -2,2 -1,4 -2,7l-13 34c0,0 0,0 0,0 0,1 0,1 -1,2 0,0 0,1 0,1l-4 11c-1,2 -1,3 -2,5 -1,2 -2,4 -3,6 -1,3 -1,5 -2,8 -2,2 -2,6 -3,7 -2,4 -1,-1 -3,7 0,3 -2,4 -3,8 0,1 0,2 -1,3l-3 7c-1,2 -1,2 -2,4 -1,1 0,2 -1,4 0,2 -1,2 -2,3 -1,2 -1,5 -2,8 -1,2 -1,1 -2,3 -1,5 -1,4 -3,7 0,2 0,2 -1,4 -1,5 -2,3 -3,8l-11 29c0,1 -1,3 -1,4 -1,4 -4,7 -4,11 -1,3 -1,5 -3,7 -2,3 -1,5 -3,8l-3 7c-1,3 -2,3 -3,7 0,4 -2,3 -3,7 0,1 0,2 0,4 -1,2 -2,2 -3,3 0,1 -1,3 -1,4 -2,2 -1,0 -3,2 -3,7 -10,10 -16,14 -5,3 -12,2 -18,3 -10,1 -37,0 -49,-1 -3,0 -12,-3 -14,-5 -5,-3 -4,-2 -11,-7 -2,-2 -4,-5 -5,-8 -2,-3 -2,-2 -3,-6 -1,-3 -3,-5 -3,-7l-3 -8c-2,-5 -4,-10 -6,-15 0,-3 -5,-10 -6,-14 0,-2 -1,-6 -3,-7 -1,3 1,4 2,6 1,3 1,6 2,8 1,2 1,1 2,4 1,3 1,4 1,7 5,3 1,5 5,9 3,3 -1,8 4,10 0,3 1,6 2,8 2,3 0,6 5,6 0,3 0,5 2,6 2,2 0,0 2,2 1,2 -1,1 2,2 4,1 3,2 5,3 2,1 2,0 3,2 2,1 0,1 2,2 5,1 3,-1 6,2 2,2 5,1 7,2l12 0c4,1 0,0 2,1 8,0 19,1 27,0 3,0 4,0 7,0 4,0 3,-1 6,-1 3,0 10,0 13,-1 2,0 4,-2 5,-2 1,-2 3,-1 4,-3 2,-1 1,0 2,-1 1,-1 2,-1 2,-2 2,-1 3,-2 4,-3 2,-2 2,-3 3,-5l3 -4c1,-2 1,0 3,-3 0,-2 0,-4 1,-7 1,-1 2,0 2,-3 1,-2 0,-3 1,-5 1,-2 2,-1 2,-4 1,-2 1,-4 2,-5 1,-2 2,0 2,-4 1,-7 2,-4 4,-8 1,-4 2,-6 3,-10 1,-3 3,-5 3,-8 1,-3 1,-3 2,-5 2,-3 2,-9 4,-12 1,-2 1,-5 3,-7 1,-3 2,-5 3,-9 0,-1 1,-2 2,-3 1,-3 1,-5 2,-7 1,-2 2,-5 3,-7 3,-6 2,-7 3,-10 1,-1 1,-1 2,-4 1,-1 1,-3 1,-4 1,-3 2,-2 3,-4 0,-2 0,-3 1,-5 1,-1 2,-3 2,-4 2,-7 3,-5 4,-9 1,-9 3,-4 3,-9 1,-6 3,-3 4,-9 0,-2 0,-3 1,-5 2,-3 2,-6 4,-9 0,-2 1,-3 1,-4l3 -4c0,-2 0,-4 1,-5 1,-2 1,-2 2,-4 1,-3 2,-7 3,-9 2,-3 2,-7 4,-9 1,-3 2,-6 3,-10l5 -13c1,-1 1,-3 2,-5 2,-5 1,-6 3,-8 2,-3 2,-8 3,-10 2,-2 2,-1 2,-4 1,-4 0,-2 2,-4 2,-1 2,-2 2,-4 1,-6 0,-4 2,-5 1,-1 0,0 1,-2 1,-5 -1,-4 3,-7 2,-2 1,-9 1,-10 0,-1 -1,-2 -3,-2 -2,-1 -57,0 -64,0 -3,0 -2,0 -4,1 -6,1 -5,-1 -15,5 -7,4 -7,6 -10,9 -1,0 -1,-1 -2,1 0,0 0,1 -1,1l-2 2c-1,1 -1,3 -1,4 -2,2 -2,4 -3,7 -1,6 -2,3 -3,7 -1,5 0,4 -4,7 0,2 0,4 0,6 -1,4 -2,1 -3,4 -1,3 0,4 -1,6 -4,4 -1,6 -4,9 -1,2 -2,3 -2,6 -1,2 -1,3 -2,5 -1,1 -1,3 -2,5 -1,2 -1,2 -2,4 -1,2 0,3 -2,5 -2,4 -2,7 -4,10 -1,3 -1,3 -2,6 0,2 -1,1 -2,4l-7 21c-2,4 -1,4 -3,7 -2,3 -1,5 -3,8 -1,2 -1,2 -2,5 -1,3 -1,2 -2,5 -1,2 -1,3 -2,5 0,2 -1,3 -2,4 -1,2 -1,4 -1,6 -1,3 -2,1 -3,4 0,2 0,5 -1,6 -2,3 -2,0 -2,5 -2,5 -1,3 -3,5 -1,1 -1,3 -1,5 -1,3 -1,3 -4,3 -1,-2 -1,-4 -2,-7 -3,-6 -1,-8 -3,-12 0,-2 -2,-2 -3,-5 0,0 0,0 0,-1 -1,-3 -3,-3 -3,-7 0,-1 0,-3 -1,-4 -2,-3 -1,0 -3,-6 -1,-4 -3,-3 -3,-7 0,-4 1,-4 -3,-6 0,-6 0,-9 -4,-10 0,-9 -2,-4 -3,-8 0,-2 0,-4 -1,-6 0,-1 -2,-2 -2,-3 -1,-1 -1,-3 -1,-5 -1,-3 -2,-1 -3,-4 -1,-5 1,-4 -3,-8 -1,-2 0,-5 -2,-8 -1,-2 -1,-2 -2,-5 -1,-3 -1,-2 -2,-4l-1 -1c-1,-4 -2,-3 -3,-6 -2,-2 -1,-2 -3,-4l-7 -9c-2,-1 -1,-1 -2,-3 -1,-1 -3,-1 -4,-2l-4 -4c-1,-1 0,0 -2,-1 -1,-1 0,-1 -2,-1 -2,-1 0,0 -1,-2 -2,-1 -2,-1 -4,-2 1,-2 1,-3 2,-4 2,-2 2,-3 4,-4 0,0 0,0 1,-1 1,-2 1,-1 0,-2z"/>
   <path class="fil6" d="M337 417c-2,0 -6,2 -8,2 -2,1 -3,1 -5,2 -1,0 -2,1 -3,1 -3,3 -19,5 -22,6 -9,1 -16,2 -25,2l-151 0c-4,0 -10,1 -12,-1 -1,-3 0,-57 0,-65 0,-7 1,-25 -2,-30 -1,-1 0,0 -1,-1l-3 -6c-1,-2 -2,0 -6,-3 -3,-2 -2,0 -5,-2 -1,-1 -1,-1 -1,-3 -7,0 -5,1 -7,-1 0,-1 0,-1 -1,-1 0,0 0,0 0,0 -3,-2 0,-2 -3,-3 -5,-4 -13,-4 -13,-4 -3,-1 1,0 -2,-2 -5,0 -17,3 -19,-2 -1,-2 0,-48 0,-55 0,-13 -2,-10 24,-10l33 0c4,0 6,-2 6,-6 0,-19 -2,-107 1,-112 3,-1 128,-1 143,-1 8,0 16,0 23,1 4,0 8,0 11,1 4,0 7,1 10,2 2,0 4,0 5,0 2,1 3,1 5,2 4,1 6,1 10,2 2,1 2,1 4,2 2,0 4,0 5,1 2,1 2,2 4,2 2,1 2,1 4,2 2,1 2,1 4,2l17 13c1,1 1,1 2,1l7 9c2,3 0,1 3,5 2,2 6,12 7,14 5,12 3,31 1,43 -1,4 -3,5 -3,9 -2,3 -3,7 -6,12 0,0 0,1 0,1 -2,3 -4,3 -4,6 0,0 0,0 0,0 0,0 0,0 0,1 2,-1 3,-3 6,-6 1,-1 1,-2 1,-4 1,-1 2,-2 3,-4 0,-1 0,-2 1,-4 0,-1 2,-3 2,-4 1,-2 0,-3 2,-6 3,-7 3,-26 2,-34 0,-1 -1,-4 -1,-5l-2 -4c-2,-7 -1,-4 -3,-8 -2,-6 -3,-5 -4,-8 -1,-2 0,-1 -2,-3 -1,-1 -4,-6 -6,-8 -2,-3 -1,-2 -4,-5 0,0 0,0 -1,-1 -2,-1 -1,-1 -3,-1 -2,-2 1,-2 -2,-3 -4,-2 -1,-1 -4,-3 -1,-1 -3,0 -5,-2 -1,-2 0,-1 -2,-2 -4,-1 -1,-1 -3,-2 -2,-2 -4,0 -6,-3 0,-1 0,-1 -2,-2 -2,0 -4,0 -6,-1 -3,-1 -1,-2 -9,-2 -3,-1 -6,-2 -9,-3 -6,-1 -21,-3 -27,-4 -13,-1 -27,0 -41,0 -27,0 -55,0 -82,0 -14,0 -28,-1 -42,0 -7,0 -6,3 -6,14l0 62c0,46 3,42 -9,42l-44 0c-2,0 -6,-1 -8,1 -1,1 -2,3 -2,6l0 52c0,7 -1,11 6,12 4,1 3,1 6,2 3,2 4,1 6,3 3,2 3,2 7,2l17 9c4,2 3,0 8,4 2,1 2,1 4,2 1,0 2,1 3,1 3,2 6,1 6,7 1,13 0,39 0,53 0,42 -4,38 14,38l88 0c23,0 47,1 70,0 6,0 11,-1 16,-2 5,0 25,-5 29,-6 2,-1 2,-2 6,-3 2,-1 4,-1 5,-3z"/>
   <path class="fil7" d="M321 422l-5 1c-4,0 -7,0 -9,1 -3,1 -5,2 -9,2 -2,1 -18,2 -21,2 -6,1 -102,0 -116,0 -5,0 -46,1 -47,0 -3,-4 -2,-18 -2,-25l0 -61 -3 -19 -1 -2c-3,-2 -5,-1 -8,-1 -1,-3 0,-2 -3,-4l-4 -3c0,0 -1,0 -1,0 -4,-3 2,0 -3,-1 -2,-1 1,-1 -4,-2l0 -3c1,-1 0,1 1,0 0,0 -1,-1 0,0l-37 -1c0,-2 -1,-66 1,-63 0,0 0,-1 0,-1l11 1c11,0 36,0 46,0 2,-1 3,-1 4,-2l2 -4c1,-3 0,-87 0,-103 0,-4 -1,-10 3,-10 0,0 1,0 1,0 1,0 2,0 3,0 27,0 150,-1 157,1 4,1 8,0 12,1 8,1 3,-1 10,2 3,1 7,0 14,3l7 2c1,0 2,0 2,0 3,2 1,2 4,2 11,2 9,4 12,5 5,1 2,0 4,2 2,2 2,0 4,2 2,2 1,1 4,3l5 4c2,2 -2,0 3,3 1,1 0,0 1,2 2,3 2,1 4,5 1,2 1,1 2,2 1,2 0,0 1,2 1,2 0,1 1,3 1,1 2,1 3,3 3,8 2,2 3,9 1,6 3,0 4,9 1,7 1,29 -2,36 -2,3 -2,4 -2,7 -2,3 -2,0 -4,6 -1,3 -1,2 -2,4 -1,2 -1,3 -2,4 -2,2 -2,1 -2,5 3,-1 7,-11 8,-13 1,-2 2,-3 3,-5 0,-4 2,-5 3,-9 2,-12 4,-31 -1,-43 -1,-2 -5,-12 -7,-14 -3,-4 -1,-2 -3,-5l-7 -9c-1,0 -1,0 -2,-1l-17 -13c-2,-1 -2,-1 -4,-2 -2,-1 -2,-1 -4,-2 -2,0 -2,-1 -4,-2 -1,-1 -3,-1 -5,-1 -2,-1 -2,-1 -4,-2 -4,-1 -6,-1 -10,-2 -2,-1 -3,-1 -5,-2 -1,0 -3,0 -5,0 -3,-1 -6,-2 -10,-2 -3,-1 -7,-1 -11,-1 -7,-1 -15,-1 -23,-1 -15,0 -140,0 -143,1 -3,5 -1,93 -1,112 0,4 -2,6 -6,6l-33 0c-26,0 -24,-3 -24,10 0,7 -1,53 0,55 2,5 14,2 19,2 3,2 -1,1 2,2 0,0 8,0 13,4 3,1 0,1 3,3 0,0 0,0 0,0 1,0 1,0 1,1 2,2 0,1 7,1 0,2 0,2 1,3 3,2 2,0 5,2 4,3 5,1 6,3l3 6c1,1 0,0 1,1 3,5 2,23 2,30 0,8 -1,62 0,65 2,2 8,1 12,1l151 0c9,0 16,-1 25,-2 3,-1 19,-3 22,-6z"/>
   <path class="fil5" d="M353 452c1,-5 -3,-8 -4,-11 0,-5 -2,-4 -3,-7 0,-2 0,-4 -1,-6 -1,-2 -2,0 -3,-7 0,-3 1,-2 -1,-4 -1,0 -2,-1 -4,0 -1,2 -3,2 -5,3 -4,1 -4,2 -6,3 -4,1 -24,6 -29,6 -5,1 -10,2 -16,2 -23,1 -47,0 -70,0l-88 0c-18,0 -14,4 -14,-38 0,-14 1,-40 0,-53 0,-6 -3,-5 -6,-7 -1,0 -2,-1 -3,-1 -2,-1 -2,-1 -4,-2 -5,-4 -4,-2 -8,-4l-17 -9c-4,0 -4,0 -7,-2 -2,-2 -3,-1 -6,-3 -3,-1 -2,-1 -6,-2 -7,-1 -6,-5 -6,-12l0 -52c0,-3 1,-5 2,-6 2,-2 6,-1 8,-1l44 0c12,0 9,4 9,-42l0 -62c0,-11 -1,-14 6,-14 14,-1 28,0 42,0 27,0 55,0 82,0 14,0 28,-1 41,0 6,1 21,3 27,4 3,1 6,2 9,3 -1,-4 -7,-3 -12,-4 -2,-1 -2,-1 -3,-2 -3,-2 -23,-1 -29,-3 -7,-1 -135,0 -157,0 -1,0 -3,-1 -4,0 -2,1 -2,2 -3,3 -2,5 -1,25 -1,31 0,21 -1,64 1,83 -5,3 -39,1 -49,1 -18,0 -15,-3 -15,35 0,10 -1,23 0,33 0,6 5,5 9,8 2,1 4,1 6,2 2,1 1,1 2,2l9 4c1,0 2,0 3,0 2,1 1,1 3,2 1,2 4,2 5,3 2,0 1,0 3,1 2,2 1,0 6,3l8 4c2,1 5,1 6,2 2,1 3,3 3,6l0 83c0,7 3,8 8,8l133 0c11,0 22,0 33,0 4,0 4,0 7,-1 2,0 6,-1 8,-1 3,0 6,0 8,0 3,-1 5,-1 8,-1 1,-2 0,-2 2,-2 1,0 6,0 8,-1 2,-1 1,-1 2,-3 5,0 4,1 7,0 5,-2 0,-3 8,-3l2 2c0,1 0,1 0,1 1,1 1,2 2,4 0,2 1,2 2,4 0,1 0,3 1,5 1,3 1,-1 3,7l3 7c1,1 0,0 1,1z"/>
   <path class="fil5" d="M200 500l0 0c-1,3 0,1 -2,3 -3,2 -2,5 -2,10 0,6 2,15 -2,16 -2,1 0,0 -1,0l-7 -1c-2,-1 -1,-23 -1,-29 0,-4 0,-5 2,-8 1,0 5,0 7,1 1,0 2,2 3,4l2 -2c2,-3 5,-3 9,-3 15,1 12,19 12,31 0,5 -1,9 -7,8 -5,-1 -4,-5 -4,-11 0,-12 2,-14 -3,-18 -3,-2 -3,-1 -6,-1zm92 26c-5,1 -2,3 -9,4 -6,2 -14,1 -18,-4 -1,-1 -2,-2 -3,-3 0,-1 -1,-2 -1,-2 -2,-2 0,-1 -3,-2 -1,3 -3,7 -7,8 -3,2 -7,5 -16,2 -2,0 -3,-1 -4,-2 -3,-2 -2,-1 -4,-3 -2,-5 -5,-3 -5,-16 1,-5 3,-6 5,-10 2,-2 1,-1 4,-3 1,-1 2,-2 3,-3 4,-1 17,-2 21,6 4,1 1,3 5,5 1,-3 3,-7 6,-8 2,-2 1,-2 3,-3 2,-1 14,-1 17,0l6 4c1,2 0,1 2,3 1,1 1,1 1,3 2,7 0,12 1,18l0 -1c0,0 0,0 0,0 2,-4 3,-5 2,-10 0,-7 -1,2 -2,-11l-3 -1c-1,-4 -1,-2 -3,-4 -2,-1 0,-2 -4,-2 -1,0 -2,-1 -2,-1 -1,0 -1,0 -1,0 -2,-2 -3,-2 -8,-2 -1,0 0,0 -1,1l0 0c-2,2 -1,1 -3,1 -6,2 -3,1 -5,3 -1,1 -3,1 -5,3 -1,2 -1,3 -2,5 0,-2 -1,-5 -2,-6 -5,-3 -2,-3 -5,-4 -2,-1 -3,0 -4,-1 -4,0 -1,0 -3,-1 -1,-1 -5,-1 -7,0 -3,1 1,0 -3,1 -1,1 -2,1 -3,1 -3,1 -1,2 -4,4 -4,1 -1,1 -4,4 -4,3 -1,4 -3,5 0,-3 0,-6 -2,-8 -4,-6 -9,-7 -15,-6 -7,1 -5,3 -7,4 -1,-3 -1,-4 -4,-4 -3,0 -6,0 -8,1 -1,1 -1,2 -2,3l-4 0c0,-1 0,-1 0,-2 -2,-1 -3,-1 -5,-1 -2,-1 -10,-2 -12,-1 -2,1 -1,0 -2,1 4,0 10,-1 14,1l4 3c5,4 4,23 4,31 -1,4 -5,5 -9,4 -3,-2 -3,-2 -6,-1 -5,2 -13,3 -16,-1 -5,-6 -3,-4 -4,-7 -1,-2 0,-1 -2,-2 0,5 -4,9 -8,11 -3,1 -6,1 -9,0 -3,0 -4,-1 -6,-2 -4,1 -13,8 -13,-6 0,-8 0,-16 0,-24 0,-9 -2,-19 4,-20 11,-1 5,12 8,16 4,-1 0,-3 14,-3l-2 -2c-2,-1 -4,-1 -5,0 -1,1 0,1 -2,1 -1,1 -2,1 -3,1 0,-9 1,-8 -2,-13 -4,-1 -5,-1 -9,-1 -4,0 -3,1 -6,2 0,11 0,23 0,34 0,24 -2,20 12,21 1,0 0,0 0,-1 1,0 1,0 1,0l3 -2c2,1 1,2 4,3 2,0 5,0 6,0 6,0 5,-1 6,-3 1,-1 2,-1 4,-1 0,-1 0,-1 0,-2 1,-1 4,-2 4,-3 0,0 0,0 0,0 0,2 1,4 3,5 2,1 2,0 3,3 3,0 6,1 10,1 4,-1 3,-3 8,-3 2,0 7,6 13,-2 0,0 0,0 0,0 0,-1 1,-1 1,-1l1 3c1,1 1,1 1,2 8,1 11,1 11,-7 0,-6 0,-12 0,-19 1,-2 0,0 2,-2 1,-1 1,-4 6,-2 2,4 0,16 1,21 0,4 0,3 1,5 0,0 0,0 1,0 0,0 0,0 0,0 2,4 2,4 10,4 2,-2 2,-2 4,-4 2,-2 1,-3 2,-5 2,1 1,0 2,2 2,4 5,4 6,5 3,1 2,1 3,2 1,0 0,0 1,0 10,2 12,-1 13,-2 0,0 3,0 4,-2 1,-1 1,-1 2,-2 1,-1 3,-1 4,-6 1,2 1,3 2,4 9,8 6,4 10,6l2 1c2,2 8,2 11,0 2,-1 4,-1 5,-2 0,-1 1,-1 1,-2 3,-3 0,2 2,-2z"/>
   <path class="fil1" d="M135 516c-1,4 -1,7 -9,7 -2,-1 -2,0 -3,-2 -9,-8 -4,-22 4,-22 3,0 6,2 7,4 0,0 1,3 1,4 1,2 1,6 0,9zm-24 -34c0,7 0,27 0,36 0,18 7,7 7,7 8,0 4,2 9,3 4,1 7,1 10,-1 7,-4 8,-7 8,-17 0,-7 0,-9 -3,-12 -1,0 -1,-1 -1,-1 -2,-2 -2,-2 -4,-3 -2,-2 -1,-1 -5,-1 -12,0 -5,4 -14,3l0 -13c-1,-1 -2,-2 -3,-2 -2,-1 -2,1 -4,1z"/>
   <path class="fil6" d="M203 359c-1,-3 0,-33 0,-37 0,-2 0,-5 0,-7 0,-4 0,-2 1,-5 12,-1 25,0 38,0 7,0 32,-1 35,2 2,1 1,2 3,2 1,0 2,0 2,1 3,0 1,0 4,3 2,1 1,1 3,2 1,2 1,1 2,3 0,2 0,2 1,4 1,1 1,0 2,2l0 10c-1,4 -2,0 -3,6 -2,7 -1,3 -4,6 -1,2 0,1 -2,2 -1,1 -3,1 -4,1 -2,1 0,1 -1,3 -3,0 -7,1 -9,2 -6,2 -21,1 -28,1 -13,0 -27,1 -39,0l-1 -1zm84 -4c2,-1 1,-2 2,-3 2,-2 2,-1 3,-3 2,-5 3,-1 3,-10 0,-4 0,-8 0,-12 0,-5 -3,-2 -4,-8 -1,-1 -1,0 -2,-2 -1,-1 -3,-3 -5,-4 -5,-3 -3,-3 -8,-4 -15,-3 -4,-2 -23,-2 -6,0 -50,-1 -51,0 -3,3 -2,6 -2,11l0 41c0,4 6,3 10,3l36 0c13,0 22,1 32,-3 2,-1 3,-1 5,-2 2,-1 1,-2 4,-2z"/>
   <path class="fil6" d="M151 499c1,-3 2,-3 4,-5 0,0 1,0 1,0 2,-1 4,-2 7,-2 6,0 10,0 14,4 4,3 3,18 3,24 0,5 0,6 -2,9 -5,0 -5,-2 -8,-3 -2,1 -3,2 -6,3 -9,2 -16,-3 -16,-11 0,-2 2,-4 3,-6 4,-4 8,-3 14,-4 3,-1 4,-2 6,-3 0,-4 -2,-4 -3,-7 -2,0 -4,0 -6,1 -2,0 -2,1 -4,2 -2,1 -9,2 -7,-2zm-40 -17c2,0 2,-2 4,-1 1,0 2,1 3,2l0 13c9,1 2,-3 14,-3 4,0 3,-1 5,1 2,1 2,1 4,3 0,0 0,1 1,1 3,3 3,5 3,12 0,10 -1,13 -8,17 -3,2 -6,2 -10,1 -5,-1 -1,-3 -9,-3 0,0 -7,11 -7,-7 0,-9 0,-29 0,-36zm49 9c-5,-1 -5,1 -7,3 -2,2 -4,4 -5,7 2,2 4,3 9,2 1,0 3,0 4,-1 3,-2 -1,-2 6,-2 1,1 1,3 2,4 -3,2 -2,1 -6,2l-4 1c-3,1 -5,1 -7,1 -3,2 0,3 -4,3 -1,-2 1,-1 -2,-7 -3,-6 1,-5 -6,-10 -2,-2 -1,-3 -5,-3 -14,0 -10,2 -14,3 -3,-4 3,-17 -8,-16 -6,1 -4,11 -4,20 0,8 0,16 0,24 0,14 9,7 13,6 2,1 3,2 6,2 3,1 6,1 9,0 4,-2 8,-6 8,-11 2,1 1,0 2,2 1,3 -1,1 4,7 3,4 11,3 16,1 3,-1 3,-1 6,1 4,1 8,0 9,-4 0,-8 1,-27 -4,-31l-4 -3c-4,-2 -10,-1 -14,-1z"/>
   <path class="fil1" d="M200 500l0 0c0,-1 3,-1 5,-1 1,0 2,1 3,2 7,6 -1,27 7,27 5,-1 3,-7 3,-12 -1,-8 2,-17 -6,-22 -2,-1 -9,-3 -12,2 -1,0 -1,0 -1,1 -2,1 0,0 -2,1 -2,-1 -2,-2 -3,-5l-7 0c-1,7 -1,30 0,35l7 0c1,-8 0,-22 1,-24 0,-2 3,-3 5,-4z"/>
   <path class="fil8" d="M290 222c-1,-2 0,-4 0,-6 1,-2 -1,-13 -3,-15 -1,-1 -1,-1 -1,-2 -4,-2 -5,-4 -7,-5 -4,-2 -6,-3 -9,-3 0,0 0,0 0,0 1,1 7,4 9,5 1,1 1,2 2,2 4,2 1,1 5,6 2,3 1,2 2,7 0,4 0,13 -2,15l-2 2c0,0 0,1 0,1l-5 4c-2,1 -8,4 -10,4 -7,1 -65,1 -66,1l-1 -46c3,-2 3,-1 7,-1l43 0c5,0 14,1 18,0 -1,-1 -1,0 -2,-1l-6 -1c-8,0 -43,0 -55,0 -2,0 -3,0 -4,1 -1,0 -3,1 -3,2 0,13 0,26 0,39 0,10 1,9 10,9 15,0 55,2 65,-3 2,-1 4,-2 6,-3 1,-1 1,-1 3,-2 0,-1 3,-5 4,-6l2 -4z"/>
   <path class="fil7" d="M290 222l-2 4c-1,1 -4,5 -4,6 -2,1 -2,1 -3,2 -2,1 -4,2 -6,3 -10,5 -50,3 -65,3 -9,0 -10,1 -10,-9 0,-13 0,-26 0,-39 0,-1 2,-2 3,-2 1,-1 2,-1 4,-1 12,0 47,0 55,0l6 1c1,1 1,0 2,1l0 0c3,0 5,1 9,3 2,1 3,3 7,5 -1,-2 -1,-2 -2,-3 -3,-1 -1,-1 -3,-2 -1,-1 -2,-1 -3,-2 -2,-1 -1,-1 -3,-2l-16 -3c-3,0 -55,-1 -58,0 -1,0 -1,1 -2,2 -2,3 -1,11 -1,14 0,4 -1,36 1,38 1,1 1,1 2,1 1,0 3,0 4,0 2,1 4,0 7,0 9,0 50,1 54,0 3,-1 2,-2 5,-2 10,-2 4,-1 10,-4 4,-2 4,-4 6,-6 1,-1 3,-1 3,-8z"/>
   <path class="fil1" d="M151 499c-2,4 5,3 7,2 2,-1 2,-2 4,-2 2,-1 4,-1 6,-1 5,0 8,7 0,11 -3,1 -10,0 -13,1 -2,2 -3,3 -4,5 -1,3 -2,2 -2,5l3 5c1,2 3,1 5,2 2,1 4,1 7,1 -1,-1 -2,-1 -2,-2 -2,-1 -1,-1 -2,-2 -1,0 -9,-3 -3,-9 3,-4 13,-5 16,-2 1,2 0,4 0,6 -1,2 -1,1 -1,3 -1,0 -1,0 -1,1 0,1 0,0 -1,1 4,1 4,3 7,4 2,-4 1,-11 1,-16 0,-4 1,-12 -2,-15l-5 -3c-2,-1 -10,-1 -14,1 -1,1 -2,1 -3,2l-3 2z"/>
   <path class="fil1" d="M293 502c0,-1 0,-1 -1,-2 -1,-1 -1,-2 -2,-3 -6,-1 -3,-4 -12,-4 -1,0 -3,0 -4,0 -3,1 -6,4 -7,5 -1,1 -1,0 -2,2 -1,2 1,2 -2,6 -2,3 -1,8 0,10 2,3 1,2 2,6 3,1 2,1 4,3 2,1 4,1 5,-1 0,-1 -2,-1 -3,-1 -1,-1 1,-2 -3,-5 -1,-2 -2,-12 1,-15 3,-4 3,-6 11,-5 7,0 4,4 8,6 2,3 1,10 0,13l-2 0c0,4 0,4 -2,6 -1,0 -5,1 -7,1 1,1 1,1 1,1l2 1c4,1 7,0 10,-3l1 -1c0,-1 0,-1 1,-2 1,-1 1,0 2,-3 1,-3 0,-12 -1,-15z"/>
   <path class="fil1" d="M233 520c0,-5 -2,-7 -1,-13 1,-5 0,-4 3,-6 1,-1 1,-1 2,-2 1,-2 9,-2 10,1 3,5 2,5 8,4 0,-2 -1,-3 -2,-5 -3,-7 -19,-5 -22,-2l-6 8c0,4 1,15 4,17 3,3 0,2 6,5 4,2 11,0 15,-1 1,-1 4,-4 4,-6 1,-3 -2,-4 -5,-1 -2,3 -1,3 -4,4 -8,2 -10,-2 -12,-3z"/>
   <path class="fil7" d="M269 508c0,-1 3,-10 10,-9 2,0 5,2 5,4 1,1 2,6 2,8 0,13 -10,14 -14,8 -4,-5 -3,-5 -3,-11zm24 -6c1,3 2,12 1,15 -1,3 -1,2 -2,3 -1,1 -1,1 -1,2l-1 1c-3,3 -6,4 -10,3l-2 -1c0,0 0,0 -1,-1 2,0 6,-1 7,-1 2,-2 2,-2 2,-6l2 0c1,-3 2,-10 0,-13 -4,-2 -1,-6 -8,-6 -8,-1 -8,1 -11,5 -3,3 -2,13 -1,15 4,3 2,4 3,5 1,0 3,0 3,1 -1,2 -3,2 -5,1 -2,-2 -1,-2 -4,-3 -1,-4 0,-3 -2,-6 -1,-2 -2,-7 0,-10 3,-4 1,-4 2,-6 1,-2 1,-1 2,-2 1,-1 4,-4 7,-5 1,0 3,0 4,0 9,0 6,3 12,4l-5 -4c-2,-1 -13,-1 -15,0 -5,3 -5,5 -8,9 -2,3 -1,3 -1,7 -1,10 -1,7 3,13 2,4 5,6 10,7 7,1 14,-1 18,-6 1,-2 2,-2 3,-6 0,-2 1,-14 -2,-15z"/>
   <path class="fil6" d="M290 497c1,1 1,2 2,3 1,1 1,1 1,2 3,1 2,13 2,15 -1,4 -2,4 -3,6 -4,5 -11,7 -18,6 -5,-1 -8,-3 -10,-7 -4,-6 -4,-3 -3,-13 0,-4 -1,-4 1,-7 3,-4 3,-6 8,-9 2,-1 13,-1 15,0l5 4zm-46 25c-2,-1 -3,-1 -5,-1 -2,0 0,-1 -3,-3 0,0 0,0 0,0 -1,-1 -2,-2 -2,-6 0,-3 0,-7 2,-8 1,-2 4,-3 6,-4 1,1 2,2 3,3 1,1 1,2 2,3 10,1 12,-2 12,3 0,2 0,4 -1,5 -3,2 -6,0 -9,1 -2,1 -3,3 -5,6l0 1zm11 -24c0,2 2,4 3,6 -2,1 -4,1 -7,1 -3,0 -3,-1 -4,-4 -1,-2 -3,-2 -6,-2 -8,0 -10,10 -7,18 0,3 4,7 8,6 4,-1 2,0 2,-1 4,0 2,-3 5,-5 3,-2 6,-1 8,0 -2,7 -4,7 -6,10 4,-1 6,-5 7,-8 3,1 1,0 3,2 0,0 1,1 1,2 1,1 2,2 3,3 4,5 12,6 18,4 7,-1 4,-3 9,-4 1,-1 0,-1 2,-3 1,-1 1,-1 2,-3 -1,-6 1,-11 -1,-18 0,-2 0,-2 -1,-3 -2,-2 -1,-1 -2,-3l-6 -4c-3,-1 -15,-1 -17,0 -2,1 -1,1 -3,3 -3,1 -5,5 -6,8 -4,-2 -1,-4 -5,-5z"/>
   <path class="fil4" d="M244 522l0 -1c2,-3 3,-5 5,-6 3,-1 6,1 9,-1 1,-1 1,-3 1,-5 0,-5 -2,-2 -12,-3 -1,-1 -1,-2 -2,-3 -1,-1 -2,-2 -3,-3 -2,1 -5,2 -6,4 -2,1 -2,5 -2,8 0,4 1,5 2,6 0,0 0,0 0,0 3,2 1,3 3,3 2,0 3,0 5,1z"/>
   <path class="fil7" d="M170 514c0,3 0,6 -3,8 -2,2 -12,1 -9,-5 1,-3 7,-5 12,-3zm-19 -15l3 -2c1,-1 2,-1 3,-2 4,-2 12,-2 14,-1l5 3c3,3 2,11 2,15 0,5 1,12 -1,16 -3,-1 -3,-3 -7,-4 1,-1 1,0 1,-1 0,-1 0,-1 1,-1 0,-2 0,-1 1,-3 0,-2 1,-4 0,-6 -3,-3 -13,-2 -16,2 -6,6 2,9 3,9 1,1 0,1 2,2 0,1 1,1 2,2 -3,0 -5,0 -7,-1 -2,-1 -4,0 -5,-2l-3 -5c0,-3 1,-2 2,-5 1,-2 2,-3 4,-5 3,-1 10,0 13,-1 8,-4 5,-11 0,-11 1,3 3,3 3,7 -2,1 -3,2 -6,3 -6,1 -10,0 -14,4 -1,2 -3,4 -3,6 0,8 7,13 16,11 3,-1 4,-2 6,-3 3,1 3,3 8,3 2,-3 2,-4 2,-9 0,-6 1,-21 -3,-24 -4,-4 -8,-4 -14,-4 -3,0 -5,1 -7,2 0,0 -1,0 -1,0 -2,2 -3,2 -4,5z"/>
   <path class="fil7" d="M233 520c2,1 4,5 12,3 3,-1 2,-1 4,-4 3,-3 6,-2 5,1 0,2 -3,5 -4,6 -4,1 -11,3 -15,1 -6,-3 -3,-2 -6,-5 -3,-2 -4,-13 -4,-17l6 -8c3,-3 19,-5 22,2 1,2 2,3 2,5 -6,1 -5,1 -8,-4 -1,-3 -9,-3 -10,-1 -1,1 -1,1 -2,2 -3,2 -2,1 -3,6 -1,6 1,8 1,13zm18 7c2,-3 4,-3 6,-10 -2,-1 -5,-2 -8,0 -3,2 -1,5 -5,5 0,1 2,0 -2,1 -4,1 -8,-3 -8,-6 -3,-8 -1,-18 7,-18 3,0 5,0 6,2 1,3 1,4 4,4 3,0 5,0 7,-1 -1,-2 -3,-4 -3,-6 -4,-8 -17,-7 -21,-6 -1,1 -2,2 -3,3 -3,2 -2,1 -4,3 -2,4 -4,5 -5,10 0,13 3,11 5,16 2,2 1,1 4,3 1,1 2,2 4,2 9,3 13,0 16,-2z"/>
   <path class="fil9" d="M200 500c-2,1 -5,2 -5,4 -1,2 0,16 -1,24l-7 0c-1,-5 -1,-28 0,-35l7 0c1,3 1,4 3,5 2,-1 0,0 2,-1 0,-1 0,-1 1,-1 3,-5 10,-3 12,-2 8,5 5,14 6,22 0,5 2,11 -3,12 -8,0 0,-21 -7,-27 -1,-1 -2,-2 -3,-2 -2,0 -5,0 -5,1 3,0 3,-1 6,1 5,4 3,6 3,18 0,6 -1,10 4,11 6,1 7,-3 7,-8 0,-12 3,-30 -12,-31 -4,0 -7,0 -9,3l-2 2c-1,-2 -2,-4 -3,-4 -2,-1 -6,-1 -7,-1 -2,3 -2,4 -2,8 0,6 -1,28 1,29l7 1c1,0 -1,1 1,0 4,-1 2,-10 2,-16 0,-5 -1,-8 2,-10 2,-2 1,0 2,-3z"/>
   <path class="fil10" d="M109 323l1 -1c0,-3 0,-3 -1,-5 1,-2 0,0 1,-1 0,-2 0,-5 -1,-7l0 -1c-3,-1 -18,-1 -23,-1 -1,1 0,-1 -1,0l0 3c5,1 2,1 4,2 5,1 -1,-2 3,1 0,0 1,0 1,0l4 3c3,2 2,1 3,4 3,0 5,-1 8,1l1 2z"/>
   <path class="fil4" d="M276 521l3 0 3 -3c3,-3 2,-13 1,-15 -1,0 -1,0 -2,-1 -3,-2 1,-2 -5,-1 -4,5 -4,4 -4,9 0,3 0,5 1,7l3 4z"/>
   <path class="fil8" d="M122 508c0,-1 1,-4 1,-5 3,0 7,0 10,1 0,5 0,9 -1,14 -3,0 -1,1 -7,1 0,0 0,-1 -1,-1l-1 -2c0,0 0,0 0,0 -2,-3 -1,-1 -1,-8zm13 8c1,-3 1,-7 0,-9 0,-1 -1,-4 -1,-4 -1,-2 -4,-4 -7,-4 -8,0 -13,14 -4,22 1,2 1,1 3,2 8,0 8,-3 9,-7z"/>
   <path class="fil4" d="M122 508c0,7 -1,5 1,8 0,0 0,0 0,0l1 2c1,0 1,1 1,1 6,0 4,-1 7,-1 1,-5 1,-9 1,-14 -3,-1 -7,-1 -10,-1 0,1 -1,4 -1,5z"/>
   <path class="fil8" d="M273 517c-1,-2 -1,-4 -1,-7 0,-5 0,-4 4,-9 6,-1 2,-1 5,1 1,1 1,1 2,1 1,2 2,12 -1,15l-3 3 -3 0 -3 -4zm-4 -9c0,6 -1,6 3,11 4,6 14,5 14,-8 0,-2 -1,-7 -2,-8 0,-2 -3,-4 -5,-4 -7,-1 -10,8 -10,9z"/>
   <path class="fil5" d="M170 514c-5,-2 -11,0 -12,3 -3,6 7,7 9,5 3,-2 3,-5 3,-8z"/>
  </g>
 </g>
</svg>
