<?xml version="1.0" encoding="UTF-8"?>
<!DOCTYPE svg PUBLIC "-//W3C//DTD SVG 1.1//EN" "http://www.w3.org/Graphics/SVG/1.1/DTD/svg11.dtd">
<!-- Creator: CorelDRAW Home & Student X7 -->
<svg xmlns="http://www.w3.org/2000/svg" xml:space="preserve" width="30.02mm" height="30.02mm" version="1.1" style="shape-rendering:geometricPrecision; text-rendering:geometricPrecision; image-rendering:optimizeQuality; fill-rule:evenodd; clip-rule:evenodd"
viewBox="0 0 1670 1670"
 xmlns:xlink="http://www.w3.org/1999/xlink">
 <defs>
  <style type="text/css">
   <![CDATA[
    .str0 {stroke:#FEFEFE;stroke-width:1.1067}
    .fil0 {fill:#FEFEFE}
    .fil1 {fill:#00914F;fill-rule:nonzero}
    .fil2 {fill:#FAB91C;fill-rule:nonzero}
   ]]>
  </style>
 </defs>
 <g id="Camada_x0020_1">
  <metadata id="CorelCorpID_0Corel-Layer"/>
  <g id="_641679648">
   <rect class="fil0 str0" x="1" y="1" width="1668" height="1668" rx="71" ry="96"/>
   <g>
    <g>
     <path class="fil1" d="M593 680c86,-128 170,-256 257,-382 136,0 272,2 408,0 0,4 0,13 0,17 -116,172 -228,347 -346,517l-4 3c-46,79 -101,152 -150,229 -67,104 -136,206 -203,309 -143,0 -286,0 -429,0 100,-146 198,-295 298,-441l2 -3c55,-83 113,-165 167,-249z"/>
     <path class="fil1" d="M1249 352c9,-20 10,-45 31,-56 2,224 2,447 0,670 -81,-18 -161,-44 -236,-80 64,-180 138,-356 205,-534z"/>
     <path class="fil1" d="M935 1157c59,24 120,46 183,53 55,1 111,5 163,-16 0,59 0,119 0,178 -142,2 -285,1 -428,0 28,-71 55,-143 82,-215z"/>
    </g>
    <g>
     <path class="fil2" d="M319 713c83,-46 183,-55 274,-33 -54,84 -112,166 -167,249 -15,-18 -40,-17 -61,-20 -69,-7 -136,19 -195,53 -47,28 -94,58 -139,91l-3 -11c70,-129 159,-257 291,-329z"/>
     <path class="fil2" d="M912 832c6,-1 17,-2 23,-3 35,21 72,39 109,57 75,36 155,62 236,80 86,19 169,-19 240,-64 38,-22 75,-47 111,-73l10 3c-83,149 -190,305 -360,362 -52,21 -108,17 -163,16 -63,-7 -124,-29 -183,-53 -61,-27 -120,-58 -177,-93 49,-77 104,-150 150,-229l4 -3z"/>
    </g>
   </g>
  </g>
 </g>
</svg>
