<?xml version="1.0" encoding="UTF-8"?>
<!DOCTYPE svg PUBLIC "-//W3C//DTD SVG 1.1//EN" "http://www.w3.org/Graphics/SVG/1.1/DTD/svg11.dtd">
<!-- Creator: CorelDRAW Home & Student X7 -->
<svg xmlns="http://www.w3.org/2000/svg" xml:space="preserve" width="29mm" height="29mm" version="1.1" style="shape-rendering:geometricPrecision; text-rendering:geometricPrecision; image-rendering:optimizeQuality; fill-rule:evenodd; clip-rule:evenodd"
viewBox="0 0 427 427"
 xmlns:xlink="http://www.w3.org/1999/xlink">
 <defs>
  <style type="text/css">
   <![CDATA[
    .fil0 {fill:#000050;fill-rule:nonzero}
    .fil3 {fill:#1CD7C9;fill-rule:nonzero}
    .fil1 {fill:#4D86F9;fill-rule:nonzero}
    .fil2 {fill:#926EF9;fill-rule:nonzero}
   ]]>
  </style>
 </defs>
 <g id="__x0023_Layer_x0020_1">
  <metadata id="CorelCorpID_0Corel-Layer"/>
  <g id="_446480536">
   <g>
    <g>
     <path class="fil0" d="M0 0l427 0 0 427 -427 0 0 -427zm177 122l0 0c-8,14 -16,28 -24,42 -3,4 -4,10 -1,14 3,7 7,13 10,19l0 1c-9,1 -22,-3 -28,6 -9,14 -17,29 -25,43 -4,5 -3,11 0,16 8,14 16,28 24,42 3,5 9,7 15,7 16,0 32,0 47,0 11,-1 14,-12 18,-19 5,7 8,19 19,19 16,0 32,0 49,0 5,0 10,-2 13,-7 8,-14 16,-29 25,-43 2,-5 2,-11 -1,-15 -8,-14 -16,-29 -25,-43 -6,-10 -19,-5 -29,-6 4,-7 8,-13 11,-20 3,-4 2,-10 -1,-14 -8,-14 -16,-28 -24,-42 -2,-5 -8,-7 -13,-7 -16,0 -31,0 -47,0 -5,0 -11,2 -13,7z"/>
    </g>
    <path class="fil0" d="M188 127c17,0 34,0 51,0 9,15 18,30 26,45 -5,9 -10,17 -15,26 -7,0 -14,-1 -22,0 -8,3 -10,12 -15,19 -8,0 -17,0 -25,0 -9,-15 -17,-30 -26,-45 8,-15 17,-30 26,-45z"/>
    <path class="fil0" d="M144 210c9,0 17,0 26,0 4,7 7,16 15,19 7,1 14,0 21,0 4,7 8,14 13,21 1,2 3,5 1,8 -8,14 -16,28 -25,42 -17,-1 -34,0 -51,0 -8,-15 -17,-30 -25,-45 8,-15 17,-30 25,-45z"/>
    <path class="fil0" d="M221 229c3,-6 7,-13 10,-19 17,0 35,0 52,0 8,15 17,30 25,44 -8,16 -17,31 -25,46 -17,-1 -34,0 -51,-1 -5,-5 -8,-12 -12,-18 5,-8 10,-15 13,-23 1,-11 -8,-19 -12,-29z"/>
   </g>
   <g>
    <path class="fil1" d="M177 122c2,-5 8,-7 13,-7 16,0 31,0 47,0 5,0 11,2 13,7 8,14 16,28 24,42 3,4 4,10 1,14 -3,7 -7,13 -11,20 -5,0 -9,0 -14,0 5,-9 10,-17 15,-26 -8,-15 -17,-30 -26,-45 -17,0 -34,0 -51,0 -9,15 -18,30 -26,45 9,15 17,30 26,45 8,0 17,0 25,0 -2,4 -4,8 -7,12 -7,0 -14,1 -21,0 -8,-3 -11,-12 -15,-19 -2,-4 -5,-9 -8,-13 -3,-6 -7,-12 -10,-19 -3,-4 -2,-10 1,-14 8,-14 16,-28 24,-42z"/>
   </g>
   <g>
    <path class="fil2" d="M162 197c3,4 6,9 8,13 -9,0 -17,0 -26,0 -8,15 -17,30 -25,45 8,15 17,30 25,45 17,0 34,-1 51,0 9,-14 17,-28 25,-42 2,-3 0,-6 -1,-8 -5,-7 -9,-14 -13,-21 5,0 10,0 15,0 4,10 13,18 12,29 -3,8 -8,15 -13,23 -2,4 -5,8 -7,12 -4,7 -7,18 -18,19 -15,0 -31,0 -47,0 -6,0 -12,-2 -15,-7 -8,-14 -16,-28 -24,-42 -3,-5 -4,-11 0,-16 8,-14 16,-29 25,-43 6,-9 19,-5 28,-6l0 -1z"/>
   </g>
   <g>
    <path class="fil3" d="M228 198c8,-1 15,0 22,0 5,0 9,0 14,0 10,1 23,-4 29,6 9,14 17,29 25,43 3,4 3,10 1,15 -9,14 -17,29 -25,43 -3,5 -8,7 -13,7 -17,0 -33,0 -49,0 -11,0 -14,-12 -19,-19 2,-4 5,-8 7,-12 4,6 7,13 12,18 17,1 34,0 51,1 8,-15 17,-30 25,-46 -8,-14 -17,-29 -25,-44 -17,0 -35,0 -52,0 -3,6 -7,13 -10,19 -5,0 -10,0 -15,0 3,-4 5,-8 7,-12 5,-7 7,-16 15,-19z"/>
   </g>
  </g>
 </g>
</svg>
