<?xml version="1.0" encoding="UTF-8"?>
<!DOCTYPE svg PUBLIC "-//W3C//DTD SVG 1.1//EN" "http://www.w3.org/Graphics/SVG/1.1/DTD/svg11.dtd">
<!-- Creator: CorelDRAW Home & Student X7 -->
<svg xmlns="http://www.w3.org/2000/svg" xml:space="preserve" width="29mm" height="29mm" version="1.1" style="shape-rendering:geometricPrecision; text-rendering:geometricPrecision; image-rendering:optimizeQuality; fill-rule:evenodd; clip-rule:evenodd"
viewBox="0 0 2900 2900"
 xmlns:xlink="http://www.w3.org/1999/xlink">
 <defs>
  <style type="text/css">
   <![CDATA[
    .fil1 {fill:#465EFF;fill-rule:nonzero}
    .fil0 {fill:#FBFB2F;fill-rule:nonzero}
   ]]>
  </style>
 </defs>
 <g id="__x0023_Layer_x0020_1">
  <metadata id="CorelCorpID_0Corel-Layer"/>
  <g id="_628124752">
   <g>
    <g>
     <path class="fil0" d="M0 0l2900 0 0 2900 -2900 0 0 -2900zm1449 644l0 0c-264,182 -532,358 -799,537 112,73 223,147 333,221 132,-90 266,-177 398,-266 -57,-39 -115,-76 -172,-114 73,-50 147,-101 220,-151 157,107 316,211 471,321 -256,168 -507,345 -762,516 52,37 107,70 159,108 316,-211 632,-423 947,-636 -265,-179 -529,-358 -795,-536zm479 222l0 0c54,38 109,75 164,113 53,-38 107,-73 160,-108 2,-74 1,-148 3,-222 -110,71 -218,145 -327,217zm-1215 812l0 0c-21,15 -44,26 -61,44 266,175 528,354 793,530 266,-178 531,-358 800,-533 -7,-13 -22,-19 -34,-27 -98,-65 -196,-130 -294,-196 -136,81 -265,181 -402,263 56,42 117,77 174,116 -75,47 -147,100 -221,149 -158,-103 -313,-211 -471,-315 237,-165 477,-325 715,-488 15,-10 31,-20 47,-29 -50,-41 -108,-73 -160,-112 -296,199 -590,401 -886,598zm-67 361l0 0c1,73 3,145 0,217 111,-72 221,-144 330,-219 -55,-37 -109,-74 -164,-112 -55,38 -111,76 -166,114z"/>
    </g>
   </g>
   <g>
    <path class="fil1" d="M1449 644c266,178 530,357 795,536 -315,213 -631,425 -947,636 -52,-38 -107,-71 -159,-108 255,-171 506,-348 762,-516 -155,-110 -314,-214 -471,-321 -73,50 -147,101 -220,151 57,38 115,75 172,114 -132,89 -266,176 -398,266 -110,-74 -221,-148 -333,-221 267,-179 535,-355 799,-537z"/>
    <path class="fil1" d="M1928 866c109,-72 217,-146 327,-217 -2,74 -1,148 -3,222 -53,35 -107,70 -160,108 -55,-38 -110,-75 -164,-113z"/>
    <path class="fil1" d="M713 1678c296,-197 590,-399 886,-598 52,39 110,71 160,112 -16,9 -32,19 -47,29 -238,163 -478,323 -715,488 158,104 313,212 471,315 74,-49 146,-102 221,-149 -57,-39 -118,-74 -174,-116 137,-82 266,-182 402,-263 98,66 196,131 294,196 12,8 27,14 34,27 -269,175 -534,355 -800,533 -265,-176 -527,-355 -793,-530 17,-18 40,-29 61,-44z"/>
    <path class="fil1" d="M646 2039c55,-38 111,-76 166,-114 55,38 109,75 164,112 -109,75 -219,147 -330,219 3,-72 1,-144 0,-217z"/>
   </g>
  </g>
 </g>
</svg>
