<?xml version="1.0" encoding="UTF-8"?>
<!DOCTYPE svg PUBLIC "-//W3C//DTD SVG 1.1//EN" "http://www.w3.org/Graphics/SVG/1.1/DTD/svg11.dtd">
<!-- Creator: CorelDRAW Home & Student X7 -->
<svg xmlns="http://www.w3.org/2000/svg" xml:space="preserve" width="30mm" height="30mm" version="1.1" style="shape-rendering:geometricPrecision; text-rendering:geometricPrecision; image-rendering:optimizeQuality; fill-rule:evenodd; clip-rule:evenodd"
viewBox="0 0 652 652"
 xmlns:xlink="http://www.w3.org/1999/xlink">
 <defs>
  <style type="text/css">
   <![CDATA[
    .fil1 {fill:#F68A1E;fill-rule:nonzero}
    .fil0 {fill:white;fill-rule:nonzero}
   ]]>
  </style>
 </defs>
 <g id="__x0023_Layer_x0020_1">
  <metadata id="CorelCorpID_0Corel-Layer"/>
  <g id="_670818016">
   <g>
    <path class="fil0" d="M0 0l60 0c-15,1 -32,5 -43,17 -12,11 -16,27 -17,43l0 -60z"/>
    <path class="fil0" d="M592 0l60 0 0 61c-1,-15 -4,-30 -14,-41 -11,-14 -29,-19 -46,-20z"/>
    <g>
     <path class="fil0" d="M66 258c0,-16 14,-30 29,-30 22,-1 43,0 65,0 26,0 51,17 60,42 4,10 3,22 4,33 8,-19 4,-42 18,-58 16,-19 46,-23 65,-7 9,6 14,16 19,26 5,-12 13,-25 26,-31 19,-11 46,-4 59,14 7,8 8,20 11,30 14,-20 34,-38 59,-45 21,-7 45,-7 67,1 18,6 28,30 20,48 -3,9 -10,15 -17,21 11,1 23,5 30,15 11,14 6,32 7,48 1,14 0,31 -12,40 -27,20 -63,26 -95,16 -16,-5 -30,-14 -42,-25 -6,14 -18,26 -33,28 -17,3 -33,-7 -43,-20 -8,10 -19,19 -33,20 -16,2 -32,-7 -42,-20 -7,10 -17,19 -30,20 -16,3 -30,-6 -40,-17 -11,10 -26,17 -41,17 -25,1 -50,0 -75,1 -11,0 -22,-3 -28,-11 -8,-8 -8,-19 -8,-28 0,-43 0,-86 0,-128zm374 11l0 0c-10,10 -15,24 -21,37 -5,-16 -5,-34 -12,-49 -10,-21 -40,-27 -58,-12 -14,10 -15,29 -23,45 -8,-13 -8,-31 -20,-42 -14,-15 -39,-15 -54,-1 -7,6 -11,15 -12,25 -5,25 -10,50 -14,75 -5,-10 -11,-19 -20,-26 7,-12 11,-26 8,-40 -4,-25 -27,-44 -52,-45 -22,0 -44,0 -66,0 -12,0 -22,11 -21,22 -1,42 0,83 -1,125 1,9 0,19 7,26 6,8 17,7 26,7 24,0 48,1 72,0 17,-1 31,-12 41,-25 6,19 27,31 45,22 15,-6 20,-23 22,-37 4,10 7,23 16,31 12,11 32,12 44,1 11,-8 13,-21 18,-33 2,11 3,23 11,31 12,13 33,13 45,1 10,-9 12,-22 11,-34 23,38 74,54 115,38 14,-5 30,-13 33,-28 1,-15 0,-29 0,-44 1,-13 -10,-26 -24,-27 -12,-1 -24,-1 -37,0 -11,1 -19,13 -15,24 2,8 11,11 18,14 -1,3 -1,7 -3,9 -18,3 -36,-8 -40,-26 -5,-16 7,-34 24,-39 14,-5 29,7 43,0 16,-7 22,-29 12,-43 -6,-8 -15,-12 -25,-14 -34,-7 -71,5 -93,32zm62 32l0 0c-20,8 -21,41 -1,48 -3,-10 -8,-21 -3,-31 3,-9 13,-12 20,-17 -3,-5 -11,-1 -16,0z"/>
    </g>
    <g>
     <path class="fil0" d="M85 247c6,-7 17,-5 25,-5 19,0 37,-1 56,0 24,2 44,24 43,48 1,12 -4,22 -10,32 9,7 17,15 20,26 8,21 -2,46 -21,56 -14,8 -31,6 -47,6 -19,0 -37,1 -55,0 -10,0 -17,-9 -16,-19 0,-41 0,-83 0,-124 0,-7 0,-15 5,-20zm50 36l0 0c0,7 0,14 0,22 7,-1 15,1 21,-4 6,-4 4,-15 -3,-17 -6,-1 -12,-1 -18,-1zm0 65l0 0c0,7 0,14 0,20 7,0 13,0 19,0 2,-2 4,-5 6,-9 1,-4 -4,-8 -6,-11 -6,0 -12,0 -19,0z"/>
    </g>
    <path class="fil0" d="M475 249c22,-10 48,-12 70,-2 15,7 16,30 2,39 -9,8 -21,2 -31,1 -23,-3 -45,18 -44,41 1,25 30,44 54,35 1,-6 1,-13 1,-19 -6,-2 -14,-2 -17,-8 -4,-7 1,-18 10,-19 11,-1 22,-1 34,0 10,0 20,9 20,19 1,11 0,21 1,32 0,9 0,19 -8,25 -18,15 -43,21 -66,18 -36,-4 -69,-33 -76,-69 -8,-38 15,-78 50,-93z"/>
    <path class="fil0" d="M246 270c3,-18 21,-31 38,-28 12,2 22,11 26,22 6,15 10,31 16,45 7,-15 11,-32 17,-47 6,-15 24,-24 39,-19 13,4 23,15 25,28 6,35 13,70 19,106 2,12 -3,26 -15,31 -14,7 -33,-2 -37,-17 -3,-12 -4,-25 -7,-38 -8,15 -9,32 -18,46 -11,16 -37,14 -47,-2 -8,-14 -9,-30 -17,-43 -4,14 -3,31 -11,45 -9,13 -30,15 -41,3 -7,-8 -8,-18 -6,-28 7,-34 12,-70 19,-104z"/>
    <path class="fil0" d="M0 594c2,14 5,29 16,40 11,12 28,17 44,18l-60 0 0 -58z"/>
    <path class="fil0" d="M632 638c13,-11 18,-27 20,-43l0 57 -58 0c13,-2 28,-4 38,-14z"/>
   </g>
   <g>
    <g>
     <path class="fil1" d="M60 0l532 0c17,1 35,6 46,20 10,11 13,26 14,41l0 534c-2,16 -7,32 -20,43 -10,10 -25,12 -38,14l-534 0c-16,-1 -33,-6 -44,-18 -11,-11 -14,-26 -16,-40l0 -534c1,-16 5,-32 17,-43 11,-12 28,-16 43,-17zm6 258l0 0c0,42 0,85 0,128 0,9 0,20 8,28 6,8 17,11 28,11 25,-1 50,0 75,-1 15,0 30,-7 41,-17 10,11 24,20 40,17 13,-1 23,-10 30,-20 10,13 26,22 42,20 14,-1 25,-10 33,-20 10,13 26,23 43,20 15,-2 27,-14 33,-28 12,11 26,20 42,25 32,10 68,4 95,-16 12,-9 13,-26 12,-40 -1,-16 4,-34 -7,-48 -7,-10 -19,-14 -30,-15 7,-6 14,-12 17,-21 8,-18 -2,-42 -20,-48 -22,-8 -46,-8 -67,-1 -25,7 -45,25 -59,45 -3,-10 -4,-22 -11,-30 -13,-18 -40,-25 -59,-14 -13,6 -21,19 -26,31 -5,-10 -10,-20 -19,-26 -19,-16 -49,-12 -65,7 -14,16 -10,39 -18,58 -1,-11 0,-23 -4,-33 -9,-25 -34,-42 -60,-42 -22,0 -43,-1 -65,0 -15,0 -29,14 -29,30z"/>
    </g>
    <g>
     <path class="fil1" d="M440 269c22,-27 59,-39 93,-32 10,2 19,6 25,14 10,14 4,36 -12,43 -14,7 -29,-5 -43,0 -17,5 -29,23 -24,39 4,18 22,29 40,26 2,-2 2,-6 3,-9 -7,-3 -16,-6 -18,-14 -4,-11 4,-23 15,-24 13,-1 25,-1 37,0 14,1 25,14 24,27 0,15 1,29 0,44 -3,15 -19,23 -33,28 -41,16 -92,0 -115,-38 1,12 -1,25 -11,34 -12,12 -33,12 -45,-1 -8,-8 -9,-20 -11,-31 -5,12 -7,25 -18,33 -12,11 -32,10 -44,-1 -9,-8 -12,-21 -16,-31 -2,14 -7,31 -22,37 -18,9 -39,-3 -45,-22 -10,13 -24,24 -41,25 -24,1 -48,0 -72,0 -9,0 -20,1 -26,-7 -7,-7 -6,-17 -7,-26 1,-42 0,-83 1,-125 -1,-11 9,-22 21,-22 22,0 44,0 66,0 25,1 48,20 52,45 3,14 -1,28 -8,40 9,7 15,16 20,26 4,-25 9,-50 14,-75 1,-10 5,-19 12,-25 15,-14 40,-14 54,1 12,11 12,29 20,42 8,-16 9,-35 23,-45 18,-15 48,-9 58,12 7,15 7,33 12,49 6,-13 11,-27 21,-37zm-355 -22l0 0c-5,5 -5,13 -5,20 0,41 0,83 0,124 -1,10 6,19 16,19 18,1 36,0 55,0 16,0 33,2 47,-6 19,-10 29,-35 21,-56 -3,-11 -11,-19 -20,-26 6,-10 11,-20 10,-32 1,-24 -19,-46 -43,-48 -19,-1 -37,0 -56,0 -8,0 -19,-2 -25,5zm390 2l0 0c-35,15 -58,55 -50,93 7,36 40,65 76,69 23,3 48,-3 66,-18 8,-6 8,-16 8,-25 -1,-11 0,-21 -1,-32 0,-10 -10,-19 -20,-19 -12,-1 -23,-1 -34,0 -9,1 -14,12 -10,19 3,6 11,6 17,8 0,6 0,13 -1,19 -24,9 -53,-10 -54,-35 -1,-23 21,-44 44,-41 10,1 22,7 31,-1 14,-9 13,-32 -2,-39 -22,-10 -48,-8 -70,2zm-229 21l0 0c-7,34 -12,70 -19,104 -2,10 -1,20 6,28 11,12 32,10 41,-3 8,-14 7,-31 11,-45 8,13 9,29 17,43 10,16 36,18 47,2 9,-14 10,-31 18,-46 3,13 4,26 7,38 4,15 23,24 37,17 12,-5 17,-19 15,-31 -6,-36 -13,-71 -19,-106 -2,-13 -12,-24 -25,-28 -15,-5 -33,4 -39,19 -6,15 -10,32 -17,47 -6,-14 -10,-30 -16,-45 -4,-11 -14,-20 -26,-22 -17,-3 -35,10 -38,28z"/>
    </g>
    <path class="fil1" d="M135 283c6,0 12,0 18,1 7,2 9,13 3,17 -6,5 -14,3 -21,4 0,-8 0,-15 0,-22z"/>
    <path class="fil1" d="M502 301c5,-1 13,-5 16,0 -7,5 -17,8 -20,17 -5,10 0,21 3,31 -20,-7 -19,-40 1,-48z"/>
    <path class="fil1" d="M135 348c7,0 13,0 19,0 2,3 7,7 6,11 -2,4 -4,7 -6,9 -6,0 -12,0 -19,0 0,-6 0,-13 0,-20z"/>
   </g>
  </g>
 </g>
</svg>
