<?xml version="1.0" encoding="UTF-8"?>
<!DOCTYPE svg PUBLIC "-//W3C//DTD SVG 1.1//EN" "http://www.w3.org/Graphics/SVG/1.1/DTD/svg11.dtd">
<!-- Creator: CorelDRAW Home & Student X7 -->
<svg xmlns="http://www.w3.org/2000/svg" xml:space="preserve" width="29.2154mm" height="21.3279mm" version="1.1" style="shape-rendering:geometricPrecision; text-rendering:geometricPrecision; image-rendering:optimizeQuality; fill-rule:evenodd; clip-rule:evenodd"
viewBox="0 0 1558 1137"
 xmlns:xlink="http://www.w3.org/1999/xlink">
 <defs>
  <style type="text/css">
   <![CDATA[
    .fil0 {fill:#003A78;fill-rule:nonzero}
    .fil1 {fill:#AF0F1F;fill-rule:nonzero}
   ]]>
  </style>
 </defs>
 <g id="__x0023_Layer_x0020_1">
  <metadata id="CorelCorpID_0Corel-Layer"/>
  <g id="_622055152">
   <g>
    <path class="fil0" d="M150 84c32,-30 65,-59 102,-84 0,97 0,193 0,290 33,-22 70,-37 100,-63 83,-66 206,-73 297,-19 25,22 51,44 72,70 16,18 18,43 26,65 20,54 17,116 -5,169 -7,55 -57,87 -82,132 -6,11 -14,20 -22,28 -15,16 -28,33 -42,50 23,-42 45,-85 46,-133 -52,0 -105,0 -157,0 -9,32 -22,67 -54,84 -31,26 -76,30 -113,17 -28,-13 -60,-29 -69,-61 -21,-43 -16,-96 15,-133 22,-31 62,-48 101,-46 54,1 99,45 116,93 54,0 107,1 161,0 -7,-37 -18,-73 -38,-105 -20,-24 -34,-54 -60,-74 -59,-41 -131,-71 -204,-64 -56,3 -109,28 -156,58 -31,31 -65,63 -82,104 -27,63 -27,136 -8,201 16,31 26,67 55,88 24,23 48,48 77,65 -68,-21 -134,-58 -171,-120 -28,-43 -40,-94 -39,-144 0,-119 0,-238 0,-357 47,-35 88,-77 134,-111z"/>
    <path class="fil0" d="M92 903c7,-1 20,-1 27,-1 3,13 5,27 6,41 23,-4 45,-10 67,-16 0,11 1,22 1,33 -23,0 -49,-2 -67,14 21,10 43,18 67,23 -1,6 -1,18 -1,24 -30,-9 -71,-14 -75,-52 -6,2 -12,4 -18,7 -4,21 -12,40 -28,55 13,6 25,13 37,20 0,-12 0,-23 1,-35 11,3 22,6 34,9 -8,14 -16,28 -24,42 40,17 77,42 120,51 -13,7 -27,13 -40,19 -36,-10 -61,-38 -87,-61 -15,12 -27,29 -47,34 -21,8 -43,5 -65,3 36,-8 72,-19 98,-47 -11,-6 -22,-11 -33,-15 -1,-3 -3,-9 -4,-12 -11,-2 -22,-4 -33,-6 22,-16 43,-32 58,-55 -17,2 -33,6 -50,8 -5,-6 -10,-13 -15,-20 35,-4 69,-10 101,-23 -10,-6 -19,-13 -29,-19 -1,-5 -1,-16 -1,-21z"/>
    <path class="fil0" d="M642 903c9,1 15,8 22,12 -2,5 -6,13 -8,17 13,15 19,32 19,51 -10,-9 -21,-18 -32,-26 -7,8 -14,16 -21,24 12,0 23,0 35,0 1,2 4,7 5,9 -8,7 -16,13 -24,20 8,0 23,0 30,0 -6,10 -13,20 -20,30 0,6 0,18 0,24 8,-9 17,-17 26,-25 -4,13 -11,25 -19,37 7,-1 19,-2 26,-3 -3,5 -8,14 -11,19 -30,9 -57,35 -89,30 -7,-26 30,-27 46,-39 -7,-8 -24,-13 -17,-26 6,0 18,1 24,1 -1,-4 -2,-12 -3,-16 -8,1 -15,3 -23,4 -2,-4 -6,-13 -8,-18 12,-6 24,-13 37,-20 -12,-1 -27,-16 -38,-4 -12,12 -19,29 -34,38 -12,1 -22,-7 -32,-12 24,-18 46,-39 66,-62 18,-19 27,-44 43,-65z"/>
    <g>
     <path class="fil0" d="M370 932c32,12 50,-31 82,-22 2,4 7,11 9,15 -18,16 -35,34 -48,54 16,-2 33,-3 50,-2 -6,41 -3,82 -4,124 21,-7 43,-12 65,-13 -7,13 -15,30 -31,35 -37,16 -77,-1 -114,-8 -33,-8 -68,-7 -102,-4 1,-7 2,-21 2,-27 14,1 27,2 40,4 -20,-28 -28,-61 -17,-94 -2,-5 -6,-15 -8,-20 14,3 28,6 42,9 -7,19 -15,37 -17,57 1,18 11,33 17,50 6,1 19,3 25,4 -2,-35 -6,-71 -1,-106 14,9 14,26 18,41 10,-7 21,-13 26,-26l-24 4c0,-10 5,-17 11,-24 -1,-2 -3,-7 -4,-10 13,-10 26,-20 34,-34 -20,7 -38,17 -59,21 2,-9 5,-19 8,-28zm41 69l0 0c7,4 22,11 29,15 -8,9 -17,17 -26,25 5,2 15,7 21,10 -5,8 -11,15 -17,22 -2,11 -4,22 -6,32 11,1 21,1 32,2 -6,-9 -11,-18 -17,-26 4,-3 12,-8 17,-11 2,-26 0,-52 0,-78 -11,2 -22,5 -33,9zm-31 51l0 0c7,9 29,1 20,-11 -7,-9 -29,-1 -20,11zm0 17l0 0c-1,10 -2,19 -3,29 6,0 18,1 24,1 0,-10 0,-20 0,-30 -5,0 -16,0 -21,0z"/>
    </g>
    <path class="fil0" d="M940 910c11,3 22,6 32,10 -20,23 -43,47 -74,54 2,-28 27,-44 42,-64z"/>
    <g>
     <path class="fil0" d="M694 932c22,-7 44,-15 67,-17 1,3 4,9 5,12 -7,32 -14,65 -30,93 -10,-1 -19,-2 -29,-4 0,9 0,17 0,25 32,-2 53,-27 72,-49 8,8 17,16 25,23 -17,11 -34,20 -52,30 19,9 38,16 57,26 -6,8 -11,17 -17,26 -14,-14 -30,-25 -47,-35 -13,-7 -26,-13 -40,-18 2,13 4,26 6,39 8,-3 24,-10 32,-13 -3,29 -17,61 -50,65 -4,-68 -1,-135 1,-203zm20 12l0 0c-1,5 -2,15 -3,20 10,0 20,0 30,0 0,-7 0,-14 0,-21 -9,0 -18,0 -27,1zm-7 57l0 0c15,-2 29,-7 39,-20 -13,-1 -26,-1 -39,-2 0,8 0,15 0,22z"/>
    </g>
    <path class="fil0" d="M310 921c15,11 38,22 40,44 -8,12 -22,0 -33,-1 -6,-14 -8,-28 -7,-43z"/>
    <g>
     <path class="fil0" d="M1389 944c30,0 58,-10 85,-21 13,7 22,20 31,31 -14,6 -29,12 -43,17 14,8 28,16 38,29 24,-2 46,7 58,29 -17,36 -27,80 -63,103 -5,-11 -9,-22 -13,-34 -34,0 -66,11 -98,17 -20,-18 -21,-46 -30,-70 -6,-14 -2,-29 -1,-43 6,14 12,29 19,43 12,-12 26,-21 40,-30 -2,-8 -5,-17 -7,-25 14,4 26,12 35,23 6,-1 18,-4 25,-5 -3,-12 -3,-33 -21,-28 -22,-1 -43,0 -64,4 10,-5 20,-9 31,-14 -8,-9 -15,-17 -22,-26zm104 78l0 0c-12,14 -16,32 -24,48 10,4 20,9 30,14 13,-21 25,-44 24,-70 -10,2 -20,5 -30,8zm-61 58l0 0c5,-2 11,-5 16,-7 4,-15 8,-30 9,-46 -24,6 -20,34 -25,53zm-49 -29l0 0c0,12 0,24 0,36 10,-1 19,-2 29,-3 0,-13 1,-25 1,-37 -10,1 -20,2 -30,4z"/>
    </g>
    <path class="fil0" d="M976 935c24,-1 49,-1 74,-3 3,4 10,12 13,16 -21,16 -48,29 -75,21 -6,-11 -9,-23 -12,-34z"/>
    <g>
     <path class="fil0" d="M1133 964c33,-2 63,-18 89,-36 14,4 27,9 40,15 3,6 5,12 8,18 -18,17 -29,40 -40,63 -29,4 -56,17 -84,28 -1,16 -1,32 4,47 38,10 77,10 115,3 26,-5 31,-35 41,-55 2,20 7,40 10,60 -5,7 -13,14 -21,15 -46,8 -92,7 -137,0 -21,-8 -27,-33 -25,-53 -1,-35 5,-70 0,-105zm75 45l0 0c14,-15 18,-36 19,-56 -25,10 -22,34 -19,56zm-50 -29l0 0c-2,14 -4,29 -5,44 18,-8 29,-23 31,-43 -6,0 -19,-1 -26,-1z"/>
    </g>
    <path class="fil0" d="M937 961c13,3 25,5 38,10 -16,18 -37,32 -50,53 2,32 10,65 4,98 -5,0 -14,1 -19,2 -6,-29 0,-59 -1,-89 -20,14 -45,32 -70,18 18,-15 41,-25 56,-44 13,-16 28,-32 42,-48z"/>
    <path class="fil0" d="M978 987c35,-4 70,-8 104,-11 5,3 15,8 20,11 -23,10 -47,16 -71,21 3,33 9,66 11,99 1,12 -11,19 -16,28 -25,-7 -40,-28 -56,-46 14,4 27,8 40,12 2,-31 0,-62 -3,-93 -19,5 -37,10 -55,15 1,-15 9,-35 26,-36z"/>
   </g>
   <g>
    <g>
     <path class="fil1" d="M871 145c58,0 117,-1 176,0 32,6 68,24 77,58 3,23 5,51 -15,67 -12,12 -27,19 -42,27 26,6 57,20 64,48 0,26 6,56 -13,76 -28,19 -60,35 -94,35 -51,0 -102,0 -153,0 0,-104 0,-208 0,-311zm86 55l0 0c0,22 0,44 0,67 21,-1 42,1 63,-5 23,-4 29,-41 8,-52 -22,-12 -47,-8 -71,-10zm0 124l0 0c0,25 0,50 0,75 33,0 84,5 94,-37 -2,-5 -5,-15 -7,-20 -25,-19 -57,-18 -87,-18z"/>
    </g>
    <g>
     <path class="fil1" d="M871 489c50,0 101,-1 152,0 29,0 58,10 83,24 23,24 26,65 9,93 -10,19 -30,26 -47,36 22,7 43,16 60,31 7,23 2,47 3,71 -21,35 -60,55 -101,57 -53,2 -106,0 -159,1 0,-105 0,-209 0,-313zm86 55l0 0c0,23 0,45 0,67 32,2 65,-3 87,-27 -7,-42 -54,-40 -87,-40zm0 123l0 0c0,26 0,52 0,78 30,1 60,0 87,-16 4,-16 9,-37 -5,-51 -23,-19 -55,-9 -82,-11z"/>
    </g>
    <path class="fil1" d="M1163 488c41,1 82,1 123,0 17,35 20,75 34,110 11,33 21,66 34,98 20,-70 37,-140 64,-208 40,1 80,1 120,0 -1,105 0,209 0,314 -25,0 -50,0 -76,0 1,-80 0,-161 1,-241 -20,37 -22,81 -40,119 -13,41 -29,81 -41,122 -24,0 -48,0 -72,0 -6,-37 -22,-71 -28,-107 -16,-44 -27,-90 -46,-133 2,80 -2,160 4,240 -26,0 -52,0 -77,0 0,-105 0,-209 0,-314z"/>
   </g>
  </g>
 </g>
</svg>
