<?xml version="1.0" encoding="UTF-8"?>
<!DOCTYPE svg PUBLIC "-//W3C//DTD SVG 1.1//EN" "http://www.w3.org/Graphics/SVG/1.1/DTD/svg11.dtd">
<!-- Creator: CorelDRAW Home & Student X7 -->
<svg xmlns="http://www.w3.org/2000/svg" xml:space="preserve" width="30mm" height="30mm" version="1.1" style="shape-rendering:geometricPrecision; text-rendering:geometricPrecision; image-rendering:optimizeQuality; fill-rule:evenodd; clip-rule:evenodd"
viewBox="0 0 455 455"
 xmlns:xlink="http://www.w3.org/1999/xlink">
 <defs>
  <style type="text/css">
   <![CDATA[
    .fil0 {fill:#E31836}
   ]]>
  </style>
 </defs>
 <g id="Camada_x0020_1">
  <metadata id="CorelCorpID_0Corel-Layer"/>
  <path class="fil0" d="M0 0l455 0 0 455 -455 0 0 -455zm246 286l-1 1c-1,2 0,0 -2,2 -2,1 -2,0 -3,1 0,0 0,1 -1,1 -1,0 -1,0 -1,1 -1,0 -1,0 -1,1 -1,0 -2,0 -2,0 -1,0 0,1 -1,1 -1,0 -1,0 -1,1 -1,1 -1,2 -1,4l0 94c0,4 0,3 6,3 3,0 22,1 23,0 1,0 1,0 2,0 1,-1 0,-1 1,-2l1 0c0,0 0,0 0,0 0,-1 0,-85 0,-98 0,-3 0,-14 0,-16 -1,-1 -2,-1 -3,-1 -2,0 -3,-1 -4,0 -1,2 -1,1 -2,2 0,0 0,0 -1,0 -1,1 -2,0 -2,1 -1,2 -1,1 -2,2 -1,1 -2,1 -3,1 0,0 0,0 0,1 -1,0 -2,0 -2,0zm-30 18c-1,0 -1,1 -2,1 -2,1 -1,1 -3,2l-1 0c0,1 0,1 -1,1 -1,1 -1,0 -2,1l-1 1c-2,1 0,1 -3,2 -2,0 0,0 -2,1 -2,1 0,0 -1,1 -2,1 -1,1 -2,3 0,0 -1,0 -1,1 0,9 0,17 0,26 0,0 0,50 1,50l0 0c1,1 0,2 3,2l18 0c1,-2 1,-19 1,-23l0 -65c0,-2 0,-4 0,-6 -2,0 -1,2 -4,2zm63 -130c1,0 0,0 2,0 3,1 3,1 5,2 1,0 1,0 2,0 1,0 1,1 2,1 1,0 2,0 3,1 1,0 1,0 2,1 0,0 1,0 1,0 2,0 2,1 3,1 2,1 2,0 4,1 2,1 2,1 3,1 1,1 1,1 2,1 0,0 1,1 1,1 1,0 1,0 2,1l2 0c1,1 0,1 1,1l0 0c1,1 2,1 3,1 1,0 1,1 1,1 3,1 2,1 3,1 1,1 2,1 2,1l6 3c0,0 1,1 1,1 0,0 -1,0 0,0 1,0 2,0 3,0 1,2 0,1 2,2 1,0 0,1 1,1 4,1 1,1 3,2 1,0 0,1 2,1 2,1 1,1 2,2 2,1 1,1 2,1 1,1 1,1 1,2 1,0 1,0 2,0 1,1 1,2 2,3 2,1 0,1 2,2l1 0 1 2c0,0 0,0 0,0 1,1 1,0 1,2 1,1 1,0 1,1 1,0 1,1 1,1 1,1 1,1 1,1 1,2 0,1 1,2 1,0 1,0 1,1 1,3 1,1 2,3 0,1 0,1 0,2 0,1 1,0 1,1 0,1 0,1 0,2 1,2 1,0 2,3 0,2 1,14 -1,16 0,0 0,0 -1,1 0,1 0,1 0,2 -1,1 -1,-1 -1,3 -1,2 -2,1 -2,2 -1,4 -1,1 -1,3l-2 2c-1,1 -1,1 -1,2 -1,0 0,0 -1,1 0,0 -1,0 -1,0 0,1 0,0 0,1 -1,1 -1,1 -1,1 -1,1 0,1 -1,1 -1,1 -1,0 -1,1 -1,1 -1,1 -1,1 0,0 -1,1 -1,2 -2,2 -2,1 -3,1l0 1c-1,1 -1,0 -1,1 -1,2 0,1 -2,1 0,1 0,1 0,1 -1,0 -1,1 -1,1 -1,0 -1,1 -2,1l-1 1c0,0 0,0 0,0 -1,0 -1,0 -1,1 0,0 0,0 -1,0 0,1 0,0 0,1 -1,0 -1,-1 -2,1 -1,1 -2,1 -3,1 0,0 0,1 -1,1 -1,1 0,1 -1,1 0,1 -1,1 -1,1 -1,1 -1,1 -2,1 -2,0 -2,1 -3,2 0,0 0,0 -1,0 -1,0 -1,1 -1,1 -1,1 -1,0 -2,1 -1,0 -1,0 -1,1 -1,0 -1,0 -2,0 -1,1 0,1 -3,2 -1,0 0,0 -1,1 -1,0 0,-1 -3,1 -1,1 -2,1 -3,1 -1,1 -1,1 -1,1 -1,0 -2,0 -2,0 0,1 0,1 0,1 -1,1 -1,1 -2,1 -2,0 -1,0 -2,1 0,1 -1,1 -2,1 0,1 0,0 -1,1 0,0 0,0 0,0 -1,1 -1,3 -1,4 0,1 0,1 1,2 0,0 0,0 0,0 1,1 0,0 1,1 1,0 6,0 7,0 0,-1 0,-1 1,-1 1,-1 3,0 4,-1 0,-1 0,-1 2,-1 0,0 1,0 2,0 3,-1 1,-1 4,-2 2,0 2,-1 5,-1l0 0c0,-1 0,-1 0,-1 1,0 0,0 1,0 0,0 0,0 1,-1 0,0 1,0 2,0l2 -1c0,0 1,-1 2,-1 1,-1 2,-1 4,-2 1,-1 2,0 3,-1 1,-1 1,-1 1,-1 1,0 1,0 1,0 1,0 1,-1 2,-1 1,-1 1,-1 2,-1 0,-1 1,-1 2,-1 1,-1 0,0 1,-1 1,0 2,0 3,-1 0,0 0,0 0,0 1,-2 2,-1 3,-2 0,0 1,-1 2,-1 0,0 1,-1 1,-1 2,-1 2,0 3,-1 0,0 0,0 0,0l1 -1c1,0 1,-1 1,-1l3 -2c0,0 1,0 1,0 1,-1 0,-1 1,-1 2,-1 1,-1 2,-2 0,0 0,0 1,0 0,0 1,-1 1,-1 1,-1 1,-1 1,-1 1,0 0,-1 2,-1 0,0 0,0 0,0 0,-1 0,0 1,-1 0,0 0,0 0,0 1,-1 1,-1 2,-2l1 -1c1,-1 2,0 2,-1 0,-1 0,-1 1,-1 0,0 0,0 1,-1 0,0 0,-1 1,-1l0 0c0,0 0,0 0,0 0,0 0,0 0,0 1,-1 1,-1 2,-2 1,-1 0,0 2,-1l0 -1c1,-1 1,-1 1,-1 1,-1 0,-1 2,-1 0,-1 0,-1 1,-2 1,0 0,-1 1,-2 1,0 1,-1 2,-2 0,0 0,-1 0,-1 1,-1 1,0 2,-2 0,0 0,-1 1,-1 0,-1 0,0 0,-1 1,-1 1,-1 1,-1 1,-1 1,-1 1,-2 0,-1 0,-1 1,-1 0,-1 0,0 0,-1 1,-1 0,-1 2,-3 0,-1 0,-3 1,-4 0,-1 0,0 0,-1 1,-1 1,-2 1,-2 1,-3 1,-1 1,-4 0,-2 0,-4 1,-6 0,-3 0,-4 -1,-7 0,-1 0,-6 0,-6l-1 -1c-1,-1 0,-3 -1,-5 0,0 0,0 -1,-1 0,-1 0,-1 0,-2 0,-1 0,-1 -1,-2 0,0 0,0 -1,-1 0,-1 0,-1 0,-2 -1,0 -1,0 -1,-1 -1,-1 -1,0 -1,-1 0,-1 -1,-2 -1,-2 -1,-1 -1,0 -1,-1 0,-2 -1,-2 -2,-3l-1 -1c0,0 0,0 0,0 -1,-1 0,-1 -1,-2 -1,0 -1,-1 -1,-1 0,0 0,0 0,0 -1,-1 -1,0 -1,-1 -1,0 0,-1 -1,-1 -1,0 0,-1 -1,-1 -1,-1 -1,0 -1,-1 -1,-1 0,-1 -1,-1 -1,-1 0,0 -1,-1 0,-1 0,0 -1,-1 -1,0 0,0 -1,-1 0,0 0,0 0,0 0,0 -1,0 -1,0l0 -1c-3,-1 0,-2 -4,-2 -1,-2 -1,-1 -2,-3 0,0 0,0 0,0 0,0 -1,0 -1,0 -1,-1 0,0 -1,-1l0 -1c0,0 0,0 0,0 -1,0 -1,0 -2,-1 -1,0 -2,-1 -3,-1 0,-1 0,-1 0,-1l-3 -2c-1,0 -1,0 -2,-1 -2,0 -2,0 -2,-1 -1,-1 -2,-1 -2,-1 -2,-1 -1,-1 -2,-1 -1,-1 -1,-1 -3,-2 -1,0 -1,0 -2,0 -1,-1 -1,-1 -2,-2 -1,0 -1,0 -2,-1 0,0 0,0 0,0l-2 0c-1,-1 0,-1 -3,-2 0,0 -1,0 -2,-1 0,0 -2,0 -2,0 -1,-1 -1,-1 -2,-1 -1,-1 -1,-1 -1,-1 -2,0 0,0 -4,-1l-2 -1c0,0 0,0 0,0 -1,0 -2,-1 -3,-1 -1,0 -1,0 -2,-1 -1,0 -2,0 -3,-1l-1 0c0,0 0,0 0,0l0 0c0,0 0,-1 0,-1 -1,0 -3,0 -4,0 0,0 0,0 0,0l-2 -1c-1,0 -5,-1 -6,-1 0,0 0,-1 0,-1l-1 0c0,0 0,0 0,0 -1,0 -4,-1 -4,-1 -1,0 -4,0 -5,-1 -1,0 -2,-1 -4,-1 -2,0 -3,0 -5,0 -1,-1 -2,-1 -4,-1 -1,-1 -3,-1 -5,-1 -1,-1 -2,-1 -4,-1 -2,0 -3,0 -4,-1 -3,-1 -12,-1 -15,-1l-4 -1c-5,0 -10,0 -15,-1 -3,0 -7,0 -10,0 -7,0 -14,0 -21,0 -3,0 -6,0 -9,1 -3,0 -14,0 -18,1 0,0 -1,0 -2,0 -3,0 -6,0 -10,1 -1,0 -1,-1 -2,0 -2,2 -7,0 -10,2 -1,1 -4,1 -5,0 0,-2 0,-2 2,-4 0,0 1,-1 1,-2 1,0 1,0 1,-2 2,0 1,0 2,-1 0,0 1,0 1,-1 0,0 0,0 0,0 1,-1 1,0 2,-2 1,-1 1,0 1,-1 1,-1 0,0 1,-1 0,0 0,0 1,0 0,-1 0,-1 0,-1 0,-1 1,0 1,-1 1,0 0,-1 1,-1 1,-1 1,-1 2,-2 1,0 2,-1 3,-2l1 -1c0,0 0,0 1,0 0,-1 0,-1 1,-1 1,-1 1,-1 3,-2 1,-1 1,-1 2,-2 1,0 1,0 2,-1 0,0 1,0 1,-1 0,0 0,0 1,0 0,-1 0,-1 1,-1 2,-1 2,-1 3,-2 1,-1 2,-1 2,-1 1,0 1,-1 2,-1 1,0 1,-1 2,-1 1,-1 1,-1 2,-1 0,0 0,-1 1,-1 1,-1 1,0 3,-1 1,-1 1,-1 1,-1 1,0 2,0 2,0 1,-1 1,-1 2,-1 3,-1 3,-2 6,-2 2,-1 1,-1 5,-2 1,0 1,0 2,0 1,-1 3,-1 4,-2 1,0 0,0 2,-1 1,0 4,0 5,0 0,0 0,0 0,-1 2,0 8,0 9,0 1,0 2,-1 3,-1 0,0 0,0 1,0 3,-1 14,-1 17,-1 1,1 1,1 2,1l1 0c1,1 6,1 7,1 5,0 5,1 7,1 0,0 1,0 2,0 3,1 2,1 4,2 1,0 2,0 3,0 1,0 1,1 2,1 2,0 5,0 6,1 1,1 1,1 2,1 1,0 1,0 2,0 0,0 0,1 0,1 0,0 0,0 0,0 1,1 2,0 3,1 1,1 1,1 2,1l2 0c1,1 0,0 1,1 1,1 2,0 3,1 0,1 0,1 1,1 0,0 1,0 1,1 1,0 1,0 1,1 1,0 1,0 2,0 0,0 0,0 1,1 1,0 1,0 2,1 1,1 2,1 3,2 1,1 1,0 2,1 1,1 2,1 2,1 1,1 0,1 2,1 1,1 1,1 2,2 0,0 0,0 1,0 1,0 0,1 1,2 1,0 1,-1 1,0 1,1 0,0 1,1 1,0 1,1 1,1 1,1 1,0 2,2 1,0 0,0 1,0 2,1 3,-1 5,-2 0,-1 1,-2 1,-3 -1,-1 -1,-1 -1,-2 0,-2 0,-1 -1,-2 -1,0 0,0 -1,-1 -1,0 -1,-1 -1,-1 -1,-1 -2,0 -2,-3 -1,0 -4,-3 -4,-3 -1,-2 0,-1 -2,-2 -1,-1 -1,-1 -2,-2 0,-1 0,-1 -1,-1 -1,-2 -1,-1 -2,-2 -1,-1 0,0 -1,-1 0,0 0,0 -1,-1 -1,0 0,0 -1,-1 -1,-1 -1,-1 -1,-1 -1,-1 -1,0 -2,-1 0,0 0,0 0,0 -1,0 -1,-1 -2,-1 -1,-1 0,-1 -1,-2 -1,0 -1,0 -1,0 0,0 0,0 0,-1 -1,0 -1,0 -2,-1l-1 0c-1,-1 -1,0 -2,-1 0,-1 -1,-1 -2,-2 -2,-1 1,0 -3,-1 0,-2 0,-1 -2,-2 -1,0 0,-1 -2,-1 -1,0 -1,-1 -2,-1 0,-1 -1,-1 -2,-1 0,0 0,0 0,0 0,-1 -3,-1 -4,-2 0,0 0,0 0,0 -1,-1 -1,-1 -1,-1 0,0 -1,0 -1,0 -1,0 0,0 -1,-1 0,0 -1,0 -1,0l-2 -1c-1,-1 -2,0 -3,-1 -2,-1 -3,-1 -4,-1 -1,-1 -1,-1 -2,-1 -1,-1 -2,0 -3,-2 -1,0 0,0 -1,0 -1,0 -3,0 -4,-1l0 0c0,-1 -5,-1 -5,-1 -1,0 -2,0 -2,0 -2,0 -1,0 -2,-1 -2,-1 -4,0 -6,-1 -1,0 -1,0 -2,-1 -2,0 -7,0 -9,0l-2 0c-3,-1 -4,-1 -7,-1l0 -1 -9 0c0,1 0,1 -1,1 0,0 0,0 -1,0 -1,1 -2,1 -3,1 -1,0 -1,0 -2,0 -1,0 -4,0 -5,0 0,1 0,1 -1,1 -2,1 -6,0 -7,1 -1,0 0,0 -1,1l-2 0c0,0 -2,0 -2,0 -4,0 -4,1 -5,2 -1,0 -2,0 -3,0 0,0 0,0 -1,1 -1,0 -2,0 -3,1 -1,0 0,0 -1,0 -1,1 -3,1 -4,1 0,0 -1,1 -2,1 0,0 -1,0 -2,1 -1,0 -1,0 -1,0 0,1 -1,1 -1,1 -1,0 -1,0 -2,1 -1,0 -2,0 -2,1 -1,0 -1,1 -2,1 -1,0 -2,0 -2,1 -2,1 -1,0 -2,1 -1,0 -1,1 -2,1 -1,0 -1,0 -2,1 -1,1 -1,0 -2,1 -1,0 -1,1 -2,1 -2,1 0,1 -2,1 0,1 0,1 -1,1 0,0 0,1 -3,1 0,1 0,1 0,1l-3 2c-1,1 -1,2 -2,2 -1,0 -1,1 -1,1 -1,0 -1,1 -2,1 0,0 0,1 -1,1 0,0 -1,0 -1,0 -1,1 0,1 -1,2l-2 1c0,0 0,0 -1,1 0,0 0,0 0,1 -1,0 -1,-1 -1,0 -1,1 0,1 -1,1 -1,1 0,1 -2,2 -1,0 0,1 -1,1 0,0 0,0 -1,0 0,1 1,1 -1,2l-1 1c0,0 -1,0 -1,1 0,1 0,0 -1,1l-3 4 0 0c-1,1 -1,1 -1,1 0,0 0,1 -1,1 -1,3 -1,1 -1,2 -1,1 -1,1 -1,1 0,1 -1,1 -1,1 -2,3 -1,2 -2,3 0,0 0,0 0,1 -1,0 -1,0 -1,1 -1,1 -1,1 -1,2 -1,1 -1,1 -1,2 -1,0 -1,0 -2,2 0,1 0,0 -1,1 0,1 0,2 -1,2 -1,2 0,1 -2,4 0,0 0,0 0,0 0,1 0,1 0,1 -1,2 -1,1 -2,3 0,1 0,1 -1,1 -1,2 0,2 -1,4 -1,1 -1,2 -1,3 0,1 -1,1 -1,1 -1,1 0,2 -1,3 -3,1 -1,1 -5,1 -1,0 -1,1 -2,1 -2,1 -2,1 -3,1 -1,1 -2,1 -3,1 -1,1 -2,1 -3,1 -1,1 -2,1 -3,1 -2,1 1,0 -2,1 -2,1 -1,1 -3,2 -3,0 -1,0 -3,1 -1,0 -2,0 -3,1 0,0 0,0 -1,0 0,1 -1,1 -1,1 -1,1 -1,1 -2,1 -2,1 -1,0 -2,1 0,1 0,1 0,1l-1 0c0,0 -1,0 -1,0 -2,1 -1,1 -5,2 0,1 0,1 -1,1 -1,1 0,1 -1,1l-1 0c0,1 -1,1 -1,1 -1,0 -1,0 -1,1 -1,0 -1,0 -2,0 -1,2 0,1 -1,2 0,1 0,1 -2,1l0 1 1 0c1,1 1,1 1,2 1,0 0,0 1,1 0,0 0,0 1,1l0 0c0,0 0,0 0,0 1,1 3,1 5,1 2,-1 1,-1 2,-2 2,0 3,0 4,0 1,-1 1,-1 3,-1 5,-1 0,-2 7,-2 3,0 2,0 3,-1 1,-1 4,0 5,-1 2,-2 4,-1 5,-1 1,-1 1,-1 2,-1 1,-1 3,-1 5,-1 3,0 3,1 2,6 0,1 0,1 0,1l-1 3c0,1 0,3 0,3 0,1 0,1 0,2 -1,9 -1,17 0,26 0,2 0,3 1,4 0,3 0,2 0,5 0,2 1,2 1,3 1,2 1,3 1,4l1 2c0,1 1,4 1,4 0,1 0,1 1,2 0,1 0,3 0,4 1,0 1,1 1,1 1,2 0,2 1,4l1 2c0,0 1,1 1,1l1 3c0,2 0,0 1,1 0,1 0,1 0,1 1,2 1,1 2,4 0,1 0,0 1,1 0,1 0,1 0,2 1,1 1,0 1,1 1,1 1,2 1,2 1,1 1,0 1,1 1,1 1,1 1,2 1,1 0,1 2,3 0,1 0,1 1,2 0,0 0,0 0,0 1,1 0,1 2,2 1,1 0,1 1,2 0,0 1,0 1,1 1,2 0,0 2,3l2 2c1,1 0,1 1,2 1,1 0,0 1,1 1,1 1,1 2,1 3,4 2,3 5,7l3 3c1,0 1,0 1,0 0,1 1,2 2,2 1,1 0,0 1,1 0,1 1,1 1,2 2,1 2,1 3,2 2,2 3,2 4,3 0,1 0,0 1,1 1,1 1,1 1,1 1,1 1,1 2,1 3,2 5,4 9,5 3,0 7,-4 6,-9 -1,-1 -3,-3 -3,-4l-6 -5c-1,-1 -2,-1 -3,-3 0,-1 0,-1 -1,-1 -1,-1 0,-1 -1,-2 -1,0 0,0 -1,-1 -1,-1 -1,-1 -1,-2 -2,-1 -1,0 -3,-2 -1,-2 -2,-4 -2,-4 -1,-1 -1,-1 -1,-1 -1,0 0,0 -1,-1 0,0 -1,-1 -2,-3l-1 -3c-1,0 -1,0 -1,0l0 0c0,-1 0,-2 -1,-2 -2,-4 -2,-5 -3,-6 -1,-3 -1,-3 -2,-4 0,-1 0,-2 -1,-3 0,-1 0,-1 -1,-3 0,-1 -1,-1 -1,-2 0,-1 0,-3 -1,-4 0,-1 0,-1 -1,-2 0,-1 0,-3 0,-4 -1,-1 -1,-1 -1,-3l-2 -9c-1,-6 -1,-16 -1,-22 0,-4 1,-9 1,-13 0,-2 1,-3 1,-4 0,-1 0,-2 0,-3 1,-1 2,-7 3,-9 0,0 2,-6 3,-8 3,-6 1,-5 9,-6 3,0 5,0 7,-1 2,0 5,0 7,0 5,0 10,0 15,0 8,0 15,0 23,0 3,0 11,0 14,1 2,0 11,0 14,1 2,0 5,1 7,1 1,0 11,0 12,1 1,0 0,0 1,0 2,0 6,0 7,1 2,1 5,1 7,2 1,0 3,0 5,1 3,0 2,0 6,1 1,0 1,0 1,0l4 1c0,0 0,0 1,0 2,1 2,0 4,1 0,1 1,1 1,1z"/>
 </g>
</svg>
