<?xml version="1.0" encoding="UTF-8"?>
<!DOCTYPE svg PUBLIC "-//W3C//DTD SVG 1.1//EN" "http://www.w3.org/Graphics/SVG/1.1/DTD/svg11.dtd">
<!-- Creator: CorelDRAW Home & Student X7 -->
<svg xmlns="http://www.w3.org/2000/svg" xml:space="preserve" width="29mm" height="29mm" version="1.1" style="shape-rendering:geometricPrecision; text-rendering:geometricPrecision; image-rendering:optimizeQuality; fill-rule:evenodd; clip-rule:evenodd"
viewBox="0 0 605 605"
 xmlns:xlink="http://www.w3.org/1999/xlink">
 <defs>
  <style type="text/css">
   <![CDATA[
    .fil0 {fill:#352CD3;fill-rule:nonzero}
    .fil1 {fill:white;fill-rule:nonzero}
   ]]>
  </style>
 </defs>
 <g id="__x0023_Layer_x0020_1">
  <metadata id="CorelCorpID_0Corel-Layer"/>
  <g id="_622031560">
   <g>
    <g>
     <path class="fil0" d="M0 0l605 0 0 605 -605 0 0 -605zm343 167l0 0c0,16 0,32 0,48 11,0 25,4 34,-4 6,-7 4,-17 -3,-21 5,-5 7,-14 1,-19 -9,-6 -21,-3 -32,-4zm39 19l0 0c2,2 4,5 6,7 5,-3 11,-4 16,0 -7,2 -14,1 -20,6 -6,5 -2,15 5,17 4,2 9,0 13,-1 4,0 8,0 12,1 -1,-11 3,-23 -4,-32 -8,-7 -20,-3 -28,2zm36 -5l0 0c0,12 0,23 0,34 4,0 8,0 12,0 0,-7 0,-14 0,-21 2,-3 5,-4 8,-3 4,7 2,16 2,24 4,0 8,0 12,0 -1,-9 1,-19 -2,-28 -7,-12 -21,-2 -32,-6zm47 1l0 0c-14,5 -14,26 -2,32 8,5 17,3 24,-1 -2,-3 -5,-6 -7,-8 -6,4 -12,0 -15,-6 2,-3 4,-6 6,-8 3,0 6,1 9,2 2,-3 5,-6 7,-8 -7,-4 -15,-7 -22,-3zm31 0l0 0c-13,4 -16,23 -4,31 11,9 31,1 30,-14 2,-14 -14,-23 -26,-17zm-432 12l0 0c0,80 0,160 0,240 14,0 28,0 42,0 0,-5 0,-10 0,-15 19,16 45,23 69,17 35,-7 61,-39 67,-73 9,-42 -13,-91 -54,-107 -27,-11 -60,-6 -82,13 -1,-29 -1,-58 0,-88 -14,5 -28,8 -42,13zm201 79l0 0c-14,21 -11,52 9,68 19,16 44,18 65,30 7,4 9,16 2,21 -12,8 -28,8 -40,1 -8,-6 -7,-17 -8,-26 -14,0 -27,0 -41,0 0,15 1,31 10,43 12,19 36,28 58,28 21,1 43,-7 56,-24 16,-19 15,-51 -4,-68 -19,-17 -46,-20 -67,-33 -9,-4 -10,-18 -1,-23 9,-5 21,-5 30,0 8,6 7,16 7,24 14,0 27,0 41,0 1,-14 -1,-29 -9,-41 -24,-35 -85,-36 -108,0zm145 -6l0 0c-12,13 -15,31 -15,47 14,0 28,0 41,0 1,-8 0,-18 8,-24 10,-6 28,-5 33,7 6,13 -3,26 -11,35 -16,18 -35,34 -52,52 -12,14 -18,32 -19,50 43,0 86,0 128,0 0,-5 0,-11 0,-16 -16,-1 -32,0 -48,-1 0,-1 1,-4 1,-6 15,-2 31,0 47,-1 0,-5 0,-11 0,-16 -21,0 -42,0 -63,0 20,-20 44,-38 55,-64 12,-27 1,-63 -26,-77 -26,-12 -60,-7 -79,14zm121 143l0 0c-3,2 -1,6 -1,8 4,3 12,2 11,-4 1,-5 -8,-8 -10,-4z"/>
    </g>
    <path class="fil0" d="M355 177c4,1 15,2 11,8 -4,1 -8,1 -11,2 0,-3 0,-7 0,-10z"/>
    <path class="fil0" d="M501 191c9,-3 15,11 6,15 -9,6 -15,-11 -6,-15z"/>
    <path class="fil0" d="M355 196c5,0 16,-1 13,8 -4,1 -8,2 -13,2 0,-3 0,-7 0,-10z"/>
    <path class="fil0" d="M391 208c2,-6 8,-7 14,-7 -2,7 -8,8 -14,7z"/>
    <path class="fil0" d="M141 295c16,-5 34,-1 46,10 23,21 21,63 -5,82 -17,12 -42,11 -58,-3 -23,-19 -24,-57 -3,-78 6,-5 12,-9 20,-11z"/>
   </g>
   <g>
    <g>
     <path class="fil1" d="M343 167c11,1 23,-2 32,4 6,5 4,14 -1,19 7,4 9,14 3,21 -9,8 -23,4 -34,4 0,-16 0,-32 0,-48zm12 10l0 0c0,3 0,7 0,10 3,-1 7,-1 11,-2 4,-6 -7,-7 -11,-8zm0 19l0 0c0,3 0,7 0,10 5,0 9,-1 13,-2 3,-9 -8,-8 -13,-8z"/>
    </g>
    <g>
     <path class="fil1" d="M382 186c8,-5 20,-9 28,-2 7,9 3,21 4,32 -4,-1 -8,-1 -12,-1 -4,1 -9,3 -13,1 -7,-2 -11,-12 -5,-17 6,-5 13,-4 20,-6 -5,-4 -11,-3 -16,0 -2,-2 -4,-5 -6,-7zm9 22l0 0c6,1 12,0 14,-7 -6,0 -12,1 -14,7z"/>
    </g>
    <path class="fil1" d="M418 181c11,4 25,-6 32,6 3,9 1,19 2,28 -4,0 -8,0 -12,0 0,-8 2,-17 -2,-24 -3,-1 -6,0 -8,3 0,7 0,14 0,21 -4,0 -8,0 -12,0 0,-11 0,-22 0,-34z"/>
    <path class="fil1" d="M465 182c7,-4 15,-1 22,3 -2,2 -5,5 -7,8 -3,-1 -6,-2 -9,-2 -2,2 -4,5 -6,8 3,6 9,10 15,6 2,2 5,5 7,8 -7,4 -16,6 -24,1 -12,-6 -12,-27 2,-32z"/>
    <g>
     <path class="fil1" d="M496 182c12,-6 28,3 26,17 1,15 -19,23 -30,14 -12,-8 -9,-27 4,-31zm5 9l0 0c-9,4 -3,21 6,15 9,-4 3,-18 -6,-15z"/>
    </g>
    <g>
     <path class="fil1" d="M64 194c14,-5 28,-8 42,-13 -1,30 -1,59 0,88 22,-19 55,-24 82,-13 41,16 63,65 54,107 -6,34 -32,66 -67,73 -24,6 -50,-1 -69,-17 0,5 0,10 0,15 -14,0 -28,0 -42,0 0,-80 0,-160 0,-240zm77 101l0 0c-8,2 -14,6 -20,11 -21,21 -20,59 3,78 16,14 41,15 58,3 26,-19 28,-61 5,-82 -12,-11 -30,-15 -46,-10z"/>
    </g>
    <path class="fil1" d="M265 273c23,-36 84,-35 108,0 8,12 10,27 9,41 -14,0 -27,0 -41,0 0,-8 1,-18 -7,-24 -9,-5 -21,-5 -30,0 -9,5 -8,19 1,23 21,13 48,16 67,33 19,17 20,49 4,68 -13,17 -35,25 -56,24 -22,0 -46,-9 -58,-28 -9,-12 -10,-28 -10,-43 14,0 27,0 41,0 1,9 0,20 8,26 12,7 28,7 40,-1 7,-5 5,-17 -2,-21 -21,-12 -46,-14 -65,-30 -20,-16 -23,-47 -9,-68z"/>
    <path class="fil1" d="M410 267c19,-21 53,-26 79,-14 27,14 38,50 26,77 -11,26 -35,44 -55,64 21,0 42,0 63,0 0,5 0,11 0,16 -16,1 -32,-1 -47,1 0,2 -1,5 -1,6 16,1 32,0 48,1 0,5 0,11 0,16 -42,0 -85,0 -128,0 1,-18 7,-36 19,-50 17,-18 36,-34 52,-52 8,-9 17,-22 11,-35 -5,-12 -23,-13 -33,-7 -8,6 -7,16 -8,24 -13,0 -27,0 -41,0 0,-16 3,-34 15,-47z"/>
    <path class="fil1" d="M531 410c2,-4 11,-1 10,4 1,6 -7,7 -11,4 0,-2 -2,-6 1,-8z"/>
   </g>
  </g>
 </g>
</svg>
