<?xml version="1.0" encoding="UTF-8"?>
<!DOCTYPE svg PUBLIC "-//W3C//DTD SVG 1.1//EN" "http://www.w3.org/Graphics/SVG/1.1/DTD/svg11.dtd">
<!-- Creator: CorelDRAW Home & Student X7 -->
<svg xmlns="http://www.w3.org/2000/svg" xml:space="preserve" width="30mm" height="30mm" version="1.1" style="shape-rendering:geometricPrecision; text-rendering:geometricPrecision; image-rendering:optimizeQuality; fill-rule:evenodd; clip-rule:evenodd"
viewBox="0 0 1667 1667"
 xmlns:xlink="http://www.w3.org/1999/xlink">
 <defs>
  <style type="text/css">
   <![CDATA[
    .fil0 {fill:#FEFEFE}
    .fil1 {fill:#0C132B}
    .fil10 {fill:#2D3145}
    .fil7 {fill:#3D4252}
    .fil9 {fill:#555965}
    .fil5 {fill:#767983}
    .fil3 {fill:#93959C}
    .fil4 {fill:#A3A6AC}
    .fil6 {fill:#BEC1C5}
    .fil8 {fill:#D9DADD}
    .fil2 {fill:white}
   ]]>
  </style>
 </defs>
 <g id="__x0023_Layer_x0020_1">
  <metadata id="CorelCorpID_0Corel-Layer"/>
  <rect class="fil0" width="1667" height="1667" rx="71" ry="96"/>
  <g id="_448379256">
   <path class="fil1" d="M1445 778c9,-1 17,1 23,5 7,2 10,2 14,6 6,9 4,4 9,8 2,15 6,10 8,18 2,5 2,15 4,21 6,17 5,25 5,46 0,12 1,50 -2,61 -1,5 -2,3 -4,8 -6,17 5,2 -11,28 -5,8 -2,-1 -8,10 -4,5 1,1 -7,4 -19,9 7,4 -23,9 -8,1 -9,5 -19,6 -11,1 -40,1 -50,0 -7,-1 -11,-4 -19,-6 -11,-2 -11,0 -19,-6 -10,-8 -8,-3 -20,-19 -3,-4 -4,-3 -6,-5 -4,-6 2,-11 -5,-21 -4,-5 -4,-12 -5,-20 0,-16 -2,-88 3,-98 2,-4 3,-1 5,-8 2,-10 -2,-12 5,-20 5,-5 1,-1 5,-7 4,-6 1,-1 6,-6 4,-4 0,-2 6,-6 5,-2 4,-1 8,-5 12,-9 62,-13 77,-10 6,1 5,1 9,3 4,1 8,1 11,4zm-370 662c1,0 5,-1 8,-4 15,-12 3,2 16,-11l52 -30c4,-4 1,-3 8,-7 10,-6 54,-46 59,-48 7,-4 12,-10 16,-16l40 -42c8,-9 2,-5 10,-12 4,-4 2,-2 5,-7 2,-3 4,-5 6,-8 13,-19 12,-18 35,-18l78 0c77,0 46,-5 70,-9 9,-1 15,1 23,-3 5,-3 3,-4 9,-5 9,-2 8,1 15,-3l41 -31 25 -41c1,-4 1,-7 1,-11 1,-5 1,-6 3,-10 2,-4 3,-6 4,-8 3,-9 1,-215 1,-257 0,-26 1,-28 -5,-49 -2,-6 -3,-16 -6,-20 -2,-3 -4,-4 -6,-8 -1,-4 0,-6 -2,-10l-20 -31c-7,0 -11,-6 -15,-9 -3,-2 -5,-3 -8,-5 -6,-5 1,-3 -14,-9 -6,-2 -3,-1 -7,-4l-36 -11c-24,-3 -32,-7 -62,-7 -53,-1 -44,1 -87,7l-34 12c-8,5 -10,4 -15,8 -22,15 -23,21 -36,34 -6,6 -11,19 -13,23 -1,3 -2,3 -4,6 -3,5 -3,13 -6,19 -8,18 -4,28 -6,41 -4,24 -4,112 7,135 0,1 1,2 2,4 1,4 1,4 2,8 2,8 3,6 7,16 5,9 3,0 9,13 8,3 4,0 8,5l6 6c5,3 1,3 10,11 8,8 0,-1 13,10 7,5 8,1 14,7 5,4 0,2 9,4 21,5 9,7 23,9 7,0 14,1 20,1 14,1 37,9 61,4 13,-4 22,-4 38,-5 12,-1 9,-3 16,-6 6,-3 12,-2 17,-5 12,-9 12,-16 27,-11 1,13 3,38 -3,47 -7,10 -1,13 -6,21 -3,5 -2,2 -5,6 -3,5 -1,4 -5,8l-7 7c-3,4 -16,11 -25,13 -10,3 -10,6 -19,7 -22,3 -86,-3 -99,4 -19,10 -10,1 -22,17 -1,2 -2,5 -4,8 -2,3 -11,13 -16,24 -3,7 0,1 -5,7l-17 22c-5,7 -7,12 -17,21 -3,3 -3,4 -6,7 -2,1 -2,1 -4,3 -11,14 -33,40 -47,50l-27 23c-5,6 -3,6 -5,8 0,0 -26,15 -32,21 -4,5 2,2 -5,6l-6 3c-10,7 -3,2 -11,6l-22 15c-5,3 -5,0 -10,5 -11,8 -3,2 -12,6 -5,2 0,-1 -4,2 -4,4 0,3 -9,4 -1,1 -5,2 -7,3 -3,2 -2,2 -5,4 -6,4 -6,1 -14,6 -7,6 -6,3 -15,6 -8,2 -2,3 -11,6 -8,2 -10,1 -15,5 -8,7 -1,3 -14,5 -9,2 -5,5 -13,7 -5,1 -11,0 -16,2 -7,2 -6,5 -14,7 -5,1 -12,0 -17,2 -5,2 -7,5 -14,6 -6,1 -12,1 -18,1 -12,2 -6,5 -30,8 -14,1 -23,1 -35,4 -22,5 -51,4 -75,3 -13,0 -26,0 -38,0 -18,0 -20,-3 -34,-5 -9,-1 -27,-1 -35,-3 -4,-1 -8,-5 -14,-6 -6,-1 -11,-1 -17,-1 -16,-2 -12,-7 -31,-8 -11,-1 -14,-2 -22,-6 -9,-4 -8,-1 -21,-9 -5,-4 -9,-2 -15,-5 -6,-3 -5,-4 -13,-6 -8,-2 -37,-15 -44,-20 -3,-2 -1,-1 -3,-2 -6,-6 -12,-4 -19,-9 -4,-2 -1,-1 -7,-3 -6,-3 -2,0 -6,-3 -5,-4 -6,-5 -11,-8 -15,-8 -74,-47 -86,-60 -11,-12 -25,-21 -36,-32l-28 -29c-4,-4 -4,-6 -9,-10l-36 -42c-1,-2 -1,-4 -3,-6 -7,-12 -10,-8 -16,-18 -2,-3 -4,-3 -8,-6l-1 -14c-5,-3 -6,-6 -9,-10l-3 -4c-5,-5 -3,-7 -10,-14 -3,-3 -2,-8 -3,-14 -9,-5 -8,-3 -8,-17 -3,-1 -6,-2 -8,-3 -1,-17 -4,-15 -8,-28 -5,-15 -8,-2 -10,-27 -15,-5 -2,-16 -11,-25 0,-1 -1,-2 -1,-2 -5,-5 -3,-11 -5,-18 -2,-8 -1,-3 -3,-6 -9,-9 -3,-17 -6,-31 -1,-6 -4,-8 -5,-15 -1,-5 -1,-12 -1,-18 -1,-11 -4,-20 -6,-31 -8,-36 -4,-104 -3,-142 0,-13 -1,-26 1,-38 1,-11 2,-7 4,-13 4,-10 3,-23 5,-33 1,-7 3,-9 4,-14 3,-8 3,-25 6,-31 7,-11 3,-15 11,-27 3,-6 2,-9 3,-16 2,-9 4,-6 6,-12 2,-6 2,-10 4,-15 4,-7 5,-3 6,-14 2,-19 6,-3 9,-18 0,-1 0,-6 0,-8 7,-4 6,1 9,-9 2,-10 -1,-3 6,-10 3,-3 3,-7 6,-11l12 -20c4,-9 -1,-4 6,-11 4,-5 2,-6 6,-11l41 -57c3,-3 2,-2 4,-4 15,-15 22,-26 44,-47l7 -8c4,-3 5,-5 9,-8 4,-3 4,-5 7,-8 3,-3 7,-6 10,-8 6,-4 3,-2 8,-7 6,-6 16,-11 20,-14 5,-5 10,-12 17,-15l19 -13c5,-4 18,-12 23,-11 4,-1 2,-1 4,-3 6,-6 24,-13 29,-17 5,-4 3,-3 12,-5 11,-2 5,-2 11,-6 4,-4 8,-2 13,-5 4,-3 -2,-3 11,-6 6,-2 6,-4 11,-6 5,-2 9,-2 14,-4 5,-3 4,-5 11,-6 5,-2 9,-2 14,-3 5,-3 5,-4 12,-5 14,-3 12,-2 21,-6 7,-4 13,-3 21,-4 5,-1 7,-4 11,-6 8,-2 11,0 28,-7 16,-6 38,-4 47,-5l29 -6c5,0 11,0 16,0 20,-2 47,-1 67,0l63 7c32,1 22,4 32,7l11 1c19,2 13,3 29,7 24,6 11,3 25,8 6,2 9,2 14,3 10,2 5,4 12,6 5,2 10,2 14,4 5,2 4,4 11,6 8,2 6,0 12,4 8,5 5,3 15,5 8,1 3,2 10,6 6,2 8,1 12,5 7,6 1,2 11,6 8,3 5,5 11,7 8,4 4,0 12,5 5,4 5,3 11,6l51 35c7,8 19,12 26,19l1 2c0,0 1,0 1,0l10 10c2,2 0,-1 2,3 7,11 1,1 12,11 2,2 2,2 4,4l3 3c5,7 -3,0 3,4l11 8c7,2 3,-1 8,5l32 36c8,7 5,5 10,11l18 22c7,8 2,6 7,12 9,9 9,15 17,24 6,6 4,4 7,12 3,5 2,3 5,7l21 38c2,3 3,2 4,5 3,4 3,9 5,14 12,1 18,2 27,-3 -4,-6 -4,-12 -8,-17l-41 -71c-6,-10 -13,-21 -21,-29 -3,-3 -3,-4 -5,-7 -6,-10 -9,-15 -16,-23 -2,-2 -3,-2 -7,-6l-52 -58c-9,-9 -19,-13 -17,-19 -4,-1 -2,0 -6,-2l-11 -8c-6,-4 -13,-13 -20,-17l-51 -35c-5,-4 -4,-4 -7,-6 -3,-2 -5,-1 -8,-3l-15 -11c-6,0 -2,-1 -8,-4 -3,-1 -5,-2 -8,-4 -15,-10 -5,-3 -16,-8 -2,-2 -6,-4 -8,-5 -3,-2 -5,-2 -8,-4 -7,-3 -6,-7 -16,-7 -13,-1 -7,-4 -16,-6 -4,-1 -6,-1 -9,-2 -11,-4 -1,-3 -23,-9 -6,-1 -7,-4 -13,-6 -7,-2 -12,-2 -18,-4 -5,-2 -9,-4 -15,-5 -7,-2 -10,-1 -16,-4 -24,-10 -16,0 -45,-11 -9,-4 -30,-3 -42,-5 -6,0 -11,-2 -18,-3 -33,-2 -67,-3 -99,-1l-37 5c-11,1 -27,1 -39,3 -13,2 -16,6 -33,7 -19,1 -17,6 -34,8 -6,1 -11,3 -16,5 -7,3 -9,2 -16,4 -6,2 -10,5 -14,7 -8,2 -9,-1 -16,4 -7,6 -3,4 -14,6l-84 41c-7,4 -31,18 -37,23 -7,7 -21,15 -31,21 -5,4 -6,6 -11,10l-70 62c-3,3 -9,9 -11,11l-8 8c-1,2 -1,1 -2,2l-19 23c-12,17 -27,33 -38,50 0,1 0,1 0,1l-17 26c-4,6 -2,-1 -4,6l-14 26c-6,7 -3,8 -6,15 -3,6 -5,2 -8,13 -3,9 -4,5 -7,13l-7 15c-2,5 -2,10 -5,15 -4,7 -4,4 -6,15 -2,11 -3,6 -6,14 -2,5 -2,12 -3,17 -3,10 -5,1 -7,13 -1,8 0,11 -3,18 -3,7 -4,7 -5,16 -5,32 -5,20 -8,33 -2,11 -2,29 -4,37 -3,6 -2,1 -4,8 -2,8 -1,18 -2,27 -1,44 -4,122 6,159 3,11 1,26 5,37 4,17 4,8 8,32 1,11 3,9 5,17 1,5 1,12 3,17 2,7 4,4 6,13 5,20 4,12 8,23 5,17 7,12 9,21 2,6 2,11 5,17 4,5 4,9 5,16 2,3 4,3 8,13 2,6 5,5 8,12 2,8 2,8 6,13 5,7 10,21 15,27l9 11c5,4 2,0 5,6 3,6 6,6 8,12 2,7 5,7 8,13 2,2 0,0 3,4 5,6 12,12 15,19l12 14c3,3 2,4 8,9 6,5 12,21 36,41 2,1 2,4 7,8l60 52c4,3 2,2 5,4 8,6 21,11 28,17 0,0 0,1 1,1 0,0 0,0 1,1l8 5c5,4 -1,1 6,5 10,4 8,8 20,8 6,8 -3,5 8,9 7,2 4,-1 10,4 5,4 12,4 16,8 8,8 5,2 14,6 3,1 5,5 8,6l4 1c17,4 2,6 21,9 7,1 4,1 6,5 4,5 13,3 19,7l34 14c13,2 11,0 20,5 7,3 11,3 20,4 11,0 9,4 18,6 14,4 26,0 43,7 7,3 58,5 68,5 31,2 65,2 95,-2 14,-1 36,1 48,-1 7,-2 10,-6 17,-7 7,-1 18,0 24,-1 15,-4 -2,-8 16,-8 27,-1 21,-5 41,-8 13,-2 9,-3 17,-7 7,-3 14,-1 19,-6 7,-7 7,-2 18,-6 8,-2 7,-5 16,-7 12,-3 4,-5 18,-8 10,-2 8,-6 16,-8 7,-2 3,0 9,-4 5,-3 0,-2 8,-4z"/>
   <path class="fil1" d="M557 871c0,-10 1,-17 4,-24 7,-18 -1,-23 7,-32 6,-7 2,-4 5,-9l16 -18c4,-4 -2,0 3,-2 28,-14 2,-6 31,-11 10,-1 2,-7 46,-6 14,0 12,1 23,5 7,2 15,1 22,4 7,2 3,2 8,5 8,5 8,0 16,12 6,9 4,1 8,12 5,11 6,1 8,12 1,3 1,9 2,13 2,8 1,3 4,8 6,9 3,84 3,103 0,18 0,16 -5,22 -7,9 0,15 -5,22 -3,5 -3,2 -6,8 -5,9 -1,2 -7,8 -6,6 2,2 -6,7 -4,3 -1,0 -4,4 -8,8 -7,3 -14,6 -6,3 0,3 -7,6 -3,1 -21,1 -26,2 -12,1 -11,4 -24,4 -17,0 -7,-5 -36,-5 -23,-1 -7,-5 -23,-9 -2,0 -5,-1 -8,-1 -4,-12 -4,-4 -9,-10 -4,-5 1,-3 -9,-9 -5,-21 0,-11 -6,-15 -5,-3 -4,-7 -4,-15 0,-19 -7,-20 -7,-39l0 -58zm-91 -309c2,16 0,291 0,315 0,22 -2,57 1,78 1,13 6,6 7,31 1,10 1,9 5,16 4,7 2,9 5,15l8 14c1,2 2,3 2,4 10,13 4,7 8,12l7 8c5,5 3,-1 8,7 2,2 0,1 2,3 13,12 9,6 21,14 8,6 10,2 17,4 6,2 2,6 13,7 6,1 13,1 17,2 13,2 -1,4 13,7 9,2 107,1 118,0 20,-1 4,-6 31,-8 10,-1 9,0 15,-5 6,-4 9,-2 15,-5 4,-1 3,-1 6,-3 6,-5 6,-2 12,-8 6,-6 17,-12 22,-19l11 -16c4,-6 4,-6 6,-16 2,-10 4,-7 7,-12 2,-5 2,-12 3,-17 3,-13 7,1 7,-35l-1 -131c-3,-9 -6,-2 -7,-19 -1,-3 -1,-5 -1,-8 -4,-16 -8,2 -8,-24 -3,-2 -3,-2 -7,-2 -1,-3 -1,-5 -2,-7 -2,-8 -13,-21 -19,-25 -4,-3 -2,1 -6,-5 -1,-1 -1,-1 -1,-1 -5,-8 -5,3 -15,-9 -4,-4 -4,-2 -10,-7 -4,-4 0,-3 -9,-4 -24,0 -13,-2 -23,-7 -10,-4 -93,-2 -112,-1 -25,3 -13,1 -22,6 -9,5 -6,-2 -31,12 -5,3 -3,3 -6,6 -6,1 -11,0 -15,-3l0 -175c-18,0 -35,3 -52,3 -21,0 -31,8 -40,8z"/>
   <path class="fil1" d="M1166 766c0,-6 1,-20 3,-27 2,-10 8,-9 6,-26l-142 0c-7,-9 -2,-91 -3,-111 -26,2 -26,0 -43,7 -13,6 -33,0 -46,4 -4,12 -1,311 0,372 0,34 5,22 8,33 5,19 -6,4 6,16 2,3 1,0 2,5 3,7 2,8 14,19 3,2 2,1 4,3 5,5 0,1 5,4 8,5 1,4 9,7 8,4 6,-1 12,5 1,1 0,4 11,5 44,4 13,6 41,8 17,1 88,2 98,-1 4,-10 7,-9 7,-26 0,-5 -1,-10 0,-14 0,-1 1,-4 2,-5l5 -6 0 -20c-31,0 -69,2 -100,-1 -2,-1 -1,-1 -3,-3 -2,-2 -1,-2 -4,-3 -9,-4 -5,0 -10,-7 -5,-5 -6,-4 -8,-9 -4,-8 1,-6 -5,-12 -4,-5 -4,-3 -5,-12 0,-6 0,-11 0,-17 0,-11 0,-23 0,-34 0,-22 0,-45 0,-68 0,-80 -15,-67 63,-67l60 0c0,0 1,0 1,-1 10,-2 -3,-7 12,-18z"/>
   <path class="fil2" d="M747 824c0,-1 -2,-3 -3,-7 0,-2 -1,-7 -2,-8l-7 -2c-1,-1 -2,-5 -3,-6 -5,-4 -3,1 -8,-5l-3 -3c-4,-3 -3,-2 -8,-4 -13,-4 -2,-7 -32,-7 -12,-1 -48,-1 -60,1 -6,1 -8,4 -13,6 -16,6 -1,-3 -18,10 -3,3 -11,13 -12,19 -4,13 -1,6 -6,14 -6,9 -3,98 -2,117 1,22 0,-2 8,31 1,6 11,20 16,24 23,18 13,4 26,13 12,7 68,5 72,3 7,-2 4,-4 14,-6 16,-3 9,-1 14,-6 5,-3 8,-3 11,-8 6,-9 -1,-10 10,-11 1,-12 1,-10 6,-17 3,-5 3,-11 4,-19 3,-49 3,-81 -4,-129z"/>
   <path class="fil2" d="M1341 987c13,-2 11,7 29,9 13,2 71,3 80,-1 8,-3 -1,1 5,-3 4,-3 9,-4 15,-4 2,-10 1,-3 9,-10 17,-14 17,-33 17,-55 1,-21 2,-70 -1,-89 -1,-6 -5,-9 -7,-15 -4,-17 0,-9 -16,-25 -8,-8 -10,-2 -19,-8 -9,-6 -28,-5 -40,-5 -63,0 -38,4 -53,7 -8,2 -9,0 -18,10 -1,0 -1,1 -1,1l-4 5c-2,2 0,0 -3,2 -7,6 5,6 -10,18 -1,27 -1,54 -1,81 0,88 6,35 10,72 6,1 9,4 8,10z"/>
   <path class="fil3" d="M1048 1459c9,-9 22,-11 25,-13 3,-4 1,1 2,-6 -8,2 -3,1 -8,4 -6,4 -2,2 -9,4 -8,2 -6,6 -16,8 -14,3 -6,5 -18,8 -9,2 -8,5 -16,7 -11,4 -11,-1 -18,6 -5,5 -12,3 -19,6 -8,4 -4,5 -17,7 -20,3 -14,7 -41,8 -18,0 -1,4 -16,8 -6,1 -17,0 -24,1 -7,1 -10,5 -17,7 -12,2 -34,0 -48,1 -30,4 -64,4 -95,2 -10,0 -61,-2 -68,-5 -17,-7 -29,-3 -43,-7 -9,-2 -7,-6 -18,-6 -9,-1 -13,-1 -20,-4 -9,-5 -7,-3 -20,-5l-34 -14c-6,-4 -15,-2 -19,-7 -2,-4 1,-4 -6,-5 -19,-3 -4,-5 -21,-9l-4 -1c-3,-1 -5,-5 -8,-6 -9,-4 -6,2 -14,-6 -4,-4 -11,-4 -16,-8 -6,-5 -3,-2 -10,-4 -11,-4 -2,-1 -8,-9 -12,0 -10,-4 -20,-8 -7,-4 -1,-1 -6,-5l-8 -5c-1,-1 -1,-1 -1,-1 -1,0 -1,-1 -1,-1 -7,-6 -20,-11 -28,-17 -3,-2 -1,-1 -5,-4l-60 -52c-5,-4 -5,-7 -7,-8 -24,-20 -30,-36 -36,-41 -6,-5 -5,-6 -8,-9l-12 -14c-3,-7 -10,-13 -15,-19 -3,-4 -1,-2 -3,-4 -3,-6 -6,-6 -8,-13 -2,-6 -5,-6 -8,-12 -3,-6 0,-2 -5,-6l-9 -11c-5,-6 -10,-20 -15,-27 -4,-5 -4,-5 -6,-13 -3,-7 -6,-6 -8,-12 -4,-10 -6,-10 -8,-13 -1,-7 -1,-11 -5,-16 -3,-6 -3,-11 -5,-17 -2,-9 -4,-4 -9,-21 -4,-11 -3,-3 -8,-23 -2,-9 -4,-6 -6,-13 -2,-5 -2,-12 -3,-17 -2,-8 -4,-6 -5,-17 -4,-24 -4,-15 -8,-32 -4,-11 -2,-26 -5,-37 -10,-37 -7,-115 -6,-159 1,-9 0,-19 2,-27 2,-7 1,-2 4,-8 2,-8 2,-26 4,-37 3,-13 3,-1 8,-33 1,-9 2,-9 5,-16 3,-7 2,-10 3,-18 2,-12 4,-3 7,-13 1,-5 1,-12 3,-17 3,-8 4,-3 6,-14 2,-11 2,-8 6,-15 3,-5 3,-10 5,-15l7 -15c3,-8 4,-4 7,-13 3,-11 5,-7 8,-13 3,-7 0,-8 6,-15l14 -26c2,-7 0,0 4,-6l17 -26c0,0 0,0 0,-1 11,-17 26,-33 38,-50l19 -23c1,-1 1,0 2,-2l8 -8c2,-2 8,-8 11,-11l70 -62c5,-4 6,-6 11,-10 10,-6 24,-14 31,-21 6,-5 30,-19 37,-23l84 -41c11,-2 7,0 14,-6 7,-5 8,-2 16,-4 4,-2 8,-5 14,-7 7,-2 9,-1 16,-4 5,-2 10,-4 16,-5 17,-2 15,-7 34,-8 17,-1 20,-5 33,-7 12,-2 28,-2 39,-3l37 -5c32,-2 66,-1 99,1 7,1 12,3 18,3 12,2 33,1 42,5 29,11 21,1 45,11 6,3 9,2 16,4 6,1 10,3 15,5 6,2 11,2 18,4 6,2 7,5 13,6 22,6 12,5 23,9 3,1 5,1 9,2 9,2 3,5 16,6 -2,-5 0,-1 -4,-5l-30 -13c-10,-2 -10,-5 -19,-7 -10,-4 -10,-1 -19,-6 -8,-6 -11,-3 -21,-5 -8,-3 -6,-5 -17,-7 -8,-1 -16,-1 -23,-3 -30,-11 -38,-4 -65,-11 -30,-7 -116,-5 -144,-1 -9,1 -14,4 -21,4 -8,1 -17,1 -25,1 -8,1 -16,1 -23,3 -9,3 -7,5 -19,6 -7,0 -17,1 -22,4 -9,4 -9,4 -20,5 -11,2 -9,5 -17,7 -11,3 -10,1 -19,6 -6,4 -14,3 -19,7 -5,3 -1,2 -8,4 -4,2 -5,1 -9,3 -12,7 -10,4 -18,8 -5,2 -3,3 -8,5 -4,1 -6,2 -9,3 -4,2 -6,4 -9,5 -3,2 -5,2 -9,4 -4,2 -4,3 -7,5 -10,5 -8,-1 -20,9 -8,8 -11,9 -22,10 -5,8 -3,7 -7,9 -4,2 -1,-1 -5,3 -7,6 -6,2 -14,9 -4,4 1,0 -4,3 -8,5 -13,11 -22,17l-70 58c-5,8 -12,13 -17,20l-15 17c-4,5 0,3 -6,9l-3 4c-5,7 -13,14 -17,22 -4,6 -8,12 -14,16 -6,3 -2,4 -6,10l-3 2c0,0 0,1 0,1 -2,2 -2,1 -3,4 -5,14 1,2 -6,10l-12 18c-4,9 -8,7 -9,22 -6,0 -6,0 -7,5l-3 6c-9,15 -5,16 -9,21 -4,4 -4,0 -5,8 -2,12 -7,8 -9,17 -1,4 -1,8 -1,11l-7 3c0,4 0,11 -1,15 -2,9 -3,4 -6,10 -3,5 -1,17 -5,26 -3,4 -3,4 -5,11 -4,15 -7,12 -9,34 -2,11 -6,11 -7,24 -3,21 1,14 -6,23 -7,9 -4,41 -5,56 -5,5 -6,4 -7,13 0,19 -2,95 1,107 1,5 5,10 6,15 1,5 1,14 1,20 1,7 1,14 1,21 1,7 4,10 6,15 4,12 0,29 5,38 10,17 -1,14 10,33 5,7 2,19 6,27 1,1 1,1 3,3 7,7 -1,11 8,22l21 47c2,9 2,4 5,9 1,0 1,0 1,1 3,6 -2,-7 1,2 5,15 6,9 9,18 5,13 4,6 9,15 2,4 0,2 4,8 3,3 2,2 4,6 4,9 6,6 9,14 7,16 29,43 33,49l15 19c4,6 1,3 4,8l12 11c2,3 3,4 5,6 1,0 1,0 1,0l3 2c2,2 0,0 2,4 4,5 2,2 6,6l18 18c3,4 1,3 4,6 9,8 9,6 19,16 20,21 45,38 68,55 5,3 12,6 16,11 4,3 11,6 14,9 7,5 16,9 24,12 3,1 2,1 4,2 0,0 1,1 1,2 0,0 0,0 1,0 4,5 1,3 8,5 4,1 6,2 8,3 6,5 -3,1 6,6 3,1 6,1 8,3 0,0 1,0 1,0 0,0 0,1 1,1l6 3c11,5 10,6 16,8 4,2 6,2 9,3 6,1 22,11 32,14 5,2 13,3 18,5l18 6c3,0 5,2 8,3 8,4 19,4 27,7 7,2 8,4 18,5 20,3 10,-1 29,6 16,6 36,2 52,5 34,8 98,8 131,3 19,-3 45,-3 61,-9 6,-2 12,-3 19,-4 21,-3 53,-13 75,-18 9,-2 6,-5 15,-7 12,-2 9,-1 17,-6 5,-3 12,-3 18,-6l31 -14z"/>
   <path class="fil4" d="M1057 1423l2 -2c0,0 0,-1 1,-1 6,-7 7,-5 14,-9l16 -9c6,-4 12,-7 16,-10l75 -57c-5,1 -9,2 -13,5l-11 11c-3,4 -1,1 -4,4 -5,3 -4,4 -10,6 -8,4 -14,12 -21,17 -3,2 -2,0 -5,3 -6,4 0,3 -9,6 -10,3 -6,3 -11,6 -7,4 -8,1 -15,8l-15 8c-3,3 2,0 -5,3 -4,2 -2,0 -5,3 -6,4 0,3 -10,5 -10,3 -5,1 -10,5l-10 6c-7,3 -3,4 -10,6l-34 13c-5,3 -2,3 -10,4 -5,1 -8,2 -12,4 -12,6 -12,3 -24,7 -12,4 -5,4 -24,7 -11,1 -12,5 -24,7 -9,1 -19,2 -28,2 -13,2 -13,6 -25,7 -42,2 -139,6 -181,-1 -6,-1 -5,-3 -11,-4 -13,-3 -30,-1 -41,-6 -6,-2 -5,-3 -12,-5 -24,-4 -10,-2 -23,-7 -3,-1 -9,-2 -13,-3 -15,-2 -38,-14 -46,-16 -8,-2 -15,-5 -21,-9 -10,-4 0,-3 -8,-7 -3,-1 -9,-1 -12,-3 -5,-2 -3,-4 -9,-6 -9,-2 -6,1 -12,-4 -12,-10 -11,0 -17,-13 -3,0 -6,0 -8,-1 -5,-2 -6,-5 -10,-7 -1,0 -1,0 -2,-1 0,0 0,0 -1,0 -8,-5 0,-4 -13,-8 -11,-3 -2,-1 -10,-7l-16 -11c-6,-3 -3,-5 -9,-7 -10,-4 -32,-21 -39,-30 -3,-4 -4,-4 -9,-7l-46 -45c-6,-8 -2,-7 -9,-12 -3,-2 -2,-4 -5,-7l-44 -58c-3,-3 -2,0 -5,-5 -2,-5 -4,-5 -7,-10 -1,-2 -1,-2 -2,-5 -2,-5 -1,-3 -3,-6 -4,-4 -1,2 -4,-5 -2,-4 -2,-8 -5,-11 -6,-8 -10,-10 -13,-21 -2,-7 -3,-5 -6,-9 -3,-4 -1,-7 -5,-12 -4,-6 -3,-1 -6,-11 -3,-10 -7,-13 -10,-24 -3,-10 -3,-4 -5,-11 -2,-5 -1,-10 -3,-15 -3,-6 -4,0 -6,-10 -2,-7 -1,-8 -4,-13 -6,-12 -4,-13 -7,-27 -3,-14 -6,-6 -7,-28 -1,-23 -3,-17 -7,-26 -1,-5 -2,-25 -2,-31 -1,-21 1,-11 -6,-27 -4,-11 -2,-85 -2,-99 1,-14 -1,-17 5,-30 4,-9 4,-33 4,-45 1,-17 7,-3 8,-43 7,-4 9,-7 9,-17 1,-26 1,-15 5,-24 4,-7 2,-15 6,-22 2,-3 4,-4 5,-8 0,-4 -1,-10 2,-12 0,-1 1,-1 1,-1 5,-6 6,-13 7,-23 9,-5 5,-2 8,-15 2,-9 4,-4 7,-13 1,-2 1,-4 2,-5 2,-6 -1,0 1,-3 5,-6 7,-15 14,-17 1,-21 4,-11 8,-20l5 -8c8,-9 1,-9 9,-16l21 -30c0,0 0,-1 1,-1l2 -3c4,-4 4,-5 7,-11l19 -22c7,-6 1,-8 13,-9 1,-14 0,-4 6,-10l7 -8c0,0 0,-1 1,-1 0,0 0,0 0,-1l7 -9c4,-4 8,-4 11,-7 2,-3 -2,2 1,-3 2,-2 0,0 3,-2l10 -10c0,0 0,-1 1,-1l3 -4c1,-1 1,-1 3,-2l8 -7c0,-1 0,-1 1,-1l9 -9c0,0 1,0 1,-1 0,0 0,0 1,0l29 -24c10,-7 19,-14 30,-20l9 -8c-5,-1 -18,7 -23,11l-19 13c-7,3 -12,10 -17,15 -4,3 -14,8 -20,14 -5,5 -2,3 -8,7 -3,2 -7,5 -10,8 -3,3 -3,5 -7,8 -4,3 -5,5 -9,8l-7 8c-22,21 -29,32 -44,47 -2,2 -1,1 -4,4l-41 57c-4,5 -2,6 -6,11 -7,7 -2,2 -6,11l-12 20c-3,4 -3,8 -6,11 -7,7 -4,0 -6,10 -3,10 -2,5 -9,9 0,2 0,7 0,8 -3,15 -7,-1 -9,18 -1,11 -2,7 -6,14 -2,5 -2,9 -4,15 -2,6 -4,3 -6,12 -1,7 0,10 -3,16 -8,12 -4,16 -11,27 -3,6 -3,23 -6,31 -1,5 -3,7 -4,14 -2,10 -1,23 -5,33 -2,6 -3,2 -4,13 -2,12 -1,25 -1,38 -1,38 -5,106 3,142 2,11 5,20 6,31 0,6 0,13 1,18 1,7 4,9 5,15 3,14 -3,22 6,31 2,3 1,-2 3,6 2,7 0,13 5,18 0,0 1,1 1,2 9,9 -4,20 11,25 2,25 5,12 10,27 4,13 7,11 8,28 2,1 5,2 8,3 0,14 -1,12 8,17 1,6 0,11 3,14 7,7 5,9 10,14l3 4c3,4 4,7 9,10l1 14c4,3 6,3 8,6 6,10 9,6 16,18 2,2 2,4 3,6l36 42c5,4 5,6 9,10l28 29c11,11 25,20 36,32 12,13 71,52 86,60 5,3 6,4 11,8 4,3 0,0 6,3 6,2 3,1 7,3 7,5 13,3 19,9 2,1 0,0 3,2 7,5 36,18 44,20 8,2 7,3 13,6 6,3 10,1 15,5 13,8 12,5 21,9 8,4 11,5 22,6 19,1 15,6 31,8 6,0 11,0 17,1 6,1 10,5 14,6 8,2 26,2 35,3 14,2 16,5 34,5 12,0 25,0 38,0 24,1 53,2 75,-3 12,-3 21,-3 35,-4 24,-3 18,-6 30,-8 6,0 12,0 18,-1 7,-1 9,-4 14,-6 5,-2 12,-1 17,-2 8,-2 7,-5 14,-7 5,-2 11,-1 16,-2 8,-2 4,-5 13,-7 13,-2 6,2 14,-5 5,-4 7,-3 15,-5 9,-3 3,-4 11,-6 9,-3 8,0 15,-6 8,-5 8,-2 14,-6 3,-2 2,-2 5,-4 2,-1 6,-2 7,-3z"/>
   <path class="fil5" d="M522 549c13,2 30,-8 41,-4 2,6 1,117 1,140 0,16 -3,32 5,41l14 -8c10,-7 10,-4 27,-12 6,-3 43,-8 52,-9 21,-1 62,3 82,7 9,2 5,3 20,8 1,0 1,1 2,1 0,-1 1,0 1,0 9,1 5,0 9,4 6,5 6,3 10,7 10,12 10,1 15,9 0,0 0,0 1,1 4,6 2,2 6,5 6,4 17,17 19,25 1,2 1,4 2,7 4,0 4,0 7,2 0,26 4,8 8,24 0,3 0,5 1,8 1,17 4,10 7,19l1 131c0,36 -4,22 -7,35 -1,5 -1,12 -3,17 -3,5 -5,2 -7,12 -2,10 -2,10 -6,16l-11 16c-5,7 -16,13 -22,19 -6,6 -6,3 -12,8 -3,2 -2,2 -6,3 -6,3 -9,1 -15,5 -6,5 -5,4 -15,5 -27,2 -11,7 -31,8 -11,1 -109,2 -118,0 -14,-3 0,-5 -13,-7 -4,-1 -11,-1 -17,-2 -11,-1 -7,-5 -13,-7 -7,-2 -9,2 -17,-4 -12,-8 -8,-2 -21,-14 -2,-2 0,-1 -2,-3 -5,-8 -3,-2 -8,-7l-7 -8c-4,-5 2,1 -8,-12 0,-1 -1,-2 -2,-4l-8 -14c-3,-6 -1,-8 -5,-15 -4,-7 -4,-6 -5,-16 -1,-25 -6,-18 -7,-31 -3,-21 -1,-56 -1,-78 0,-24 2,-299 0,-315 -4,0 -2,-3 -4,4 0,0 0,6 0,6 1,79 -4,383 4,405 3,9 4,10 6,21 2,13 5,10 7,19 3,12 8,18 15,26 3,4 1,4 4,8l27 25 35 17c26,6 10,3 21,7l69 9c17,0 36,0 50,-3 11,-2 38,-3 45,-7 5,-2 3,-2 10,-4 18,-4 10,-4 19,-8 3,-2 5,-2 9,-3 8,-4 1,-2 8,-6 5,-2 5,0 9,-3l8 -6c6,-4 2,-1 6,-6 6,-7 5,-3 18,-23 3,-5 3,-3 6,-6 2,-3 1,-6 3,-10 3,-5 3,-4 5,-8l11 -44c0,-8 2,-16 2,-23 3,-25 2,-51 2,-77 0,-11 -2,-12 -3,-23 -1,-18 -2,-29 -7,-44 -5,-12 -2,-20 -16,-39 -11,-15 -2,-7 -10,-16 -4,-4 -3,-4 -7,-7 -7,-6 -7,-7 -12,-14 -3,-3 -22,-13 -24,-14 -13,-9 -10,-4 -17,-8 0,0 -1,-1 -1,-1 -8,-5 -1,-3 -19,-6 -5,-1 -8,-1 -12,-2 -24,-8 -61,-6 -86,-5l-41 10c-4,2 -6,3 -10,4 -20,7 -6,1 -18,9l-9 0c0,0 0,-1 0,-1 0,0 0,-1 0,-1l-1 -85c0,-95 9,-91 -24,-88 -9,1 -17,0 -22,8z"/>
   <path class="fil6" d="M1075 1440c-1,7 1,2 -2,6 -3,2 -16,4 -25,13 17,0 6,-7 28,-8 4,-11 9,-5 16,-11 5,-5 -3,-2 8,-6 4,-2 5,-1 8,-4l8 -6c4,-1 2,-1 4,-3 4,-4 9,-3 13,-7 5,-4 -1,-1 7,-6 8,-4 2,-1 8,-6 3,-2 6,-3 9,-4l8 -6c9,-5 2,-1 6,-6 1,0 1,-1 1,-1l26 -19c7,-4 1,0 5,-5 1,0 1,-1 1,-1 0,0 1,0 1,-1l2 -1c6,-4 11,-13 18,-17 0,-1 1,-1 1,-1 2,-2 1,0 3,-3l16 -17c1,0 1,-1 1,-1 6,-7 12,-10 18,-18l4 -3c5,-4 11,-18 18,-24 3,-3 3,-3 6,-6 10,-12 1,-12 13,-13 2,-10 4,-11 16,-11l78 0c20,0 31,-4 48,-4 43,-2 23,-3 42,-8 7,-1 18,-1 23,-4 6,-4 0,-3 8,-5 3,-1 8,-1 10,-3 3,-1 3,-3 6,-5 10,-5 -7,2 3,-1l15 -10c7,-4 13,-12 19,-19l13 -21c4,-6 5,-2 7,-11 3,-11 -1,-12 8,-16 1,-9 1,-18 2,-28 2,-14 7,-4 7,-20l0 -170c0,-16 4,-69 -4,-81 -2,-4 -3,-6 -3,-12 0,-7 0,-19 -3,-26 -3,-7 -3,0 -5,-9 -2,-7 -1,-10 -6,-15 -4,-4 -2,-10 -7,-14l-4 -4c-1,-2 -1,-2 -2,-4 -3,-5 -3,-2 -6,-7 -4,-5 -2,-6 -9,-6l20 31c2,4 1,6 2,10 2,4 4,5 6,8 3,4 4,14 6,20 6,21 5,23 5,49 0,42 2,248 -1,257 -1,2 -2,4 -4,8 -2,4 -2,5 -3,10 0,4 0,7 -1,11l-25 41 -41 31c-7,4 -6,1 -15,3 -6,1 -4,2 -9,5 -8,4 -14,2 -23,3 -24,4 7,9 -70,9l-78 0c-23,0 -22,-1 -35,18 -2,3 -4,5 -6,8 -3,5 -1,3 -5,7 -8,7 -2,3 -10,12l-40 42c-4,6 -9,12 -16,16 -5,2 -49,42 -59,48 -7,4 -4,3 -8,7l-52 30c-13,13 -1,-1 -16,11 -3,3 -7,4 -8,4z"/>
   <path class="fil7" d="M937 996c0,3 2,14 3,19 2,10 4,7 6,15 3,10 -1,4 5,12 4,5 7,15 23,26 7,4 4,5 13,9 11,3 17,11 31,9 27,5 13,6 52,7 19,1 39,1 58,1 31,0 28,2 32,-27 1,-11 13,-39 7,-49 -10,-6 -71,0 -89,-2 -4,-1 -22,-9 -29,-15 -7,-9 -12,-19 -15,-32 -3,-14 -3,-170 0,-180 11,-3 92,-1 115,-1 13,0 16,-8 17,-22 -15,11 -2,16 -12,18 0,1 -1,1 -1,1l-60 0c-78,0 -63,-13 -63,67 0,23 0,46 0,68 0,11 0,23 0,34 0,6 0,11 0,17 1,9 1,7 5,12 6,6 1,4 5,12 2,5 3,4 8,9 5,7 1,3 10,7 3,1 2,1 4,3 2,2 1,2 3,3 31,3 69,1 100,1l0 20 -5 6c-1,1 -2,4 -2,5 -1,4 0,9 0,14 0,17 -3,16 -7,26 -10,3 -81,2 -98,1 -28,-2 3,-4 -41,-8 -11,-1 -10,-4 -11,-5 -6,-6 -4,-1 -12,-5 -8,-3 -1,-2 -9,-7 -5,-3 0,1 -5,-4 -2,-2 -1,-1 -4,-3 -12,-11 -11,-12 -14,-19 -1,-5 0,-2 -2,-5 -12,-12 -1,3 -6,-16 -3,-11 -8,1 -8,-33 -1,-61 -4,-360 0,-372 13,-4 33,2 46,-4 17,-7 17,-5 43,-7 1,20 -4,102 3,111l142 0c-8,-4 -55,-2 -63,-2 -22,0 -44,0 -65,0 -12,0 -14,-2 -15,-14 -1,-22 3,-83 -1,-96 -9,-3 -41,2 -49,4 -15,5 -34,2 -48,8 -2,28 0,242 0,289 0,15 -1,31 0,47 0,15 5,35 3,47z"/>
   <path class="fil3" d="M947 606c-9,0 -12,2 -17,5 -2,23 -1,160 -1,195 0,20 -3,170 5,186 2,4 0,1 3,4 2,-12 -3,-32 -3,-47 -1,-16 0,-32 0,-47 0,-47 -2,-261 0,-289 14,-6 33,-3 48,-8 8,-2 40,-7 49,-4 4,13 0,74 1,96 1,12 3,14 15,14 21,0 43,0 65,0 8,0 55,-2 63,2 2,17 -4,16 -6,26 -2,7 -3,21 -3,27 -1,14 -4,22 -17,22 -23,0 -104,-2 -115,1 -3,10 -3,166 0,180 3,13 8,23 15,32 7,6 25,14 29,15 18,2 79,-4 89,2 6,10 -6,38 -7,49 -4,29 -1,27 -32,27 -19,0 -39,0 -58,-1 -39,-1 -25,-2 -52,-7 3,6 -2,2 5,6 12,6 97,6 109,6 38,0 24,-2 32,-29 2,-8 5,-16 6,-24 1,-5 1,-10 1,-15 1,-3 1,-4 1,-7l0 -4c-1,-9 -27,-6 -37,-6 -31,0 -44,3 -72,-8 -7,-2 -18,-12 -18,-19 -4,-4 -5,-14 -7,-21 -5,-22 -2,-100 -2,-128 0,-21 -3,-34 4,-46 33,-3 76,0 110,0 21,-1 19,-17 21,-35 1,-15 12,-31 7,-47 -7,-3 -8,-3 -17,-3 -6,1 -12,1 -17,1l-106 -1c-4,-16 -2,-62 -2,-84 0,-15 2,-27 -10,-27 -1,0 -5,1 -6,1 -17,3 -43,4 -52,6 -9,3 -10,4 -21,4z"/>
   <path class="fil5" d="M1260 1044c3,2 14,13 22,16 8,3 7,5 13,7 7,3 7,2 13,5 11,6 19,5 32,7 33,8 33,6 70,6 23,-1 20,-3 32,-6 6,-1 12,-2 17,-3 3,0 6,-1 8,-2 7,-2 2,-1 6,-3 5,-3 8,-1 13,-6 0,0 9,-11 12,-1l1 7c0,3 0,6 -1,9 0,4 0,11 -1,16l-9 28c-4,7 -12,14 -19,18 -6,4 -5,6 -11,7 -32,10 -48,9 -84,9 -10,0 -26,-1 -36,1 -9,1 -16,8 -21,14 0,0 0,1 -1,1l-60 84c0,0 -2,2 -3,2l-8 10c-3,3 -5,6 -9,10 -3,4 -1,2 -5,5 -9,6 -1,2 -9,9l-23 23c-1,1 0,1 -2,2l-8 8c0,0 -1,0 -1,0 0,0 -1,1 -1,1 -1,1 -4,0 -6,7l-75 57c-4,3 -10,6 -16,10l-16 9c-7,4 -8,2 -14,9 -1,0 -1,1 -1,1l-2 2c9,-1 5,0 9,-4 4,-3 -1,0 4,-2 9,-4 1,2 12,-6 5,-5 5,-2 10,-5l22 -15c8,-4 1,1 11,-6l6 -3c7,-4 1,-1 5,-6 6,-6 32,-21 32,-21 2,-2 0,-2 5,-8l27 -23c14,-10 36,-36 47,-50 2,-2 2,-2 4,-3 3,-3 3,-4 6,-7 10,-9 12,-14 17,-21l17 -22c5,-6 2,0 5,-7 5,-11 14,-21 16,-24 2,-3 3,-6 4,-8 12,-16 3,-7 22,-17 13,-7 77,-1 99,-4 9,-1 9,-4 19,-7 9,-2 22,-9 25,-13l7 -7c4,-4 2,-3 5,-8 3,-4 2,-1 5,-6 5,-8 -1,-11 6,-21 6,-9 4,-34 3,-47 -15,-5 -15,2 -27,11 -5,3 -11,2 -17,5 -7,3 -4,5 -16,6 -16,1 -25,1 -38,5 -24,5 -47,-3 -61,-4 -6,0 -13,-1 -20,-1 -14,-2 -2,-4 -23,-9 -9,-2 -4,0 -9,-4 -6,-6 -7,-2 -14,-7 -13,-11 -5,-2 -13,-10 -9,-8 -5,-8 -10,-11l-6 -6c-4,-5 0,-2 -8,-5 1,5 2,6 7,11 0,0 1,0 1,0l7 11z"/>
   <path class="fil8" d="M947 606c11,0 12,-1 21,-4 9,-2 35,-3 52,-6 1,0 5,-1 6,-1 12,0 10,12 10,27 0,22 -2,68 2,84l106 1c5,0 11,0 17,-1 9,0 10,0 17,3 5,16 -6,32 -7,47 -2,18 0,34 -21,35 -34,0 -77,-3 -110,0 -7,12 -4,25 -4,46 0,28 -3,106 2,128 2,7 3,17 7,21 1,-9 -2,-35 -2,-47 0,-40 -2,-107 0,-141 18,-1 109,2 118,-1 7,-3 9,-8 10,-18 0,-5 0,-11 1,-16 4,-12 6,5 8,-34 1,-16 6,-5 5,-24 -22,-13 -132,2 -141,-6 -6,-4 2,-92 -4,-103 -7,-15 -37,0 -44,0 -14,2 -31,0 -44,7 -2,1 5,-3 -2,2l-3 1z"/>
   <path class="fil6" d="M1260 1044l-7 -11c0,0 -1,0 -1,0 -5,-5 -6,-6 -7,-11 -6,-13 -4,-4 -9,-13 -4,-10 -5,-8 -7,-16 -1,-4 -1,-4 -2,-8 -1,-2 -2,-3 -2,-4 -11,-23 -11,-111 -7,-135 2,-13 -2,-23 6,-41 3,-6 3,-14 6,-19 2,-3 3,-3 4,-6 2,-4 7,-17 13,-23 13,-13 14,-19 36,-34 5,-4 7,-3 15,-8l34 -12c43,-6 34,-8 87,-7 30,0 38,4 62,7l36 11c4,3 1,2 7,4 15,6 8,4 14,9 3,2 5,3 8,5 4,3 8,9 15,9 0,-7 -1,-5 -6,-8l-7 -6c-16,-10 -3,-5 -14,-10 -14,-6 -3,-7 -17,-9 -17,-2 -4,-4 -17,-7 -13,-3 -10,1 -21,-5 -16,-8 -100,-5 -122,-4 -8,0 -15,0 -21,4 -5,3 0,2 -9,3 -27,4 -11,5 -24,9 -2,0 -3,0 -5,1 -10,1 -7,3 -16,7 -8,4 -2,1 -7,6l-22 15c-4,4 0,1 -6,8 -9,10 0,5 -10,14 -6,6 -1,1 -5,8 -4,8 -5,2 -8,18 -1,13 -4,7 -7,18 -1,7 -1,17 -3,24 -1,5 -3,3 -5,19 -2,14 -1,32 -1,48 0,17 0,33 2,49 1,10 4,10 5,21 1,7 1,15 4,21 4,6 2,-1 5,8 4,18 4,9 8,17 2,5 0,4 4,9 2,2 4,2 6,5 3,4 2,9 14,18 2,1 0,1 4,2z"/>
   <path class="fil7" d="M742 809c1,1 2,6 2,8 1,4 3,6 3,7 4,3 3,0 5,6 2,5 5,35 5,41 5,58 0,53 -5,100 -1,11 -4,12 -8,20 -3,7 -1,4 -5,8 -3,3 -3,4 -6,7 -8,7 -11,8 -17,10 -8,3 -8,6 -19,8 -15,2 -62,3 -77,-1 -5,-1 -5,-2 -9,-4 -3,-2 -25,-8 -35,-31l-8 -20c-6,-18 -4,-107 -2,-128 1,-13 2,-11 6,-21 7,-16 -2,-2 10,-17 17,-20 13,-11 23,-18 3,-2 4,-3 8,-4 12,-3 38,-4 51,-4 28,1 56,2 72,24 1,1 2,2 3,4 2,3 0,-2 3,5zm-185 62l0 58c0,19 7,20 7,39 0,8 -1,12 4,15 6,4 1,-6 6,15 10,6 5,4 9,9 5,6 5,-2 9,10 3,0 6,1 8,1 16,4 0,8 23,9 29,0 19,5 36,5 13,0 12,-3 24,-4 5,-1 23,-1 26,-2 7,-3 1,-3 7,-6 7,-3 6,2 14,-6 3,-4 0,-1 4,-4 8,-5 0,-1 6,-7 6,-6 2,1 7,-8 3,-6 3,-3 6,-8 5,-7 -2,-13 5,-22 5,-6 5,-4 5,-22 0,-19 3,-94 -3,-103 -3,-5 -2,0 -4,-8 -1,-4 -1,-10 -2,-13 -2,-11 -3,-1 -8,-12 -4,-11 -2,-3 -8,-12 -8,-12 -8,-7 -16,-12 -5,-3 -1,-3 -8,-5 -7,-3 -15,-2 -22,-4 -11,-4 -9,-5 -23,-5 -44,-1 -36,5 -46,6 -29,5 -3,-3 -31,11 -5,2 1,-2 -3,2l-16 18c-3,5 1,2 -5,9 -8,9 0,14 -7,32 -3,7 -4,14 -4,24z"/>
   <path class="fil6" d="M1341 987c1,-6 -2,-9 -8,-10 -4,-37 -10,16 -10,-72 0,-27 0,-54 1,-81 15,-12 3,-12 10,-18 3,-2 1,0 3,-2l4 -5c0,0 0,-1 1,-1 9,-10 10,-8 18,-10 15,-3 -10,-7 53,-7 12,0 31,-1 40,5 9,6 11,0 19,8 16,16 12,8 16,25 2,6 6,9 7,15 3,19 2,68 1,89 0,22 0,41 -17,55 -8,7 -7,0 -9,10 -6,0 -11,1 -15,4 -6,4 3,0 -5,3 -9,4 -67,3 -80,1 -18,-2 -16,-11 -29,-9zm0 0c10,17 73,17 91,15 22,-3 24,-3 42,-12 2,-2 12,-10 13,-12 20,-26 18,-86 15,-118 -3,-25 -3,-51 -26,-69 -3,-2 -5,-3 -8,-8 -6,-4 -14,-6 -23,-5 -25,1 -31,-9 -83,3 -15,3 -31,16 -38,31l-9 39c-2,37 -2,74 6,110l20 26z"/>
   <path class="fil6" d="M747 824c7,48 7,80 4,129 -1,8 -1,14 -4,19 -5,7 -5,5 -6,17 -11,1 -4,2 -10,11 -3,5 -6,5 -11,8 -5,5 2,3 -14,6 -10,2 -7,4 -14,6 -4,2 -60,4 -72,-3 -13,-9 -3,5 -26,-13 -5,-4 -15,-18 -16,-24 -8,-33 -7,-9 -8,-31 -1,-19 -4,-108 2,-117 5,-8 2,-1 6,-14 1,-6 9,-16 12,-19 17,-13 2,-4 18,-10 5,-2 7,-5 13,-6 12,-2 48,-2 60,-1 30,0 19,3 32,7 5,2 4,1 8,4l3 3c5,6 3,1 8,5 1,1 2,5 3,6l7 2c-3,-7 -1,-2 -3,-5 -1,-2 -2,-3 -3,-4 -16,-22 -44,-23 -72,-24 -13,0 -39,1 -51,4 -4,1 -5,2 -8,4 -10,7 -6,-2 -23,18 -12,15 -3,1 -10,17 -4,10 -5,8 -6,21 -2,21 -4,110 2,128l8 20c10,23 32,29 35,31 4,2 4,3 9,4 15,4 62,3 77,1 11,-2 11,-5 19,-8 6,-2 9,-3 17,-10 3,-3 3,-4 6,-7 4,-4 2,-1 5,-8 4,-8 7,-9 8,-20 5,-47 10,-42 5,-100 0,-6 -3,-36 -5,-41 -2,-6 -1,-3 -5,-6z"/>
   <path class="fil6" d="M1215 363c4,12 1,5 11,16 4,5 3,2 7,7 2,3 0,1 3,4 13,13 10,12 15,20l17 19c5,10 -1,-2 9,10l1 2c6,6 2,0 7,9 4,8 2,0 6,7l4 9c11,15 4,11 13,13 0,15 6,11 9,18 7,19 6,8 9,19 4,15 6,4 9,19 3,10 1,3 5,9 4,4 3,6 5,9 12,1 28,3 36,-2 2,-14 -3,-11 -6,-19 -1,-4 -1,-8 -3,-11l-5 -7c-3,-5 0,-5 -4,-10 -11,-14 -4,-9 -10,-15 -5,-6 -1,3 -4,-8 -1,-3 -1,-3 -2,-5 -3,-5 -4,-1 -6,-7 -1,-2 -1,-3 -2,-5 -2,-9 0,-3 -4,-7 -2,-2 -1,-1 -3,-3 -9,-14 -3,-1 -9,-11 -3,-7 0,-2 -5,-8l-16 -22c-6,-7 0,-2 -10,-16 -4,-5 -2,-5 -5,-8 -2,-3 0,0 -4,-3l-16 -15c-4,-3 -3,-3 -6,-6l-38 -39c-3,-4 0,-3 -6,-7l-8 -3c-2,6 8,10 17,19l52 58c4,4 5,4 7,6 7,8 10,13 16,23 2,3 2,4 5,7 8,8 15,19 21,29l41 71c4,5 4,11 8,17 -9,5 -15,4 -27,3 -2,-5 -2,-10 -5,-14 -1,-3 -2,-2 -4,-5l-21 -38c-3,-4 -2,-2 -5,-7 -3,-8 -1,-6 -7,-12 -8,-9 -8,-15 -17,-24 -5,-6 0,-4 -7,-12l-18 -22c-5,-6 -2,-4 -10,-11l-32 -36c-5,-6 -1,-3 -8,-5z"/>
   <path class="fil9" d="M1468 783c3,5 5,6 8,8 23,18 23,44 26,69 3,32 5,92 -15,118 -1,2 -11,10 -13,12 -18,9 -20,9 -42,12 -18,2 -81,2 -91,-15l-20 -26c-8,-36 -8,-73 -6,-110l9 -39c7,-15 23,-28 38,-31 52,-12 58,-2 83,-3 -3,-3 -7,-3 -11,-4 -4,-2 -3,-2 -9,-3 -15,-3 -65,1 -77,10 -4,4 -3,3 -8,5 -6,4 -2,2 -6,6 -5,5 -2,0 -6,6 -4,6 0,2 -5,7 -7,8 -3,10 -5,20 -2,7 -3,4 -5,8 -5,10 -3,82 -3,98 1,8 1,15 5,20 7,10 1,15 5,21 2,2 3,1 6,5 12,16 10,11 20,19 8,6 8,4 19,6 8,2 12,5 19,6 10,1 39,1 50,0 10,-1 11,-5 19,-6 30,-5 4,0 23,-9 8,-3 3,1 7,-4 6,-11 3,-2 8,-10 16,-26 5,-11 11,-28 2,-5 3,-3 4,-8 3,-11 2,-49 2,-61 0,-21 1,-29 -5,-46 -2,-6 -2,-16 -4,-21 -2,-8 -6,-3 -8,-18 -5,-4 -3,1 -9,-8 -4,-4 -7,-4 -14,-6z"/>
   <path class="fil10" d="M522 549c-8,-2 -24,0 -33,1 -4,0 -12,2 -15,3 -5,2 -8,3 -8,9 9,0 19,-8 40,-8 17,0 34,-3 52,-3l0 175c4,3 9,4 15,3 3,-3 1,-3 6,-6 25,-14 22,-7 31,-12 9,-5 -3,-3 22,-6 19,-1 102,-3 112,1 10,5 -1,7 23,7 0,0 -1,-1 -1,0 -1,0 -1,-1 -2,-1 -15,-5 -11,-6 -20,-8 -20,-4 -61,-8 -82,-7 -9,1 -46,6 -52,9 -17,8 -17,5 -27,12l-14 8c-8,-9 -5,-25 -5,-41 0,-23 1,-134 -1,-140 -11,-4 -28,6 -41,4z"/>
   <path class="fil6" d="M1209 316c-1,-4 -4,-7 -6,-9 -4,-5 -2,-2 -6,-6 -5,-3 -13,-13 -20,-16 -10,-4 -14,-14 -21,-17l-19 -11c-11,-10 -1,-3 -12,-7 -8,-4 0,-1 -7,-6 -3,-2 -5,-2 -8,-4 -5,-2 -4,-6 -19,-6l15 11c3,2 5,1 8,3 3,2 2,2 7,6l51 35c7,4 14,13 20,17l11 8c4,2 2,1 6,2z"/>
  </g>
 </g>
</svg>
