<?xml version="1.0" encoding="UTF-8"?>
<!DOCTYPE svg PUBLIC "-//W3C//DTD SVG 1.1//EN" "http://www.w3.org/Graphics/SVG/1.1/DTD/svg11.dtd">
<!-- Creator: CorelDRAW Home & Student X7 -->
<svg xmlns="http://www.w3.org/2000/svg" xml:space="preserve" width="29mm" height="29mm" version="1.1" style="shape-rendering:geometricPrecision; text-rendering:geometricPrecision; image-rendering:optimizeQuality; fill-rule:evenodd; clip-rule:evenodd"
viewBox="0 0 2900 2900"
 xmlns:xlink="http://www.w3.org/1999/xlink">
 <defs>
  <style type="text/css">
   <![CDATA[
    .fil0 {fill:#232323;fill-rule:nonzero}
    .fil1 {fill:#FAFAFA;fill-rule:nonzero}
   ]]>
  </style>
 </defs>
 <g id="__x0023_Layer_x0020_1">
  <metadata id="CorelCorpID_0Corel-Layer"/>
  <g id="_634336376">
   <g>
    <g>
     <path class="fil0" d="M0 0l2900 0 0 2900 -2900 0 0 -2900zm788 1025l0 0c-86,44 -158,116 -200,204 -48,97 -58,211 -39,317 23,120 95,230 198,296 112,75 254,98 386,78 103,-15 202,-64 273,-139 75,-75 116,-177 128,-281 -105,0 -210,0 -315,0 -10,46 -35,88 -73,116 -46,35 -109,41 -163,23 -54,-18 -95,-67 -110,-121 -12,-46 -12,-95 -1,-142 13,-49 46,-94 92,-117 45,-21 99,-23 145,-5 51,21 91,65 109,116 1,2 4,5 5,7 103,1 205,0 308,0 -12,-94 -50,-186 -115,-256 -69,-78 -166,-130 -270,-148 -120,-20 -249,-6 -358,52zm969 142l0 0c-40,65 -82,130 -112,200 -42,96 -62,206 -37,309 22,86 84,159 162,202 86,47 189,56 286,44 96,-12 190,-59 248,-139 57,-76 71,-176 56,-268 -13,-82 -67,-155 -138,-197 -67,-40 -149,-51 -226,-45 58,-92 114,-186 173,-278 -102,0 -204,1 -306,0 -37,57 -71,115 -106,172z"/>
    </g>
    <path class="fil0" d="M1955 1463c38,-7 82,0 110,29 43,39 47,111 15,158 -42,64 -149,65 -194,4 -37,-50 -30,-129 19,-168 14,-12 32,-20 50,-23z"/>
   </g>
   <g>
    <path class="fil1" d="M788 1025c109,-58 238,-72 358,-52 104,18 201,70 270,148 65,70 103,162 115,256 -103,0 -205,1 -308,0 -1,-2 -4,-5 -5,-7 -18,-51 -58,-95 -109,-116 -46,-18 -100,-16 -145,5 -46,23 -79,68 -92,117 -11,47 -11,96 1,142 15,54 56,103 110,121 54,18 117,12 163,-23 38,-28 63,-70 73,-116 105,0 210,0 315,0 -12,104 -53,206 -128,281 -71,75 -170,124 -273,139 -132,20 -274,-3 -386,-78 -103,-66 -175,-176 -198,-296 -19,-106 -9,-220 39,-317 42,-88 114,-160 200,-204z"/>
    <g>
     <path class="fil1" d="M1757 1167c35,-57 69,-115 106,-172 102,1 204,0 306,0 -59,92 -115,186 -173,278 77,-6 159,5 226,45 71,42 125,115 138,197 15,92 1,192 -56,268 -58,80 -152,127 -248,139 -97,12 -200,3 -286,-44 -78,-43 -140,-116 -162,-202 -25,-103 -5,-213 37,-309 30,-70 72,-135 112,-200zm198 296l0 0c-18,3 -36,11 -50,23 -49,39 -56,118 -19,168 45,61 152,60 194,-4 32,-47 28,-119 -15,-158 -28,-29 -72,-36 -110,-29z"/>
    </g>
   </g>
  </g>
 </g>
</svg>
