<?xml version="1.0" encoding="UTF-8"?>
<!DOCTYPE svg PUBLIC "-//W3C//DTD SVG 1.1//EN" "http://www.w3.org/Graphics/SVG/1.1/DTD/svg11.dtd">
<!-- Creator: CorelDRAW Home & Student X7 -->
<svg xmlns="http://www.w3.org/2000/svg" xml:space="preserve" width="30mm" height="30mm" version="1.1" style="shape-rendering:geometricPrecision; text-rendering:geometricPrecision; image-rendering:optimizeQuality; fill-rule:evenodd; clip-rule:evenodd"
viewBox="0 0 715 715"
 xmlns:xlink="http://www.w3.org/1999/xlink">
 <defs>
  <style type="text/css">
   <![CDATA[
    .fil1 {fill:#005799;fill-rule:nonzero}
    .fil2 {fill:#F85800;fill-rule:nonzero}
    .fil0 {fill:white;fill-rule:nonzero}
   ]]>
  </style>
 </defs>
 <g id="__x0023_Layer_x0020_1">
  <metadata id="CorelCorpID_0Corel-Layer"/>
  <g id="_619146560">
   <g>
    <g>
     <path class="fil0" d="M0 0l715 0 0 715 -715 0 0 -715zm18 98l0 0c-6,9 -7,21 -7,32 0,144 0,288 0,432 -2,30 7,60 22,85 9,14 23,23 34,35 -5,4 -13,6 -15,13 13,8 29,4 43,6 16,2 32,3 48,3 57,0 114,0 172,1 28,2 57,2 85,0 61,-1 121,-1 181,-1 19,0 36,-4 54,-4 9,0 23,1 25,-11 -4,-2 -8,-5 -13,-7 7,-8 15,-14 19,-23 6,-5 11,-12 15,-18 11,-7 13,-20 18,-31 6,-18 4,-38 5,-57 0,-142 0,-284 0,-426 0,-14 -4,-28 -9,-41 -9,-21 -23,-43 -44,-54 -21,-16 -47,-25 -73,-24 -141,0 -281,0 -422,0 -13,0 -26,-1 -39,1 -46,6 -87,43 -99,89z"/>
    </g>
    <path class="fil0" d="M174 144c63,0 125,0 187,0 13,24 25,49 38,73 21,43 43,85 64,127 -62,0 -124,0 -187,0 -34,-66 -68,-133 -102,-200z"/>
    <path class="fil0" d="M451 365c23,40 43,82 65,123 13,27 28,54 41,81 -62,1 -124,0 -186,1 -15,-27 -29,-54 -44,-81 42,-42 83,-82 124,-124z"/>
   </g>
   <path class="fil1" d="M18 98c12,-46 53,-83 99,-89 13,-2 26,-1 39,-1 141,0 281,0 422,0 26,-1 52,8 73,24 27,24 48,58 47,95 0,150 0,301 0,451 1,64 -56,117 -117,119 -150,2 -300,4 -451,0 -64,-1 -115,-68 -115,-131 1,-136 1,-272 0,-407 0,-21 1,-41 3,-61zm156 46l0 0c34,67 68,134 102,200 63,0 125,0 187,0 7,-7 15,-14 22,-21 59,-60 119,-119 177,-179 -60,-1 -120,0 -179,0 -5,0 -11,-1 -15,4 -23,23 -46,46 -69,69 -13,-24 -25,-49 -38,-73 -62,0 -124,0 -187,0zm79 230l0 0c-62,66 -128,129 -190,195 58,1 117,0 175,1 7,1 12,-4 16,-8 24,-25 49,-49 73,-73 15,27 29,54 44,81 62,-1 124,0 186,-1 -13,-27 -28,-54 -41,-81 -22,-41 -42,-83 -65,-123 -60,-1 -121,-1 -181,-1 -7,-1 -12,6 -17,10z"/>
   <g>
    <path class="fil2" d="M468 148c4,-5 10,-4 15,-4 59,0 119,-1 179,0 -58,60 -118,119 -177,179 -7,7 -15,14 -22,21 -21,-42 -43,-84 -64,-127 23,-23 46,-46 69,-69z"/>
    <path class="fil2" d="M253 374c5,-4 10,-11 17,-10 60,0 121,0 181,1 -41,42 -82,82 -124,124 -24,24 -49,48 -73,73 -4,4 -9,9 -16,8 -58,-1 -117,0 -175,-1 62,-66 128,-129 190,-195z"/>
   </g>
  </g>
 </g>
</svg>
