<?xml version="1.0" encoding="UTF-8"?>
<!DOCTYPE svg PUBLIC "-//W3C//DTD SVG 1.1//EN" "http://www.w3.org/Graphics/SVG/1.1/DTD/svg11.dtd">
<!-- Creator: CorelDRAW Home & Student X7 -->
<svg xmlns="http://www.w3.org/2000/svg" xml:space="preserve" width="30mm" height="30mm" version="1.1" style="shape-rendering:geometricPrecision; text-rendering:geometricPrecision; image-rendering:optimizeQuality; fill-rule:evenodd; clip-rule:evenodd"
viewBox="0 0 3305 3305"
 xmlns:xlink="http://www.w3.org/1999/xlink">
 <defs>
  <style type="text/css">
   <![CDATA[
    .fil1 {fill:#39913E;fill-rule:nonzero}
    .fil0 {fill:white;fill-rule:nonzero}
   ]]>
  </style>
 </defs>
 <g id="Camada_x0020_1">
  <metadata id="CorelCorpID_0Corel-Layer"/>
  <g id="_630413760">
   <g>
    <g>
     <path class="fil0" d="M0 0l3305 0 0 3305 -3305 0 0 -3305zm1519 406l0 0c-273,45 -519,217 -657,455 -110,190 -155,419 -117,635 33,213 143,413 305,556 205,186 496,273 769,230 204,-29 399,-127 541,-276 77,-81 53,-228 -45,-281 -73,-44 -173,-27 -230,36 -164,164 -429,209 -640,114 -167,-73 -294,-229 -332,-407 -38,-163 1,-341 102,-474 94,-128 243,-214 401,-231 157,-19 320,31 441,134 29,25 54,56 89,71 69,30 156,16 208,-39 66,-65 70,-181 7,-250 -212,-224 -539,-328 -842,-273zm-519 2167l0 0c-82,5 -154,77 -155,160 -7,92 76,179 169,174 421,-1 843,0 1264,-1 104,3 186,-111 156,-209 -19,-76 -94,-129 -171,-125 -421,1 -842,-2 -1263,1z"/>
    </g>
   </g>
   <g>
    <path class="fil1" d="M1573 182c358,-64 745,58 996,324 75,81 70,218 -8,295 -62,65 -165,82 -246,46 -42,-18 -71,-55 -106,-84 -142,-121 -336,-181 -521,-158 -187,20 -363,122 -475,273 -118,158 -164,368 -120,560 45,211 196,396 393,482 249,113 563,59 757,-135 67,-74 186,-95 272,-42 116,62 145,236 53,332 -168,176 -398,292 -640,326 -323,51 -667,-52 -910,-272 -191,-169 -321,-405 -360,-657 -45,-256 8,-527 139,-751 163,-282 454,-486 776,-539z"/>
    <path class="fil1" d="M959 2746c498,-4 996,-1 1494,-2 91,-4 180,58 202,148 36,116 -61,251 -184,247 -498,1 -996,0 -1495,1 -110,6 -208,-96 -199,-205 0,-99 85,-184 182,-189z"/>
   </g>
  </g>
 </g>
</svg>
