<?xml version="1.0" encoding="UTF-8"?>
<!DOCTYPE svg PUBLIC "-//W3C//DTD SVG 1.1//EN" "http://www.w3.org/Graphics/SVG/1.1/DTD/svg11.dtd">
<!-- Creator: CorelDRAW Home & Student X7 -->
<svg xmlns="http://www.w3.org/2000/svg" xml:space="preserve" width="29.001mm" height="29.001mm" version="1.1" style="shape-rendering:geometricPrecision; text-rendering:geometricPrecision; image-rendering:optimizeQuality; fill-rule:evenodd; clip-rule:evenodd"
viewBox="0 0 1486 1486"
 xmlns:xlink="http://www.w3.org/1999/xlink">
 <defs>
  <style type="text/css">
   <![CDATA[
    .str1 {stroke:#FEFEFE;stroke-width:0.0512506}
    .str0 {stroke:#373435;stroke-width:0.0512506}
    .str2 {stroke:#ED3237;stroke-width:0.0512506}
    .fil1 {fill:#FEFEFE}
    .fil2 {fill:#ED3237}
    .fil0 {fill:url(#id0)}
   ]]>
  </style>
  <linearGradient id="id0" gradientUnits="userSpaceOnUse" x1="743.16" y1="1486.29" x2="743.16" y2="0.0256253">
   <stop offset="0" style="stop-opacity:1; stop-color:#022C63"/>
   <stop offset="1" style="stop-opacity:1; stop-color:#0175CC"/>
  </linearGradient>
 </defs>
 <g id="Camada_x0020_1">
  <metadata id="CorelCorpID_0Corel-Layer"/>
  <g id="_635024912">
   <rect class="fil0 str0" width="1486" height="1486" rx="234" ry="186"/>
   <path class="fil1 str1" d="M1164 608l89 0 0 452 -89 0 0 -452zm-358 85l0 -84 78 0 0 -96 89 -47 0 143 92 0 0 84 -92 0 0 252c0,39 35,59 113,24l-16 82c-136,54 -186,-27 -186,-97l0 -261 -78 0zm-177 -85l90 0 0 452 -90 0 0 -452zm-220 81c-82,0 -148,66 -148,148 0,82 66,148 148,148 46,0 86,-21 114,-53l58 65c-43,46 -104,75 -172,75 -130,0 -235,-105 -235,-235 0,-130 105,-235 235,-235 67,0 128,28 171,74l-58 65c-27,-32 -68,-52 -113,-52z"/>
   <path class="fil2 str2" d="M571 531l104 0c89,-81 180,-113 269,-113 89,0 175,32 264,113l105 0c-124,-175 -284,-197 -370,-197 -87,0 -249,22 -372,197z"/>
  </g>
 </g>
</svg>
