<?xml version="1.0" encoding="UTF-8"?>
<!DOCTYPE svg PUBLIC "-//W3C//DTD SVG 1.1//EN" "http://www.w3.org/Graphics/SVG/1.1/DTD/svg11.dtd">
<!-- Creator: CorelDRAW Home & Student X7 -->
<svg xmlns="http://www.w3.org/2000/svg" xml:space="preserve" width="30mm" height="30mm" version="1.1" style="shape-rendering:geometricPrecision; text-rendering:geometricPrecision; image-rendering:optimizeQuality; fill-rule:evenodd; clip-rule:evenodd"
viewBox="0 0 452 452"
 xmlns:xlink="http://www.w3.org/1999/xlink">
 <defs>
  <style type="text/css">
   <![CDATA[
    .fil1 {fill:#003869;fill-rule:nonzero}
    .fil0 {fill:white;fill-rule:nonzero}
   ]]>
  </style>
 </defs>
 <g id="Camada_x0020_1">
  <metadata id="CorelCorpID_0Corel-Layer"/>
  <g id="_444117752">
   <polygon class="fil0" points="0,0 452,0 452,452 0,452 "/>
   <g>
    <path class="fil1" d="M174 81c8,1 13,7 20,11 48,34 96,70 139,112 31,30 61,63 88,97 4,5 9,10 12,16 -13,-1 -24,-5 -36,-8 -19,-4 -39,-8 -58,-12 -35,-31 -72,-59 -109,-86 5,27 7,54 8,81 0,1 2,1 3,1 33,-1 66,-1 98,5 19,16 37,34 55,51 6,7 14,14 19,22 -9,0 -18,-4 -28,-6 -70,-16 -145,-21 -217,-9 -3,1 -7,1 -11,1 -12,-53 -30,-105 -55,-153 -20,-39 -45,-77 -77,-108 -2,-2 -6,-4 -5,-7 3,-1 6,1 10,2 69,35 136,76 200,120 -8,-39 -22,-78 -44,-112 -4,-6 -9,-11 -12,-18z"/>
   </g>
  </g>
 </g>
</svg>
