<?xml version="1.0" encoding="UTF-8"?>
<!DOCTYPE svg PUBLIC "-//W3C//DTD SVG 1.1//EN" "http://www.w3.org/Graphics/SVG/1.1/DTD/svg11.dtd">
<!-- Creator: CorelDRAW Home & Student X7 -->
<svg xmlns="http://www.w3.org/2000/svg" xml:space="preserve" width="29mm" height="29mm" version="1.1" style="shape-rendering:geometricPrecision; text-rendering:geometricPrecision; image-rendering:optimizeQuality; fill-rule:evenodd; clip-rule:evenodd"
viewBox="0 0 605 605"
 xmlns:xlink="http://www.w3.org/1999/xlink">
 <defs>
  <style type="text/css">
   <![CDATA[
    .fil0 {fill:black;fill-rule:nonzero}
    .fil8 {fill:#00603E;fill-rule:nonzero}
    .fil5 {fill:#006241;fill-rule:nonzero}
    .fil9 {fill:#006242;fill-rule:nonzero}
    .fil6 {fill:#008E92;fill-rule:nonzero}
    .fil7 {fill:#009094;fill-rule:nonzero}
    .fil10 {fill:#146C50;fill-rule:nonzero}
    .fil4 {fill:#1C6D52;fill-rule:nonzero}
    .fil3 {fill:#1E979C;fill-rule:nonzero}
    .fil2 {fill:#E41D2F;fill-rule:nonzero}
    .fil1 {fill:white;fill-rule:nonzero}
   ]]>
  </style>
 </defs>
 <g id="__x0023_Layer_x0020_1">
  <metadata id="CorelCorpID_0Corel-Layer"/>
  <g id="_676689776">
   <g>
    <path class="fil0" d="M0 0l44 0c-11,2 -22,6 -30,14 -8,8 -12,19 -14,30l0 -44z"/>
    <path class="fil0" d="M561 0l44 0 0 44c-2,-11 -6,-22 -14,-30 -8,-8 -19,-12 -30,-14z"/>
    <path class="fil0" d="M593 590c7,-8 10,-18 12,-29l0 44 -44 0c12,-2 24,-6 32,-15z"/>
    <path class="fil0" d="M0 563c2,10 5,20 12,27 8,9 20,13 32,15l-44 0 0 -42z"/>
   </g>
   <g>
    <g>
     <path class="fil1" d="M44 0l517 0c11,2 22,6 30,14 8,8 12,19 14,30l0 517c-2,11 -5,21 -12,29 -8,9 -20,13 -32,15l-517 0c-12,-2 -24,-6 -32,-15 -7,-7 -10,-17 -12,-27l0 -519c2,-11 6,-22 14,-30 8,-8 19,-12 30,-14zm324 154l0 0c3,6 3,14 9,18 5,0 10,-2 14,-4 12,-7 24,-13 35,-20 0,-8 0,-15 0,-22 -19,9 -37,23 -58,28zm-173 36l0 0c-7,13 -6,30 2,43 10,18 31,26 50,27 37,1 71,-16 103,-31l0 -1c2,0 4,-1 5,-1 5,10 8,21 14,30 12,1 23,0 35,1 -7,-16 -15,-31 -22,-46 15,-9 30,-18 44,-27 0,-9 0,-18 0,-27 -18,11 -35,21 -54,30 -7,-15 -14,-29 -20,-44 -1,-1 -2,-4 -3,-5 -11,-1 -22,-1 -33,1 -14,29 -31,56 -45,85 15,-3 35,-4 42,-20 6,-13 11,-27 18,-40 6,12 11,25 15,37 -35,20 -74,35 -114,34 -8,-1 -19,-2 -22,-10 -2,-10 3,-19 8,-27 19,-24 48,-37 78,-39 -3,-9 -5,-19 -13,-24 -35,3 -71,22 -88,54zm-2 82l0 0c0,7 0,13 0,19 72,0 145,0 217,0 0,-6 1,-13 1,-19 -39,-1 -77,0 -115,-1 -34,2 -69,-1 -103,1zm319 77l0 0c0,24 0,47 0,71 5,0 10,0 14,0 0,-5 0,-11 1,-17 2,-2 5,-4 8,-6 6,8 12,16 19,23 5,0 11,0 16,0 -9,-10 -17,-20 -27,-30 9,-8 18,-14 26,-21 -6,0 -12,0 -17,1 -9,6 -17,13 -26,20 0,-14 0,-28 0,-41 -4,0 -9,0 -14,0zm-209 71l0 0c4,0 8,0 12,0 0,-1 1,-4 1,-6 11,9 28,10 39,0 14,-11 10,-37 -7,-44 -11,-5 -22,-1 -32,4 0,-8 0,-17 0,-25 -5,0 -9,0 -13,0 -1,23 -1,47 0,71zm-61 -62l0 0c0,4 0,7 0,11 -3,0 -6,0 -9,0 0,3 0,6 0,9 3,0 6,0 9,0 0,11 -1,22 0,33 4,12 19,12 29,8 0,-3 0,-6 0,-10 -5,1 -10,1 -14,1 -1,-10 -1,-21 -1,-32 5,0 10,0 14,0 0,-2 0,-7 0,-9 -4,0 -9,0 -14,0 0,-5 0,-9 0,-14 -5,1 -9,2 -14,3zm-204 11l0 0c0,17 -1,34 0,51 5,0 9,0 14,0 0,-11 0,-22 0,-34 7,-6 20,-11 26,-2 4,12 1,24 2,36 4,0 9,0 13,0 0,-13 1,-26 -1,-40 -6,-16 -28,-14 -40,-5 0,-1 0,-4 0,-6 -5,0 -9,0 -14,0zm76 6l0 0c-14,10 -12,37 5,43 14,6 30,2 43,-5 -3,-3 -5,-6 -7,-9 -10,10 -32,11 -36,-5 15,0 30,0 45,0 0,-3 0,-7 0,-10 -4,-22 -34,-28 -50,-14zm54 -6l0 0c8,8 16,17 23,26 -8,8 -16,16 -22,25 5,0 10,0 14,0 5,-6 11,-12 16,-18 5,6 9,12 14,18 6,0 11,0 16,0 -7,-9 -15,-18 -22,-27 7,-8 14,-16 21,-24 -5,0 -10,0 -15,0 -5,6 -10,11 -14,17 -5,-5 -9,-11 -15,-16 -5,-2 -11,-1 -16,-1zm209 4l0 0c1,3 3,6 5,9 11,-6 29,-8 35,7 -12,-2 -26,-6 -36,2 -8,5 -11,18 -3,25 10,9 26,5 37,-1 0,1 1,4 1,5 4,0 8,0 12,0 -1,-15 6,-34 -6,-46 -13,-10 -31,-6 -45,-1zm82 2l0 0c-1,-1 -3,-2 -4,-3l3 -2c-5,-1 -10,-1 -14,-1 0,17 -1,33 0,50l-1 1c5,0 9,0 13,1 3,-12 1,-24 2,-36 5,-3 10,-5 15,-7 4,2 11,3 11,9 1,11 0,22 1,34 5,-1 9,-1 14,-1 -1,-13 1,-27 -2,-40 -6,-16 -27,-15 -38,-5zm-324 64l0 0c-3,0 -7,6 -2,7 5,1 10,-9 2,-7zm80 13l0 0c5,1 10,2 15,2 0,9 0,17 0,26 1,0 4,0 6,0 0,-9 0,-17 0,-26 4,0 9,0 13,-1 0,-1 -1,-3 -1,-4 -11,1 -24,-4 -33,3zm99 17l0 0c5,14 23,14 34,8 0,-5 0,-10 0,-15 -6,0 -13,-1 -17,4 5,1 9,2 14,4 -5,7 -13,6 -20,5 -7,-6 -6,-16 1,-21 6,-1 13,1 20,2 1,-6 -7,-7 -11,-8 -12,-1 -26,9 -21,21zm105 -9l0 0c-7,18 25,29 33,13 -8,2 -21,7 -26,-4 -5,-6 1,-12 6,-16 4,0 8,0 12,0 1,1 4,3 5,4 1,-1 2,-4 3,-5 -11,-6 -28,-5 -33,8zm-385 5l0 0c2,17 23,19 35,12 -1,-1 -2,-3 -2,-4 -5,1 -9,3 -14,4 -4,-2 -9,-3 -11,-8 -4,-7 3,-17 12,-16 5,-1 11,6 14,-1 -12,-7 -34,-4 -34,13zm44 -16l0 0c0,10 0,21 0,31 1,0 5,0 6,0 0,-4 0,-7 0,-11 3,0 6,0 9,0 3,4 6,7 9,11 3,0 5,0 8,0 -4,-4 -7,-8 -10,-12 3,-2 6,-3 9,-5 0,-3 -1,-6 -1,-9 -8,-8 -20,-4 -30,-5zm41 0l0 0c0,10 -1,20 2,30 9,1 18,1 26,1 0,-1 0,-4 0,-5 -7,0 -15,0 -22,0 0,-3 0,-6 0,-9 7,-1 18,4 21,-4 -7,0 -14,0 -21,0 0,-3 0,-6 0,-8 7,0 15,0 22,0 0,-2 -1,-4 -1,-5 -9,0 -18,0 -27,0zm39 0l0 0c0,10 0,21 0,31 10,0 20,2 28,-4 8,-4 9,-18 1,-23 -8,-6 -19,-4 -29,-4zm45 0l0 0c0,10 0,21 0,31 1,0 5,0 6,0 0,-10 0,-21 0,-31 -1,0 -5,0 -6,0zm83 -1l0 0c-5,11 -11,22 -17,33 7,1 9,-4 11,-9 6,0 11,0 17,0 2,5 5,10 12,9 -6,-10 -11,-21 -17,-31 -1,0 -4,-1 -6,-2zm74 1l0 0c0,10 0,21 0,31 1,0 5,0 6,0 0,-4 0,-7 0,-11 3,0 6,0 9,0 3,4 6,7 9,11 3,0 5,0 8,0 -3,-3 -6,-6 -9,-9 1,-6 10,-7 8,-14 -6,-12 -21,-7 -31,-8zm42 0l0 0c0,10 0,21 0,31 1,0 5,0 6,0 0,-10 0,-21 0,-31 -1,0 -5,0 -6,0zm56 19l0 0c5,8 14,14 23,12 12,0 22,-14 14,-23 -10,-16 -39,-9 -37,11zm51 -19l0 0c0,10 0,21 0,31 8,0 17,0 26,0 0,-1 -1,-4 -1,-5 -7,0 -13,0 -20,0 0,-8 0,-17 0,-26 -1,0 -4,0 -5,0zm34 0l0 0c-1,10 -1,21 2,30 9,1 18,1 27,1 0,-1 -1,-3 -1,-5 -7,0 -14,0 -21,0 -1,-3 -1,-6 -1,-9 7,0 15,0 22,0 -3,-9 -15,-3 -22,-4 0,-3 0,-6 0,-8 8,0 15,0 23,0l-1 -5c-9,0 -19,0 -28,0z"/>
    </g>
    <path class="fil1" d="M118 391c2,-9 10,-15 19,-13 8,-1 12,7 14,13 -11,0 -22,0 -33,0z"/>
    <path class="fil1" d="M316 385c8,-8 24,-11 31,0 4,8 2,21 -7,25 -9,3 -18,-2 -25,-7 1,-6 0,-12 1,-18z"/>
    <path class="fil1" d="M385 403c7,-11 21,-8 31,-4 0,1 0,5 0,7 -10,5 -25,9 -31,-3z"/>
    <path class="fil1" d="M84 454c6,0 11,0 17,0 0,3 0,6 0,10 -5,0 -11,0 -17,1 0,-4 0,-8 0,-11z"/>
    <path class="fil1" d="M366 454c6,0 11,-1 16,0 2,3 2,7 2,10 -6,0 -12,0 -18,1 0,-4 0,-8 0,-11z"/>
    <path class="fil1" d="M165 453c8,0 17,1 22,9 -1,4 -2,10 -7,12 -5,2 -10,1 -15,2 0,-8 0,-15 0,-23z"/>
    <path class="fil1" d="M283 469c0,-5 3,-10 5,-14 3,4 5,8 7,12 -4,1 -8,2 -12,2z"/>
    <path class="fil1" d="M464 463c3,-13 25,-14 27,0 2,8 -6,12 -12,14 -7,-1 -16,-6 -15,-14z"/>
   </g>
   <g>
    <path class="fil2" d="M368 154c21,-5 39,-19 58,-28 0,7 0,14 0,22 -11,7 -23,13 -35,20 -4,2 -9,4 -14,4 -6,-4 -6,-12 -9,-18z"/>
   </g>
   <g>
    <path class="fil3" d="M195 190c17,-32 53,-51 88,-54 8,5 10,15 13,24 -30,2 -59,15 -78,39 -5,8 -10,17 -8,27 3,8 14,9 22,10 40,1 79,-14 114,-34 8,-5 17,-10 26,-14 19,-9 36,-19 54,-30 0,9 0,18 0,27 -14,9 -29,18 -44,27 -9,6 -19,11 -30,13 0,1 -1,2 -2,3l0 1c-32,15 -66,32 -103,31 -19,-1 -40,-9 -50,-27 -8,-13 -9,-30 -2,-43z"/>
    <path class="fil3" d="M512 349c5,0 10,0 14,0 0,13 0,27 0,41 9,-7 17,-14 26,-20 5,-1 11,-1 17,-1 -8,7 -17,13 -26,21 10,10 18,20 27,30 -5,0 -11,0 -16,0 -7,-7 -13,-15 -19,-23 -3,2 -6,4 -8,6 -1,6 -1,12 -1,17 -4,0 -9,0 -14,0 0,-24 0,-47 0,-71z"/>
    <g>
     <path class="fil3" d="M303 420c-1,-24 -1,-48 0,-71 4,0 8,0 13,0 0,8 0,17 0,25 10,-5 21,-9 32,-4 17,7 21,33 7,44 -11,10 -28,9 -39,0 0,2 -1,5 -1,6 -4,0 -8,0 -12,0zm13 -35l0 0c-1,6 0,12 -1,18 7,5 16,10 25,7 9,-4 11,-17 7,-25 -7,-11 -23,-8 -31,0z"/>
    </g>
    <path class="fil3" d="M242 358c5,-1 9,-2 14,-3 0,5 0,9 0,14 5,0 10,0 14,0 0,2 0,7 0,9 -4,0 -9,0 -14,0 0,11 0,22 1,32 4,0 9,0 14,-1 0,4 0,7 0,10 -10,4 -25,4 -29,-8 -1,-11 0,-22 0,-33 -3,0 -6,0 -9,0 0,-3 0,-6 0,-9 3,0 6,0 9,0 0,-4 0,-7 0,-11z"/>
    <path class="fil3" d="M38 369c5,0 9,0 14,0 0,2 0,5 0,6 12,-9 34,-11 40,5 2,14 1,27 1,40 -4,0 -9,0 -13,0 -1,-12 2,-24 -2,-36 -6,-9 -19,-4 -26,2 0,12 0,23 0,34 -5,0 -9,0 -14,0 -1,-17 0,-34 0,-51z"/>
    <path class="fil3" d="M114 375c16,-14 46,-8 50,14 -3,3 -6,6 -8,8 -2,-2 -4,-5 -5,-6 -2,-6 -6,-14 -14,-13 -9,-2 -17,4 -19,13 0,2 0,6 1,8 4,16 26,15 36,5 2,3 4,6 7,9 -13,7 -29,11 -43,5 -17,-6 -19,-33 -5,-43z"/>
    <path class="fil3" d="M168 369c5,0 11,-1 16,1 6,5 10,11 15,16 4,-6 9,-11 14,-17 5,0 10,0 15,0 -7,8 -14,16 -21,24 7,9 15,18 22,27 -5,0 -10,0 -16,0 -5,-6 -9,-12 -14,-18 -5,6 -11,12 -16,18 -4,0 -9,0 -14,0 6,-9 14,-17 22,-25 -7,-9 -15,-18 -23,-26z"/>
    <g>
     <path class="fil3" d="M377 373c14,-5 32,-9 45,1 12,12 5,31 6,46 -4,0 -8,0 -12,0 0,-1 -1,-4 -1,-5 -11,6 -27,10 -37,1 -8,-7 -5,-20 3,-25 10,-8 24,-4 36,-2 -6,-15 -24,-13 -35,-7 -2,-3 -4,-6 -5,-9zm8 30l0 0c6,12 21,8 31,3 0,-2 0,-6 0,-7 -10,-4 -24,-7 -31,4z"/>
    </g>
    <path class="fil3" d="M459 375c11,-10 32,-11 38,5 3,13 1,27 2,40 -5,0 -9,0 -14,1 -1,-12 0,-23 -1,-34 0,-6 -7,-7 -11,-9 -5,2 -10,4 -15,7 -1,12 1,24 -2,36 -4,-1 -8,-1 -13,-1l1 -1c1,-1 2,-3 3,-4 0,-13 -1,-26 0,-40 2,-1 6,-2 8,-3 1,1 3,2 4,3z"/>
   </g>
   <g>
    <path class="fil4" d="M271 225c14,-29 31,-56 45,-85 11,3 24,3 36,4 6,15 13,29 20,44 -9,4 -18,9 -26,14 -4,-12 -9,-25 -15,-37 -7,13 -12,27 -18,40 -7,16 -27,17 -42,20z"/>
    <path class="fil4" d="M352 225c11,-2 21,-7 30,-13 7,15 15,30 22,46 -12,-1 -23,0 -35,-1 -6,-9 -9,-20 -14,-30 -1,0 -3,1 -5,1 1,-1 2,-2 2,-3z"/>
    <path class="fil4" d="M193 272c34,-2 69,1 103,-1 38,1 76,0 115,1 0,6 -1,13 -1,19 -72,0 -145,0 -217,0 0,-6 0,-12 0,-19z"/>
   </g>
   <g>
    <path class="fil5" d="M316 140c11,-2 22,-2 33,-1 1,1 2,4 3,5 -12,-1 -25,-1 -36,-4z"/>
   </g>
   <g>
    <path class="fil6" d="M444 369c4,0 9,0 14,1l-3 2c-2,1 -6,2 -8,3 -1,14 0,27 0,40 -1,1 -2,3 -3,4 -1,-17 0,-33 0,-50z"/>
   </g>
   <g>
    <path class="fil7" d="M156 397c2,-2 5,-5 8,-8 0,3 0,7 0,10 -15,0 -30,0 -45,0 -1,-2 -1,-6 -1,-8 11,0 22,0 33,0 1,1 3,4 5,6z"/>
   </g>
   <g>
    <path class="fil8" d="M135 439c8,-2 3,8 -2,7 -5,-1 -1,-7 2,-7z"/>
    <path class="fil8" d="M419 460c5,-13 22,-14 33,-8 -1,1 -2,4 -3,5 -1,-1 -4,-3 -5,-4 -4,0 -8,0 -12,0 -5,4 -11,10 -6,16 5,11 18,6 26,4 -8,16 -40,5 -33,-13z"/>
    <path class="fil8" d="M34 465c0,-17 22,-20 34,-13 -3,7 -9,0 -14,1 -9,-1 -16,9 -12,16 2,5 7,6 11,8 5,-1 9,-3 14,-4 0,1 1,3 2,4 -12,7 -33,5 -35,-12z"/>
    <g>
     <path class="fil8" d="M78 449c10,1 22,-3 30,5 0,3 1,6 1,9 -3,2 -6,3 -9,5 3,4 6,8 10,12 -3,0 -5,0 -8,0 -3,-4 -6,-7 -9,-11 -3,0 -6,0 -9,0 0,4 0,7 0,11 -1,0 -5,0 -6,0 0,-10 0,-21 0,-31zm6 5l0 0c0,3 0,7 0,11 6,-1 12,-1 17,-1 0,-4 0,-7 0,-10 -6,0 -11,0 -17,0z"/>
    </g>
    <path class="fil8" d="M119 449c9,0 18,0 27,0 0,1 1,3 1,5 -7,0 -15,0 -22,0 0,2 0,5 0,8 7,0 14,0 21,0 -3,8 -14,3 -21,4 0,3 0,6 0,9 7,0 15,0 22,0 0,1 0,4 0,5 -8,0 -17,0 -26,-1 -3,-10 -2,-20 -2,-30z"/>
    <path class="fil8" d="M203 449c1,0 5,0 6,0 0,10 0,21 0,31 -1,0 -5,0 -6,0 0,-10 0,-21 0,-31z"/>
    <g>
     <path class="fil8" d="M360 449c10,1 25,-4 31,8 2,7 -7,8 -8,14 3,3 6,6 9,9 -3,0 -5,0 -8,0 -3,-4 -6,-7 -9,-11 -3,0 -6,0 -9,0 0,4 0,7 0,11 -1,0 -5,0 -6,0 0,-10 0,-21 0,-31zm6 5l0 0c0,3 0,7 0,11 6,-1 12,-1 18,-1 0,-3 0,-7 -2,-10 -5,-1 -10,0 -16,0z"/>
    </g>
    <g>
     <path class="fil8" d="M458 468c-2,-20 27,-27 37,-11 8,9 -2,23 -14,23 -9,2 -18,-4 -23,-12zm6 -5l0 0c-1,8 8,13 15,14 6,-2 14,-6 12,-14 -2,-14 -24,-13 -27,0z"/>
    </g>
    <path class="fil8" d="M509 449c1,0 4,0 5,0 0,9 0,18 0,26 7,0 13,0 20,0 0,1 1,4 1,5 -9,0 -18,0 -26,0 0,-10 0,-21 0,-31z"/>
    <path class="fil8" d="M543 449c9,0 19,0 28,0l1 5c-8,0 -15,0 -23,0 0,2 0,5 0,8 7,1 19,-5 22,4 -7,0 -15,0 -22,0 0,3 0,6 1,9 7,0 14,0 21,0 0,2 1,4 1,5 -9,0 -18,0 -27,-1 -3,-9 -3,-20 -2,-30z"/>
   </g>
   <g>
    <path class="fil9" d="M215 452c9,-7 22,-2 33,-3 0,1 1,3 1,4 -4,1 -9,1 -13,1 0,9 0,17 0,26 -2,0 -5,0 -6,0 0,-9 0,-17 0,-26 -5,0 -10,-1 -15,-2z"/>
    <g>
     <path class="fil9" d="M158 449c10,0 21,-2 29,4 8,5 7,19 -1,23 -8,6 -18,4 -28,4 0,-10 0,-21 0,-31zm7 4l0 0c0,8 0,15 0,23 5,-1 10,0 15,-2 5,-2 6,-8 7,-12 -5,-8 -14,-9 -22,-9z"/>
    </g>
    <g>
     <path class="fil9" d="M286 448c2,1 5,2 6,2 6,10 11,21 17,31 -7,1 -10,-4 -12,-9 -6,0 -11,0 -17,0 -2,5 -4,10 -11,9 6,-11 12,-22 17,-33zm-3 21l0 0c4,0 8,-1 12,-2 -2,-4 -4,-8 -7,-12 -2,4 -5,9 -5,14z"/>
    </g>
    <path class="fil9" d="M402 449c1,0 5,0 6,0 0,10 0,21 0,31 -1,0 -5,0 -6,0 0,-10 0,-21 0,-31z"/>
   </g>
   <g>
    <path class="fil10" d="M314 469c-5,-12 9,-22 21,-21 4,1 12,2 11,8 -7,-1 -14,-3 -20,-2 -7,5 -8,15 -1,21 7,1 15,2 20,-5 -5,-2 -9,-3 -14,-4 4,-5 11,-4 17,-4 0,5 0,10 0,15 -11,6 -29,6 -34,-8z"/>
   </g>
  </g>
 </g>
</svg>
