<?xml version="1.0" encoding="UTF-8"?>
<!DOCTYPE svg PUBLIC "-//W3C//DTD SVG 1.1//EN" "http://www.w3.org/Graphics/SVG/1.1/DTD/svg11.dtd">
<!-- Creator: CorelDRAW Home & Student X7 -->
<svg xmlns="http://www.w3.org/2000/svg" xml:space="preserve" width="29mm" height="29mm" version="1.1" style="shape-rendering:geometricPrecision; text-rendering:geometricPrecision; image-rendering:optimizeQuality; fill-rule:evenodd; clip-rule:evenodd"
viewBox="0 0 744 744"
 xmlns:xlink="http://www.w3.org/1999/xlink">
 <defs>
  <style type="text/css">
   <![CDATA[
    .fil0 {fill:url(#id0)}
   ]]>
  </style>
  <linearGradient id="id0" gradientUnits="userSpaceOnUse" x1="-0" y1="372.125" x2="744.249" y2="372.125">
   <stop offset="0" style="stop-opacity:1; stop-color:#053776"/>
   <stop offset="1" style="stop-opacity:1; stop-color:#028CCA"/>
  </linearGradient>
 </defs>
 <g id="__x0023_Layer_x0020_1">
  <metadata id="CorelCorpID_0Corel-Layer"/>
  <path class="fil0" d="M0 0l744 0 0 744 -744 0 0 -744zm264 511l196 0 0 98 -196 0 0 -98zm167 -332c15,15 47,34 42,135 -2,31 -29,85 -51,101 -1,0 -1,0 -1,0l-5 3c-17,6 -16,10 -36,10 -11,1 -36,4 -45,-1 -19,-9 -35,-13 -35,-38l-1 -239c4,-3 2,0 4,-4 8,-1 24,-1 32,0 9,0 18,2 28,2 4,1 27,5 32,7 15,7 22,14 36,24zm-173 -26c6,5 6,9 7,13 2,45 0,92 0,137 0,22 0,45 0,68 0,22 -1,46 0,68 8,2 85,0 104,0 9,0 48,-5 52,-8 6,-3 13,-5 16,-6l3 -2c4,-2 1,-1 5,-4l1 -1c6,-3 0,0 8,-5l11 -8c28,-34 31,-40 45,-83 1,-5 5,-30 5,-37 0,-38 -5,-80 -36,-106 -30,-33 -67,-38 -111,-41 -24,-2 -87,-1 -116,-1l-21 0c-4,1 -2,10 -1,10 1,1 0,1 3,1 8,1 18,-1 25,5z"/>
 </g>
</svg>
