<?xml version="1.0" encoding="UTF-8"?>
<!DOCTYPE svg PUBLIC "-//W3C//DTD SVG 1.1//EN" "http://www.w3.org/Graphics/SVG/1.1/DTD/svg11.dtd">
<!-- Creator: CorelDRAW Home & Student X7 -->
<svg xmlns="http://www.w3.org/2000/svg" xml:space="preserve" width="29mm" height="29mm" version="1.1" style="shape-rendering:geometricPrecision; text-rendering:geometricPrecision; image-rendering:optimizeQuality; fill-rule:evenodd; clip-rule:evenodd"
viewBox="0 0 2900 2900"
 xmlns:xlink="http://www.w3.org/1999/xlink">
 <defs>
  <style type="text/css">
   <![CDATA[
    .fil0 {fill:#000A3C;fill-rule:nonzero}
    .fil1 {fill:#F5303D;fill-rule:nonzero}
    .fil2 {fill:white;fill-rule:nonzero}
   ]]>
  </style>
 </defs>
 <g id="__x0023_Layer_x0020_1">
  <metadata id="CorelCorpID_0Corel-Layer"/>
  <g id="_634318616">
   <g>
    <g>
     <path class="fil0" d="M0 0l2900 0 0 2900 -2900 0 0 -2900zm1714 428l0 0c-187,114 -374,226 -560,341 -130,81 -204,251 -157,400 1,-28 1,-55 7,-81 17,-90 78,-167 157,-211 176,-99 352,-199 529,-298 12,-7 29,-13 30,-29 10,-48 21,-95 30,-143 -12,7 -24,14 -36,21zm-72 195l0 0c-160,89 -320,178 -481,267 -87,50 -150,146 -152,248 1,47 6,95 18,141 3,-32 2,-65 10,-96 18,-84 76,-158 153,-197 148,-75 296,-149 444,-223 15,-8 31,-14 45,-24 13,-50 23,-102 33,-154 -24,11 -47,25 -70,38zm-203 320l0 0c-71,33 -143,66 -215,100 -92,38 -144,144 -129,240 139,-64 276,-128 414,-192 63,-29 146,-21 194,32 32,35 42,86 28,131 -15,51 -56,92 -104,113 -70,32 -139,66 -210,97 -32,-70 -63,-139 -96,-208 -59,27 -118,54 -176,82 54,119 109,238 164,356 131,-59 261,-121 392,-181 97,-45 178,-129 209,-233 23,-76 15,-161 -26,-229 -40,-69 -111,-116 -187,-135 -86,-21 -178,-10 -258,27zm-551 648l0 0c-11,12 -5,29 -2,43 18,70 28,142 32,215 -31,-7 -64,-11 -96,-7 -63,7 -120,47 -154,100 -40,61 -47,142 -15,208 13,25 33,49 60,60 41,16 92,5 124,-25 34,-31 55,-74 68,-118 4,-7 -9,-21 -14,-11 -31,35 -60,75 -104,94 -27,13 -68,4 -76,-28 -14,-63 6,-136 59,-175 44,-34 103,-36 156,-37 2,68 9,136 -1,203 -3,23 -9,45 -10,68 -2,25 16,53 42,56 20,2 27,-19 31,-34 12,-57 11,-117 11,-175 -1,-129 -12,-259 -40,-385 -4,-17 -9,-36 -20,-50 -12,-15 -39,-18 -51,-2zm1137 173l0 0c-2,50 1,100 -2,151 0,11 -11,16 -21,17 -48,7 -97,10 -144,19 -46,1 -48,83 0,81 54,0 106,-16 159,-18 1,2 4,5 6,7 3,50 -5,106 27,149 12,16 45,25 52,0 18,-51 12,-106 15,-159 -1,-9 10,-11 16,-12 39,-7 79,-8 117,-22 29,-11 31,-60 -1,-69 -48,-5 -96,9 -144,4 3,-39 6,-78 10,-117 1,-22 -2,-47 -19,-63 -25,-20 -68,0 -71,32zm-676 140l0 0c-54,46 -85,116 -90,186 -2,33 8,72 37,92 29,20 67,17 99,5 48,-18 87,-53 119,-92 -1,46 3,91 1,137 -4,51 -17,104 -47,148 -14,22 -42,39 -68,28 -23,-12 -38,-35 -54,-55 -8,-8 -14,-19 -26,-22 -9,2 -20,9 -19,20 1,35 14,69 34,97 17,25 46,41 76,40 40,0 74,-26 101,-52 58,-58 77,-143 81,-222 2,-81 0,-162 -7,-243 -4,-42 -9,-85 -25,-124 -9,-22 -36,-35 -59,-27 -56,17 -109,45 -153,84zm-259 -20l0 0c-22,7 -25,34 -27,54 -3,81 -1,164 26,242 7,21 21,44 44,49 30,8 57,-14 78,-32 9,-9 20,-24 10,-36 -18,-9 -40,-2 -60,-9 -13,-7 -15,-23 -18,-37 -8,-55 1,-111 3,-167 1,-18 0,-38 -11,-54 -10,-14 -30,-14 -45,-10zm583 0l0 0c-13,4 -20,17 -23,30 -8,33 -4,67 -5,100 0,55 9,109 25,161 7,23 21,48 47,54 30,8 56,-14 77,-33 9,-8 20,-24 10,-35 -19,-8 -40,-2 -59,-8 -13,-7 -16,-22 -18,-34 -9,-59 1,-118 3,-176 0,-18 -2,-37 -14,-51 -10,-12 -28,-12 -43,-8z"/>
    </g>
    <path class="fil0" d="M1468 1915c9,-6 22,-5 27,5 16,30 9,66 -5,96 -21,44 -56,85 -104,101 -27,11 -57,-15 -51,-43 9,-74 72,-126 133,-159z"/>
   </g>
   <g>
    <path class="fil1" d="M1714 428c12,-7 24,-14 36,-21 -9,48 -20,95 -30,143 -1,16 -18,22 -30,29 -177,99 -353,199 -529,298 -79,44 -140,121 -157,211 -6,26 -6,53 -7,81 -47,-149 27,-319 157,-400 186,-115 373,-227 560,-341z"/>
   </g>
   <g>
    <path class="fil2" d="M1642 623c23,-13 46,-27 70,-38 -10,52 -20,104 -33,154 -14,10 -30,16 -45,24 -148,74 -296,148 -444,223 -77,39 -135,113 -153,197 -8,31 -7,64 -10,96 -12,-46 -17,-94 -18,-141 2,-102 65,-198 152,-248 161,-89 321,-178 481,-267z"/>
    <path class="fil2" d="M1439 943c80,-37 172,-48 258,-27 76,19 147,66 187,135 41,68 49,153 26,229 -31,104 -112,188 -209,233 -131,60 -261,122 -392,181 -55,-118 -110,-237 -164,-356 58,-28 117,-55 176,-82 33,69 64,138 96,208 71,-31 140,-65 210,-97 48,-21 89,-62 104,-113 14,-45 4,-96 -28,-131 -48,-53 -131,-61 -194,-32 -138,64 -275,128 -414,192 -15,-96 37,-202 129,-240 72,-34 144,-67 215,-100z"/>
    <path class="fil2" d="M888 1591c12,-16 39,-13 51,2 11,14 16,33 20,50 28,126 39,256 40,385 0,58 1,118 -11,175 -4,15 -11,36 -31,34 -26,-3 -44,-31 -42,-56 1,-23 7,-45 10,-68 10,-67 3,-135 1,-203 -53,1 -112,3 -156,37 -53,39 -73,112 -59,175 8,32 49,41 76,28 44,-19 73,-59 104,-94 5,-10 18,4 14,11 -13,44 -34,87 -68,118 -32,30 -83,41 -124,25 -27,-11 -47,-35 -60,-60 -32,-66 -25,-147 15,-208 34,-53 91,-93 154,-100 32,-4 65,0 96,7 -4,-73 -14,-145 -32,-215 -3,-14 -9,-31 2,-43z"/>
    <path class="fil2" d="M2025 1764c3,-32 46,-52 71,-32 17,16 20,41 19,63 -4,39 -7,78 -10,117 48,5 96,-9 144,-4 32,9 30,58 1,69 -38,14 -78,15 -117,22 -6,1 -17,3 -16,12 -3,53 3,108 -15,159 -7,25 -40,16 -52,0 -32,-43 -24,-99 -27,-149 -2,-2 -5,-5 -6,-7 -53,2 -105,18 -159,18 -48,2 -46,-80 0,-81 47,-9 96,-12 144,-19 10,-1 21,-6 21,-17 3,-51 0,-101 2,-151z"/>
    <g>
     <path class="fil2" d="M1349 1904c44,-39 97,-67 153,-84 23,-8 50,5 59,27 16,39 21,82 25,124 7,81 9,162 7,243 -4,79 -23,164 -81,222 -27,26 -61,52 -101,52 -30,1 -59,-15 -76,-40 -20,-28 -33,-62 -34,-97 -1,-11 10,-18 19,-20 12,3 18,14 26,22 16,20 31,43 54,55 26,11 54,-6 68,-28 30,-44 43,-97 47,-148 2,-46 -2,-91 -1,-137 -32,39 -71,74 -119,92 -32,12 -70,15 -99,-5 -29,-20 -39,-59 -37,-92 5,-70 36,-140 90,-186zm119 11l0 0c-61,33 -124,85 -133,159 -6,28 24,54 51,43 48,-16 83,-57 104,-101 14,-30 21,-66 5,-96 -5,-10 -18,-11 -27,-5z"/>
    </g>
    <path class="fil2" d="M1090 1884c15,-4 35,-4 45,10 11,16 12,36 11,54 -2,56 -11,112 -3,167 3,14 5,30 18,37 20,7 42,0 60,9 10,12 -1,27 -10,36 -21,18 -48,40 -78,32 -23,-5 -37,-28 -44,-49 -27,-78 -29,-161 -26,-242 2,-20 5,-47 27,-54z"/>
    <path class="fil2" d="M1673 1884c15,-4 33,-4 43,8 12,14 14,33 14,51 -2,58 -12,117 -3,176 2,12 5,27 18,34 19,6 40,0 59,8 10,11 -1,27 -10,35 -21,19 -47,41 -77,33 -26,-6 -40,-31 -47,-54 -16,-52 -25,-106 -25,-161 1,-33 -3,-67 5,-100 3,-13 10,-26 23,-30z"/>
   </g>
  </g>
 </g>
</svg>
