<?xml version="1.0" encoding="UTF-8"?>
<!DOCTYPE svg PUBLIC "-//W3C//DTD SVG 1.1//EN" "http://www.w3.org/Graphics/SVG/1.1/DTD/svg11.dtd">
<!-- Creator: CorelDRAW Home & Student X7 -->
<svg xmlns="http://www.w3.org/2000/svg" xml:space="preserve" width="29mm" height="29mm" version="1.1" style="shape-rendering:geometricPrecision; text-rendering:geometricPrecision; image-rendering:optimizeQuality; fill-rule:evenodd; clip-rule:evenodd"
viewBox="0 0 427 427"
 xmlns:xlink="http://www.w3.org/1999/xlink">
 <defs>
  <style type="text/css">
   <![CDATA[
    .fil0 {fill:#054192;fill-rule:nonzero}
    .fil1 {fill:#0A296F;fill-rule:nonzero}
    .fil3 {fill:#0F154F;fill-rule:nonzero}
    .fil2 {fill:#FDFDFD;fill-rule:nonzero}
   ]]>
  </style>
 </defs>
 <g id="__x0023_Layer_x0020_1">
  <metadata id="CorelCorpID_0Corel-Layer"/>
  <g id="_670833952">
   <g>
    <path class="fil0" d="M0 0l427 0 0 168c-1,-3 -2,-7 -3,-10 -3,2 -6,5 -10,5 -2,-1 -3,-2 -5,-3 -1,2 -2,3 -2,5 0,-7 -6,-12 -9,-18 -5,-15 -10,-30 -18,-43 -4,-7 -5,-15 -10,-21 -11,-14 -25,-27 -44,-32 -33,-5 -67,2 -95,21 -6,5 -11,11 -19,13 0,-7 0,-15 1,-22 -27,-1 -53,7 -76,20 0,39 0,79 0,119 4,-21 16,-41 35,-52 1,1 2,2 4,4 -2,2 -3,3 -4,5l2 0c-12,10 -22,23 -26,39 -3,16 -1,34 8,48 10,17 28,28 46,32 6,2 12,5 18,6 -2,-1 -5,0 -7,1 -3,1 -2,5 -3,7 -1,14 3,29 -3,43 -1,-3 -2,-6 -3,-8 -1,2 -1,5 -2,7 0,-2 -1,-5 -2,-8 -3,-2 -7,-4 -10,-6 -3,2 -6,4 -9,5 -2,0 -5,-1 -7,-2 -3,7 -9,13 -14,19 -4,-5 0,-11 -1,-16 0,-7 -2,-14 -2,-21 -1,-1 -4,-2 -5,-2 3,-2 5,-3 7,-4 -9,-2 -19,-2 -28,-2 2,-1 4,-1 6,-2 -8,-3 -15,-3 -23,-4 20,0 40,0 60,0 7,0 15,1 21,-3 2,0 5,0 7,0 -17,-3 -34,-10 -45,-23 -14,-14 -20,-34 -20,-53 -4,-1 -8,-1 -12,-1 -16,0 -31,-1 -47,-1 -6,0 -13,1 -19,-1 6,-3 11,-3 17,-3 1,-1 1,-2 1,-3 5,0 10,-1 14,-1 -10,-1 -21,1 -31,-1 5,-2 11,-2 16,-3 -5,-2 -15,-1 -16,-8 1,-2 2,-4 4,-7 -5,0 -10,0 -14,-1 -4,-3 -8,-6 -12,-8 -8,-3 -12,-10 -20,-14 -6,-1 -12,0 -18,-1l0 -159z"/>
   </g>
   <g>
    <path class="fil1" d="M231 72c28,-19 62,-26 95,-21 19,5 33,18 44,32 5,6 6,14 10,21 8,13 13,28 18,43 3,6 9,11 9,18 0,-2 1,-3 2,-5 2,1 3,2 5,3 4,0 7,-3 10,-5 1,3 2,7 3,10l0 40c-7,-7 -18,-11 -21,-21 -4,-6 -7,-12 -9,-18 -3,5 -1,13 -2,19 1,5 -5,6 -9,8 5,3 0,6 -3,9 -2,-2 -3,-3 -5,-5 -2,5 -4,12 -10,13 -5,-11 0,-24 -8,-34 -4,-14 -9,-29 -17,-42 -40,1 -80,0 -120,1 18,3 36,12 47,26 11,13 18,31 18,48 2,0 4,1 6,1 12,2 24,0 36,1 7,0 15,-1 21,2 -3,4 -9,3 -13,5 -6,3 -11,9 -17,12 -1,-1 -3,-2 -4,-2 -4,3 -9,6 -14,6 -7,9 -3,21 -5,31 -1,-2 -2,-4 -3,-6 -4,14 0,29 -4,42 -1,-11 0,-23 -1,-35 0,-14 1,-28 -2,-43 0,0 0,-2 0,-3 -4,21 -16,41 -34,52 -8,6 -18,10 -28,12 -2,-2 -4,-3 -6,-3 -6,-1 -12,-4 -18,-6 18,1 36,-2 50,-13 17,-13 28,-35 26,-56 -1,-33 -30,-61 -62,-62 -15,-1 -29,4 -42,12l-2 0c1,-2 2,-3 4,-5 -2,-2 -3,-3 -4,-4 12,-8 26,-12 41,-12 -1,-18 -1,-36 -1,-53 8,-2 13,-8 19,-13z"/>
    <path class="fil1" d="M0 159c6,1 12,0 18,1 8,4 12,11 20,14 4,2 8,5 12,8 4,1 9,1 14,1 -2,3 -3,5 -4,7 1,7 11,6 16,8 -5,1 -11,1 -16,3 10,2 21,0 31,1 -4,0 -9,1 -14,1 0,1 0,2 -1,3 -6,0 -11,0 -17,3 6,2 13,1 19,1 16,0 31,1 47,1 4,0 8,0 12,1 -25,1 -50,0 -75,1 -1,26 7,52 20,75 37,0 75,0 113,0 -6,4 -14,3 -21,3 -20,0 -40,0 -60,0 8,1 15,1 23,4 -2,1 -4,1 -6,2 9,0 19,0 28,2 -2,1 -4,2 -7,4 1,0 4,1 5,2 0,7 2,14 2,21 1,5 -3,11 1,16 5,-6 11,-12 14,-19 2,1 5,2 7,2 3,-1 6,-3 9,-5 3,2 7,4 10,6 1,3 2,6 2,8 1,-2 1,-5 2,-7 1,2 2,5 3,8 6,-14 2,-29 3,-43 1,-2 0,-6 3,-7 4,1 8,2 12,2 -5,0 -9,0 -13,0 0,26 0,51 0,76 12,0 24,-1 35,-4 7,2 13,-1 20,-2 -9,8 -17,17 -25,27 2,14 2,29 1,43l-119 0c-2,-1 -4,-2 -6,-3 5,-6 4,-12 3,-18 -5,2 -8,7 -13,10 -2,2 -2,6 -3,8 -1,0 -3,0 -4,0 -1,-5 -2,-13 4,-16 2,-7 2,-15 -2,-21 -2,-5 -8,-6 -11,-9 -1,-4 -1,-8 -2,-12 -4,-2 -8,-2 -12,-3 -1,-2 -2,-4 -3,-6 -3,0 -6,-1 -9,-1 -1,-3 -3,-6 -5,-9 0,6 -1,12 -2,18 -5,-9 0,-19 -2,-29 -9,-1 -18,-1 -27,-1 0,9 0,19 0,29 -3,0 -7,0 -7,-4 -1,-15 1,-30 -2,-45 -2,-7 3,-12 4,-19 3,-21 -1,-42 -5,-62 -4,-16 -9,-32 -20,-45l0 -30z"/>
   </g>
   <g>
    <path class="fil2" d="M137 83c23,-13 49,-21 76,-20 -1,7 -1,15 -1,22 0,17 0,35 1,53 -15,0 -29,4 -41,12 -19,11 -31,31 -35,52 0,-40 0,-80 0,-119z"/>
    <path class="fil2" d="M223 138c40,-1 80,0 120,-1 8,13 13,28 17,42 3,11 3,23 4,34 -24,0 -47,-1 -70,0 -2,0 -4,-1 -6,-1 0,-17 -7,-35 -18,-48 -11,-14 -29,-23 -47,-26z"/>
    <path class="fil2" d="M174 159c13,-8 27,-13 42,-12 32,1 61,29 62,62 2,21 -9,43 -26,56 -14,11 -32,14 -50,13 -18,-4 -36,-15 -46,-32 -9,-14 -11,-32 -8,-48 4,-16 14,-29 26,-39z"/>
    <path class="fil2" d="M62 213c25,-1 50,0 75,-1 0,19 6,39 20,53 11,13 28,20 45,23 -2,0 -5,0 -7,0 -38,0 -76,0 -113,0 -13,-23 -21,-49 -20,-75z"/>
    <path class="fil2" d="M254 275c18,-11 30,-31 34,-52 0,1 0,3 0,3 -1,39 0,78 0,117 -13,8 -27,13 -41,16 -11,3 -23,4 -35,4 0,-25 0,-50 0,-76 4,0 8,0 13,0l1 0c10,-2 20,-6 28,-12z"/>
   </g>
   <g>
    <path class="fil3" d="M395 188c1,-6 -1,-14 2,-19 2,6 5,12 9,18 3,10 14,14 21,21l0 219 -184 0c1,-14 1,-29 -1,-43 8,-10 16,-19 25,-27 -7,1 -13,4 -20,2 14,-3 28,-8 41,-16 0,-39 -1,-78 0,-117 3,15 2,29 2,43 1,12 0,24 1,35 4,-13 0,-28 4,-42 1,2 2,4 3,6 2,-10 -2,-22 5,-31 5,0 10,-3 14,-6 1,0 3,1 4,2 6,-3 11,-9 17,-12 4,-2 10,-1 13,-5 -6,-3 -14,-2 -21,-2 -12,-1 -24,1 -36,-1 23,-1 46,0 70,0 -1,-11 -1,-23 -4,-34 8,10 3,23 8,34 6,-1 8,-8 10,-13 2,2 3,3 5,5 3,-3 8,-6 3,-9 4,-2 10,-3 9,-8z"/>
    <path class="fil3" d="M0 189c11,13 16,29 20,45 4,20 8,41 5,62 -1,7 -6,12 -4,19 3,15 1,30 2,45 0,4 4,4 7,4 0,-10 0,-20 0,-29 9,0 18,0 27,1 2,10 -3,20 2,29 1,-6 2,-12 2,-18 2,3 4,6 5,9 3,0 6,1 9,1 1,2 2,4 3,6 4,1 8,1 12,3 1,4 1,8 2,12 3,3 9,4 11,9 4,6 4,14 2,21 -6,3 -5,11 -4,16 1,0 3,0 4,0 1,-2 1,-6 3,-8 5,-3 8,-8 13,-10 1,6 2,12 -3,18 2,1 4,2 6,3l-124 0 0 -238z"/>
    <path class="fil3" d="M213 285c2,-1 5,-2 7,-1 2,0 4,1 6,3l-1 0c-4,0 -8,-1 -12,-2z"/>
   </g>
  </g>
 </g>
</svg>
