<?xml version="1.0" encoding="UTF-8"?>
<!DOCTYPE svg PUBLIC "-//W3C//DTD SVG 1.1//EN" "http://www.w3.org/Graphics/SVG/1.1/DTD/svg11.dtd">
<!-- Creator: CorelDRAW Home & Student X7 -->
<svg xmlns="http://www.w3.org/2000/svg" xml:space="preserve" width="30.0003mm" height="30.0003mm" version="1.1" style="shape-rendering:geometricPrecision; text-rendering:geometricPrecision; image-rendering:optimizeQuality; fill-rule:evenodd; clip-rule:evenodd"
viewBox="0 0 3863 3863"
 xmlns:xlink="http://www.w3.org/1999/xlink">
 <defs>
  <style type="text/css">
   <![CDATA[
    .str1 {stroke:#373435;stroke-width:0.038632}
    .str0 {stroke:#3E4095;stroke-width:0.038632}
    .fil0 {fill:#354786}
    .fil1 {fill:#F5EB24}
   ]]>
  </style>
 </defs>
 <g id="Camada_x0020_1">
  <metadata id="CorelCorpID_0Corel-Layer"/>
  <g id="_2745294977424">
   <path class="fil0 str0" d="M648 0l2568 0c357,0 647,292 647,652l0 2559c0,360 -290,652 -647,652l-2568 0c-358,0 -648,-292 -648,-652l0 -2559c0,-360 290,-652 648,-652z"/>
   <path class="fil1 str1" d="M305 1940l319 0 0 1286 -319 0 0 -1286zm588 0l319 0 0 308 185 0 0 253 -185 0 0 325c0,84 -29,172 179,176l0 243 -259 0c-154,0 -239,-175 -239,-304l0 -440 -133 0 0 -253 133 0 0 -308 0 0zm1539 646l0 640 -289 8 -4 -113c-306,277 -652,87 -644,-133 13,-371 339,-395 551,-403 52,-1 108,-36 67,-74 -130,-122 -318,-48 -473,10l-77 -202c140,-76 393,-132 593,-76 150,42 276,150 276,343l0 0zm-298 366l-6 -181 -1 0c-83,3 -313,13 -318,168 -4,88 110,155 251,68 16,-10 44,-30 74,-55l0 0zm821 -753l231 0 230 -265 -293 0 -168 265 0 0zm-375 614l0 0 0 0 0 -568 319 0 0 568 0 14c5,232 320,232 342,-11l-2 -10 0 -561 319 0 0 981 -258 0 -21 -94 0 -1c-104,61 -219,148 -342,130 -189,-28 -319,-62 -357,-448l0 0z"/>
  </g>
 </g>
</svg>
