<?xml version="1.0" encoding="UTF-8"?>
<!DOCTYPE svg PUBLIC "-//W3C//DTD SVG 1.1//EN" "http://www.w3.org/Graphics/SVG/1.1/DTD/svg11.dtd">
<!-- Creator: CorelDRAW Home & Student X7 -->
<svg xmlns="http://www.w3.org/2000/svg" xml:space="preserve" width="29mm" height="29mm" version="1.1" style="shape-rendering:geometricPrecision; text-rendering:geometricPrecision; image-rendering:optimizeQuality; fill-rule:evenodd; clip-rule:evenodd"
viewBox="0 0 1529 1529"
 xmlns:xlink="http://www.w3.org/1999/xlink">
 <defs>
  <style type="text/css">
   <![CDATA[
    .fil2 {fill:#040404}
    .fil7 {fill:#252A58}
    .fil6 {fill:#294678}
    .fil0 {fill:#2C3CD4}
    .fil8 {fill:#374768}
    .fil10 {fill:#475678}
    .fil1 {fill:#4C33CD}
    .fil17 {fill:#4E568E}
    .fil13 {fill:#5A6795}
    .fil16 {fill:#7887A8}
    .fil14 {fill:#888888}
    .fil15 {fill:#8B90B1}
    .fil11 {fill:#97A5B9}
    .fil12 {fill:#989898}
    .fil5 {fill:#C6CFDA}
    .fil4 {fill:#C7C9F6}
    .fil9 {fill:#E5F8FA}
    .fil3 {fill:#FDFDFD}
   ]]>
  </style>
 </defs>
 <g id="__x0023_Layer_x0020_1">
  <metadata id="CorelCorpID_0Corel-Layer"/>
  <g id="_620529056">
   <path class="fil0" d="M545 976c9,-1 21,0 30,1 28,3 56,-1 84,-1 36,0 79,2 114,-1l-2 -8 -23 -2c0,-12 0,-11 6,-18l5 -7c-9,0 4,3 -10,5 -5,-7 -5,0 -5,-19 6,-3 3,0 6,-5l-15 -8c0,-2 -1,2 -3,-6l-5 -20c-3,-5 -6,-8 -7,-9 -5,-6 -2,-3 -3,-8 -3,-8 -4,-5 -10,-15 -8,-14 -17,-22 -17,-34 0,-5 1,0 -3,-7l-68 -109c-3,-5 -3,-4 -6,-9l-84 -127c0,0 -1,-1 -1,-2 -1,0 -1,0 -1,-1 -4,-5 -4,-4 -3,-11 -10,-2 -5,-3 -11,-11 -10,-13 -11,-18 -19,-33 -8,-13 -18,-36 -24,-51 -2,-4 -2,-13 -2,-19l-41 57c-3,4 -3,3 -6,8 -4,5 -13,25 -20,33 -13,17 -10,18 -16,25 -4,6 -4,2 -11,15 -3,5 -3,5 -6,9 -11,18 -10,14 -20,33 -11,21 -12,56 -4,70 13,21 18,26 31,50l90 139c5,7 1,0 5,9 3,5 8,10 11,16l30 44c0,0 1,1 1,1 0,0 1,0 1,1 4,4 15,23 32,25z"/>
   <path class="fil1" d="M757 270c0,-7 1,-7 -3,-12 -1,-2 -2,-1 -3,-4l-13 -19c14,-1 203,-2 213,2 7,3 3,2 15,3 13,1 10,2 13,4 3,2 0,1 5,3 19,7 -1,6 19,8 1,4 2,6 4,10 2,3 0,1 3,4 5,7 9,14 15,17l-3 3c6,2 7,4 9,11 6,16 4,8 10,17 1,2 2,4 1,5 0,2 -3,9 -3,13 -14,0 -3,0 -11,-3l0 19c3,1 -1,2 2,-2 0,0 1,-2 1,-2 0,-1 0,-1 0,-2 0,19 7,5 7,25 -6,1 -4,1 -9,4 0,8 1,6 2,12 -1,1 -2,2 -3,2l-10 7 1 20c11,0 7,-2 15,0l0 18c-6,0 -13,0 -19,1 -15,0 -3,2 -14,3l-9 -24c-18,0 -14,0 -14,19 -7,2 1,-3 -4,2 -5,2 -3,-1 -4,9 0,2 0,7 0,10 -6,-3 0,-5 -5,-3 0,27 -9,24 -13,27 1,2 1,5 -2,9l-4 3c-1,2 -2,2 -3,4l10 3 -5 27 -9 0 0 -20 -5 4c-10,10 -7,5 -8,14l11 4c1,9 -1,11 8,13 -7,20 4,9 6,24 -3,-7 -4,-7 -11,-6 3,11 15,21 17,26l25 41c4,6 0,2 7,14 2,3 3,5 4,7l18 26c2,2 3,4 4,7l12 20c6,8 9,9 13,21 1,3 14,25 18,48 0,3 0,6 1,9 1,10 -1,6 4,8 6,-3 10,-15 14,-21 4,-5 4,-7 7,-12 2,-3 6,-6 8,-9 4,-7 7,-15 12,-23l15 -20c4,-5 3,-7 6,-12l29 -43c3,-5 2,-5 6,-11 0,0 1,-1 1,-1 0,0 0,-1 1,-1l9 -14c0,0 0,0 1,-1l6 -11c9,-14 2,-10 7,-18 7,-11 5,-7 5,-31 0,-17 -4,-28 -13,-41l-17 -28c-8,-12 -7,-16 -17,-27 -4,-4 -5,-7 -7,-11l-49 -75c-8,-15 -16,-24 -25,-37 -1,-3 -1,-4 -3,-6 -5,-9 6,7 -1,-2 -4,-5 0,1 -3,-3 -2,-3 -1,-1 -3,-6 -7,-15 -18,-32 -29,-45 -2,-2 0,0 -2,-3 -10,-13 -7,-12 -21,-23 -9,-7 -38,-17 -54,-17l-142 0c-21,0 -50,-2 -70,0 -1,10 6,18 11,25 4,6 6,10 12,14z"/>
   <path class="fil1" d="M690 821c0,12 9,20 17,34 6,10 7,7 10,15 1,5 -2,2 3,8 1,1 4,4 7,9l5 20c2,8 3,4 3,6l15 8c-3,5 0,2 -6,5 0,19 0,12 5,19 14,-2 1,-5 10,-5l-5 7c-6,7 -6,6 -6,18l23 2 2 8c-35,3 -78,1 -114,1 -28,0 -56,4 -84,1 -9,-1 -21,-2 -30,-1 5,5 16,9 24,9l97 1c18,0 121,1 129,-1 0,-7 0,-4 -3,-8l-33 -51c0,0 -1,-1 -1,-1l-2 -5c0,0 -20,-31 -20,-36 57,1 114,0 171,0 13,0 29,1 42,0 21,-2 45,-6 60,-20 1,-1 1,-1 3,-3 1,-1 1,-1 2,-3l2 -1c0,-1 1,-1 1,-1l10 -24c7,-40 -7,-64 -14,-91 -2,-6 -3,-5 -7,-14l-29 -47c-9,-13 -17,-20 -26,-38 -2,-4 -2,-2 -4,-6 -3,-5 -23,-38 -27,-39 -9,0 -20,27 -25,34 -3,5 -8,11 -12,17 -4,7 -6,11 -11,18l-13 23c-6,11 4,3 -9,13 -7,6 -27,43 -36,56 -13,17 -12,20 -19,30l-43 69c-6,11 -14,21 -22,24 -1,-3 -2,-6 -3,-8l-37 -52z"/>
   <path class="fil0" d="M757 270c1,5 5,3 10,17l8 14c3,4 2,1 4,4 4,7 7,15 18,30 8,10 9,19 14,25l25 36c3,8 17,29 23,35l20 30c0,0 0,0 1,1 1,2 1,1 3,3 0,1 1,4 2,5l5 9c7,9 7,7 15,23 2,4 2,5 5,9 2,4 1,2 3,4l27 41c7,-1 8,-1 11,6 -2,-15 -13,-4 -6,-24 -9,-2 -7,-4 -8,-13l-11 -4c1,-9 -2,-4 8,-14l5 -4 0 20 9 0 5 -27 -10 -3c1,-2 2,-2 3,-4l4 -3c3,-4 3,-7 2,-9 4,-3 13,0 13,-27 5,-2 -1,0 5,3 0,-3 0,-8 0,-10 1,-10 -1,-7 4,-9 5,-5 -3,0 4,-2 0,-19 -4,-19 14,-19l9 24c11,-1 -1,-3 14,-3 6,-1 13,-1 19,-1l0 -18c-8,-2 -4,0 -15,0l-1 -20 10 -7c1,0 2,-1 3,-2 -1,-6 -2,-4 -2,-12 5,-3 3,-3 9,-4 0,-20 -7,-6 -7,-25 0,1 0,1 0,2 0,0 -1,2 -1,2 -3,4 1,3 -2,2l0 -19c8,3 -3,3 11,3 0,-4 3,-11 3,-13 1,-1 0,-3 -1,-5 -6,-9 -4,-1 -10,-17 -2,-7 -3,-9 -9,-11l3 -3c-6,-3 -10,-10 -15,-17 -3,-3 -1,-1 -3,-4 -2,-4 -3,-6 -4,-10 -20,-2 0,-1 -19,-8 -5,-2 -2,-1 -5,-3 -3,-2 0,-3 -13,-4 -12,-1 -8,0 -15,-3 -10,-4 -199,-3 -213,-2l13 19c1,3 2,2 3,4 4,5 3,5 3,12z"/>
   <path class="fil0" d="M608 621c16,0 9,-10 25,-29 4,-5 49,-82 64,-102l16 -26c8,-15 37,-57 43,-68l18 -31c8,-8 6,-7 7,-16 2,0 7,0 8,-7 1,-11 -5,-8 -34,-8 -36,0 -167,-2 -190,4 -6,1 -8,1 -14,2 -15,3 4,0 -16,8l-23 18c-11,11 -14,31 -12,48 4,31 6,37 17,61l15 34c0,0 6,7 7,8 10,14 18,30 31,47 4,7 9,13 13,19 2,3 4,6 6,10l19 28z"/>
   <path class="fil2" d="M0 275c3,-1 5,-1 7,-10 0,-5 0,-11 1,-16 2,-6 4,-3 5,-13 1,-7 0,-10 3,-15 2,-2 1,1 3,-5 1,-3 1,-4 2,-7 2,-5 1,-1 3,-6 5,-10 0,-3 9,-18l14 -28c6,-13 5,-4 16,-20 2,-2 2,-2 4,-5l10 -12c1,-1 2,-2 2,-2l53 -53c6,-5 5,-3 10,-6 10,-4 19,-14 28,-17 2,-1 4,-1 6,-2l30 -15c6,-2 7,-3 12,-5l27 -9c23,-9 38,0 42,-11l-287 0 0 275z"/>
   <path class="fil2" d="M0 1529l273 0c-3,-10 -15,-6 -27,-9 -6,-1 -5,-2 -13,-4 -18,-4 -6,-1 -25,-9 -4,-1 -1,0 -4,-2 -14,-9 -5,0 -19,-8l-16 -9c-10,-4 -2,-2 -11,-7 -2,-1 -3,-1 -5,-2 -9,-5 -9,-8 -20,-14 -9,-4 -11,-10 -18,-16l-3 -3c-1,0 -1,-1 -1,-1l-5 -4c-4,-3 -5,-2 -9,-7 -2,-3 -2,-4 -4,-5 -1,-2 0,-1 -2,-3 -20,-17 -10,-10 -19,-20 0,-1 -1,-1 -1,-1l-10 -13c-2,-2 -2,-2 -4,-5l-9 -16c-4,-6 -1,-1 -3,-5l-27 -57c-9,-17 -11,-37 -12,-56 -5,-2 -1,-1 -6,-2l0 278z"/>
   <path class="fil2" d="M1529 269l0 -269 -275 0c1,3 1,5 11,6 5,0 12,-1 17,1 6,2 2,3 10,5 8,2 7,-1 14,4 8,5 4,2 12,4l40 19c2,1 3,1 6,3l31 20c14,9 23,19 36,32 17,16 34,35 46,55l11 15c2,3 0,1 3,5 2,6 2,6 5,11 3,8 4,7 6,12l14 36c1,6 1,10 3,15 9,28 1,23 10,26z"/>
   <path class="fil2" d="M1432 1435c-5,6 -10,10 -17,15 -11,9 -5,7 -19,16 -15,9 -33,23 -51,31 -5,3 -6,2 -12,5 -7,2 -2,2 -10,5 -11,4 -17,6 -28,7 -11,1 -13,9 -37,10 -1,2 -1,2 -1,5l272 0 0 -266c-9,4 -2,10 -8,26 -7,16 -1,8 -9,25 -3,6 -1,9 -4,14l-5 10c-4,7 -8,15 -12,22 -3,7 -2,6 -6,12 -14,19 -7,15 -14,23l-14 16c-4,7 0,4 -9,13 -7,7 -9,10 -16,11z"/>
   <path class="fil3" d="M522 1226c-6,-1 -7,-3 -12,-9 -9,-9 -46,-13 -60,-9 -4,9 -3,92 -2,108 22,4 63,5 74,-19l3 -6c5,-8 8,-18 8,-28 0,-17 -11,-27 -11,-37z"/>
   <path class="fil4" d="M756 920l2 5c0,0 1,1 1,1l33 51c3,4 3,1 3,8 -8,2 -111,1 -129,1l-97 -1c-8,0 -19,-4 -24,-9 -17,-2 -28,-21 -32,-25 0,-1 -1,-1 -1,-1 0,0 -1,-1 -1,-1l-30 -44c-3,-6 -8,-11 -11,-16 -4,-9 0,-2 -5,-9l-90 -139c-13,-24 -18,-29 -31,-50 -8,-14 -7,-49 4,-70 10,-19 9,-15 20,-33 3,-4 3,-4 6,-9 7,-13 7,-9 11,-15 6,-7 3,-8 16,-25 7,-8 16,-28 20,-33 3,-5 3,-4 6,-8l41 -57c0,6 0,15 2,19 6,15 16,38 24,51 8,15 9,20 19,33 6,8 1,9 11,11 -3,-13 -14,-20 -17,-30 -7,-19 -8,-6 -16,-31 -2,-6 -1,-2 -3,-7 -9,-14 -8,-25 -14,-38 -4,-12 6,-11 1,-25 -1,0 -1,-1 -2,0 0,1 -1,0 -1,0l-20 21c-5,7 -6,13 -11,21 -1,2 -1,2 -2,3 0,1 0,1 -1,2l-9 15c-4,6 -10,11 -14,17 -2,4 -2,6 -5,10 -5,6 0,-4 -5,8l-29 44c0,1 -1,1 -1,1l-20 32c-6,7 -19,36 -21,44 -3,13 1,36 4,48l8 17c2,2 0,0 2,2l4 4c2,3 3,4 5,9l5 7c2,2 1,1 2,3l40 64c3,6 7,10 12,16 1,2 0,0 2,4l22 36c2,6 0,2 2,5l4 4c6,7 8,15 12,20l25 38c6,7 7,16 15,22l1 9c4,1 6,2 8,5l13 19c-1,2 -3,-2 -1,3 8,-2 -2,-1 6,-3 8,-1 12,5 19,10 10,7 18,2 31,6 21,6 49,3 72,3 47,0 105,3 150,0 4,-9 6,-3 6,-13 -6,-7 -10,-8 -14,-17 -2,-7 -3,-3 -4,-10 -2,-8 -1,-2 1,-5l-9 -1c-1,-17 1,-4 -8,-15 -9,-9 -2,-11 -13,-12z"/>
   <path class="fil5" d="M357 1313c-10,-5 -16,-14 -24,-21 -5,-4 -8,-7 -12,-10l-6 -5c-6,-4 0,-2 -9,-4 0,19 0,39 0,58 0,14 -14,10 -16,6 -3,-4 -2,-136 -2,-147 8,-2 8,-4 18,0l0 65c5,-1 2,0 6,-2 4,-3 16,-20 28,-26 3,-7 31,-28 36,-38l19 0c-1,9 -2,9 -8,13l-26 26c-6,6 -33,29 -35,34 4,10 6,9 19,19 7,5 14,13 21,19l20 18c4,4 7,5 11,9 2,2 0,0 3,3 3,4 4,4 5,9 -7,0 -14,1 -19,-1 -7,-3 -26,-20 -29,-25zm171 -112c2,6 1,4 4,8l5 5c0,0 4,6 4,6l9 19c2,7 2,9 3,15 4,15 -2,34 -8,45 -2,4 -4,9 -5,11l-15 18c-24,22 -93,15 -97,11 -5,-5 -3,-147 -2,-150 11,-7 54,-3 68,-2 -4,-5 -10,-6 -17,-6l-43 0c-9,1 -9,3 -15,8l0 150 -33 -27c-10,-12 -28,-21 -30,-29 2,-2 0,-1 4,-2 2,-1 2,-1 4,-2 0,-8 1,-3 -2,-8 -1,-1 -3,-4 -4,-5 -8,2 -8,12 -15,6l-11 -10 18 -18c0,0 0,0 0,-1 5,-4 6,-3 11,-7l24 -27c1,0 1,0 1,0 6,-5 13,-8 16,-16 0,-4 0,-3 0,-6 0,0 -1,-1 -2,-1 0,1 -1,-1 -1,-1 -10,-4 -23,-1 -30,6 -5,3 -6,6 -10,9 -4,3 -3,2 -6,4 -2,2 1,0 -2,3l-14 14c-9,10 -20,16 -28,28 -2,-17 8,-64 -8,-67 -24,-5 -17,24 -18,41 -1,25 -3,108 4,123l18 1c9,-15 3,-48 5,-68 3,3 2,1 7,5 3,2 5,5 8,7l11 11c2,2 2,2 3,3 3,4 11,9 15,13 7,8 4,11 7,20 3,0 2,1 5,0l3 -2c0,-1 1,-1 1,-1 1,0 1,0 1,1l2 3c6,14 31,5 40,8l2 3c0,0 1,0 1,1l4 3c3,4 2,6 9,5 1,-9 0,-4 -5,-8 0,0 -1,-1 -1,-1l-2 -3c13,0 26,1 40,1 50,-1 20,-1 41,-6l37 -23c17,-22 23,-39 21,-68 -1,-7 -5,-16 -8,-22 0,0 -1,-1 -1,-1 0,0 0,-1 -1,-1 -5,-9 -11,-22 -22,-26z"/>
   <path class="fil6" d="M1136 1231l0 106c6,4 10,5 17,2 0,-9 0,-46 3,-52 6,1 25,22 34,30 16,17 26,28 43,21 -1,-8 -8,-10 -14,-15l-43 -42c-1,-7 23,-25 31,-33 19,-18 15,-9 16,-19 -25,-2 -24,5 -37,17l-20 19c-3,3 -4,5 -10,6 -4,-28 1,-80 -2,-87 -2,-5 -17,-9 -18,10 0,12 0,25 0,37z"/>
   <path class="fil7" d="M506 1320l0 -1c-2,4 -2,7 -12,8 -12,2 -25,1 -37,1 -13,0 -6,3 -13,4 -7,-11 -2,-15 -3,-31l-1 -71c0,-7 -3,-31 -2,-32 15,-2 -3,4 28,3 10,-1 27,-3 36,2 4,3 -2,0 4,4 11,5 3,-3 17,10 0,0 0,1 1,1 16,15 4,11 15,21l0 53c0,0 -1,0 -1,1l-20 22c-5,5 -4,6 -12,5zm34 -10c1,-2 3,-7 5,-11 6,-11 12,-30 8,-45 -1,-6 -1,-8 -3,-15l-9 -19c0,0 -4,-6 -4,-6l-5 -5c-3,-4 -2,-2 -4,-8l-2 1c-4,0 -14,-5 -19,-8 -15,-7 -69,-5 -77,-4 -3,8 -2,141 0,146l32 2c31,0 38,4 62,-15 6,-4 10,-9 16,-13z"/>
   <path class="fil7" d="M673 1333l8 -9c12,-11 10,-22 8,-41 -12,4 -4,19 -7,26 -1,4 -12,11 -16,19 -12,1 -24,1 -35,1 -6,0 -25,1 -30,-1 -6,-2 -2,1 -6,-3l-4 -3 -1 -120c8,-1 58,-1 65,1 2,0 10,7 12,9 3,1 6,2 9,3 1,14 -3,19 3,23 0,0 6,4 5,-16 0,-13 -5,-5 -5,-17l1 -2c-20,-4 -2,-13 -44,-13 -18,0 -39,-1 -57,0l0 148c5,0 77,1 86,-2 3,-1 3,-3 8,-3z"/>
   <path class="fil8" d="M1035 1258c2,-5 11,-13 19,-14 13,-2 23,-1 30,4 17,7 12,41 11,67 0,4 0,9 0,12 0,5 0,11 5,12 10,1 8,-2 7,-21l0 -62c-1,-7 -9,-19 -15,-23 -5,-2 -5,-1 -10,-3 -15,-6 -4,-7 -29,-1 -16,4 -7,7 -18,11l-7 -11 -12 0c-3,7 -3,101 0,110 5,0 10,0 14,-2 3,-23 -5,-67 5,-79z"/>
   <path class="fil9" d="M836 1323c2,0 9,-4 12,-5 10,-7 10,-24 7,-31 -2,-3 -6,-6 -8,-10 -14,2 3,-4 -32,-4 -12,0 -26,-1 -38,0 -1,5 -3,45 1,49 10,5 44,1 58,1z"/>
   <path class="fil9" d="M655 1323c16,2 34,-25 16,-43 -15,-1 -25,-10 -63,-7l-10 3c-2,6 -3,38 1,45 10,4 42,1 56,2z"/>
   <path class="fil5" d="M1136 1231c0,-12 0,-25 0,-37 1,-19 16,-15 18,-10 3,7 -2,59 2,87 6,-1 7,-3 10,-6l20 -19c13,-12 12,-19 37,-17 -1,10 3,1 -16,19 -8,8 -32,26 -31,33l43 42c6,5 13,7 14,15 -17,7 -27,-4 -43,-21 -9,-8 -28,-29 -34,-30 -3,6 -3,43 -3,52 -7,3 -11,2 -17,-2l0 -106zm95 5c5,-9 -1,-2 3,-15 1,-1 1,-1 2,-3 -10,0 0,3 -15,3 -23,2 -14,-3 -23,6 -1,1 -3,3 -6,5 -21,15 -4,3 -15,16 -1,1 -4,3 -5,5 -9,10 -6,8 -14,10 0,-19 2,-75 -2,-89l-22 0c-1,9 -2,15 -1,24 0,3 0,9 -1,12 -1,9 -1,5 -2,8 -1,7 0,0 2,8 1,4 1,7 1,11 0,26 -4,91 4,110 31,2 20,-12 22,-52l20 19c8,6 8,10 12,14 6,7 7,3 16,11 7,5 32,17 33,1 0,-9 -2,-8 -6,-12l-35 -34c-10,-9 -7,-3 -13,-8 -1,-5 -2,-6 0,-11 2,-4 15,-12 23,-22 15,-16 11,-7 18,-3 3,-5 -1,-5 4,-14z"/>
   <path class="fil6" d="M340 1227c-3,7 -30,31 -31,31 -9,2 -6,-10 -11,-9l-2 0c0,0 -1,0 -2,0l-1 5c-2,12 -1,22 3,27 6,-2 3,0 6,-5 0,0 3,-6 3,-6 8,-2 9,2 14,7l29 25c0,0 1,0 1,1l3 2c4,3 3,3 5,8 3,5 22,22 29,25 5,2 12,1 19,1 -1,-5 -2,-5 -5,-9 -3,-3 -1,-1 -3,-3 -4,-4 -7,-5 -11,-9l-20 -18c-7,-6 -14,-14 -21,-19 -13,-10 -15,-9 -19,-19 2,-5 29,-28 35,-34l26 -26c6,-4 7,-4 8,-13l-19 0c-5,10 -33,31 -36,38z"/>
   <path class="fil8" d="M920 1244c9,-1 33,-2 39,3 8,2 2,-2 8,4 6,7 6,15 5,24 -8,1 -29,-7 -42,-3 -4,1 -2,1 -4,3 10,1 17,-3 28,2l7 4c-10,1 -19,-2 -27,0l-8 3c8,0 39,-2 43,2 6,4 4,19 3,26l-6 2 -2 3c-2,4 -2,5 -6,7 -8,5 -20,10 -31,6 -18,-7 -20,-11 -18,-33 0,0 -11,2 -5,15 2,6 4,7 6,15l12 5c9,4 21,4 30,-1 5,-4 -1,-2 11,-6l-4 6c0,1 -1,1 -1,1 0,1 -1,1 -1,1 -1,0 -1,1 -2,1 -4,0 0,-1 -1,4 4,-1 10,-4 12,-7 6,3 2,0 6,4 0,1 2,4 3,5 17,2 11,-9 11,-52 1,-10 1,-22 0,-32 -1,-9 -4,-10 -9,-16l-3 -6c-3,0 -7,-3 -9,-4 -10,-1 -9,-3 -16,-4 -7,-1 -38,3 -45,8l2 14c5,0 8,-2 14,-4z"/>
   <path class="fil9" d="M843 1246c9,-17 4,5 6,-27 -13,-4 -11,-14 -30,-15 -12,0 -32,0 -43,1l0 56c8,-3 -1,-6 14,-7 6,0 15,1 22,1 23,0 19,-9 31,-9z"/>
   <path class="fil6" d="M763 1276c1,-9 0,-47 2,-54 2,21 0,43 0,53 0,9 0,5 0,12 -1,7 0,5 1,12 1,11 -1,19 1,30l71 0c24,-3 27,-32 20,-52l-11 0c2,4 6,7 8,10 3,7 3,24 -7,31 -3,1 -10,5 -12,5 -7,5 -23,4 -32,4 -9,0 -24,2 -30,-3 0,-1 -1,-2 -1,-1l-1 -30c-1,-23 3,-17 0,-32l0 -24c0,-10 -1,-24 1,-34 10,-3 32,-2 44,-2 16,0 28,5 32,18 -2,32 3,10 -6,27l7 -1c5,-10 -2,-8 8,-10l2 9c3,-6 3,-29 1,-36 -1,-1 -5,-6 -6,-7 -7,-7 -23,-11 -35,-11 -12,0 -51,-2 -59,2 -1,2 0,1 -1,4 -1,6 -1,73 1,77 0,1 1,2 1,2 0,0 0,1 1,1z"/>
   <path class="fil9" d="M598 1255l7 0c29,-5 39,5 54,-10 3,-3 2,-2 5,-4 2,-12 4,-20 -3,-26 -2,-3 -2,-2 -4,-4 -9,-9 -14,-6 -32,-6 -31,0 -30,-9 -28,41 0,2 0,2 0,5 1,4 0,2 1,4z"/>
   <path class="fil10" d="M357 1313c-2,-5 -1,-5 -5,-8l-3 -2c0,-1 -1,-1 -1,-1l-29 -25c-5,-5 -6,-9 -14,-7 0,0 -3,6 -3,6 -3,5 0,3 -6,5 -4,-5 -5,-15 -3,-27l1 -5c1,0 2,0 2,0l2 0c5,-1 2,11 11,9 1,0 28,-24 31,-31 -12,6 -24,23 -28,26 -4,2 -1,1 -6,2l0 -65c-10,-4 -10,-2 -18,0 0,11 -1,143 2,147 2,4 16,8 16,-6 0,-19 0,-39 0,-58 9,2 3,0 9,4l6 5c4,3 7,6 12,10 8,7 14,16 24,21z"/>
   <path class="fil7" d="M763 1276c-3,7 -3,54 -1,61l79 -1c10,-2 3,-5 18,-7 3,-5 2,-5 6,-9 4,-5 2,1 4,-9 7,-43 -21,-40 -28,-51 23,-13 8,-7 19,-16l-2 -9c-10,2 -3,0 -8,10l-7 1c-2,4 -5,7 -9,9 -4,3 -8,3 -14,4 -12,1 -25,-2 -37,1 -3,7 -5,9 5,9 7,0 14,0 22,0 7,0 16,0 23,1 8,0 9,2 14,7l11 0c7,20 4,49 -20,52l-71 0c-2,-11 0,-19 -1,-30 -1,-7 -2,-5 -1,-12 0,-7 0,-3 0,-12 0,-10 2,-32 0,-53 -2,7 -1,45 -2,54z"/>
   <path class="fil11" d="M1035 1258c-10,12 -2,56 -5,79 -4,2 -9,2 -14,2 -3,-9 -3,-103 0,-110l12 0 7 11c11,-4 2,-7 18,-11 25,-6 14,-5 29,1 5,2 5,1 10,3 6,4 14,16 15,23l0 62c1,19 3,22 -7,21 -5,-1 -5,-7 -5,-12 0,-3 0,-8 0,-12 1,-26 6,-60 -11,-67 -3,0 -2,1 -4,-1 1,4 0,1 2,3 22,32 1,57 12,94 29,5 22,-21 21,-65 0,-17 -5,-33 -15,-44 -14,-16 -38,-18 -57,-6l-2 2c-6,4 2,2 -6,3 -3,-7 -1,-9 -9,-10 -9,-2 -13,-1 -15,6 -2,7 0,29 0,39 0,22 -4,56 3,76 12,1 12,-1 20,-6l1 -81z"/>
   <path class="fil8" d="M667 1212c2,9 11,11 2,27 -5,9 -5,10 -18,16 -16,9 -46,-6 -53,13 8,4 27,2 38,2 5,0 15,0 20,1l15 9c18,18 0,45 -16,43 -3,2 -3,3 -14,3l-46 -1c4,4 0,1 6,3 5,2 24,1 30,1 11,0 23,0 35,-1 4,-8 15,-15 16,-19 3,-7 -5,-22 7,-26 2,19 4,30 -8,41l-8 9c19,-1 21,-22 21,-38 0,-15 -3,-19 -13,-25l-2 -2c0,0 -1,0 -1,0l-10 -6c6,-12 20,-3 19,-41 0,-10 -1,-11 -8,-16 0,12 5,4 5,17 1,20 -5,16 -5,16 -6,-4 -2,-9 -3,-23 -3,-1 -6,-2 -9,-3z"/>
   <path class="fil5" d="M864 1269c2,4 32,43 -12,67 -13,7 -77,7 -94,4 -4,-11 -2,-107 -2,-133 0,-3 -1,-8 0,-9 0,-3 0,-8 2,-9 8,-4 75,-3 86,1 23,10 27,35 19,54 -1,3 -1,2 -2,4l-3 5 7 -1c4,-14 5,-2 6,-17 2,-13 1,-21 -6,-32l-30 -22c-3,-2 -1,-1 -3,-2 -4,-1 3,-1 -4,-1 -6,0 -1,3 -24,3 -13,0 -37,-1 -50,0 -5,10 -2,101 -2,125 -1,42 -14,46 81,40 8,0 25,-7 33,-14 6,-6 5,-8 9,-11 1,-2 3,-3 5,-5 0,-8 0,-19 -1,-28 -1,-12 0,-5 -5,-11 -6,-8 1,-6 -10,-8z"/>
   <path class="fil12" d="M1529 301l0 -32c-9,-3 -1,2 -10,-26 -2,-5 -2,-9 -3,-15l-14 -36c-2,-5 -3,-4 -6,-12 -3,-5 -3,-5 -5,-11 -3,-4 -1,-2 -3,-5l-11 -15c-12,-20 -29,-39 -46,-55 -13,-13 -22,-23 -36,-32l-31 -20c-3,-2 -4,-2 -6,-3l-40 -19c-8,-2 -4,1 -12,-4 -7,-5 -6,-2 -14,-4 -8,-2 -4,-3 -10,-5 -5,-2 -12,-1 -17,-1 -10,-1 -10,-3 -11,-6l-28 0 0 5c25,3 42,5 64,11l27 10c11,5 7,-1 25,12 9,5 4,1 13,5 16,7 52,34 66,47 15,14 11,15 17,20 6,4 5,4 12,12 1,1 0,0 2,3l9 9c0,0 2,2 2,3l2 3c7,10 24,35 28,47 5,14 6,12 12,25 3,6 2,8 3,14 3,9 4,2 6,14 3,15 5,14 7,31 0,6 1,12 2,17 0,1 1,6 1,7 3,8 1,4 5,6z"/>
   <path class="fil13" d="M763 1276c-1,0 -1,-1 -1,-1 0,0 -1,-1 -1,-2 -2,-4 -2,-71 -1,-77 1,-3 0,-2 1,-4 8,-4 47,-2 59,-2 12,0 28,4 35,11 1,1 5,6 6,7 2,7 2,30 -1,36 -11,9 4,3 -19,16 7,11 35,8 28,51 -2,10 0,4 -4,9 -4,4 -3,4 -6,9 -15,2 -8,5 -18,7l-79 1c-2,-7 -2,-54 1,-61zm101 -7c-4,0 -3,-3 -14,-7 3,-3 5,-3 8,-9l3 -5c1,-2 1,-1 2,-4 8,-19 4,-44 -19,-54 -11,-4 -78,-5 -86,-1 -2,1 -2,6 -2,9 -1,1 0,6 0,9 0,26 -2,122 2,133 17,3 81,3 94,-4 44,-24 14,-63 12,-67z"/>
   <path class="fil11" d="M598 1255c-1,-2 0,0 -1,-4 0,-3 0,-3 0,-5 -2,-50 -3,-41 28,-41 18,0 23,-3 32,6 2,2 2,1 4,4 7,6 5,14 3,26 -3,2 -2,1 -5,4 -15,15 -25,5 -54,10l-7 0zm-3 70l46 1c11,0 11,-1 14,-3 -14,-1 -46,2 -56,-2 -4,-7 -3,-39 -1,-45l10 -3c38,-3 48,6 63,7l-15 -9c-5,-1 -15,-1 -20,-1 -11,0 -30,2 -38,-2 7,-19 37,-4 53,-13 13,-6 13,-7 18,-16 9,-16 0,-18 -2,-27 -2,-2 -10,-9 -12,-9 -7,-2 -57,-2 -65,-1l1 120 4 3z"/>
   <path class="fil9" d="M964 1317l2 -3c2,-9 17,-29 -29,-28 -12,0 -8,0 -15,5 -1,1 -3,2 -5,3 -8,7 -9,27 10,31 10,2 25,2 31,-7l6 -1z"/>
   <path class="fil5" d="M522 1226c0,10 11,20 11,37 0,10 -3,20 -8,28l-3 6c-11,24 -52,23 -74,19 -1,-16 -2,-99 2,-108 14,-4 51,0 60,9 5,6 6,8 12,9zm-16 93l0 1c5,-8 12,-9 19,-18 3,-4 9,-15 11,-22 5,-26 -1,-33 -6,-45 -4,-8 -3,-8 -8,-9 0,-5 0,-4 -5,-8 -25,-23 -70,-15 -72,-13 -2,2 -1,0 -2,4 -2,7 0,111 1,115 9,1 23,1 33,1 19,0 16,-4 29,-6z"/>
   <path class="fil14" d="M1432 1435c7,-1 9,-4 16,-11 9,-9 5,-6 9,-13l14 -16c7,-8 0,-4 14,-23 4,-6 3,-5 6,-12 4,-7 8,-15 12,-22l5 -10c3,-5 1,-8 4,-14 8,-17 2,-9 9,-25 6,-16 -1,-22 8,-26l0 -28c-3,1 -2,0 -5,2 -2,40 -6,34 -11,60l-33 70c0,0 0,1 0,1l-44 59c-4,5 -2,3 -4,8z"/>
   <path class="fil15" d="M836 1323c-14,0 -48,4 -58,-1 -4,-4 -2,-44 -1,-49 12,-1 26,0 38,0 35,0 18,6 32,4 -5,-5 -6,-7 -14,-7 -7,-1 -16,-1 -23,-1 -8,0 -15,0 -22,0 -10,0 -8,-2 -5,-9 12,-3 25,0 37,-1 6,-1 10,-1 14,-4 4,-2 7,-5 9,-9 -12,0 -8,9 -31,9 -7,0 -16,-1 -22,-1 -15,1 -6,4 -14,7l0 -56c11,-1 31,-1 43,-1 19,1 17,11 30,15 -4,-13 -16,-18 -32,-18 -12,0 -34,-1 -44,2 -2,10 -1,24 -1,34l0 24c3,15 -1,9 0,32l1 30c0,-1 1,0 1,1 6,5 21,3 30,3 9,0 25,1 32,-4z"/>
   <path class="fil16" d="M673 1333c-5,0 -5,2 -8,3 -9,3 -81,2 -86,2l0 -148c18,-1 39,0 57,0 42,0 24,9 44,13 -5,-16 -25,-17 -44,-17 -13,0 -49,-2 -60,1 -2,16 0,60 0,78 0,15 -4,68 2,76 5,3 80,1 88,-1 9,-2 7,-6 7,-7z"/>
   <path class="fil15" d="M540 1310c-6,4 -10,9 -16,13 -24,19 -31,15 -62,15l-32 -2c-2,-5 -3,-138 0,-146 8,-1 62,-3 77,4 5,3 15,8 19,8 -4,-9 -4,-5 -13,-10 -7,-4 -10,-5 -19,-5 -14,-1 -57,-5 -68,2 -1,3 -3,145 2,150 4,4 73,11 97,-11l15 -18z"/>
   <path class="fil17" d="M506 1319c-13,2 -10,6 -29,6 -10,0 -24,0 -33,-1 -1,-4 -3,-108 -1,-115 1,-4 0,-2 2,-4 2,-2 47,-10 72,13 5,4 5,3 5,8 5,1 4,1 8,9 5,12 11,19 6,45 -2,7 -8,18 -11,22 -7,9 -14,10 -19,18 8,1 7,0 12,-5l20 -22c0,-1 1,-1 1,-1l0 -53c-11,-10 1,-6 -15,-21 -1,0 -1,-1 -1,-1 -14,-13 -6,-5 -17,-10 -6,-4 0,-1 -4,-4 -9,-5 -26,-3 -36,-2 -31,1 -13,-5 -28,-3 -1,1 2,25 2,32l1 71c1,16 -4,20 3,31 7,-1 0,-4 13,-4 12,0 25,1 37,-1 10,-1 10,-4 12,-8z"/>
   <path class="fil7" d="M902 1332l-2 0c10,3 3,2 12,6 2,1 11,4 14,4 9,2 23,-1 28,-4 1,-5 -3,-4 1,-4 1,0 1,-1 2,-1 0,0 1,0 1,-1 0,0 1,0 1,-1l4 -6c-12,4 -6,2 -11,6 -9,5 -21,5 -30,1l-12 -5c-2,-8 -4,-9 -6,-15 -6,-13 5,-15 5,-15 2,-6 11,-13 17,-13l8 -3c8,-2 17,1 27,0l-7 -4c-11,-5 -18,-1 -28,-2 -8,0 -19,4 -25,11 -3,3 -2,3 -4,8 -6,21 -3,20 5,38z"/>
   <path class="fil5" d="M954 1338c-5,3 -19,6 -28,4 -3,0 -12,-3 -14,-4 -9,-4 -2,-3 -12,-6 1,3 1,4 2,7 7,3 26,14 44,9 10,-3 15,-12 23,-5 4,3 -2,0 4,3 4,2 8,2 12,1l8 -11c0,-19 0,-38 0,-57 0,-26 -1,-14 -4,-23 -1,-5 0,-8 -2,-12 -4,-7 -3,2 -7,-9l-6 -1 3 6c5,6 8,7 9,16 1,10 1,22 0,32 0,43 6,54 -11,52 -1,-1 -3,-4 -3,-5 -4,-4 0,-1 -6,-4 -2,3 -8,6 -12,7z"/>
   <path class="fil11" d="M902 1332c-8,-18 -11,-17 -5,-38 2,-5 1,-5 4,-8 6,-7 17,-11 25,-11 2,-2 0,-2 4,-3 13,-4 34,4 42,3 1,-9 1,-17 -5,-24 -6,-6 0,-2 -8,-4 7,16 9,8 10,22 -26,0 -62,-7 -75,20 -5,11 -9,21 -2,33l3 5c4,7 -3,4 7,5z"/>
   <path class="fil11" d="M909 1297c-2,22 0,26 18,33 11,4 23,-1 31,-6 4,-2 4,-3 6,-7l-6 1c-6,9 -21,9 -31,7 -19,-4 -18,-24 -10,-31 2,-1 4,-2 5,-3 7,-5 3,-5 15,-5 46,-1 31,19 29,28l6 -2c1,-7 3,-22 -3,-26 -4,-4 -35,-2 -43,-2 -6,0 -15,7 -17,13z"/>
   <path class="fil5" d="M920 1244c-6,2 -9,4 -14,4l-2 -14c7,-5 38,-9 45,-8 7,1 6,3 16,4 -6,-15 -27,-7 -53,-9 -1,2 0,1 -1,3 -2,2 -2,1 -3,2 -2,2 -2,1 -4,3 -8,5 -4,16 -1,24l15 -2 2 -7z"/>
  </g>
 </g>
</svg>
