<?xml version="1.0" encoding="UTF-8"?>
<!DOCTYPE svg PUBLIC "-//W3C//DTD SVG 1.1//EN" "http://www.w3.org/Graphics/SVG/1.1/DTD/svg11.dtd">
<!-- Creator: CorelDRAW Home & Student X7 -->
<svg xmlns="http://www.w3.org/2000/svg" xml:space="preserve" width="30mm" height="30mm" version="1.1" style="shape-rendering:geometricPrecision; text-rendering:geometricPrecision; image-rendering:optimizeQuality; fill-rule:evenodd; clip-rule:evenodd"
viewBox="0 0 643 643"
 xmlns:xlink="http://www.w3.org/1999/xlink">
 <defs>
  <style type="text/css">
   <![CDATA[
    .str0 {stroke:#373435;stroke-width:1.63303}
    .fil0 {fill:none}
    .fil15 {fill:none;fill-rule:nonzero}
    .fil1 {fill:#1B7B6C}
    .fil13 {fill:#393939}
    .fil5 {fill:#47857B}
    .fil3 {fill:#67A49A}
    .fil8 {fill:#74162D}
    .fil4 {fill:#A5CBC7}
    .fil12 {fill:#AB536B}
    .fil6 {fill:#B11A45}
    .fil11 {fill:#C8768C}
    .fil2 {fill:#CAF2EC}
    .fil10 {fill:#D1D1D1}
    .fil9 {fill:#D596A7}
    .fil7 {fill:#FCDAE5}
    .fil14 {fill:#373435;fill-rule:nonzero}
   ]]>
  </style>
 </defs>
 <g id="Camada_x0020_1">
  <metadata id="CorelCorpID_0Corel-Layer"/>
  <g id="_646402680">
   <rect class="fil0" width="643" height="643" rx="27" ry="37"/>
   <g>
    <path class="fil1" d="M264 253c-4,1 -13,-1 -16,-2 -14,-2 -3,-2 -14,-4 -3,0 -14,0 -17,0 -3,1 -4,1 -5,4 0,2 -2,4 -2,6 1,2 1,1 2,4 0,2 0,4 1,5l1 1c1,1 1,2 1,4 3,0 4,-1 5,1 1,4 0,1 3,3 1,1 2,2 4,2 5,2 1,0 8,4l2 1c1,0 1,0 2,0 4,1 2,0 5,2 1,1 3,1 5,0 0,-1 0,-1 2,-2 3,-1 23,-2 27,-2 10,0 20,-1 30,-3l15 -1c2,0 4,-1 7,-1 2,-1 5,-1 7,-1 4,-1 3,-2 6,-3 6,0 10,0 16,-1 0,0 2,0 3,0 1,-1 1,-1 3,-1 1,0 0,0 1,0 0,0 1,0 1,0 1,0 1,0 2,0 0,0 0,0 0,0l3 -2c4,-2 6,-1 8,-2 2,-1 1,-1 4,-1 0,-1 -1,0 1,-1 2,0 0,0 1,0l3 -1c1,-3 3,-1 6,-2 2,-1 2,-1 3,-2 1,-1 1,0 2,-1 1,-3 1,-3 2,-5 7,0 8,0 14,-4 0,-1 0,-2 0,-3 0,-1 0,-2 -1,-2 0,-1 1,-1 -1,-2 0,0 -1,0 -1,0 -2,0 -2,0 -3,1 -2,0 -3,0 -5,0 -1,2 0,1 -2,2l-9 3c0,0 0,0 -1,0 -6,1 -3,0 -7,3 -4,2 -16,3 -19,4 -2,0 0,0 -2,0 0,1 0,1 -1,1 -6,2 -8,0 -14,3l-3 -1c0,-1 -37,0 -43,0 -7,-1 -15,-1 -22,-1 -3,0 -8,1 -11,0 0,0 0,-1 -1,-1 -2,0 -5,-1 -6,-2z"/>
    <path class="fil1" d="M327 402c1,2 4,7 0,6 -2,0 -1,-1 0,-4l0 -2zm13 -18c-1,3 -4,2 -5,1 1,-1 3,-2 5,-1zm-19 -63c1,0 1,0 2,0 2,1 1,1 1,1 2,-1 2,0 2,0 1,1 1,0 2,2 1,1 2,1 2,2 0,1 0,0 1,1 1,1 0,1 0,2 1,0 1,-1 1,1 0,4 2,5 2,13 0,5 0,10 0,15 0,4 -1,1 -1,7l-2 13c-1,2 -2,4 -2,6 0,2 0,2 0,4 0,0 0,1 0,1 0,1 0,0 0,0 1,10 -2,4 -2,9 -1,4 0,6 -2,9 1,0 1,1 3,2 1,-1 1,-1 2,-1 0,-2 0,-4 1,-5 1,-1 3,2 3,-7 1,0 3,-1 4,-2 1,0 1,0 1,0l0 -5c4,-3 2,-3 5,-4 0,-1 1,-4 1,-6 1,-2 1,-1 2,-2 1,-2 1,-6 2,-9 0,-2 1,-2 3,-3 2,-5 1,-9 3,-11 -1,-4 2,-18 1,-28 0,-3 0,-3 -1,-5 -1,-2 -1,-4 -2,-6 0,-2 -2,-2 -3,-4 -5,-4 1,-3 -5,-5 -2,0 -1,0 -2,-1 0,-1 -1,-2 -1,-3 -1,-2 -1,0 -3,-3 -1,-2 -4,-4 -6,-4 -3,0 -4,1 -6,1l0 -3c-4,-1 -6,-1 -10,-1 -8,0 -7,0 -9,2l-7 1c-2,3 1,1 -4,4 -1,0 -2,1 -3,1 -1,2 0,2 -1,4 -1,2 -5,4 -6,7 -1,6 -1,1 -2,6 0,2 0,2 -1,3 -2,2 -2,3 -2,7 -1,7 0,12 0,17 5,2 4,2 5,6 1,4 0,1 3,4l1 1c4,2 6,1 11,1l3 -4c1,-2 -3,-10 -2,-16 1,-4 3,-10 5,-13 2,-1 2,-1 4,-1 3,-1 2,-1 4,-2 0,-1 3,-1 4,1 0,0 1,0 1,0 0,0 0,0 0,0 0,0 0,0 0,0z"/>
    <path class="fil2" d="M430 240c0,2 -1,2 -2,4 -4,5 -3,5 -11,9 -7,4 -7,2 -10,3 -2,1 -2,2 -3,4l-9 4c-2,0 -4,0 -6,1 -3,1 -8,4 -9,4 -2,1 -3,1 -5,1 -2,1 -3,2 -5,2 -2,1 -12,1 -14,1l-5 0c-2,2 -5,3 -8,3 0,1 2,0 -4,1l-9 2c-2,1 -1,1 -4,1 -8,0 -13,1 -20,2 -4,0 -15,2 -20,2 -3,0 -7,0 -10,0 -4,1 -6,2 -10,3l-20 1c-2,0 -7,-1 -9,-1 -3,-1 -6,-2 -8,-4l-10 -6c-2,-1 -1,-1 -3,-3 -1,-2 -6,-1 -8,-8 0,-1 0,-2 0,-2 -1,-2 -1,-2 -2,-2 1,-2 1,-1 0,-1 1,-3 0,-1 -1,-1 1,-2 1,-6 0,-8l1 0c2,-2 1,-2 1,-3 1,0 1,0 1,-1 0,0 0,0 0,0 0,0 0,0 0,0 0,0 1,-1 1,-1 2,-3 2,-3 3,-4 3,0 3,-2 8,-2 3,0 9,0 10,1 7,3 4,-1 18,4 3,1 8,1 10,2 3,2 3,1 9,2 3,0 7,0 10,0 8,1 1,1 10,2l5 0c7,1 46,0 54,0 2,-1 3,-1 5,-1 4,0 6,0 10,-1 2,-1 7,-2 10,-1 1,-1 2,0 3,-1l9 -3c6,-2 5,-1 8,-2 2,0 2,-1 3,-1 1,-1 4,-2 5,-2 3,-1 3,-1 6,-2 7,-1 9,-3 12,-3 1,0 0,0 1,0 10,-6 16,1 13,4 0,1 0,0 -1,1zm-218 3c-2,0 -2,0 -3,1 -1,2 -2,2 -1,4 -1,0 -1,0 -1,1 -1,0 -1,-1 -2,1 0,1 0,1 0,2 0,1 0,1 0,4 0,0 0,2 0,2 0,2 0,1 0,2 -1,3 0,1 1,1 -1,2 -1,1 0,1 0,1 1,4 1,6 1,3 5,5 6,6 0,1 1,2 1,2 1,2 -1,1 3,3 4,3 5,2 6,3l5 3c1,2 3,1 5,3 1,0 1,1 5,2l29 -1c3,-1 4,-1 6,-2 5,-1 10,-1 14,-1 3,-1 1,-2 6,-2l19 0c5,0 0,-2 9,-3 4,0 11,1 14,-1 2,-1 1,-1 5,-1 2,0 6,0 8,-1 1,0 0,0 3,0 3,-1 2,-1 6,-2 5,-2 3,-2 9,-1 5,0 3,-1 6,-2l6 -1c11,-2 5,-3 11,-5 8,-1 3,0 6,-1 1,0 4,0 5,0 0,0 1,-2 1,-2l1 -2c1,-1 3,-1 5,-2 1,-1 2,-3 4,-3 4,-2 2,1 11,-4 1,-1 3,-2 4,-3 1,-1 0,-1 1,-2 1,-1 1,-1 2,-2 2,-3 3,-2 4,-4 0,-1 -1,-1 0,-3 1,-3 2,0 0,-4 -1,-2 0,-2 -1,-3 -1,-1 -1,0 -1,-1l-3 -4c-4,1 -1,0 -5,2 0,0 1,0 0,0 -6,2 -2,1 -6,3l-4 2c0,0 -2,1 -2,1 -3,0 -3,1 -5,1l-11 1c-3,1 -2,2 -5,3 -9,2 -3,2 -8,3 -4,1 -7,3 -10,2 -1,0 -4,0 -5,0 -2,0 -1,1 -4,2 -5,2 -18,2 -23,1 -8,-1 -4,1 -8,2 0,0 -2,0 -3,0 -6,0 2,1 -10,1 -7,0 -20,1 -26,-1 -1,0 -2,0 -3,0 -2,-1 -4,-1 -6,-1 -3,0 -3,0 -5,-1 -2,0 -5,0 -6,0 -5,0 -8,0 -13,0 -1,-2 1,-3 -4,-3 -6,0 -6,-2 -12,-2 -3,-1 -4,-1 -6,-2 -7,0 -2,-1 -6,-1 -3,0 -6,0 -8,0 -3,0 -5,0 -7,0 -1,0 -3,0 -4,1 -2,2 -1,0 -1,2z"/>
    <path class="fil3" d="M417 235c0,0 0,0 0,0l-5 3c-6,2 -5,0 -12,3l-11 4c-6,2 -13,6 -18,4 0,1 0,0 -1,1 -1,1 -3,0 -5,0 -2,0 -3,1 -5,1 -9,2 -7,1 -12,2 -4,0 -8,1 -12,1 -22,1 -45,0 -65,-2l-23 -4c-5,-1 -7,-2 -11,-2 -4,-1 -4,-1 -8,-2 0,0 0,0 -1,0 -6,-1 -14,-2 -18,4 -3,6 -3,9 -1,17 1,3 3,7 7,7 0,0 0,0 -1,0 -4,-4 -7,-11 -6,-18 1,-2 3,-7 5,-8 6,-3 13,-1 21,0 6,1 5,1 9,3 3,2 14,2 19,3 0,1 0,1 1,1 3,-1 7,1 10,2 2,0 4,-1 6,0 1,0 3,0 5,0 17,1 56,1 69,0 3,-1 6,-2 10,-2 2,0 4,0 6,-1 3,-1 12,-2 14,-3 4,-3 4,-2 9,-3l13 -5c2,-1 5,-1 9,-3 3,-2 2,0 4,-1 2,-1 5,-2 8,-2 4,2 0,5 -1,7 -4,4 -2,3 -4,4l-4 3c-5,2 -1,2 -7,3 -12,4 -6,3 -10,6 -4,3 -6,2 -9,3 -2,1 -1,1 -3,1 0,1 0,1 -1,1 -1,1 -1,0 -2,0 0,0 1,1 -1,1 -1,0 -1,0 -1,0 -3,0 -2,0 -4,1 -2,1 -4,0 -8,2l-3 2c0,0 0,0 0,0 -1,1 -2,0 -4,0l-9 2c-19,2 -11,2 -19,4 -8,1 -16,1 -20,2 -4,1 -7,2 -10,2 -2,0 -4,0 -5,0l-15 2c-3,1 -7,1 -10,1 -9,0 -23,3 -30,3 -11,0 -8,-1 -18,-5 -12,-5 -8,-8 -13,-8 0,0 0,0 0,0l2 2c2,3 5,5 8,7 3,1 11,5 14,5 6,1 12,0 18,0 2,0 6,-1 8,-1 3,-1 5,-1 8,-2 6,0 12,0 18,-1 9,-2 14,-1 26,-3 3,-1 6,-1 9,-1 3,0 14,-3 16,-2l1 -1c0,0 0,0 0,0 0,0 0,0 1,0 2,-2 3,-2 6,-2l5 0c1,-1 1,-1 4,-1 10,-1 9,-1 19,-4 3,-1 4,-3 9,-4 18,-5 14,-7 18,-9 4,-1 6,-1 10,-3 1,-2 2,-1 4,-3 5,-3 6,-6 9,-9l1 0c0,-1 1,-5 -4,-6 -2,0 -3,0 -4,1 -2,0 -3,1 -5,0z"/>
    <path class="fil2" d="M338 404c2,0 1,0 3,0 1,-2 0,-3 0,-5 4,-3 1,-2 5,-6 2,-2 2,-2 3,-7 1,-4 2,-3 4,-6 2,-2 2,-6 2,-10l-1 2c0,0 0,0 0,1 -2,7 -4,5 -5,9 -1,2 -1,3 -2,4 0,1 0,3 -1,4 -1,2 -2,1 -3,3 -2,4 -3,4 -3,9 -2,1 -2,1 -2,2 -3,0 -2,2 -7,5 -6,5 -10,3 -11,-2 0,-3 1,-3 2,-4 2,-4 1,-8 2,-11 1,-1 0,0 1,-2l1 -8c0,-2 1,-3 2,-5 0,-1 0,-3 0,-5 1,-5 2,-7 3,-11 0,-3 0,-21 -1,-24 0,-2 -2,-8 -3,-9 -2,-3 -3,-4 -9,-4 -3,0 -7,1 -9,4 -1,3 -2,5 -2,10 0,4 1,8 1,12 0,4 -1,8 -3,10 -3,1 -7,2 -11,2 -5,-1 -8,-5 -10,-8 -3,-5 -4,-5 -5,-12l-1 -3c-2,-4 0,-14 1,-19 1,-9 5,-12 9,-19 7,-9 5,-5 11,-8 3,-2 10,-5 14,-5 10,0 14,0 22,3 5,3 5,2 7,5 2,2 5,4 6,7 3,4 8,7 9,13 0,0 0,0 0,1l1 1c-1,4 2,2 2,13 0,5 0,10 -1,15 0,2 -1,3 -1,5 -1,5 0,5 -2,13 -1,2 -2,4 -2,6 2,-1 3,-2 3,-4 1,-3 1,-5 1,-7 1,-10 1,2 3,-13 0,-4 1,-24 -2,-27 -1,-2 0,-1 -1,-1 1,-2 0,-4 0,-6 -1,-3 -2,-1 -3,-4 -2,-4 -2,0 -5,-8 -2,-3 -4,-3 -5,-5l-1 -1c-1,-3 -2,-2 -5,-3 -3,-1 -3,-2 -4,-2 -5,-3 -17,-1 -19,-2l-1 -1c-4,-1 -7,1 -9,1l-9 5c-4,2 -4,-1 -6,3 -1,1 0,0 -1,1l-9 13c-1,1 -3,5 -3,7 0,2 0,2 -1,5l-1 14c0,3 0,3 1,4 1,3 0,7 1,9 1,2 1,2 2,4 1,3 1,1 3,3 0,4 1,3 3,5 4,2 1,3 15,3 4,0 5,-1 6,-3 2,-5 4,-2 3,-14 0,-4 -1,-14 1,-16 1,-1 0,0 1,-1 3,-1 1,-2 4,-3 2,0 6,0 8,0l0 4 3 -1c0,3 0,5 1,7 2,4 2,3 2,7 0,6 0,11 0,17 -3,3 -2,8 -3,13 0,3 -2,4 -2,6 0,1 0,3 0,4 -1,3 -2,-1 -3,6 0,1 0,1 -1,2 -3,4 1,3 0,7 0,3 -2,3 -2,5 -1,2 0,1 0,3 0,2 0,3 0,5 2,1 2,1 6,2 2,0 5,0 6,-2l6 -6c1,-1 1,0 1,-1z"/>
    <path class="fil4" d="M417 235c-3,0 -5,2 -12,3 -3,1 -3,1 -6,2 -1,0 -4,1 -5,2 -1,0 -1,1 -3,1 -3,1 -2,0 -8,2l-9 3c-1,1 -2,0 -3,1 -3,-1 -8,0 -10,1 -4,1 -6,1 -10,1 -2,0 -3,0 -5,1 -8,0 -47,1 -54,0l-5 0c-9,-1 -2,-1 -10,-2 -3,0 -7,0 -10,0 -6,-1 -6,0 -9,-2 -2,-1 -7,-1 -10,-2 -14,-5 -11,-1 -18,-4 -1,-1 -7,-1 -10,-1 -5,0 -5,2 -8,2 -1,1 -1,1 -3,4 0,0 -1,1 -1,1 0,0 0,0 0,0 0,0 0,0 0,0 0,1 0,1 -1,1 0,1 1,1 -1,3l-1 0c1,2 1,6 0,8 1,0 2,-2 1,1 1,0 1,-1 0,1 1,0 1,0 2,2 0,0 0,1 0,2 2,7 7,6 8,8 2,2 1,2 3,3l10 6c2,2 5,3 8,4 2,0 7,1 9,1l20 -1c4,-1 6,-2 10,-3 3,0 7,0 10,0 5,0 16,-2 20,-2 7,-1 12,-2 20,-2 3,0 2,0 4,-1l9 -2c6,-1 4,0 4,-1 3,0 6,-1 8,-3 -3,0 -4,0 -6,2 -1,0 -1,0 -1,0 0,0 0,0 0,0l-1 1c-2,-1 -13,2 -16,2 -3,0 -6,0 -9,1 -12,2 -17,1 -26,3 -6,1 -12,1 -18,1 -3,1 -5,1 -8,2 -2,0 -6,1 -8,1 -6,0 -12,1 -18,0 -3,0 -11,-4 -14,-5 -3,-2 -6,-4 -8,-7l-2 -2c0,0 0,0 0,0l0 0c-4,0 -6,-4 -7,-7 -2,-8 -2,-11 1,-17 4,-6 12,-5 18,-4 1,0 1,0 1,0 4,1 4,1 8,2 4,0 6,1 11,2l23 4c20,2 43,3 65,2 4,0 8,-1 12,-1 5,-1 3,0 12,-2 2,0 3,-1 5,-1 2,0 4,1 5,0 1,-1 1,0 1,-1 5,2 12,-2 18,-4l11 -4c7,-3 6,-1 12,-3l5 -3c0,0 0,0 0,0 2,1 3,0 5,0 1,-1 2,-1 4,-1 5,1 4,5 4,6l-1 0c-3,3 -4,6 -9,9 -2,2 -3,1 -4,3 -4,2 -6,2 -10,3 -4,2 0,4 -18,9 -5,1 -6,3 -9,4 -10,3 -9,3 -19,4 -3,0 -3,0 -4,1 2,0 12,0 14,-1 2,0 3,-1 5,-2 2,0 3,0 5,-1 1,0 6,-3 9,-4 2,-1 4,-1 6,-1l9 -4c1,-2 1,-3 3,-4 3,-1 3,1 10,-3 8,-4 7,-4 11,-9 1,-2 2,-2 2,-4 1,-1 1,0 1,-1 3,-3 -3,-10 -13,-4 -1,0 0,0 -1,0z"/>
    <path class="fil5" d="M424 240c-1,-2 -1,-1 -1,-3 2,-1 1,-1 4,0 -1,1 -1,2 -3,3zm-160 13c-1,0 -1,0 -1,-1 -5,-1 -16,-1 -19,-3 -4,-2 -3,-2 -9,-3 -8,-1 -15,-3 -21,0 -2,1 -4,6 -5,8 -1,7 2,14 6,18 1,0 1,0 1,0l0 0c5,0 1,3 13,8 10,4 7,5 18,5 7,0 21,-3 30,-3 3,0 7,0 10,-1l15 -2c1,0 3,0 5,0 3,0 6,-1 10,-2 4,-1 12,-1 20,-2 8,-2 0,-2 19,-4l9 -2c2,0 3,1 4,0 -1,0 -1,0 -2,0 0,0 -1,0 -1,0 -1,0 0,0 -1,0 -2,0 -2,0 -3,1 -1,0 -3,0 -3,0 -6,1 -10,1 -16,1 -3,1 -2,2 -6,3 -2,0 -5,0 -7,1 -3,0 -5,1 -7,1l-15 1c-10,2 -20,3 -30,3 -4,0 -24,1 -27,2 -2,1 -2,1 -2,2 -2,1 -4,1 -5,0 -3,-2 -1,-1 -5,-2 -1,0 -1,0 -2,0l-2 -1c-7,-4 -3,-2 -8,-4 -2,0 -3,-1 -4,-2 -3,-2 -2,1 -3,-3 -1,-2 -2,-1 -5,-1 0,-2 0,-3 -1,-4l-1 -1c-1,-1 -1,-3 -1,-5 -1,-3 -1,-2 -2,-4 0,-2 2,-4 2,-6 1,-3 2,-3 5,-4 3,0 14,0 17,0 11,2 0,2 14,4 3,1 12,3 16,2 1,1 4,2 6,2 1,0 1,1 1,1 3,1 8,0 11,0 7,0 15,0 22,1 6,0 43,-1 43,0l3 1c6,-3 8,-1 14,-3 1,0 1,0 1,-1 2,0 0,0 2,0 3,-1 15,-2 19,-4 4,-3 1,-2 7,-3 1,0 1,0 1,0l9 -3c2,-1 1,0 2,-2 2,0 3,0 5,0 1,-1 1,-1 3,-1 0,0 1,0 1,0 2,1 1,1 1,2 1,0 1,1 1,2 0,1 0,2 0,3 -6,4 -7,4 -14,4 -1,2 -1,2 -2,5 -1,1 -1,0 -2,1 -1,1 -1,1 -3,2 -3,1 -5,-1 -6,2l-3 1c-1,0 1,0 -1,0 -2,1 -1,0 -1,1 0,0 0,0 1,0 2,0 1,-1 1,-1 1,0 1,1 2,0 1,0 1,0 1,-1 2,0 1,0 3,-1 3,-1 5,0 9,-3 4,-3 -2,-2 10,-6 6,-1 2,-1 7,-3l4 -3c2,-1 0,0 4,-4 1,-2 5,-5 1,-7 -3,0 -6,1 -8,2 -2,1 -1,-1 -4,1 -4,2 -7,2 -9,3l-13 5c-5,1 -5,0 -9,3 -2,1 -11,2 -14,3 -2,1 -4,1 -6,1 -4,0 -7,1 -10,2 -13,1 -52,1 -69,0 -2,0 -4,0 -5,0 -2,-1 -4,0 -6,0 -3,-1 -7,-3 -10,-2z"/>
    <path class="fil6" d="M315 204c0,1 1,1 -1,1 -2,0 0,0 -1,0 0,0 0,0 -1,1 0,0 -1,0 -2,0 -1,1 -2,1 -2,2 -2,2 -3,4 -4,5 1,3 0,1 -1,2l1 0c0,2 -1,4 -1,5 0,1 0,5 1,6 0,-5 -1,-10 1,-13 1,-1 2,-2 2,-4l3 -2c5,-3 5,-1 14,-1 2,0 2,0 4,0 0,0 0,-1 1,0 1,0 1,0 1,0 0,0 0,0 0,0l0 3c0,1 0,1 0,2 1,2 1,3 2,5 1,3 2,7 1,10 -1,2 -1,0 -2,4 0,3 0,2 -2,4 -1,1 -2,1 -3,2 -2,1 0,1 -2,1 -1,0 -1,0 -2,-1 -3,2 -2,2 -6,1l-1 -1c0,0 0,0 0,-1 0,0 -1,0 -1,0 0,-1 0,0 0,-1 2,-1 7,0 9,-1 2,-1 5,-2 6,-3 1,-2 0,-2 1,-4 1,-1 3,-2 2,-7 0,-2 -1,-2 -2,-3 -3,-3 0,-6 -4,-8 -2,-1 -7,0 -10,0 -6,1 -2,2 -8,6 0,1 0,3 0,4 -1,2 -1,1 -1,3 0,2 0,7 0,9 2,0 3,1 4,2 0,0 0,0 0,0 1,1 1,1 1,2 -3,1 -1,0 -5,-2l-1 0c-1,-1 0,0 -2,-1 1,2 1,1 2,2 4,3 1,1 6,3 1,1 2,1 4,1 1,1 7,0 9,0l0 1c1,-1 -1,-2 1,-1 1,0 0,0 1,-1 1,0 1,0 2,0 0,0 0,-1 0,0l2 -3c1,-1 2,-1 2,-3 0,-2 1,-2 1,-4 3,-5 1,-4 -1,-11 -1,-3 -3,-5 -1,-9 -1,1 -1,1 -1,0 -1,0 -1,0 0,-1 -1,1 -1,1 -1,0 -3,0 -1,0 -1,-1 -1,1 -1,1 -2,0l-2 -1c-1,0 -3,0 -5,1 -2,0 -2,1 -5,0z"/>
    <path class="fil4" d="M348 305c1,1 -1,0 1,1l1 2c1,1 2,1 3,2 4,5 6,16 6,22 0,11 -1,9 -2,17 0,3 0,6 -1,9 0,2 -1,4 -2,7 -1,4 -4,11 -7,17 0,1 0,2 -1,3 0,1 -1,2 -1,3 -1,2 -2,1 -2,3 -2,3 -1,2 -4,6 -3,5 -1,4 -3,6 -2,2 -3,4 -5,5 -2,2 -3,2 -7,2 -2,-3 -2,-3 0,-7l5 -27c3,-12 4,-29 2,-41 -1,-3 -1,-5 -3,-8 -2,-4 -5,-4 -7,-4 -5,0 -5,0 -9,1 -12,6 -2,26 -6,32l-2 2c-5,4 -13,3 -18,-4 0,0 0,0 0,0 -8,-11 -4,-8 -7,-15 0,0 0,0 0,0 -1,-3 0,-13 0,-15l2 -9c2,-4 9,-13 11,-16l1 -1c1,-1 1,-1 2,-2 4,-1 8,-4 12,-5l2 -1c4,-1 7,0 12,0 7,0 9,1 13,3 5,2 5,1 9,6 3,3 5,5 5,6zm-10 99c0,-1 0,-1 2,-2 0,-5 1,-5 3,-9 1,-2 2,-1 3,-3 1,-1 1,-3 1,-4 1,-1 1,-2 2,-4 1,-4 3,-2 5,-9 0,-1 0,-1 0,-1l1 -2 -1 0c0,-2 1,-4 2,-6 2,-8 1,-8 2,-13 0,-2 1,-3 1,-5 1,-5 1,-10 1,-15 0,-11 -3,-9 -2,-13l-1 -1c0,-1 0,-1 0,-1 -1,-6 -6,-9 -9,-13 -1,-3 -4,-5 -6,-7 -2,-3 -2,-2 -7,-5 -8,-3 -12,-3 -22,-3 -4,0 -11,3 -14,5 -6,3 -4,-1 -11,8 -4,7 -8,10 -9,19 -1,5 -3,15 -1,19l1 3c1,7 2,7 5,12 2,3 5,7 10,8 4,0 8,-1 11,-2 2,-2 3,-6 3,-10 0,-4 -1,-8 -1,-12 0,-5 1,-7 2,-10 2,-3 6,-4 9,-4 6,0 7,1 9,4 1,1 3,7 3,9 1,3 1,21 1,24 -1,4 -2,6 -3,11 0,2 0,4 0,5 -1,2 -2,3 -2,5l-1 8c-1,2 0,1 -1,2 -1,3 0,7 -2,11 -1,1 -2,1 -2,4 1,5 5,7 11,2 5,-3 4,-5 7,-5z"/>
    <path class="fil3" d="M348 305c0,5 3,3 6,9 3,7 5,20 3,27 0,1 -1,5 -1,7 0,1 0,5 -1,6 1,3 -1,6 -1,9 -1,6 -3,4 -4,7 0,2 -1,3 -1,4l-3 8c0,1 0,2 -2,3 0,3 -2,4 -3,7 -2,5 -2,4 -4,6 -2,2 0,2 -4,6 -3,3 -2,5 -5,5 -1,0 -2,0 -3,0 0,0 -1,-1 -1,-1 0,-2 1,-3 1,-5 1,-2 1,-6 2,-10 0,0 0,-1 0,-2 1,0 1,0 1,-1 0,-1 0,0 1,-1 -1,-1 -1,-3 0,-5 0,-2 1,-4 2,-6l2 -13c0,-6 1,-3 1,-7 0,-5 0,-10 0,-15 0,-8 -2,-9 -2,-13 -1,0 -1,1 -1,-1 0,0 0,0 0,-1 -2,-1 1,2 -1,0 -1,-1 0,0 0,-2 -1,0 -1,0 -1,0 -1,-1 -3,-2 -3,-4 -3,0 -1,0 -2,0 -1,0 -1,0 -2,0 0,0 0,0 0,0 0,-1 -1,-1 -1,-1 -2,1 -4,0 -6,1 -2,1 -4,1 -5,2 -5,3 -5,12 -5,16 0,3 1,12 1,14 -1,1 -2,3 -4,4 -3,1 -10,0 -12,-2 -3,-3 -3,-4 -6,-8 -1,-2 -2,-1 -2,-5 -2,-12 -3,-12 0,-25 1,-5 5,-10 8,-14 3,-3 3,-5 7,-7 2,-1 2,-2 4,-3 7,-3 19,-4 26,-2 2,0 2,1 4,2 5,1 4,-1 10,4 1,2 2,3 3,4 1,1 1,1 2,2 0,0 1,1 1,1 0,0 0,1 0,0 0,0 1,0 1,0zm0 0c0,-1 -2,-3 -5,-6 -4,-5 -4,-4 -9,-6 -4,-2 -6,-3 -13,-3 -5,0 -8,-1 -12,0l-2 1c-4,1 -8,4 -12,5 -1,1 -1,1 -2,2l-1 1c-2,3 -9,12 -11,16l-2 9c0,2 -1,12 0,15 0,0 0,0 0,0 3,7 -1,4 7,15 0,0 0,0 0,0 5,7 13,8 18,4l2 -2c4,-6 -6,-26 6,-32 4,-1 4,-1 9,-1 2,0 5,0 7,4 2,3 2,5 3,8 2,12 1,29 -2,41l-5 27c-2,4 -2,4 0,7 4,0 5,0 7,-2 2,-1 3,-3 5,-5 2,-2 0,-1 3,-6 3,-4 2,-3 4,-6 0,-2 1,-1 2,-3 0,-1 1,-2 1,-3 1,-1 1,-2 1,-3 3,-6 6,-13 7,-17 1,-3 2,-5 2,-7 1,-3 1,-6 1,-9 1,-8 2,-6 2,-17 0,-6 -2,-17 -6,-22 -1,-1 -2,-1 -3,-2l-1 -2c-2,-1 0,0 -1,-1z"/>
    <path class="fil5" d="M321 321c0,0 1,0 1,1 0,0 0,0 0,0 1,0 1,0 2,0 1,0 -1,0 2,0 0,2 2,3 3,4 0,0 0,0 1,0 0,2 -1,1 0,2 2,2 -1,-1 1,0 0,1 0,1 0,1 0,2 0,1 1,1 0,-2 0,-1 -1,-1 0,-1 1,-1 0,-2 -1,-1 -1,0 -1,-1 0,-1 -1,-1 -2,-2 -1,-2 -1,-1 -2,-2 0,0 0,-1 -2,0 0,0 1,0 -1,-1 -1,0 -1,0 -2,0 0,0 0,0 0,0 0,0 0,0 0,0 0,0 -1,0 -1,0 -1,-2 -4,-2 -4,-1 -2,1 -1,1 -4,2 -2,0 -2,0 -4,1 -2,3 -4,9 -5,13 -1,6 3,14 2,16l-3 4c-5,0 -7,1 -11,-1l-1 -1c-3,-3 -2,0 -3,-4 -1,-4 0,-4 -5,-6 0,-5 -1,-10 0,-17 0,-4 0,-5 2,-7 1,-1 1,-1 1,-3 1,-5 1,0 2,-6 1,-3 5,-5 6,-7 1,-2 0,-2 1,-4 1,0 2,-1 3,-1 5,-3 2,-1 4,-4l7 -1c2,-2 1,-2 9,-2 4,0 6,0 10,1l0 3c2,0 3,-1 6,-1 2,0 5,2 6,4 2,3 2,1 3,3 0,1 1,2 1,3 1,1 0,1 2,1 6,2 0,1 5,5 1,2 3,2 3,4 1,2 1,4 2,6 1,2 1,2 1,5 1,10 -2,24 -1,28 -2,2 -1,6 -3,11 -2,1 -3,1 -3,3 -1,3 -1,7 -2,9 -1,1 -1,0 -2,2 0,2 -1,5 -1,6 -3,1 -1,1 -5,4l0 5c0,0 0,0 -1,0 -1,1 -3,2 -4,2 0,9 -2,6 -3,7 -1,1 -1,3 -1,5 -1,0 -1,0 -2,1 -2,-1 -2,-2 -3,-2 2,-3 1,-5 2,-9 0,-5 3,1 2,-9 0,0 0,1 0,0 0,0 0,-1 0,-1 0,-2 0,-2 0,-4 -1,2 -1,4 0,5 -1,1 -1,0 -1,1 0,1 0,1 -1,1 0,1 0,2 0,2 -1,4 -1,8 -2,10 0,2 -1,3 -1,5 0,0 1,1 1,1 1,0 2,0 3,0 3,0 2,-2 5,-5 4,-4 2,-4 4,-6 2,-2 2,-1 4,-6 1,-3 3,-4 3,-7 2,-1 2,-2 2,-3l3 -8c0,-1 1,-2 1,-4 1,-3 3,-1 4,-7 0,-3 2,-6 1,-9 1,-1 1,-5 1,-6 0,-2 1,-6 1,-7 2,-7 0,-20 -3,-27 -3,-6 -6,-4 -6,-9 0,0 -1,0 -1,0 0,1 0,0 0,0 0,0 -1,-1 -1,-1 -1,-1 -1,-1 -2,-2 -1,-1 -2,-2 -3,-4 -6,-5 -5,-3 -10,-4 -2,-1 -2,-2 -4,-2 -7,-2 -19,-1 -26,2 -2,1 -2,2 -4,3 -4,2 -4,4 -7,7 -3,4 -7,9 -8,14 -3,13 -2,13 0,25 0,4 1,3 2,5 3,4 3,5 6,8 2,2 9,3 12,2 2,-1 3,-3 4,-4 0,-2 -1,-11 -1,-14 0,-4 0,-13 5,-16 1,-1 3,-1 5,-2 2,-1 4,0 6,-1z"/>
    <path class="fil7" d="M329 201c3,0 6,2 6,5 0,1 1,3 1,4 1,2 1,3 1,5 1,1 3,4 3,6 0,3 -1,7 -2,7 0,4 -6,10 -7,11 -12,7 -19,-1 -25,0 -1,-3 -1,0 -4,-5 -1,-2 -1,-1 -2,-4 0,-1 0,-2 0,-4 -1,-3 -2,-5 -1,-8 1,-2 1,-3 1,-4 1,-4 3,-6 5,-8l1 -1c0,-1 5,-3 6,-4 3,0 6,-1 9,-1 4,0 8,-1 7,1l1 0zm-23 38c1,1 0,0 1,1 4,2 6,2 11,4 3,0 4,0 5,-1 4,-2 4,1 8,-3 1,-1 2,-1 3,-2 2,-2 1,-2 4,-2 0,-2 0,-1 1,-3 2,-1 1,1 2,-1l2 -6c0,-2 0,-5 -1,-7 0,-3 1,-4 -1,-7 -1,-2 -1,-2 -1,-5 -1,-2 -2,-3 -4,-4 -1,-1 -1,-1 -2,-2 -2,-1 -1,0 -2,-1 -3,-3 -2,-1 -4,-4 -3,2 -1,2 -5,3 -2,0 -5,0 -7,0 -1,0 -2,0 -3,0l-9 3c0,1 -1,2 -2,4 -2,2 -3,6 -4,9 -1,1 -1,4 -1,6 0,3 1,4 1,6 0,3 0,3 1,6 1,3 4,7 7,6z"/>
    <path class="fil8" d="M304 226c0,2 0,3 0,5 2,1 1,0 2,1l1 0c4,2 2,3 5,2 0,-1 0,-1 -1,-2 0,0 0,0 0,0 -1,-1 -2,-2 -4,-2 0,-2 0,-7 0,-9 0,-2 0,-1 1,-3 0,-1 0,-3 0,-4 6,-4 2,-5 8,-6 3,0 8,-1 10,0 4,2 1,5 4,8 1,1 2,1 2,3 1,5 -1,6 -2,7 -1,2 0,2 -1,4 -1,1 -4,2 -6,3 -2,1 -7,0 -9,1 0,1 0,0 0,1 0,0 1,0 1,0 0,1 0,1 0,1l1 1c4,1 3,1 6,-1 1,1 1,1 2,1 2,0 0,0 2,-1 1,-1 2,-1 3,-2 2,-2 2,-1 2,-4 1,-4 1,-2 2,-4 1,-3 0,-7 -1,-10 -1,-2 -1,-3 -2,-5 0,-1 0,-1 0,-2l0 -3c0,0 0,0 0,0 0,0 0,0 -1,0 -1,-1 -1,0 -1,0 -2,0 -2,0 -4,0 -9,0 -9,-2 -14,1l-3 2c0,2 -1,3 -2,4 -2,3 -1,8 -1,13z"/>
    <path class="fil9" d="M302 213c0,1 0,0 0,1 -1,0 -1,1 -1,1 -1,1 -1,2 -1,3l1 -1c1,-1 2,-2 1,-4 1,-1 1,-2 2,-3 1,-4 4,-5 8,-6 2,-1 5,-2 8,-2 1,0 4,-1 6,0l2 1c1,0 2,0 3,1 0,0 1,0 1,1 1,1 1,0 1,1 1,0 0,1 1,3 0,2 0,2 0,4 1,0 1,-1 1,1 0,0 0,0 0,1l2 3c0,2 1,3 1,5 -1,1 -3,8 -4,9 -4,7 -9,7 -15,8 -1,0 -2,0 -2,0l-1 -1c0,0 -1,0 -1,0 0,0 0,0 0,0 0,0 0,0 0,0 -1,0 -1,-1 -1,-1 -2,1 1,1 -1,0 -1,0 -1,0 -1,0 -2,0 1,1 -1,0 -1,0 -1,0 -1,-1 -2,1 -3,0 -4,-1 -1,-1 -2,-2 -2,-4 -1,1 -1,1 -1,0l0 -5 -1 0c0,5 2,9 5,11 4,2 18,4 24,-1 6,-6 6,-7 7,-9 0,-3 1,-4 1,-7 0,-2 -1,-4 -2,-6 -1,-2 -2,-6 -2,-9 -1,-1 -1,-2 -3,-3l-3 -2c0,0 0,0 0,0 0,0 0,0 0,0l-1 0c-6,0 -11,0 -17,2 -5,2 -3,0 -6,4 -1,1 -3,3 -3,6z"/>
    <path class="fil10" d="M306 239c6,-1 13,7 25,0 1,-1 7,-7 7,-11 1,0 2,-4 2,-7 0,-2 -2,-5 -3,-6 0,-2 0,-3 -1,-5 0,-1 -1,-3 -1,-4 0,-3 -3,-5 -6,-5 0,0 0,0 0,0 0,0 0,0 0,0l3 2c2,1 2,2 3,3 0,3 1,7 2,9 1,2 2,4 2,6 0,3 -1,4 -1,7 -1,2 -1,3 -7,9 -6,5 -20,3 -24,1 -3,-2 -5,-6 -5,-11 -1,-2 -2,-6 -2,-9 0,-1 0,-2 1,-3 0,0 0,-1 1,-1 0,-1 0,0 0,-1 0,-3 2,-5 3,-6 3,-4 1,-2 6,-4 6,-2 11,-2 17,-2 1,-2 -3,-1 -7,-1 -3,0 -6,1 -9,1 -1,1 -6,3 -6,4l-1 1c-2,2 -4,4 -5,8 0,1 0,2 -1,4 -1,3 0,5 1,8 0,2 0,3 0,4 1,3 1,2 2,4 3,5 3,2 4,5z"/>
    <path class="fil11" d="M302 213c1,2 0,3 -1,4l-1 1c0,3 1,7 2,9l1 0c0,-2 -2,-4 -2,-6 0,-2 1,-5 3,-6l-1 0c0,-1 0,-1 0,-1 0,0 0,0 1,-1 0,0 0,0 0,0 0,0 0,0 0,0 0,-4 5,-8 9,-8 0,-1 0,0 1,-1 1,0 0,0 1,0 2,-1 8,-2 10,-2 1,1 0,0 0,1l3 0 1 1c2,0 1,0 1,1 1,-1 1,-1 1,0 1,0 1,0 0,1 1,-1 1,-1 1,0l1 0c-1,2 -1,2 0,4 0,0 0,1 0,2 1,1 1,0 1,1 0,2 0,1 1,1 -1,4 4,6 1,13 -2,3 -3,9 -7,9 -1,1 0,0 -1,1 -1,1 -1,0 -2,0 0,1 2,1 -1,1l0 -1c-1,2 -6,1 -10,2 0,-1 1,0 0,-1 -2,0 1,0 -1,0 -1,0 0,0 -1,0 -2,-1 1,0 -1,0 -1,-1 0,0 -1,-1 -1,0 1,0 -1,0 -1,0 -1,0 -2,-1 -2,-1 -1,-2 -3,-3 -1,-1 -1,0 -1,-1 0,-1 0,0 -1,0 0,1 0,1 1,0 0,2 1,3 2,4 1,1 2,2 4,1 0,1 0,1 1,1 2,1 -1,0 1,0 0,0 0,0 1,0 2,1 -1,1 1,0 0,0 0,1 1,1 0,0 0,0 0,0 0,0 0,0 0,0 0,0 1,0 1,0l1 1c0,0 1,0 2,0 6,-1 11,-1 15,-8 1,-1 3,-8 4,-9 0,-2 -1,-3 -1,-5l-2 -3c0,-1 0,-1 0,-1 0,-2 0,-1 -1,-1 0,-2 0,-2 0,-4 -1,-2 0,-3 -1,-3 0,-1 0,0 -1,-1 0,-1 -1,-1 -1,-1 -1,-1 -2,-1 -3,-1l-2 -1c-2,-1 -5,0 -6,0 -3,0 -6,1 -8,2 -4,1 -7,2 -8,6 -1,1 -1,2 -2,3z"/>
    <path class="fil12" d="M315 204c-1,0 0,0 -1,0 -1,1 -1,0 -1,1 -4,0 -9,4 -9,8 0,0 0,0 0,0 0,0 0,0 0,0 -1,1 -1,1 -1,1 0,0 0,0 0,1 1,-1 2,1 1,-2 1,-1 2,-3 4,-5 0,-1 1,-1 2,-2 1,0 2,0 2,0 1,-1 1,-1 1,-1 1,0 -1,0 1,0 2,0 1,0 1,-1 3,1 3,0 5,0 2,-1 4,-1 5,-1l2 1c1,1 1,1 2,0 0,1 -2,1 1,1 0,1 0,1 1,0 -1,1 -1,1 0,1 0,1 0,1 1,0 -2,4 0,6 1,9 2,7 4,6 1,11 0,2 -1,2 -1,4 0,2 -1,2 -2,3l-2 3c0,-1 0,0 0,0 -1,0 -1,0 -2,0 -1,1 0,1 -1,1 -2,-1 0,0 -1,1 3,0 1,0 1,-1 1,0 1,1 2,0 1,-1 0,0 1,-1 4,0 5,-6 7,-9 3,-7 -2,-9 -1,-13 -1,0 -1,1 -1,-1 0,-1 0,0 -1,-1 0,-1 0,-2 0,-2 -1,-2 -1,-2 0,-4l-1 0c0,-1 0,-1 -1,0 1,-1 1,-1 0,-1 0,-1 0,-1 -1,0 0,-1 1,-1 -1,-1l-1 -1 -3 0c0,-1 1,0 0,-1 -2,0 -8,1 -10,2z"/>
    <path class="fil12" d="M303 227l0 5c1,0 1,-1 1,0 0,1 0,0 1,1 2,1 1,2 3,3 1,1 1,1 2,1 2,0 0,0 1,0 1,1 0,0 1,1 2,0 -1,-1 1,0 1,0 0,0 1,0 2,0 -1,0 1,0 1,1 0,0 0,1 4,-1 9,0 10,-2 -2,0 -8,1 -9,0 -2,0 -3,0 -4,-1 -5,-2 -2,0 -6,-3 -1,-1 -1,0 -2,-2 0,-2 0,-3 0,-5 -1,-1 -1,-5 -1,-6 0,-1 1,-3 1,-5 -2,1 -3,4 -3,6 0,2 2,4 2,6z"/>
    <path class="fil2" d="M242 294c4,0 5,0 7,-1 -1,-2 -3,-2 -6,-2 -3,4 0,1 -1,3 0,1 0,-1 0,0z"/>
    <path class="fil5" d="M335 385c1,1 4,2 5,-1 -2,-1 -4,0 -5,1z"/>
    <path class="fil13" d="M423 237c0,2 0,1 1,3 2,-1 2,-2 3,-3 -3,-1 -2,-1 -4,0z"/>
    <path class="fil14" d="M35 446l0 -34 13 0c3,0 5,0 6,1 2,1 3,2 4,3 1,2 1,3 1,5 0,1 0,2 -1,4 -1,1 -2,2 -3,3 2,0 3,1 4,3 1,1 2,3 2,5 0,2 0,3 -1,5 -1,1 -2,2 -3,3 -1,1 -2,1 -3,1 -2,1 -4,1 -6,1l-13 0zm5 -20l7 0c2,0 4,0 4,0 2,-1 2,-1 3,-2 1,-1 1,-2 1,-3 0,-1 0,-2 -1,-3 -1,-1 -1,-1 -2,-2 -1,0 -3,0 -5,0l-7 0 0 10zm0 16l8 0c2,0 3,0 3,0 1,0 2,-1 3,-1 1,-1 1,-1 2,-2 0,-1 0,-2 0,-3 0,-1 0,-2 -1,-3 0,-1 -1,-2 -2,-2 -2,-1 -3,-1 -5,-1l-8 0 0 12z"/>
    <path id="1" class="fil14" d="M83 443c-1,1 -3,2 -4,3 -2,0 -3,1 -5,1 -3,0 -5,-1 -6,-2 -2,-2 -2,-3 -2,-6 0,-1 0,-2 1,-3 0,-1 1,-2 2,-2 1,-1 2,-1 3,-2 1,0 2,0 3,0 4,-1 6,-1 8,-2 0,0 0,-1 0,-1 0,-1 0,-3 -1,-3 -1,-1 -3,-2 -5,-2 -2,0 -3,1 -4,1 -1,1 -2,2 -2,4l-5 -1c1,-1 1,-3 2,-4 1,-1 2,-2 4,-2 2,-1 3,-1 6,-1 2,0 3,0 5,0 1,1 2,2 3,2 0,1 1,2 1,3 0,1 0,2 0,4l0 6c0,4 0,6 0,7 1,1 1,2 1,3l-4 0c0,-1 -1,-2 -1,-3zm0 -9c-2,0 -4,1 -7,1 -2,0 -3,1 -4,1 0,0 -1,1 -1,1 -1,1 -1,2 -1,2 0,1 1,2 1,3 1,1 3,1 4,1 2,0 3,0 4,-1 2,0 3,-1 3,-3 1,-1 1,-2 1,-4l0 -1z"/>
    <path id="2" class="fil14" d="M94 446l0 -25 4 0 0 4c2,-3 4,-4 8,-4 1,0 3,0 4,1 1,0 2,1 3,2 0,1 1,2 1,3 0,1 0,2 0,4l0 15 -4 0 0 -15c0,-2 0,-3 0,-4 -1,-1 -1,-1 -2,-2 -1,0 -2,-1 -3,-1 -2,0 -3,1 -5,2 -1,1 -2,3 -2,7l0 13 -4 0z"/>
    <path id="3" class="fil14" d="M137 437l4 1c0,2 -1,5 -3,6 -2,2 -4,3 -7,3 -3,0 -6,-2 -8,-4 -2,-2 -3,-5 -3,-9 0,-3 0,-5 1,-7 1,-2 2,-4 4,-5 2,-1 4,-1 6,-1 3,0 5,0 7,2 1,1 3,3 3,6l-4 0c0,-1 -1,-3 -2,-4 -1,0 -2,-1 -4,-1 -2,0 -3,1 -5,2 -1,2 -2,4 -2,8 0,3 1,5 2,7 1,1 3,2 5,2 2,0 3,0 4,-1 1,-1 2,-3 2,-5z"/>
    <path id="4" class="fil14" d="M144 434c0,-5 1,-8 4,-11 2,-1 4,-2 8,-2 3,0 6,1 8,3 2,2 3,5 3,9 0,3 0,6 -1,8 -1,2 -3,3 -4,4 -2,1 -4,2 -6,2 -4,0 -7,-2 -9,-4 -2,-2 -3,-5 -3,-9zm4 0c0,3 1,5 2,7 2,1 3,2 6,2 2,0 3,-1 5,-2 1,-2 2,-4 2,-7 0,-4 -1,-6 -2,-7 -2,-2 -3,-3 -5,-3 -3,0 -4,1 -6,3 -1,1 -2,3 -2,7z"/>
    <polygon id="5" class="fil14" points="186,446 186,412 191,412 191,429 208,412 214,412 199,426 214,446 208,446 196,429 191,434 191,446 "/>
    <polygon id="6" class="fil14" points="219,446 219,412 243,412 243,416 223,416 223,426 242,426 242,430 223,430 223,442 244,442 244,446 "/>
    <path id="7" class="fil14" d="M251 446l0 -34 13 0c2,0 4,0 6,1 1,1 3,2 4,3 0,2 1,3 1,5 0,1 -1,2 -1,4 -1,1 -2,2 -4,3 2,0 4,1 5,3 1,1 2,3 2,5 0,2 -1,3 -1,5 -1,1 -2,2 -3,3 -1,1 -2,1 -4,1 -1,1 -3,1 -5,1l-13 0zm4 -20l8 0c2,0 3,0 4,0 1,-1 2,-1 3,-2 0,-1 0,-2 0,-3 0,-1 0,-2 0,-3 -1,-1 -2,-1 -3,-2 -1,0 -2,0 -5,0l-7 0 0 10zm0 16l9 0c1,0 2,0 3,0 1,0 2,-1 2,-1 1,-1 2,-1 2,-2 1,-1 1,-2 1,-3 0,-1 0,-2 -1,-3 -1,-1 -2,-2 -3,-2 -1,-1 -3,-1 -5,-1l-8 0 0 12z"/>
    <polygon id="8" class="fil14" points="297,446 297,412 301,412 301,426 319,426 319,412 323,412 323,446 319,446 319,430 301,430 301,446 "/>
    <path id="9" class="fil14" d="M347 443c-1,1 -3,2 -4,3 -2,0 -3,1 -5,1 -3,0 -5,-1 -6,-2 -2,-2 -3,-3 -3,-6 0,-1 1,-2 1,-3 1,-1 2,-2 2,-2 1,-1 2,-1 3,-2 1,0 3,0 4,0 4,-1 6,-1 8,-2 0,0 0,-1 0,-1 0,-1 -1,-3 -1,-3 -2,-1 -3,-2 -5,-2 -2,0 -4,1 -5,1 -1,1 -1,2 -2,4l-4 -1c1,-1 1,-3 2,-4 1,-1 2,-2 4,-2 1,-1 3,-1 5,-1 3,0 4,0 6,0 1,1 2,2 2,2 1,1 2,2 2,3 0,1 0,2 0,4l0 6c0,4 0,6 0,7 0,1 1,2 1,3l-4 0c-1,-1 -1,-2 -1,-3zm0 -9c-2,0 -4,1 -7,1 -2,0 -3,1 -4,1 -1,0 -1,1 -1,1 -1,1 -1,2 -1,2 0,1 0,2 1,3 1,1 2,1 4,1 2,0 3,0 4,-1 2,0 2,-1 3,-3 1,-1 1,-2 1,-4l0 -1z"/>
    <path id="10" class="fil14" d="M358 446l0 -25 4 0 0 4c2,-3 4,-4 8,-4 1,0 2,0 4,1 1,0 2,1 2,2 1,1 2,2 2,3 0,1 0,2 0,4l0 15 -4 0 0 -15c0,-2 0,-3 -1,-4 0,-1 -1,-1 -1,-2 -1,0 -2,-1 -3,-1 -2,0 -4,1 -5,2 -1,1 -2,3 -2,7l0 13 -4 0z"/>
    <path id="11" class="fil14" d="M401 443c-1,1 -3,2 -4,3 -2,0 -3,1 -5,1 -3,0 -5,-1 -6,-2 -2,-2 -2,-3 -2,-6 0,-1 0,-2 0,-3 1,-1 2,-2 3,-2 0,-1 1,-1 3,-2 0,0 2,0 3,0 4,-1 6,-1 8,-2 0,0 0,-1 0,-1 0,-1 -1,-3 -1,-3 -1,-1 -3,-2 -5,-2 -2,0 -4,1 -5,1 -1,1 -1,2 -2,4l-4 -1c1,-1 1,-3 2,-4 1,-1 2,-2 4,-2 1,-1 3,-1 5,-1 3,0 4,0 6,0 1,1 2,2 3,2 0,1 1,2 1,3 0,1 0,2 0,4l0 6c0,4 0,6 0,7 0,1 1,2 1,3l-4 0c0,-1 -1,-2 -1,-3zm0 -9c-2,0 -4,1 -7,1 -2,0 -3,1 -4,1 0,0 -1,1 -1,1 -1,1 -1,2 -1,2 0,1 0,2 1,3 1,1 2,1 4,1 2,0 3,0 4,-1 2,0 3,-1 3,-3 1,-1 1,-2 1,-4l0 -1z"/>
    <path id="12" class="fil14" d="M441 446l0 -3c-1,2 -4,4 -7,4 -2,0 -3,-1 -5,-2 -2,-1 -3,-3 -4,-5 -1,-2 -1,-4 -1,-6 0,-3 0,-5 1,-7 1,-2 2,-4 4,-5 1,-1 3,-1 5,-1 2,0 3,0 4,1 1,0 2,1 3,2l0 -12 4 0 0 34 -4 0zm-13 -12c0,3 1,5 2,7 1,1 3,2 5,2 2,0 3,-1 4,-2 2,-2 2,-4 2,-7 0,-3 0,-6 -2,-7 -1,-2 -3,-3 -4,-3 -2,0 -4,1 -5,2 -1,2 -2,4 -2,8z"/>
    <path id="13" class="fil14" d="M451 434c0,-5 1,-8 4,-11 2,-1 4,-2 7,-2 4,0 6,1 9,3 2,2 3,5 3,9 0,3 -1,6 -2,8 -1,2 -2,3 -4,4 -2,1 -4,2 -6,2 -3,0 -6,-2 -8,-4 -2,-2 -3,-5 -3,-9zm4 0c0,3 1,5 2,7 1,1 3,2 5,2 2,0 4,-1 5,-2 2,-2 3,-4 3,-7 0,-4 -1,-6 -3,-7 -1,-2 -3,-3 -5,-3 -2,0 -4,1 -5,3 -1,1 -2,3 -2,7z"/>
    <path id="14" class="fil14" d="M493 446l0 -34 13 0c2,0 4,0 6,1 2,1 3,2 4,3 1,2 1,3 1,5 0,1 0,2 -1,4 -1,1 -2,2 -4,3 2,0 4,1 5,3 1,1 2,3 2,5 0,2 -1,3 -1,5 -1,1 -2,2 -3,3 -1,1 -2,1 -4,1 -1,1 -3,1 -5,1l-13 0zm4 -20l8 0c2,0 3,0 4,0 1,-1 2,-1 3,-2 0,-1 1,-2 1,-3 0,-1 -1,-2 -1,-3 -1,-1 -2,-1 -3,-2 -1,0 -2,0 -5,0l-7 0 0 10zm0 16l9 0c1,0 2,0 3,0 1,0 2,-1 3,-1 0,-1 1,-1 1,-2 1,-1 1,-2 1,-3 0,-1 0,-2 -1,-3 -1,-1 -2,-2 -3,-2 -1,-1 -3,-1 -5,-1l-8 0 0 12z"/>
    <path id="15" class="fil14" d="M525 446l0 -25 4 0 0 4c1,-2 1,-3 2,-3 1,-1 2,-1 3,-1 1,0 3,0 4,1l-1 4c-1,-1 -2,-1 -3,-1 -1,0 -2,0 -3,1 0,0 -1,1 -1,2 -1,2 -1,3 -1,5l0 13 -4 0z"/>
    <path id="16" class="fil14" d="M557 443c-1,1 -3,2 -4,3 -2,0 -3,1 -5,1 -2,0 -5,-1 -6,-2 -1,-2 -2,-3 -2,-6 0,-1 0,-2 1,-3 0,-1 1,-2 2,-2 1,-1 2,-1 3,-2 1,0 2,0 4,0 3,-1 5,-1 7,-2 0,0 0,-1 0,-1 0,-1 0,-3 -1,-3 -1,-1 -3,-2 -5,-2 -2,0 -3,1 -4,1 -1,1 -2,2 -2,4l-4 -1c0,-1 0,-3 1,-4 1,-1 2,-2 4,-2 2,-1 4,-1 6,-1 2,0 4,0 5,0 1,1 2,2 3,2 0,1 1,2 1,3 0,1 0,2 0,4l0 6c0,4 0,6 1,7 0,1 0,2 1,3l-5 0c0,-1 0,-2 -1,-3zm0 -9c-1,0 -4,1 -7,1 -2,0 -3,1 -3,1 -1,0 -2,1 -2,1 -1,1 -1,2 -1,2 0,1 1,2 2,3 0,1 2,1 3,1 2,0 3,0 5,-1 1,0 2,-1 2,-3 1,-1 1,-2 1,-4l0 -1z"/>
    <path id="17" class="fil14" d="M567 439l4 -1c0,2 1,3 2,4 1,1 2,1 4,1 2,0 4,0 4,-1 1,-1 2,-2 2,-3 0,-1 -1,-2 -1,-2 -1,0 -2,-1 -5,-1 -3,-1 -5,-2 -6,-2 -1,-1 -2,-2 -3,-3 0,-1 -1,-2 -1,-3 0,-1 1,-2 1,-3 1,-1 1,-2 2,-3 1,0 2,0 3,-1 1,0 2,0 3,0 2,0 4,0 5,1 2,0 3,1 4,2 0,1 1,2 1,4l-4 0c0,-1 -1,-2 -2,-3 0,0 -2,-1 -3,-1 -2,0 -4,0 -4,1 -1,1 -2,2 -2,2 0,1 1,1 1,2 0,0 1,1 1,1 1,0 2,0 4,1 3,1 5,1 6,2 2,0 2,1 3,2 1,1 1,2 1,4 0,1 0,2 -1,4 -1,1 -2,2 -4,3 -1,0 -3,1 -5,1 -3,0 -6,-1 -7,-2 -2,-2 -3,-4 -3,-6z"/>
    <path id="18" class="fil14" d="M593 417l0 -5 4 0 0 5 -4 0zm0 29l0 -25 4 0 0 25 -4 0z"/>
    <polygon id="19" class="fil14" points="604,446 604,412 608,412 608,446 "/>
    <path id="20" class="fil15 str0" d="M35 446l0 -34 13 0c3,0 5,0 6,1 2,1 3,2 4,3 1,2 1,3 1,5 0,1 0,2 -1,4 -1,1 -2,2 -3,3 2,0 3,1 4,3 1,1 2,3 2,5 0,2 0,3 -1,5 -1,1 -2,2 -3,3 -1,1 -2,1 -3,1 -2,1 -4,1 -6,1l-13 0zm5 -20l7 0c2,0 4,0 4,0 2,-1 2,-1 3,-2 1,-1 1,-2 1,-3 0,-1 0,-2 -1,-3 -1,-1 -1,-1 -2,-2 -1,0 -3,0 -5,0l-7 0 0 10zm0 16l8 0c2,0 3,0 3,0 1,0 2,-1 3,-1 1,-1 1,-1 2,-2 0,-1 0,-2 0,-3 0,-1 0,-2 -1,-3 0,-1 -1,-2 -2,-2 -2,-1 -3,-1 -5,-1l-8 0 0 12z"/>
    <path id="21" class="fil15 str0" d="M83 443c-1,1 -3,2 -4,3 -2,0 -3,1 -5,1 -3,0 -5,-1 -6,-2 -2,-2 -2,-3 -2,-6 0,-1 0,-2 1,-3 0,-1 1,-2 2,-2 1,-1 2,-1 3,-2 1,0 2,0 3,0 4,-1 6,-1 8,-2 0,0 0,-1 0,-1 0,-1 0,-3 -1,-3 -1,-1 -3,-2 -5,-2 -2,0 -3,1 -4,1 -1,1 -2,2 -2,4l-5 -1c1,-1 1,-3 2,-4 1,-1 2,-2 4,-2 2,-1 3,-1 6,-1 2,0 3,0 5,0 1,1 2,2 3,2 0,1 1,2 1,3 0,1 0,2 0,4l0 6c0,4 0,6 0,7 1,1 1,2 1,3l-4 0c0,-1 -1,-2 -1,-3zm0 -9c-2,0 -4,1 -7,1 -2,0 -3,1 -4,1 0,0 -1,1 -1,1 -1,1 -1,2 -1,2 0,1 1,2 1,3 1,1 3,1 4,1 2,0 3,0 4,-1 2,0 3,-1 3,-3 1,-1 1,-2 1,-4l0 -1z"/>
    <path id="22" class="fil15 str0" d="M94 446l0 -25 4 0 0 4c2,-3 4,-4 8,-4 1,0 3,0 4,1 1,0 2,1 3,2 0,1 1,2 1,3 0,1 0,2 0,4l0 15 -4 0 0 -15c0,-2 0,-3 0,-4 -1,-1 -1,-1 -2,-2 -1,0 -2,-1 -3,-1 -2,0 -3,1 -5,2 -1,1 -2,3 -2,7l0 13 -4 0z"/>
    <path id="23" class="fil15 str0" d="M137 437l4 1c0,2 -1,5 -3,6 -2,2 -4,3 -7,3 -3,0 -6,-2 -8,-4 -2,-2 -3,-5 -3,-9 0,-3 0,-5 1,-7 1,-2 2,-4 4,-5 2,-1 4,-1 6,-1 3,0 5,0 7,2 1,1 3,3 3,6l-4 0c0,-1 -1,-3 -2,-4 -1,0 -2,-1 -4,-1 -2,0 -3,1 -5,2 -1,2 -2,4 -2,8 0,3 1,5 2,7 1,1 3,2 5,2 2,0 3,0 4,-1 1,-1 2,-3 2,-5z"/>
    <path id="24" class="fil15 str0" d="M144 434c0,-5 1,-8 4,-11 2,-1 4,-2 8,-2 3,0 6,1 8,3 2,2 3,5 3,9 0,3 0,6 -1,8 -1,2 -3,3 -4,4 -2,1 -4,2 -6,2 -4,0 -7,-2 -9,-4 -2,-2 -3,-5 -3,-9zm4 0c0,3 1,5 2,7 2,1 3,2 6,2 2,0 3,-1 5,-2 1,-2 2,-4 2,-7 0,-4 -1,-6 -2,-7 -2,-2 -3,-3 -5,-3 -3,0 -4,1 -6,3 -1,1 -2,3 -2,7z"/>
    <polygon id="25" class="fil15 str0" points="186,446 186,412 191,412 191,429 208,412 214,412 199,426 214,446 208,446 196,429 191,434 191,446 "/>
    <polygon id="26" class="fil15 str0" points="219,446 219,412 243,412 243,416 223,416 223,426 242,426 242,430 223,430 223,442 244,442 244,446 "/>
    <path id="27" class="fil15 str0" d="M251 446l0 -34 13 0c2,0 4,0 6,1 1,1 3,2 4,3 0,2 1,3 1,5 0,1 -1,2 -1,4 -1,1 -2,2 -4,3 2,0 4,1 5,3 1,1 2,3 2,5 0,2 -1,3 -1,5 -1,1 -2,2 -3,3 -1,1 -2,1 -4,1 -1,1 -3,1 -5,1l-13 0zm4 -20l8 0c2,0 3,0 4,0 1,-1 2,-1 3,-2 0,-1 0,-2 0,-3 0,-1 0,-2 0,-3 -1,-1 -2,-1 -3,-2 -1,0 -2,0 -5,0l-7 0 0 10zm0 16l9 0c1,0 2,0 3,0 1,0 2,-1 2,-1 1,-1 2,-1 2,-2 1,-1 1,-2 1,-3 0,-1 0,-2 -1,-3 -1,-1 -2,-2 -3,-2 -1,-1 -3,-1 -5,-1l-8 0 0 12z"/>
    <polygon id="28" class="fil15 str0" points="297,446 297,412 301,412 301,426 319,426 319,412 323,412 323,446 319,446 319,430 301,430 301,446 "/>
    <path id="29" class="fil15 str0" d="M347 443c-1,1 -3,2 -4,3 -2,0 -3,1 -5,1 -3,0 -5,-1 -6,-2 -2,-2 -3,-3 -3,-6 0,-1 1,-2 1,-3 1,-1 2,-2 2,-2 1,-1 2,-1 3,-2 1,0 3,0 4,0 4,-1 6,-1 8,-2 0,0 0,-1 0,-1 0,-1 -1,-3 -1,-3 -2,-1 -3,-2 -5,-2 -2,0 -4,1 -5,1 -1,1 -1,2 -2,4l-4 -1c1,-1 1,-3 2,-4 1,-1 2,-2 4,-2 1,-1 3,-1 5,-1 3,0 4,0 6,0 1,1 2,2 2,2 1,1 2,2 2,3 0,1 0,2 0,4l0 6c0,4 0,6 0,7 0,1 1,2 1,3l-4 0c-1,-1 -1,-2 -1,-3zm0 -9c-2,0 -4,1 -7,1 -2,0 -3,1 -4,1 -1,0 -1,1 -1,1 -1,1 -1,2 -1,2 0,1 0,2 1,3 1,1 2,1 4,1 2,0 3,0 4,-1 2,0 2,-1 3,-3 1,-1 1,-2 1,-4l0 -1z"/>
    <path id="30" class="fil15 str0" d="M358 446l0 -25 4 0 0 4c2,-3 4,-4 8,-4 1,0 2,0 4,1 1,0 2,1 2,2 1,1 2,2 2,3 0,1 0,2 0,4l0 15 -4 0 0 -15c0,-2 0,-3 -1,-4 0,-1 -1,-1 -1,-2 -1,0 -2,-1 -3,-1 -2,0 -4,1 -5,2 -1,1 -2,3 -2,7l0 13 -4 0z"/>
    <path id="31" class="fil15 str0" d="M401 443c-1,1 -3,2 -4,3 -2,0 -3,1 -5,1 -3,0 -5,-1 -6,-2 -2,-2 -2,-3 -2,-6 0,-1 0,-2 0,-3 1,-1 2,-2 3,-2 0,-1 1,-1 3,-2 0,0 2,0 3,0 4,-1 6,-1 8,-2 0,0 0,-1 0,-1 0,-1 -1,-3 -1,-3 -1,-1 -3,-2 -5,-2 -2,0 -4,1 -5,1 -1,1 -1,2 -2,4l-4 -1c1,-1 1,-3 2,-4 1,-1 2,-2 4,-2 1,-1 3,-1 5,-1 3,0 4,0 6,0 1,1 2,2 3,2 0,1 1,2 1,3 0,1 0,2 0,4l0 6c0,4 0,6 0,7 0,1 1,2 1,3l-4 0c0,-1 -1,-2 -1,-3zm0 -9c-2,0 -4,1 -7,1 -2,0 -3,1 -4,1 0,0 -1,1 -1,1 -1,1 -1,2 -1,2 0,1 0,2 1,3 1,1 2,1 4,1 2,0 3,0 4,-1 2,0 3,-1 3,-3 1,-1 1,-2 1,-4l0 -1z"/>
    <path id="32" class="fil15 str0" d="M441 446l0 -3c-1,2 -4,4 -7,4 -2,0 -3,-1 -5,-2 -2,-1 -3,-3 -4,-5 -1,-2 -1,-4 -1,-6 0,-3 0,-5 1,-7 1,-2 2,-4 4,-5 1,-1 3,-1 5,-1 2,0 3,0 4,1 1,0 2,1 3,2l0 -12 4 0 0 34 -4 0zm-13 -12c0,3 1,5 2,7 1,1 3,2 5,2 2,0 3,-1 4,-2 2,-2 2,-4 2,-7 0,-3 0,-6 -2,-7 -1,-2 -3,-3 -4,-3 -2,0 -4,1 -5,2 -1,2 -2,4 -2,8z"/>
    <path id="33" class="fil15 str0" d="M451 434c0,-5 1,-8 4,-11 2,-1 4,-2 7,-2 4,0 6,1 9,3 2,2 3,5 3,9 0,3 -1,6 -2,8 -1,2 -2,3 -4,4 -2,1 -4,2 -6,2 -3,0 -6,-2 -8,-4 -2,-2 -3,-5 -3,-9zm4 0c0,3 1,5 2,7 1,1 3,2 5,2 2,0 4,-1 5,-2 2,-2 3,-4 3,-7 0,-4 -1,-6 -3,-7 -1,-2 -3,-3 -5,-3 -2,0 -4,1 -5,3 -1,1 -2,3 -2,7z"/>
    <path id="34" class="fil15 str0" d="M493 446l0 -34 13 0c2,0 4,0 6,1 2,1 3,2 4,3 1,2 1,3 1,5 0,1 0,2 -1,4 -1,1 -2,2 -4,3 2,0 4,1 5,3 1,1 2,3 2,5 0,2 -1,3 -1,5 -1,1 -2,2 -3,3 -1,1 -2,1 -4,1 -1,1 -3,1 -5,1l-13 0zm4 -20l8 0c2,0 3,0 4,0 1,-1 2,-1 3,-2 0,-1 1,-2 1,-3 0,-1 -1,-2 -1,-3 -1,-1 -2,-1 -3,-2 -1,0 -2,0 -5,0l-7 0 0 10zm0 16l9 0c1,0 2,0 3,0 1,0 2,-1 3,-1 0,-1 1,-1 1,-2 1,-1 1,-2 1,-3 0,-1 0,-2 -1,-3 -1,-1 -2,-2 -3,-2 -1,-1 -3,-1 -5,-1l-8 0 0 12z"/>
    <path id="35" class="fil15 str0" d="M525 446l0 -25 4 0 0 4c1,-2 1,-3 2,-3 1,-1 2,-1 3,-1 1,0 3,0 4,1l-1 4c-1,-1 -2,-1 -3,-1 -1,0 -2,0 -3,1 0,0 -1,1 -1,2 -1,2 -1,3 -1,5l0 13 -4 0z"/>
    <path id="36" class="fil15 str0" d="M557 443c-1,1 -3,2 -4,3 -2,0 -3,1 -5,1 -2,0 -5,-1 -6,-2 -1,-2 -2,-3 -2,-6 0,-1 0,-2 1,-3 0,-1 1,-2 2,-2 1,-1 2,-1 3,-2 1,0 2,0 4,0 3,-1 5,-1 7,-2 0,0 0,-1 0,-1 0,-1 0,-3 -1,-3 -1,-1 -3,-2 -5,-2 -2,0 -3,1 -4,1 -1,1 -2,2 -2,4l-4 -1c0,-1 0,-3 1,-4 1,-1 2,-2 4,-2 2,-1 4,-1 6,-1 2,0 4,0 5,0 1,1 2,2 3,2 0,1 1,2 1,3 0,1 0,2 0,4l0 6c0,4 0,6 1,7 0,1 0,2 1,3l-5 0c0,-1 0,-2 -1,-3zm0 -9c-1,0 -4,1 -7,1 -2,0 -3,1 -3,1 -1,0 -2,1 -2,1 -1,1 -1,2 -1,2 0,1 1,2 2,3 0,1 2,1 3,1 2,0 3,0 5,-1 1,0 2,-1 2,-3 1,-1 1,-2 1,-4l0 -1z"/>
    <path id="37" class="fil15 str0" d="M567 439l4 -1c0,2 1,3 2,4 1,1 2,1 4,1 2,0 4,0 4,-1 1,-1 2,-2 2,-3 0,-1 -1,-2 -1,-2 -1,0 -2,-1 -5,-1 -3,-1 -5,-2 -6,-2 -1,-1 -2,-2 -3,-3 0,-1 -1,-2 -1,-3 0,-1 1,-2 1,-3 1,-1 1,-2 2,-3 1,0 2,0 3,-1 1,0 2,0 3,0 2,0 4,0 5,1 2,0 3,1 4,2 0,1 1,2 1,4l-4 0c0,-1 -1,-2 -2,-3 0,0 -2,-1 -3,-1 -2,0 -4,0 -4,1 -1,1 -2,2 -2,2 0,1 1,1 1,2 0,0 1,1 1,1 1,0 2,0 4,1 3,1 5,1 6,2 2,0 2,1 3,2 1,1 1,2 1,4 0,1 0,2 -1,4 -1,1 -2,2 -4,3 -1,0 -3,1 -5,1 -3,0 -6,-1 -7,-2 -2,-2 -3,-4 -3,-6z"/>
    <path id="38" class="fil15 str0" d="M593 417l0 -5 4 0 0 5 -4 0zm0 29l0 -25 4 0 0 25 -4 0z"/>
    <polygon id="39" class="fil15 str0" points="604,446 604,412 608,412 608,446 "/>
   </g>
  </g>
 </g>
</svg>
