<?xml version="1.0" encoding="UTF-8"?>
<!DOCTYPE svg PUBLIC "-//W3C//DTD SVG 1.1//EN" "http://www.w3.org/Graphics/SVG/1.1/DTD/svg11.dtd">
<!-- Creator: CorelDRAW Home & Student X7 -->
<svg xmlns="http://www.w3.org/2000/svg" xml:space="preserve" width="29mm" height="29mm" version="1.1" style="shape-rendering:geometricPrecision; text-rendering:geometricPrecision; image-rendering:optimizeQuality; fill-rule:evenodd; clip-rule:evenodd"
viewBox="0 0 605 605"
 xmlns:xlink="http://www.w3.org/1999/xlink">
 <defs>
  <style type="text/css">
   <![CDATA[
    .fil2 {fill:#0F6F31;fill-rule:nonzero}
    .fil1 {fill:#5C9D39;fill-rule:nonzero}
    .fil3 {fill:#DB3C3B;fill-rule:nonzero}
    .fil0 {fill:#FFFFFD;fill-rule:nonzero}
   ]]>
  </style>
 </defs>
 <g id="__x0023_Layer_x0020_1">
  <metadata id="CorelCorpID_0Corel-Layer"/>
  <g id="_646423776">
   <g>
    <g>
     <path class="fil0" d="M0 0l605 0 0 605 -605 0 0 -605zm59 81l0 0c3,10 12,17 20,23 21,17 47,25 73,33 33,10 67,16 101,19 49,6 98,7 147,7 18,0 31,16 30,33 0,21 -19,33 -31,47 -13,15 -30,28 -42,45 -7,9 -6,21 -1,31 11,25 33,42 44,67 1,3 -2,7 0,9 5,4 7,12 -1,12 1,0 4,-1 6,-1 -2,9 -3,18 -7,26 -12,21 -28,39 -46,55 -24,22 -50,42 -76,62 -4,-2 -9,-3 -13,-4 0,-1 0,-4 0,-6l-5 4c5,3 11,5 12,11 -7,4 -13,8 -19,13 64,-32 123,-73 177,-119 20,-20 44,-38 51,-66 4,-17 -4,-33 -13,-46 -14,-21 -27,-43 -41,-64 -1,-6 -5,-13 -2,-19 5,-13 17,-22 27,-32 14,-15 29,-32 31,-54 4,-21 -7,-43 -26,-52 -14,-8 -29,-5 -44,-6 -33,0 -66,-2 -98,-6 -43,-6 -88,-13 -127,-33 -16,-8 -32,-19 -40,-36 -30,15 -58,32 -87,47zm85 79l0 0c1,81 0,162 0,243 1,30 16,60 41,76 32,22 73,26 111,25 24,-26 55,-46 72,-78 -27,8 -57,14 -86,7 -15,-5 -31,-13 -39,-28 -9,-17 -10,-37 -11,-55 0,-58 0,-116 0,-174 -29,-4 -59,-10 -88,-16z"/>
    </g>
   </g>
   <g>
    <path class="fil1" d="M59 81c29,-15 57,-32 87,-47 8,17 24,28 40,36 39,20 84,27 127,33 -5,6 -11,10 -18,14 -1,4 -1,7 -4,10 -6,4 -13,6 -18,11 -6,6 -13,13 -20,18 -34,-3 -68,-9 -101,-19 -26,-8 -52,-16 -73,-33 -8,-6 -17,-13 -20,-23z"/>
    <path class="fil1" d="M425 272c14,21 27,43 41,64 9,13 17,29 13,46 -7,28 -31,46 -51,66 -54,46 -113,87 -177,119 6,-5 12,-9 19,-13 -1,-6 -7,-8 -12,-11l5 -4c0,2 0,5 0,6 4,1 9,2 13,4 26,-20 52,-40 76,-62 18,-16 34,-34 46,-55 4,-8 5,-17 7,-26 -2,0 -5,1 -6,1 8,0 6,-8 1,-12 -2,-2 1,-6 0,-9 -11,-25 -33,-42 -44,-67 0,-1 1,-2 1,-3 5,4 9,15 17,11 5,-9 10,-18 17,-24 3,0 7,-1 10,-1 5,-8 14,-14 22,-19 1,-4 1,-8 2,-11z"/>
   </g>
   <g>
    <path class="fil2" d="M313 103c32,4 65,6 98,6 15,1 30,-2 44,6 19,9 30,31 26,52 -2,22 -17,39 -31,54 -10,10 -22,19 -27,32 -3,6 1,13 2,19 -1,3 -1,7 -2,11 -8,5 -17,11 -22,19 -3,0 -7,1 -10,1 -7,6 -12,15 -17,24 -8,4 -12,-7 -17,-11 0,1 -1,2 -1,3 -5,-10 -6,-22 1,-31 12,-17 29,-30 42,-45 12,-14 31,-26 31,-47 1,-17 -12,-33 -30,-33 -49,0 -98,-1 -147,-7 7,-5 14,-12 20,-18 5,-5 12,-7 18,-11 3,-3 3,-6 4,-10 7,-4 13,-8 18,-14z"/>
   </g>
   <g>
    <path class="fil3" d="M144 160c29,6 59,12 88,16 0,58 0,116 0,174 1,18 2,38 11,55 8,15 24,23 39,28 29,7 59,1 86,-7 -17,32 -48,52 -72,78 -38,1 -79,-3 -111,-25 -25,-16 -40,-46 -41,-76 0,-81 1,-162 0,-243z"/>
   </g>
  </g>
 </g>
</svg>
