<?xml version="1.0" encoding="UTF-8"?>
<!DOCTYPE svg PUBLIC "-//W3C//DTD SVG 1.1//EN" "http://www.w3.org/Graphics/SVG/1.1/DTD/svg11.dtd">
<!-- Creator: CorelDRAW Home & Student X7 -->
<svg xmlns="http://www.w3.org/2000/svg" xml:space="preserve" width="29mm" height="29.0036mm" version="1.1" style="shape-rendering:geometricPrecision; text-rendering:geometricPrecision; image-rendering:optimizeQuality; fill-rule:evenodd; clip-rule:evenodd"
viewBox="0 0 427 427"
 xmlns:xlink="http://www.w3.org/1999/xlink">
 <defs>
  <style type="text/css">
   <![CDATA[
    .fil1 {fill:#0000FD;fill-rule:nonzero}
    .fil0 {fill:white;fill-rule:nonzero}
   ]]>
  </style>
 </defs>
 <g id="__x0023_Layer_x0020_1">
  <metadata id="CorelCorpID_0Corel-Layer"/>
  <g id="_440877472">
   <g>
    <path class="fil0" d="M0 0l38 0c-19,-1 -36,14 -38,32l0 -32z"/>
    <path class="fil0" d="M391 0l36 0 0 33c-1,-18 -18,-33 -36,-33z"/>
    <path class="fil0" d="M136 135c7,-1 14,0 22,0 4,-1 6,4 6,7 0,30 0,60 0,89 -1,5 5,8 8,4 27,-33 53,-67 79,-100 8,-1 17,0 25,0 2,2 4,4 4,7 0,48 0,97 0,145 -1,6 -9,5 -14,5 -5,0 -13,2 -14,-5 -1,-31 0,-61 -1,-91 1,-3 -1,-6 -4,-6 -5,1 -7,6 -10,9 -24,31 -48,62 -73,92 -7,1 -14,1 -22,1 -4,1 -7,-3 -6,-7 -1,-30 0,-60 -1,-89 1,-6 -6,-8 -8,-3 -26,32 -51,64 -76,95 -1,3 -6,4 -7,0 0,-12 0,-24 0,-36 0,-4 3,-8 6,-11 29,-35 57,-71 86,-106z"/>
    <path class="fil0" d="M329 176c1,-3 6,-2 9,-3 3,1 8,0 10,4 0,9 0,17 0,26 11,0 21,0 31,0 4,3 3,8 3,12 0,3 1,7 -3,8 -10,1 -21,0 -31,1 0,9 0,17 0,26 -4,6 -12,3 -18,3 0,-1 -1,-2 -1,-3 -1,-8 0,-17 -1,-26 -10,-1 -21,-1 -31,0 -4,-4 -3,-9 -3,-13 0,-3 0,-6 2,-8 11,0 22,0 32,0 1,-9 0,-18 1,-27z"/>
    <path class="fil0" d="M0 395c1,16 14,30 30,32l-30 0 0 -32z"/>
    <path class="fil0" d="M397 427c16,-2 28,-16 30,-32l0 32 -30 0z"/>
   </g>
   <g>
    <g>
     <path class="fil1" d="M38 0l353 0c18,0 35,15 36,33l0 362c-2,16 -14,30 -30,32l-367 0c-16,-2 -29,-16 -30,-32l0 -363c2,-18 19,-33 38,-32zm98 135l0 0c-29,35 -57,71 -86,106 -3,3 -6,7 -6,11 0,12 0,24 0,36 1,4 6,3 7,0 25,-31 50,-63 76,-95 2,-5 9,-3 8,3 1,29 0,59 1,89 -1,4 2,8 6,7 8,0 15,0 22,-1 25,-30 49,-61 73,-92 3,-3 5,-8 10,-9 3,0 5,3 4,6 1,30 0,60 1,91 1,7 9,5 14,5 5,0 13,1 14,-5 0,-48 0,-97 0,-145 0,-3 -2,-5 -4,-7 -8,0 -17,-1 -25,0 -26,33 -52,67 -79,100 -3,4 -9,1 -8,-4 0,-29 0,-59 0,-89 0,-3 -2,-8 -6,-7 -8,0 -15,-1 -22,0zm193 41l0 0c-1,9 0,18 -1,27 -10,0 -21,0 -32,0 -2,2 -2,5 -2,8 0,4 -1,9 3,13 10,-1 21,-1 31,0 1,9 0,18 1,26 0,1 1,2 1,3 6,0 14,3 18,-3 0,-9 0,-17 0,-26 10,-1 21,0 31,-1 4,-1 3,-5 3,-8 0,-4 1,-9 -3,-12 -10,0 -20,0 -31,0 0,-9 0,-17 0,-26 -2,-4 -7,-3 -10,-4 -3,1 -8,0 -9,3z"/>
    </g>
   </g>
  </g>
 </g>
</svg>
