<?xml version="1.0" encoding="UTF-8"?>
<!DOCTYPE svg PUBLIC "-//W3C//DTD SVG 1.1//EN" "http://www.w3.org/Graphics/SVG/1.1/DTD/svg11.dtd">
<!-- Creator: CorelDRAW Home & Student X7 -->
<svg xmlns="http://www.w3.org/2000/svg" xml:space="preserve" width="29mm" height="29.0036mm" version="1.1" style="shape-rendering:geometricPrecision; text-rendering:geometricPrecision; image-rendering:optimizeQuality; fill-rule:evenodd; clip-rule:evenodd"
viewBox="0 0 744 744"
 xmlns:xlink="http://www.w3.org/1999/xlink">
 <defs>
  <style type="text/css">
   <![CDATA[
    .fil0 {fill:#000066;fill-rule:nonzero}
    .fil2 {fill:#F10003;fill-rule:nonzero}
    .fil1 {fill:white;fill-rule:nonzero}
   ]]>
  </style>
 </defs>
 <g id="__x0023_Layer_x0020_1">
  <metadata id="CorelCorpID_0Corel-Layer"/>
  <g id="_628131160">
   <g>
    <g>
     <path class="fil0" d="M0 0l744 0 0 744 -744 0 0 -744zm78 294l0 0c4,4 11,7 10,14 -2,31 -6,62 -10,93 5,0 9,0 14,0 2,-27 5,-53 8,-80 13,27 24,55 36,82 3,-2 5,-5 6,-9 11,-25 21,-50 33,-74 4,27 6,54 8,81 11,0 21,0 32,0 -4,-35 -9,-71 -11,-106 -11,-1 -22,-1 -34,0 -7,19 -15,37 -23,56 -8,-19 -16,-37 -24,-56 -15,-1 -30,0 -45,-1zm144 10l0 0c4,4 12,7 11,14 1,28 1,56 0,83 10,0 19,0 29,0 -1,-32 -1,-65 0,-97 -13,0 -27,0 -40,0zm55 0l0 0c0,7 0,14 0,21 3,-3 6,-6 9,-9 12,-2 25,0 37,-1 -15,29 -35,56 -50,86 31,0 62,0 92,0 0,-3 0,-9 0,-12 -17,1 -35,1 -53,1 16,-29 35,-56 50,-86 -28,0 -57,0 -85,0zm87 0l0 0c3,3 7,5 10,7 1,20 0,40 1,59 0,13 9,26 22,29 24,6 48,3 72,2 -2,-14 -1,-29 -1,-44 12,1 24,1 37,0 0,15 0,30 -1,44 10,0 20,0 29,0 -1,-32 -1,-65 0,-97 -13,0 -26,0 -39,0 4,3 10,5 10,11 1,10 0,21 1,32 -13,-1 -25,-1 -37,0 0,-15 -1,-29 1,-43 -14,0 -27,0 -40,0 4,4 12,7 11,13 1,25 0,49 0,74 -11,1 -23,1 -33,-4 -2,-5 -4,-11 -4,-16 0,-23 0,-45 0,-67 -13,0 -26,0 -39,0zm219 1l0 0c-11,3 -22,8 -29,17 -16,19 -14,50 5,66 22,20 60,20 83,0 19,-16 20,-47 5,-66 -16,-18 -42,-23 -64,-17zm-357 133l0 0c0,6 0,12 0,17 5,0 10,-1 15,-3 64,1 128,-3 192,0 90,2 178,13 267,28 -9,-7 -20,-8 -31,-11 -85,-24 -173,-38 -262,-41 -60,-1 -121,0 -181,10z"/>
    </g>
    <path class="fil0" d="M590 316c12,-5 27,-1 33,11 8,15 8,36 0,51 -7,13 -25,17 -37,9 -11,-8 -15,-23 -14,-36 0,-14 5,-30 18,-35z"/>
   </g>
   <g>
    <path class="fil1" d="M78 294c15,1 30,0 45,1 8,19 16,37 24,56 8,-19 16,-37 23,-56 12,-1 23,-1 34,0 2,35 7,71 11,106 -11,0 -21,0 -32,0 -2,-27 -4,-54 -8,-81 -12,24 -22,49 -33,74 -1,4 -3,7 -6,9 -12,-27 -23,-55 -36,-82 -3,27 -6,53 -8,80 -5,0 -9,0 -14,0 4,-31 8,-62 10,-93 1,-7 -6,-10 -10,-14z"/>
    <path class="fil1" d="M222 304c13,0 27,0 40,0 -1,32 -1,65 0,97 -10,0 -19,0 -29,0 1,-27 1,-55 0,-83 1,-7 -7,-10 -11,-14z"/>
    <path class="fil1" d="M277 304c28,0 57,0 85,0 -15,30 -34,57 -50,86 18,0 36,0 53,-1 0,3 0,9 0,12 -30,0 -61,0 -92,0 15,-30 35,-57 50,-86 -12,1 -25,-1 -37,1 -3,3 -6,6 -9,9 0,-7 0,-14 0,-21z"/>
    <path class="fil1" d="M364 304c13,0 26,0 39,0 0,22 0,44 0,67 0,5 2,11 4,16 10,5 22,5 33,4 0,-25 1,-49 0,-74 1,-6 -7,-9 -11,-13 13,0 26,0 40,0 -2,14 -1,28 -1,43 12,-1 24,-1 37,0 -1,-11 0,-22 -1,-32 0,-6 -6,-8 -10,-11 13,0 26,0 39,0 -1,32 -1,65 0,97 -9,0 -19,0 -29,0 1,-14 1,-29 1,-44 -13,1 -25,1 -37,0 0,15 -1,30 1,44 -24,1 -48,4 -72,-2 -13,-3 -22,-16 -22,-29 -1,-19 0,-39 -1,-59 -3,-2 -7,-4 -10,-7z"/>
    <g>
     <path class="fil1" d="M583 305c22,-6 48,-1 64,17 15,19 14,50 -5,66 -23,20 -61,20 -83,0 -19,-16 -21,-47 -5,-66 7,-9 18,-14 29,-17zm7 11l0 0c-13,5 -18,21 -18,35 -1,13 3,28 14,36 12,8 30,4 37,-9 8,-15 8,-36 0,-51 -6,-12 -21,-16 -33,-11z"/>
    </g>
   </g>
   <g>
    <path class="fil2" d="M226 438c60,-10 121,-11 181,-10 89,3 177,17 262,41 11,3 22,4 31,11 -89,-15 -177,-26 -267,-28 -64,-3 -128,1 -192,0 -5,2 -10,3 -15,3 0,-5 0,-11 0,-17z"/>
   </g>
  </g>
 </g>
</svg>
