<?xml version="1.0" encoding="UTF-8"?>
<!DOCTYPE svg PUBLIC "-//W3C//DTD SVG 1.1//EN" "http://www.w3.org/Graphics/SVG/1.1/DTD/svg11.dtd">
<!-- Creator: CorelDRAW Home & Student X7 -->
<svg xmlns="http://www.w3.org/2000/svg" xml:space="preserve" width="29.001mm" height="29.0046mm" version="1.1" style="shape-rendering:geometricPrecision; text-rendering:geometricPrecision; image-rendering:optimizeQuality; fill-rule:evenodd; clip-rule:evenodd"
viewBox="0 0 2900 2900"
 xmlns:xlink="http://www.w3.org/1999/xlink">
 <defs>
  <style type="text/css">
   <![CDATA[
    .str0 {stroke:#373435;stroke-width:0.100001}
    .fil0 {fill:#002B51}
   ]]>
  </style>
 </defs>
 <g id="__x0023_Layer_x0020_1">
  <metadata id="CorelCorpID_0Corel-Layer"/>
  <path class="fil0 str0" d="M0 2900l2900 0 0 -2900 -2900 0 0 2900zm748 -1568l0 -319 62 0 73 226c6,21 11,36 14,47 4,-12 9,-29 17,-51l74 -222 55 0 0 319 -40 0 0 -267 -90 267 -36 0 -89 -272 0 272 -40 0zm341 -116c0,-42 12,-74 35,-94 19,-17 42,-26 70,-26 31,0 56,10 75,31 20,21 29,49 29,86 0,30 -4,53 -12,70 -9,17 -22,30 -38,39 -17,10 -35,14 -54,14 -31,0 -57,-10 -76,-31 -19,-20 -29,-50 -29,-89zm39 0c0,30 6,52 19,66 12,15 28,22 47,22 19,0 34,-7 47,-22 12,-14 19,-37 19,-67 0,-28 -7,-50 -19,-65 -13,-14 -28,-22 -47,-22 -19,0 -35,8 -47,22 -13,15 -19,37 -19,66zm214 116l0 -231 35 0 0 35c8,-16 16,-27 24,-32 7,-5 15,-8 24,-8 13,0 26,4 39,12l-14 36c-9,-5 -18,-8 -27,-8 -8,0 -16,3 -22,8 -7,5 -11,12 -14,21 -5,14 -7,30 -7,46l0 121 -38 0zm137 19l37 5c2,12 6,20 13,26 9,7 22,10 38,10 18,0 31,-3 41,-10 10,-8 16,-18 19,-31 2,-8 3,-24 3,-50 -16,20 -37,31 -62,31 -30,0 -54,-12 -71,-35 -17,-23 -25,-50 -25,-82 0,-22 4,-42 11,-61 8,-18 19,-33 34,-43 14,-10 32,-15 51,-15 27,0 49,11 66,33l0 -28 34 0 0 199c0,36 -3,61 -10,76 -7,15 -18,27 -34,36 -15,8 -34,13 -56,13 -27,0 -48,-6 -65,-19 -16,-12 -24,-31 -24,-55zm31 -139c0,30 6,52 18,66 12,14 26,21 44,21 17,0 32,-7 44,-21 11,-13 17,-35 17,-64 0,-29 -6,-50 -18,-64 -12,-14 -27,-22 -44,-22 -17,0 -31,8 -43,22 -12,14 -18,35 -18,62zm362 91c-14,12 -28,21 -41,26 -13,5 -27,7 -42,7 -24,0 -43,-6 -56,-18 -13,-12 -20,-28 -20,-47 0,-12 3,-22 7,-31 5,-10 12,-17 20,-23 8,-5 17,-10 27,-12 8,-2 19,-4 34,-6 31,-4 53,-8 68,-14 0,-5 0,-8 0,-10 0,-16 -4,-27 -11,-33 -10,-9 -24,-14 -43,-14 -18,0 -31,4 -40,10 -8,7 -14,18 -19,34l-37 -5c4,-16 9,-29 17,-40 8,-10 19,-17 34,-23 14,-5 31,-8 51,-8 19,0 34,2 46,7 12,5 21,10 27,17 5,8 9,16 11,27 2,7 2,19 2,36l0 52c0,36 1,59 3,69 1,9 4,19 9,28l-40 0c-4,-9 -6,-18 -7,-29zm-3 -87c-14,6 -35,11 -62,15 -16,2 -27,5 -33,7 -7,3 -12,8 -15,13 -4,6 -6,12 -6,19 0,10 4,18 12,25 8,7 19,11 34,11 14,0 27,-4 39,-10 11,-7 19,-16 25,-27 4,-9 6,-22 6,-39l0 -14zm96 116l0 -231 34 0 0 33c17,-25 41,-38 71,-38 14,0 26,3 38,8 11,4 19,11 25,19 6,8 9,18 12,29 1,7 2,20 2,38l0 142 -38 0 0 -141c0,-16 -2,-27 -5,-35 -2,-8 -8,-14 -15,-19 -8,-5 -16,-7 -26,-7 -17,0 -30,5 -42,16 -12,10 -18,30 -18,60l0 126 -38 0zm-1229 362l39 -4c1,17 6,30 12,41 7,10 17,19 32,25 14,6 29,10 47,10 16,0 30,-3 42,-8 12,-5 20,-11 26,-20 6,-8 9,-18 9,-28 0,-10 -3,-19 -8,-26 -6,-8 -15,-14 -28,-19 -9,-4 -27,-9 -56,-16 -28,-7 -48,-14 -59,-20 -15,-8 -26,-19 -33,-31 -8,-12 -11,-25 -11,-40 0,-16 4,-32 13,-46 9,-14 22,-25 39,-32 17,-8 36,-12 57,-12 23,0 43,4 61,12 17,8 31,19 40,34 10,15 15,32 15,51l-39 4c-2,-21 -9,-36 -21,-47 -13,-10 -31,-16 -55,-16 -24,0 -43,5 -54,15 -11,9 -17,21 -17,34 0,12 4,21 12,29 8,7 29,15 62,23 33,8 56,15 69,21 18,8 31,19 40,33 8,13 12,28 12,46 0,17 -4,33 -14,49 -9,15 -23,27 -40,35 -18,9 -38,13 -60,13 -28,0 -52,-5 -70,-13 -19,-9 -34,-21 -45,-39 -11,-17 -16,-36 -17,-58zm368 68l5 36c-10,2 -20,4 -28,4 -14,0 -25,-3 -32,-8 -8,-4 -13,-10 -16,-18 -4,-8 -5,-24 -5,-49l0 -146 -28 0 0 -31 28 0 0 -73 38 0 0 73 38 0 0 31 -38 0 0 149c0,11 1,19 2,22 1,4 4,6 7,8 3,2 7,3 13,3 4,0 9,0 16,-1zm197 7c-14,13 -28,21 -41,27 -13,5 -27,7 -42,7 -25,0 -44,-6 -57,-19 -13,-12 -20,-28 -20,-48 0,-11 2,-22 7,-31 5,-10 12,-17 20,-23 8,-6 17,-10 28,-13 7,-2 18,-4 34,-6 30,-4 53,-8 68,-14 0,-5 0,-9 0,-10 0,-16 -4,-28 -11,-34 -10,-9 -24,-14 -44,-14 -18,0 -31,4 -39,10 -9,7 -15,18 -19,35l-38 -5c4,-17 9,-31 17,-41 8,-10 19,-18 34,-24 15,-5 32,-8 51,-8 19,0 35,3 47,7 12,5 21,11 26,18 6,7 10,16 12,27 2,7 2,19 2,37l0 53c0,37 1,60 3,70 1,10 4,19 9,28l-40 0c-4,-8 -6,-18 -7,-29zm-3 -88c-14,5 -35,10 -63,14 -15,3 -26,5 -33,8 -7,3 -11,8 -15,13 -4,6 -5,12 -5,19 0,11 3,19 11,26 8,8 19,11 34,11 15,0 28,-3 39,-10 12,-7 20,-16 25,-27 4,-9 7,-23 7,-40l0 -14zm97 117l0 -235 34 0 0 34c17,-26 40,-39 71,-39 14,0 26,3 38,8 11,5 20,12 25,20 6,8 10,18 12,29 1,8 2,21 2,39l0 144 -38 0 0 -143c0,-16 -1,-28 -4,-36 -3,-8 -9,-14 -16,-19 -8,-5 -16,-7 -27,-7 -16,0 -30,5 -41,16 -12,10 -18,31 -18,61l0 128 -38 0zm240 -28l0 -296 38 0 0 289 37 0 0 35 -51 0c-12,-2 -22,-6 -24,-28zm250 -48l40 6c-6,24 -18,42 -35,55 -16,14 -38,20 -64,20 -33,0 -59,-10 -78,-31 -19,-21 -29,-51 -29,-89 0,-40 10,-70 30,-92 19,-22 44,-33 75,-33 30,0 55,11 74,32 19,22 28,52 28,90 0,3 0,6 0,11l-168 0c2,26 9,45 21,59 13,14 28,21 47,21 14,0 26,-4 36,-12 10,-8 18,-20 23,-37zm-124 -64l125 0c-2,-19 -7,-34 -15,-44 -12,-16 -27,-23 -47,-23 -17,0 -32,6 -44,18 -12,12 -18,29 -19,49zm210 231l-4 -37c8,2 15,3 22,3 8,0 15,-1 20,-4 5,-3 9,-7 13,-12 2,-4 6,-14 11,-30 1,-2 2,-6 4,-10l-86 -236 41 0 47 136c6,17 11,35 16,54 5,-18 10,-35 16,-53l48 -137 38 0 -85 239c-9,26 -16,44 -21,54 -7,13 -15,22 -24,28 -9,6 -19,10 -31,10 -8,0 -16,-2 -25,-5z"/>
 </g>
</svg>
