<?xml version="1.0" encoding="UTF-8"?>
<!DOCTYPE svg PUBLIC "-//W3C//DTD SVG 1.1//EN" "http://www.w3.org/Graphics/SVG/1.1/DTD/svg11.dtd">
<!-- Creator: CorelDRAW Home & Student X7 -->
<svg xmlns="http://www.w3.org/2000/svg" xml:space="preserve" width="30mm" height="30mm" version="1.1" style="shape-rendering:geometricPrecision; text-rendering:geometricPrecision; image-rendering:optimizeQuality; fill-rule:evenodd; clip-rule:evenodd"
viewBox="0 0 3000 3000"
 xmlns:xlink="http://www.w3.org/1999/xlink">
 <defs>
  <style type="text/css">
   <![CDATA[
    .fil2 {fill:#02FF63;fill-rule:nonzero}
    .fil0 {fill:#0AFF84;fill-rule:nonzero}
    .fil1 {fill:#112020;fill-rule:nonzero}
   ]]>
  </style>
 </defs>
 <g id="__x0023_Layer_x0020_1">
  <metadata id="CorelCorpID_0Corel-Layer"/>
  <g id="_439774072">
   <g>
    <g>
     <path class="fil0" d="M0 0l3000 0 0 3000 -3000 0 0 -3000zm994 767l0 0c-46,28 -63,82 -86,127 -200,405 -402,808 -601,1213 -41,78 53,164 129,130 92,-41 181,-87 273,-127l-12 19c-63,55 -147,70 -217,112 -68,26 -169,23 -201,-55 -1,-38 3,-76 4,-113 -23,22 -49,41 -74,62 -2,-14 -3,-27 -5,-41 54,-23 61,-92 69,-143 -25,10 -47,26 -66,44 -1,-22 -2,-45 -2,-67 -26,0 -51,-1 -77,-1 -4,65 -2,131 -4,197 -12,1 -25,3 -38,5 1,-36 -5,-76 16,-108 16,-26 20,-61 4,-88 -20,-16 -46,-9 -69,-9 -31,-67 -7,-144 -17,-216 0,425 0,850 -2,1274 989,4 1977,1 2965,1 2,-496 -1,-992 -2,-1489 -67,-8 -136,5 -201,-20 -3,-32 -5,-65 -8,-98 -7,2 -21,6 -28,9 -12,32 -15,66 -20,100 -4,2 -12,5 -17,7 -50,-5 -44,-66 -51,-103 -27,14 -54,30 -81,46 4,-16 8,-32 12,-49 38,-77 80,-151 112,-231 26,-71 -54,-149 -124,-116 -255,114 -507,237 -762,352 -240,-201 -477,-406 -716,-608 -27,-26 -69,-28 -103,-16z"/>
    </g>
    <path class="fil0" d="M1395 1283c29,21 57,45 84,70 -8,20 -15,40 -23,61 -41,-31 -75,-77 -61,-131z"/>
    <path class="fil0" d="M2189 1708c6,-1 16,-1 21,-2l1 11 -10 7c-3,-4 -9,-12 -12,-16z"/>
    <path class="fil0" d="M681 1770l12 -1c-3,6 -10,18 -14,25 1,-6 2,-18 2,-24z"/>
   </g>
   <g>
    <g>
     <path class="fil1" d="M994 767c34,-12 76,-10 103,16 239,202 476,407 716,608 255,-115 507,-238 762,-352 70,-33 150,45 124,116 -32,80 -74,154 -112,231 -76,151 -150,303 -226,455 -24,45 -38,109 -95,124 -38,14 -78,-4 -107,-30 -125,-106 -247,-216 -375,-318 -33,0 -62,24 -92,36 -328,152 -656,303 -983,457 -92,40 -181,86 -273,127 -76,34 -170,-52 -129,-130 199,-405 401,-808 601,-1213 23,-45 40,-99 86,-127zm-214 812l0 0c-29,63 -69,122 -87,190l-12 1c0,6 -1,18 -2,24 -39,48 -56,110 -90,162 43,-8 79,-32 118,-49 309,-140 614,-289 924,-425 -52,-42 -101,-87 -152,-129 -27,-25 -55,-49 -84,-70l0 -2c-108,-97 -220,-188 -329,-283 -93,195 -193,386 -286,581zm1191 -54l0 0c72,61 139,131 218,183 3,4 9,12 12,16l10 -7 -1 -11c14,-19 25,-40 35,-61 50,-109 109,-213 158,-323 -143,70 -288,135 -432,203z"/>
    </g>
   </g>
   <g>
    <path class="fil2" d="M780 1579c93,-195 193,-386 286,-581 109,95 221,186 329,283l0 2c-14,54 20,100 61,131 8,-21 15,-41 23,-61 51,42 100,87 152,129 -310,136 -615,285 -924,425 -39,17 -75,41 -118,49 34,-52 51,-114 90,-162 4,-7 11,-19 14,-25 18,-68 58,-127 87,-190z"/>
    <path class="fil2" d="M1971 1525c144,-68 289,-133 432,-203 -49,110 -108,214 -158,323 -10,21 -21,42 -35,61 -5,1 -15,1 -21,2 -79,-52 -146,-122 -218,-183z"/>
    <path class="fil2" d="M2744 1385c7,-3 21,-7 28,-9 3,33 5,66 8,98 65,25 134,12 201,20 1,497 4,993 2,1489 -988,0 -1976,3 -2965,-1 2,-424 2,-849 2,-1274 10,72 -14,149 17,216 23,0 49,-7 69,9 16,27 12,62 -4,88 -21,32 -15,72 -16,108 13,-2 26,-4 38,-5 2,-66 0,-132 4,-197 26,0 51,1 77,1 0,22 1,45 2,67 19,-18 41,-34 66,-44 -8,51 -15,120 -69,143 2,14 3,27 5,41 25,-21 51,-40 74,-62 -1,37 -5,75 -4,113 32,78 133,81 201,55 70,-42 154,-57 217,-112l12 -19c327,-154 655,-305 983,-457 30,-12 59,-36 92,-36 128,102 250,212 375,318 29,26 69,44 107,30 57,-15 71,-79 95,-124 76,-152 150,-304 226,-455 -4,17 -8,33 -12,49 27,-16 54,-32 81,-46 7,37 1,98 51,103 5,-2 13,-5 17,-7 5,-34 8,-68 20,-100z"/>
   </g>
  </g>
 </g>
</svg>
