<?xml version="1.0" encoding="UTF-8"?>
<!DOCTYPE svg PUBLIC "-//W3C//DTD SVG 1.1//EN" "http://www.w3.org/Graphics/SVG/1.1/DTD/svg11.dtd">
<!-- Creator: CorelDRAW Home & Student X7 -->
<svg xmlns="http://www.w3.org/2000/svg" xml:space="preserve" width="30mm" height="30mm" version="1.1" style="shape-rendering:geometricPrecision; text-rendering:geometricPrecision; image-rendering:optimizeQuality; fill-rule:evenodd; clip-rule:evenodd"
viewBox="0 0 817 817"
 xmlns:xlink="http://www.w3.org/1999/xlink">
 <defs>
  <style type="text/css">
   <![CDATA[
    .fil0 {fill:#820AD1}
    .fil3 {fill:#BD83E2}
    .fil2 {fill:#D0A9E9}
    .fil1 {fill:#F3F3F4}
   ]]>
  </style>
 </defs>
 <g id="Camada_x0020_1">
  <metadata id="CorelCorpID_0Corel-Layer"/>
  <g id="_636045520">
   <polygon class="fil0" points="817,817 0,817 0,0 817,0 "/>
   <g>
    <path class="fil1" d="M109 565l79 0c1,-26 1,-53 1,-79 0,-27 -1,-53 -1,-79 0,-25 -1,-54 3,-77 3,-20 10,-34 21,-48 2,-3 3,-4 5,-6 28,1 50,7 70,27 5,5 7,7 11,13 21,32 19,66 19,103 0,16 0,32 0,49 0,32 -1,65 0,97l79 0c1,-19 0,-39 0,-58 0,-19 0,-38 0,-58 0,-34 2,-79 -4,-112 -3,-16 -8,-30 -15,-43 -3,-5 -8,-12 -12,-16l-11 -11c-1,-1 -2,-2 -4,-4 -11,-7 -23,-14 -40,-17 -30,-5 -57,2 -80,19 -2,1 -3,2 -4,3 -3,2 -7,7 -8,7 -2,1 -4,1 -6,1 -41,0 -80,27 -95,65 -6,15 -8,32 -8,50 0,19 0,38 0,58 0,38 -1,78 0,116z"/>
    <path class="fil1" d="M596 546c1,-3 2,-2 3,-4 -2,-1 -4,0 -6,-1 -15,1 -37,-8 -47,-14 -11,-7 -17,-14 -24,-23 -11,-15 -18,-34 -20,-55 -1,-10 -2,-50 -1,-60 -2,-3 -1,-122 -1,-137l-79 1c0,10 0,22 0,33l0 97c0,38 -2,87 10,120 20,54 69,80 123,66 13,-3 34,-14 42,-23z"/>
    <path class="fil1" d="M601 541l-1 0c14,1 31,-2 43,-7 22,-9 41,-26 53,-47 14,-27 12,-55 12,-86 0,-13 1,-144 0,-149l-79 0c-1,5 0,155 0,159 0,49 5,87 -24,125 -2,2 -3,3 -4,5z"/>
    <path class="fil2" d="M501 389l0 -137c-10,-1 -57,0 -75,0 -6,0 -4,0 -5,1l79 -1c0,15 -1,134 1,137z"/>
    <path class="fil3" d="M596 546c2,-2 3,-3 4,-5l1 0 -8 0c2,1 4,0 6,1 -1,2 -2,1 -3,4z"/>
   </g>
  </g>
 </g>
</svg>
