<?xml version="1.0" encoding="UTF-8"?>
<!DOCTYPE svg PUBLIC "-//W3C//DTD SVG 1.1//EN" "http://www.w3.org/Graphics/SVG/1.1/DTD/svg11.dtd">
<!-- Creator: CorelDRAW Home & Student X7 -->
<svg xmlns="http://www.w3.org/2000/svg" xml:space="preserve" width="29mm" height="29mm" version="1.1" style="shape-rendering:geometricPrecision; text-rendering:geometricPrecision; image-rendering:optimizeQuality; fill-rule:evenodd; clip-rule:evenodd"
viewBox="0 0 744 744"
 xmlns:xlink="http://www.w3.org/1999/xlink">
 <defs>
  <style type="text/css">
   <![CDATA[
    .fil5 {fill:#0B1507;fill-rule:nonzero}
    .fil38 {fill:#3EA633;fill-rule:nonzero}
    .fil37 {fill:#43AA37;fill-rule:nonzero}
    .fil17 {fill:#465757;fill-rule:nonzero}
    .fil36 {fill:#48AC3A;fill-rule:nonzero}
    .fil33 {fill:#50B342;fill-rule:nonzero}
    .fil24 {fill:#56B647;fill-rule:nonzero}
    .fil34 {fill:#5EB54F;fill-rule:nonzero}
    .fil13 {fill:#5FBC4F;fill-rule:nonzero}
    .fil35 {fill:#60B552;fill-rule:nonzero}
    .fil12 {fill:#60BC51;fill-rule:nonzero}
    .fil29 {fill:#62BC56;fill-rule:nonzero}
    .fil14 {fill:#68BE57;fill-rule:nonzero}
    .fil4 {fill:#69C456;fill-rule:nonzero}
    .fil15 {fill:#6ABE56;fill-rule:nonzero}
    .fil3 {fill:#6EC75A;fill-rule:nonzero}
    .fil9 {fill:#6FBE5F;fill-rule:nonzero}
    .fil2 {fill:#74CD5F;fill-rule:nonzero}
    .fil6 {fill:#788124;fill-rule:nonzero}
    .fil1 {fill:#79D263;fill-rule:nonzero}
    .fil22 {fill:#7E8425;fill-rule:nonzero}
    .fil0 {fill:#7ED669;fill-rule:nonzero}
    .fil16 {fill:#808525;fill-rule:nonzero}
    .fil27 {fill:#8E8A21;fill-rule:nonzero}
    .fil20 {fill:#9B9F49;fill-rule:nonzero}
    .fil18 {fill:#9ECA9C;fill-rule:nonzero}
    .fil28 {fill:#9F8F2D;fill-rule:nonzero}
    .fil21 {fill:#A4D19A;fill-rule:nonzero}
    .fil19 {fill:#A8D9D9;fill-rule:nonzero}
    .fil32 {fill:#ACE1A3;fill-rule:nonzero}
    .fil26 {fill:#B1DFAC;fill-rule:nonzero}
    .fil8 {fill:#DAE060;fill-rule:nonzero}
    .fil31 {fill:#EBF8E8;fill-rule:nonzero}
    .fil25 {fill:#EBF9E9;fill-rule:nonzero}
    .fil7 {fill:#EBF9EA;fill-rule:nonzero}
    .fil30 {fill:#ECF8EB;fill-rule:nonzero}
    .fil11 {fill:#EDF8EB;fill-rule:nonzero}
    .fil10 {fill:#EEF8EC;fill-rule:nonzero}
    .fil23 {fill:#F3DD40;fill-rule:nonzero}
   ]]>
  </style>
 </defs>
 <g id="__x0023_Layer_x0020_1">
  <metadata id="CorelCorpID_0Corel-Layer"/>
  <g id="_316005944">
   <g>
    <path class="fil0" d="M0 0l744 0 0 43c-248,0 -496,0 -744,0l0 -43z"/>
   </g>
   <g>
    <path class="fil1" d="M0 43c248,0 496,0 744,0l0 63c-248,0 -496,0 -744,0l0 -63z"/>
   </g>
   <g>
    <path class="fil2" d="M0 106c248,0 496,0 744,0l0 63c-248,0 -496,0 -744,0l0 -63z"/>
   </g>
   <g>
    <path class="fil3" d="M0 169c248,0 496,0 744,0l0 46c-35,1 -70,1 -104,-5 -76,15 -155,-6 -231,12 37,-15 -54,-22 -29,1 -62,-19 -128,-4 -189,10 -18,0 -34,-12 -52,-11 -44,-18 -92,-2 -139,-7l0 -46z"/>
   </g>
   <g>
    <path class="fil4" d="M380 223c-25,-23 66,-16 29,-1 76,-18 155,3 231,-12 34,6 69,6 104,5l0 83c-34,0 -67,-1 -101,0 -13,14 -10,-17 -24,-17 -4,13 0,34 -17,37 1,-11 4,-22 6,-33 -36,-16 -82,7 -83,48 -11,4 -9,18 -16,25l0 -4c4,-23 11,-46 13,-69 -29,-16 -69,2 -78,33 -2,-4 -5,-7 -7,-11 6,-12 10,-27 2,-38 -18,-16 -43,-12 -64,-10 -4,22 -8,45 -14,67 -8,-10 -13,-21 -18,-32 -13,2 -21,19 -36,11 -14,-4 7,16 -5,20 -21,-43 -66,-73 -114,-74 -57,3 -107,49 -116,105 -2,6 -3,15 -9,7 4,-26 18,-50 23,-75 -13,0 -20,16 -32,18 -18,0 -36,1 -54,2l0 -93c47,5 95,-11 139,7 18,-1 34,11 52,11 61,-14 127,-29 189,-10z"/>
   </g>
   <g>
    <g>
     <path class="fil5" d="M72 356c9,-56 59,-102 116,-105 48,1 93,31 114,74 9,29 13,61 2,91 -28,73 -126,100 -187,51 -33,-27 -48,-68 -45,-111zm103 -95l0 0c-48,6 -85,56 -79,104 13,-25 36,-41 62,-49 9,2 19,2 28,0 24,3 44,19 60,35 0,6 11,5 15,2 7,4 15,7 21,12 7,12 11,-31 3,-28 -6,-38 -40,-73 -80,-76 -2,-5 -31,-6 -30,0zm-9 63l0 0c-47,1 -82,56 -67,100 12,55 93,77 129,34 -50,-15 -46,-95 7,-105 -10,-17 -31,-27 -50,-29 -2,-6 -17,-6 -19,0zm36 70l0 0c-7,3 -7,19 0,22 2,46 82,52 89,4 6,-2 6,-24 0,-26 -8,-46 -82,-45 -89,0z"/>
    </g>
   </g>
   <g>
    <path class="fil6" d="M175 261c-1,-6 28,-5 30,0 -10,0 -20,0 -30,0z"/>
   </g>
   <g>
    <g>
     <path class="fil7" d="M375 259c21,-2 46,-6 64,10 8,11 4,26 -2,38 -14,13 -34,11 -52,15 -4,10 -5,21 -9,32 -28,12 -16,-14 -15,-28 6,-22 10,-45 14,-67zm20 16l0 0c-4,16 -17,41 14,28 23,-4 10,-43 -14,-28z"/>
    </g>
   </g>
   <g>
    <path class="fil8" d="M96 365c-6,-48 31,-98 79,-104 10,0 20,0 30,0 40,3 74,38 80,76 -1,10 0,19 -3,28 -6,-5 -14,-8 -21,-12 -4,-4 -10,-3 -15,-2 -16,-16 -36,-32 -60,-35 -9,-1 -19,-3 -28,0 -26,8 -49,24 -62,49z"/>
   </g>
   <g>
    <path class="fil9" d="M395 275c24,-15 37,24 14,28 -31,13 -18,-12 -14,-28z"/>
   </g>
   <g>
    <g>
     <path class="fil10" d="M444 318c9,-31 49,-49 78,-33 -2,23 -9,46 -13,69 -18,10 -13,-21 -23,-8 -19,25 -55,2 -42,-28zm22 3l0 0c-17,5 6,34 13,21 15,-10 19,-31 21,-48 -16,0 -32,11 -34,27z"/>
    </g>
    <g>
     <path class="fil10" d="M354 397c11,-15 34,-4 50,-8 26,6 21,42 -3,45 13,7 16,21 13,36 -11,11 -28,13 -42,17 -12,-1 -23,-1 -35,-1 1,-17 5,-33 8,-49 3,-13 6,-26 9,-40zm20 3l0 0c-6,14 -13,41 14,28 23,-10 7,-34 -14,-28zm-9 44l0 0c-4,12 -14,42 13,27 27,-3 12,-43 -13,-27z"/>
    </g>
   </g>
   <g>
    <g>
     <path class="fil11" d="M525 333c1,-41 47,-64 83,-48 -2,11 -5,22 -6,33 -7,20 -8,41 -20,59 -17,11 -45,17 -62,6 -1,-26 32,2 43,-15 6,-5 9,-12 10,-20 -19,8 -45,11 -48,-15zm48 -38l0 0c-25,0 -38,63 -5,42 11,-9 25,-45 5,-42z"/>
    </g>
   </g>
   <g>
    <path class="fil12" d="M619 281c14,0 11,31 24,17 34,-1 67,0 101,0l0 135c-23,0 -48,-6 -65,14 -11,8 -13,-12 -17,-18 -6,9 -23,16 -14,28 4,8 21,27 8,29 -4,-15 -15,-26 -21,-40 9,-13 24,-20 34,-32 -24,-11 -32,18 -51,23 -4,-21 30,-66 -9,-56 -9,34 -17,69 -21,105 -5,0 -11,-1 -16,-1 1,-22 29,-72 -10,-75 -14,5 -27,12 -42,4 -4,24 -11,47 -14,71 -4,0 -8,-1 -13,-1 1,-24 8,-46 9,-70 -32,-12 -74,6 -80,43 -6,-22 -1,3 -8,13 3,-15 0,-29 -13,-36 24,-3 29,-39 3,-45 -13,3 -51,-15 -50,8 -3,14 -6,27 -9,40 -4,-10 -12,-25 -2,-34 16,-13 -19,-40 -24,-19 14,12 1,36 1,53 -5,-7 -4,-25 -16,-21 11,-30 7,-62 -2,-91 12,-4 -9,-24 5,-20 15,8 23,-9 36,-11 5,11 10,22 18,32 -1,14 -13,40 15,28 4,-11 5,-22 9,-32 18,-4 38,-2 52,-15 2,4 5,7 7,11 -13,30 23,53 42,28 3,11 11,14 23,12 7,-7 5,-21 16,-25 3,26 29,23 48,15 -1,8 -4,15 -10,20 -11,17 -44,-11 -43,15 17,11 45,5 62,-6 12,-18 13,-39 20,-59 17,-3 13,-24 17,-37z"/>
   </g>
   <g>
    <path class="fil13" d="M54 306c12,-2 19,-18 32,-18 -5,25 -19,49 -23,75 6,8 7,-1 9,-7 -3,43 12,84 45,111 -26,-7 -41,-36 -50,-61 -5,-15 -8,4 -12,10 -18,0 -37,-3 -55,-3l0 -105c18,-1 36,-2 54,-2z"/>
   </g>
   <g>
    <path class="fil14" d="M466 321c2,-16 18,-27 34,-27 -2,17 -6,38 -21,48 -12,0 -14,-11 -13,-21z"/>
   </g>
   <g>
    <path class="fil15" d="M573 295c20,-3 6,33 -5,42 -33,21 -20,-42 5,-42z"/>
   </g>
   <g>
    <path class="fil16" d="M158 316c9,-3 19,-1 28,0 -9,2 -19,2 -28,0z"/>
   </g>
   <g>
    <path class="fil17" d="M166 324c2,-6 17,-6 19,0 -7,0 -13,0 -19,0z"/>
   </g>
   <g>
    <path class="fil18" d="M479 342c-7,13 -30,-16 -13,-21 -1,10 1,21 13,21z"/>
   </g>
   <g>
    <path class="fil19" d="M99 424c-15,-44 20,-99 67,-100 6,0 12,0 19,0 19,2 40,12 50,29 -53,10 -57,90 -7,105 -36,43 -117,21 -129,-34z"/>
   </g>
   <g>
    <path class="fil20" d="M285 337c8,-3 4,40 -3,28 3,-9 2,-18 3,-28z"/>
   </g>
   <g>
    <path class="fil21" d="M486 346c10,-13 5,18 23,8l0 4c-12,2 -20,-1 -23,-12z"/>
   </g>
   <g>
    <path class="fil22" d="M246 351c5,-1 11,-2 15,2 -4,3 -15,4 -15,-2z"/>
   </g>
   <g>
    <path class="fil23" d="M202 394c7,-45 81,-46 89,0 0,8 0,17 0,26 -7,48 -87,42 -89,-4 0,-5 0,-16 0,-22z"/>
   </g>
   <g>
    <path class="fil24" d="M319 384c5,-21 40,6 24,19 -10,9 -2,24 2,34 -3,16 -7,32 -8,49 12,0 23,0 35,1 -13,16 -46,21 -45,-7 -60,17 -129,18 -192,33 7,-4 15,-8 22,-14 -12,-14 -41,-7 -46,-26 -7,7 0,15 2,22 -36,-12 -76,-3 -113,-5l0 -77c18,0 37,3 55,3 4,-6 7,-25 12,-10 9,25 24,54 50,61 61,49 159,22 187,-51 12,-4 11,14 16,21 0,-17 13,-41 -1,-53z"/>
   </g>
   <g>
    <path class="fil25" d="M609 381c39,-10 5,35 9,56 19,-5 27,-34 51,-23 -10,12 -25,19 -34,32 6,14 17,25 21,40 -25,10 -29,-18 -39,-33 -13,11 2,46 -29,33 4,-36 12,-71 21,-105z"/>
   </g>
   <g>
    <path class="fil26" d="M354 397c-1,-23 37,-5 50,-8 -16,4 -39,-7 -50,8z"/>
   </g>
   <g>
    <path class="fil27" d="M202 416c-7,-3 -7,-19 0,-22 0,6 0,17 0,22z"/>
   </g>
   <g>
    <path class="fil28" d="M291 394c6,2 6,24 0,26 0,-9 0,-18 0,-26z"/>
   </g>
   <g>
    <path class="fil29" d="M374 400c21,-6 37,18 14,28 -27,13 -20,-14 -14,-28z"/>
   </g>
   <g>
    <g>
     <path class="fil30" d="M422 457c6,-37 48,-55 80,-43 -1,24 -8,46 -9,70 -14,6 -22,4 -21,-11 -9,7 -18,18 -32,13 -14,0 -17,-18 -18,-29zm45 -31l0 0c-14,8 -30,31 -16,47 21,2 25,-25 30,-41 9,-7 -11,-14 -14,-6z"/>
    </g>
   </g>
   <g>
    <path class="fil31" d="M520 414c15,8 28,1 42,-4 39,3 11,53 10,75 -34,12 -13,-24 -11,-41 5,-9 -3,-25 -15,-17 -26,12 -1,70 -40,58 3,-24 10,-47 14,-71z"/>
   </g>
   <g>
    <path class="fil32" d="M467 426c3,-8 23,-1 14,6 -3,-5 -9,-5 -14,-6z"/>
   </g>
   <g>
    <path class="fil33" d="M546 427c12,-8 20,8 15,17 -2,17 -23,53 11,41 5,0 11,1 16,1 31,13 16,-22 29,-33 10,15 14,43 39,33 13,-2 -4,-21 -8,-29 -9,-12 8,-19 14,-28 4,6 6,26 17,18 17,-20 42,-14 65,-14l0 146c-144,0 -289,0 -433,0 -13,-6 -21,4 -30,10 -13,2 -18,-18 -33,-10 -83,-1 -165,0 -248,0l0 -89c37,2 77,-7 113,5 -2,-7 -9,-15 -2,-22 5,19 34,12 46,26 -7,6 -15,10 -22,14 63,-15 132,-16 192,-33 -1,28 32,23 45,7 14,-4 31,-6 42,-17 7,-10 2,-35 8,-13 1,11 4,29 18,29 14,5 23,-6 32,-13 -1,15 7,17 21,11 5,0 9,1 13,1 39,12 14,-46 40,-58z"/>
   </g>
   <g>
    <path class="fil34" d="M451 473c-14,-16 2,-39 16,-47 5,1 11,1 14,6 -5,16 -9,43 -30,41z"/>
   </g>
   <g>
    <path class="fil35" d="M365 444c25,-16 40,24 13,27 -27,15 -17,-15 -13,-27z"/>
   </g>
   <g>
    <path class="fil36" d="M0 579c83,0 165,-1 248,0 15,-8 20,12 33,10 9,-6 17,-16 30,-10 144,0 289,0 433,0l0 66c-248,0 -496,0 -744,0l0 -66z"/>
   </g>
   <g>
    <path class="fil37" d="M0 645c248,0 496,0 744,0l0 42c-19,19 -54,2 -79,5 -34,4 -69,6 -102,-4 -24,11 -51,5 -77,4 -162,5 -324,-1 -486,3l0 -50z"/>
   </g>
   <g>
    <path class="fil38" d="M486 692c26,1 53,7 77,-4 33,10 68,8 102,4 25,-3 60,14 79,-5l0 57 -744 0 0 -49c162,-4 324,2 486,-3z"/>
   </g>
  </g>
 </g>
</svg>
