<?xml version="1.0" encoding="UTF-8"?>
<!DOCTYPE svg PUBLIC "-//W3C//DTD SVG 1.1//EN" "http://www.w3.org/Graphics/SVG/1.1/DTD/svg11.dtd">
<!-- Creator: CorelDRAW Home & Student X7 -->
<svg xmlns="http://www.w3.org/2000/svg" xml:space="preserve" width="30.02mm" height="30.02mm" version="1.1" style="shape-rendering:geometricPrecision; text-rendering:geometricPrecision; image-rendering:optimizeQuality; fill-rule:evenodd; clip-rule:evenodd"
viewBox="0 0 1669 1669"
 xmlns:xlink="http://www.w3.org/1999/xlink">
 <defs>
  <style type="text/css">
   <![CDATA[
    .str0 {stroke:#3E4095;stroke-width:1.10617}
    .fil0 {fill:none}
    .fil1 {fill:#070B17;fill-rule:nonzero}
    .fil2 {fill:#8B9CB6;fill-rule:nonzero}
   ]]>
  </style>
 </defs>
 <g id="Camada_x0020_1">
  <metadata id="CorelCorpID_0Corel-Layer"/>
  <rect class="fil0 str0" x="1" y="1" width="1668" height="1668" rx="71" ry="96"/>
 </g>
 <g id="__x0023_Layer_x0020_1">
  <metadata id="CorelCorpID_1Corel-Layer"/>
  <g id="_641671464">
   <g>
    <g>
     <path class="fil1" d="M583 170c90,-62 203,-67 301,-112 16,-7 31,5 46,10 36,16 75,25 113,35 56,13 111,33 160,63 7,17 -8,34 -12,50 21,21 50,34 66,60 2,15 3,32 -4,46 -13,30 -30,59 -42,89 -4,9 -4,21 4,27 32,37 62,80 66,130 1,35 2,72 -13,105 -24,60 -70,111 -124,146 -76,48 -162,76 -238,124 -16,11 -30,-6 -43,-13 -59,-34 -123,-59 -183,-92 -71,-38 -133,-97 -161,-175 -8,-31 -16,-63 -9,-96 6,-49 33,-92 66,-128 7,-7 4,-17 4,-26 -13,-46 -56,-86 -44,-138 14,-23 39,-37 59,-55 5,-18 -9,-33 -12,-50zm281 -80l0 0c-73,29 -152,35 -223,70 -11,5 -25,9 -30,22 2,15 17,28 11,43 -22,20 -48,37 -65,61 -1,11 -2,23 3,33 17,38 37,73 53,111 -26,31 -53,62 -68,100 -15,33 -10,69 -9,104 13,63 57,115 106,154 72,55 162,77 238,126 8,6 20,7 29,0 75,-47 163,-70 235,-123 52,-39 97,-92 110,-157 2,-26 2,-52 0,-77 -7,-27 -17,-53 -33,-76 -11,-17 -26,-30 -39,-46 0,-3 -1,-8 -1,-10 15,-46 49,-85 56,-133 -14,-32 -49,-46 -72,-71 5,-15 15,-30 13,-46 -85,-50 -187,-54 -275,-95 -14,-5 -27,6 -39,10z"/>
    </g>
    <path class="fil1" d="M879 138c7,-4 13,-8 20,-12 4,5 8,11 12,17 -2,2 -6,6 -8,8 -10,1 -16,-8 -24,-13z"/>
    <g>
     <path class="fil1" d="M847 229c31,1 62,1 92,-2 -8,11 -18,22 -27,33 5,3 9,6 14,9 30,14 46,45 50,77 11,-3 21,-9 31,-15 -2,22 -1,44 6,65 -13,-5 -24,-13 -38,-15 -6,23 -19,44 -25,67 31,5 63,18 78,48 3,18 4,37 -1,55 -7,18 -27,25 -40,38 -9,18 -14,39 -30,53 -11,12 -28,16 -43,24 -13,8 -1,23 4,33 7,13 21,19 35,22 -1,4 -2,8 -3,11 -21,2 -39,-9 -56,-19 -26,18 -60,34 -91,19 -22,-10 -19,-40 -8,-58 4,1 11,4 14,5 1,12 -3,32 14,34 29,7 55,-18 59,-46 -10,-6 -20,-12 -31,-19 -6,-4 -11,-8 -17,-13 -18,8 -45,16 -58,-4 -10,-9 -3,-23 0,-34 3,0 8,-1 11,-1 0,12 1,25 14,31 21,-9 15,-32 16,-50 -19,-19 -45,-12 -69,-13 7,-10 13,-19 18,-29 1,-15 1,-31 -5,-46 3,0 7,0 9,0 14,20 25,44 46,58 4,-25 4,-51 0,-76 -28,-11 -52,-37 -46,-69 -2,-28 23,-46 44,-59 6,-17 5,-38 -9,-51 -16,-3 -26,8 -32,22 -11,-10 -11,-29 1,-38 16,-14 42,-10 54,8 4,3 9,10 15,7 14,-7 25,-18 37,-28 -9,-13 -21,-24 -33,-34zm3 86l0 0c-6,8 1,16 8,19 5,-2 15,-5 19,-7 3,1 7,3 9,3 0,-12 0,-25 0,-37 -16,-2 -31,6 -36,22zm57 -22l0 0c-5,11 -1,23 0,34l4 -4 -1 6 6 0c6,8 16,11 26,12 0,-3 1,-9 1,-12 -1,-12 -8,-23 -15,-33 -7,-4 -14,-9 -21,-3zm-64 64l0 0c0,30 0,61 1,91 13,2 27,2 41,-1 -1,-33 7,-67 -6,-98 -12,0 -25,1 -36,8zm66 6l0 0c-2,26 0,51 -1,77 3,-1 10,-2 13,-2 15,-20 24,-44 25,-69 -3,-15 -20,-13 -31,-15 -2,2 -5,7 -6,9zm-95 78l0 0c8,-23 5,-49 1,-73 -22,19 -25,55 -1,73zm142 28l0 0c0,7 0,13 0,19l4 -2c17,20 26,45 27,71 17,-4 21,-24 20,-39 -1,-17 -15,-28 -26,-39 -8,-5 -16,-7 -25,-10zm-108 10l0 0c0,31 -4,62 4,92 9,0 19,0 29,1 0,-32 0,-64 0,-95 -10,-5 -25,-11 -33,2zm60 5l0 0c-1,29 1,57 0,85 16,8 34,7 50,0 -2,-15 -4,-30 -6,-45 -5,-21 -20,-37 -36,-50 -2,3 -6,8 -8,10zm-63 115l0 0c7,17 14,40 36,39 0,-13 0,-27 0,-40 -12,-1 -24,-2 -36,1zm62 -2l0 0c-4,16 -2,31 1,47 15,-1 29,-6 36,-20 2,-4 5,-12 7,-15l4 2c0,-4 -1,-12 -1,-16 -16,-1 -32,0 -47,2z"/>
    </g>
    <path class="fil1" d="M1111 259c0,-2 0,-8 0,-10 7,4 14,9 23,7 2,0 6,0 8,0 -2,8 -3,17 -4,26 -9,-8 -18,-16 -27,-23z"/>
    <path class="fil1" d="M661 276c-7,-6 -6,-15 -5,-23 5,6 9,11 14,17 -2,1 -7,4 -9,6z"/>
    <path class="fil1" d="M654 311c8,1 9,5 4,11 -7,-1 -9,-4 -4,-11z"/>
    <path class="fil1" d="M1128 313c5,-10 18,0 15,8l-4 4c-8,0 -11,-4 -11,-12z"/>
    <path class="fil1" d="M582 608c9,-1 17,-2 26,-2 0,2 0,7 0,10 -9,-2 -22,2 -26,-8z"/>
    <path class="fil1" d="M1179 608c9,-1 18,-2 26,-2 -1,3 -4,10 -5,14l-4 -3c-6,-3 -12,-6 -17,-9z"/>
    <path class="fil1" d="M179 1162c50,-32 111,-26 167,-25 30,3 58,15 83,30 39,22 63,65 63,109 -31,2 -61,2 -91,0 -9,-33 -36,-60 -71,-64 -33,-2 -69,-6 -98,13 -30,16 -29,69 3,81 66,27 140,26 206,54 20,11 42,23 52,45 28,48 18,115 -23,153 -27,28 -65,40 -102,48 -59,3 -120,6 -175,-19 -48,-21 -86,-70 -81,-124 29,-1 59,0 88,-1 10,19 15,43 35,55 31,20 70,20 106,17 25,-5 54,-13 68,-37 13,-22 1,-51 -20,-61 -15,-7 -30,-12 -45,-15 -41,-8 -81,-20 -123,-24 3,-2 5,-3 8,-4 -40,-3 -82,-25 -99,-63 -10,-17 -7,-38 -8,-57 1,-19 -2,-39 8,-57 11,-22 30,-39 49,-54z"/>
    <path class="fil1" d="M959 1168c33,-29 79,-23 119,-23 5,21 5,43 2,64 -15,2 -31,0 -45,7 -18,12 -11,36 -12,54 21,2 42,2 62,4 1,16 0,33 0,49 -18,2 -36,2 -54,5 -2,1 -6,3 -8,3 -3,88 3,175 -3,262 -26,3 -53,3 -80,0 -1,-61 0,-121 0,-182 -1,-28 3,-58 -6,-85 -15,0 -30,0 -44,-1 -3,-16 -3,-34 0,-50 14,-2 29,-3 43,-4 5,-35 1,-76 26,-103z"/>
    <g>
     <path class="fil1" d="M663 1262c50,-6 104,-3 149,23 26,15 35,48 35,76 1,61 0,122 0,183 0,18 7,34 14,50 -27,1 -54,4 -81,0 -12,-6 -13,-22 -18,-32 -27,13 -51,34 -81,39 -40,8 -88,3 -118,-28 -39,-43 -28,-118 22,-148 41,-22 88,-22 133,-28 15,-4 32,-8 42,-22 4,-15 2,-34 -12,-43 -27,-16 -64,-18 -91,0 -12,8 -16,23 -21,36 -27,3 -55,4 -82,-2 2,-20 6,-41 19,-58 20,-29 56,-43 90,-46zm17 192l0 0c-27,2 -58,26 -52,57 2,22 26,37 47,35 29,2 60,-10 76,-36 12,-21 9,-47 7,-70 -26,3 -51,13 -78,14z"/>
    </g>
    <path class="fil1" d="M1252 1269c19,-14 44,-10 66,-10 -1,28 6,57 -5,84 -30,-4 -63,1 -87,21 -17,16 -22,41 -22,64 0,56 0,112 0,168 -30,1 -59,1 -89,0l-4 -3c-1,-109 -1,-219 0,-328 29,-1 59,-1 88,0 0,17 0,35 1,52 20,-13 31,-36 52,-48z"/>
    <g>
     <path class="fil1" d="M1374 1297c22,-22 54,-34 85,-35 48,-4 100,-3 143,22 23,13 37,40 36,66 1,61 0,122 0,183 0,21 7,41 13,61 -27,1 -54,4 -81,-1 -8,-9 -12,-21 -17,-32 -20,11 -38,25 -59,34 -23,9 -49,8 -73,7 -34,0 -69,-22 -82,-54 -8,-36 -9,-79 19,-107 22,-24 56,-30 86,-39l4 -1c31,-1 63,1 91,-15 20,-10 19,-44 0,-55 -26,-14 -59,-16 -86,-2 -14,8 -20,25 -27,39 -27,1 -54,1 -81,-1 3,-25 11,-51 29,-70zm74 165l0 0c-26,10 -30,41 -23,64 9,10 20,21 34,20 28,3 57,-6 77,-25 19,-22 13,-54 13,-81 -33,7 -68,10 -101,22z"/>
    </g>
   </g>
   <g>
    <path class="fil2" d="M736 183c34,-28 72,-65 120,-62 33,3 66,0 99,1 39,7 69,36 99,61 16,1 36,-15 48,1 8,8 -3,18 -9,23 -4,-8 -8,-17 -11,-25 -2,9 -9,19 -1,27 9,14 27,23 30,40 0,2 0,8 0,10 -50,-35 -81,-94 -139,-117 -19,-9 -42,-7 -61,1 -4,-6 -8,-12 -12,-17 -7,4 -13,8 -20,12 8,5 14,14 24,13 3,5 6,10 9,15 11,2 22,3 33,4 -2,9 -2,24 -15,25 -23,3 -47,3 -71,-1 -10,-1 -11,-12 -14,-20 13,-4 26,-7 39,-11 -1,-30 -37,-32 -59,-24 -66,25 -101,91 -155,131 -5,-6 -9,-11 -14,-17 28,-6 49,-32 59,-58 -8,4 -17,7 -27,7 0,-8 -4,-19 6,-24 14,-2 28,2 42,5z"/>
    <path class="fil2" d="M917 220c25,-2 50,-22 76,-11 -16,19 -44,21 -61,38 -8,5 -7,14 -6,22 -5,-3 -9,-6 -14,-9 9,-11 19,-22 27,-33 -30,3 -61,3 -92,2 12,10 24,21 33,34 -12,10 -23,21 -37,28 -6,3 -11,-4 -15,-7 18,0 32,-12 44,-24 -15,-14 -34,-23 -52,-31 -1,-6 -1,-12 -1,-19 33,3 65,18 98,10z"/>
    <g>
     <path class="fil2" d="M631 248c8,-1 17,-1 26,-1l-1 6c-1,8 -2,17 5,23 -8,7 -14,17 -20,26 13,-4 26,-10 39,-12 16,2 30,11 44,17 -9,14 -25,21 -41,26 2,-10 4,-19 6,-29 -7,1 -14,1 -22,2 -1,17 -3,34 -1,51 6,8 15,14 22,21 21,19 35,46 36,74 -1,31 -15,62 -38,82 -30,26 -64,52 -76,91 -11,31 11,66 41,77 24,12 56,7 72,-15 10,-19 7,-51 -16,-58 -13,2 -25,8 -37,13 2,-24 22,-38 39,-52 3,1 9,2 12,2 -1,8 -1,15 -2,23 14,14 30,30 26,52 3,22 -18,35 -29,51 5,15 24,21 34,33 12,15 31,17 49,19 1,3 4,9 5,12 -9,2 -17,4 -26,6 16,37 60,72 101,51 2,-8 3,-16 4,-24 -12,2 -24,6 -35,9 -1,-6 -1,-12 -2,-18 9,-6 19,-10 29,-9 20,1 39,-2 59,2 8,5 7,17 11,25 -13,-4 -26,-7 -40,-9 3,11 3,28 17,29 38,8 71,-20 89,-50 -8,-2 -16,-5 -25,-7 3,-6 5,-12 8,-18 13,-6 28,-3 39,-12 15,-12 29,-25 45,-36 -14,-16 -35,-31 -33,-55 -3,-24 16,-41 32,-56 -4,-6 -8,-12 -12,-18 28,-2 46,23 56,45 -16,-1 -36,-15 -50,-2 -20,18 -12,53 10,65 42,25 105,-11 101,-60 -4,-39 -32,-68 -60,-91 -31,-25 -60,-60 -56,-102 3,-38 31,-67 60,-89 -1,-17 -3,-34 -5,-51 -5,-1 -11,-2 -16,-4 0,10 1,20 1,31 -15,-5 -28,-13 -39,-24 14,-8 26,-18 42,-21 15,3 28,9 43,12 -4,-7 -9,-13 -14,-19 1,-9 2,-18 4,-26 -2,0 -6,0 -8,0 6,-14 19,-7 30,-3 -6,7 -11,13 -17,20 10,7 21,14 30,23 -12,8 -23,16 -34,25 3,-8 -10,-18 -15,-8 0,8 3,12 11,12 2,10 7,28 20,19 2,-8 2,-16 2,-24 13,1 26,10 22,25 -15,21 -43,22 -63,36 -20,16 -36,40 -37,66 -3,37 19,74 53,88 14,7 30,-2 43,-8 0,-11 -5,-21 -14,-27 -8,6 -17,12 -25,18 1,-22 6,-49 28,-60 3,10 2,22 9,30 14,16 20,36 33,53 -2,5 -6,9 -9,13 -15,-3 -33,-9 -47,1 10,12 19,25 29,37 9,10 23,11 35,16 -2,4 -4,9 -5,13 -3,0 -10,-1 -13,-1 1,-4 4,-11 5,-14 -8,0 -17,1 -26,2 5,3 11,6 17,9 -2,19 0,39 -4,57 -10,20 -28,36 -49,43 -18,4 -38,2 -56,10 5,14 18,31 6,46 -7,11 -21,13 -31,6 7,-8 14,-16 20,-25 -9,-2 -20,-7 -27,3 -21,25 -33,57 -58,79 -17,18 -43,21 -65,28 -17,4 -23,23 -38,30 -12,-7 -18,-23 -32,-29 -20,-7 -43,-8 -61,-22 -32,-22 -41,-64 -69,-90 -9,-10 -20,-2 -30,3 10,8 24,14 25,28 -14,0 -29,-6 -34,-20 0,-14 6,-26 8,-40 -29,-5 -63,-2 -85,-26 -21,-18 -21,-48 -23,-74 -7,-2 -14,-3 -21,-5 1,-4 2,-9 2,-13 11,-3 21,-5 31,-9 12,-14 23,-30 32,-46 -18,-2 -37,-2 -56,-2 6,-10 13,-20 16,-31 4,-21 25,-32 28,-53 4,0 8,1 13,1 6,18 22,37 11,56 -8,-7 -14,-26 -28,-20 -6,5 -8,14 -10,22 11,7 24,18 38,13 24,-8 41,-27 52,-49 11,-31 8,-70 -17,-94 -19,-23 -51,-25 -71,-45 -11,-14 3,-29 18,-30 -1,8 -2,15 -3,23 5,3 10,5 14,8 6,-8 12,-20 5,-29 -10,-10 -22,-17 -32,-26 8,-7 17,-14 25,-21 -6,-7 -11,-16 -9,-26zm23 63l0 0c-5,7 -3,10 4,11 5,-6 4,-10 -4,-11zm-72 297l0 0c4,10 17,6 26,8 0,-3 0,-8 0,-10 -9,0 -17,1 -26,2zm303 241l0 0c0,6 1,12 1,19 4,1 10,3 14,3 3,-6 10,-13 4,-20 -6,-3 -13,-3 -19,-2z"/>
    </g>
    <path class="fil2" d="M850 315c5,-16 20,-24 36,-22 0,12 0,25 0,37 -2,0 -6,-2 -9,-3 -1,-10 -1,-20 -2,-30 -11,9 -18,22 -17,37 -7,-3 -14,-11 -8,-19z"/>
    <path class="fil2" d="M907 293c7,-6 14,-1 21,3 -4,1 -10,4 -14,6 -1,7 -1,14 -3,21l-4 4c-1,-11 -5,-23 0,-34z"/>
    <path class="fil2" d="M916 329c9,0 18,0 27,0 0,3 -1,9 -1,12 -10,-1 -20,-4 -26,-12z"/>
    <g>
     <path class="fil2" d="M843 357c11,-7 24,-8 36,-8 13,31 5,65 6,98 -14,3 -28,3 -41,1 -1,-30 -1,-61 -1,-91zm11 4l0 0c-2,28 -2,55 0,82 5,0 15,0 20,0 2,-27 2,-54 0,-81 -5,0 -15,0 -20,-1z"/>
    </g>
    <path class="fil2" d="M956 469c9,3 17,5 25,10 -7,2 -14,5 -21,7l-4 2c0,-6 0,-12 0,-19z"/>
    <path class="fil2" d="M907 597c15,-2 31,-3 47,-2 0,4 1,12 1,16l-4 -2c-11,-10 -25,-8 -38,-7 0,11 0,21 0,32 10,-3 20,-7 31,-10 -7,14 -21,19 -36,20 -3,-16 -5,-31 -1,-47z"/>
    <path class="fil2" d="M851 648c11,7 21,13 31,19 -4,28 -30,53 -59,46 -17,-2 -13,-22 -14,-34 -3,-1 -10,-4 -14,-5 9,-8 22,-9 34,-6 -4,11 -8,22 -14,33 23,17 51,-5 58,-27 -8,-8 -15,-16 -22,-26z"/>
    <path class="fil2" d="M954 1162c33,-29 80,-26 120,-24 9,0 16,7 15,15 2,20 1,41 0,62 -17,2 -38,-4 -51,9 -11,10 -7,25 -6,38 19,2 38,3 57,3 5,21 5,42 2,63 -20,5 -40,4 -60,0 18,-3 36,-3 54,-5 0,-16 1,-33 0,-49 -20,-2 -41,-2 -62,-4 1,-18 -6,-42 12,-54 14,-7 30,-5 45,-7 3,-21 3,-43 -2,-64 -40,0 -86,-6 -119,23 -25,27 -21,68 -26,103 -14,1 -29,2 -43,4 -3,16 -3,34 0,50 14,1 29,1 44,1 9,27 5,57 6,85 0,61 -1,121 0,182 27,3 54,3 80,0 6,-87 0,-174 3,-262 2,0 6,-2 8,-3 -3,91 1,182 -3,273 -29,3 -58,4 -88,1 -8,-3 -10,-13 -10,-20 -1,-83 2,-166 -1,-249 -16,-1 -32,-2 -48,-3 -2,-21 -2,-43 -1,-65 16,0 32,-1 48,-2 2,-34 1,-74 26,-101z"/>
    <path class="fil2" d="M580 1288c27,-24 64,-34 100,-35 46,-3 93,2 134,25 24,13 40,40 40,67 2,66 -1,133 1,199 0,21 15,37 18,58 -34,2 -69,1 -103,0 -5,-9 -9,-18 -14,-27 -26,12 -49,29 -77,34 -39,8 -84,2 -115,-25 -49,-42 -39,-131 16,-163 34,-19 73,-24 111,-28 18,-2 36,-4 52,-13 14,-8 17,-31 3,-40 -19,-13 -43,-11 -65,-10 -21,2 -32,23 -45,38 5,-13 9,-28 21,-36 27,-18 64,-16 91,0 14,9 16,28 12,43 -10,14 -27,18 -42,22 -45,6 -92,6 -133,28 -50,30 -61,105 -22,148 30,31 78,36 118,28 30,-5 54,-26 81,-39 5,10 6,26 18,32 27,4 54,1 81,0 -7,-16 -14,-32 -14,-50 0,-61 1,-122 0,-183 0,-28 -9,-61 -35,-76 -45,-26 -99,-29 -149,-23 -34,3 -70,17 -90,46 -13,17 -17,38 -19,58 27,6 55,5 82,2 -12,5 -25,3 -38,3 -18,-1 -37,3 -54,-3 5,-29 14,-59 36,-80z"/>
    <path class="fil2" d="M1393 1273c42,-23 91,-23 136,-19 28,4 55,11 79,25 27,17 41,50 41,82 0,63 -1,126 0,188 0,18 13,32 19,48 -34,12 -72,4 -107,5 -4,-10 -8,-20 -11,-30 -23,14 -45,31 -71,36 -38,8 -80,7 -112,-16 -57,-35 -55,-128 -2,-166 22,-17 51,-26 79,-24 -30,9 -64,15 -86,39 -28,28 -27,71 -19,107 13,32 48,54 82,54 24,1 50,2 73,-7 21,-9 39,-23 59,-34 5,11 9,23 17,32 27,5 54,2 81,1 -6,-20 -13,-40 -13,-61 0,-61 1,-122 0,-183 1,-26 -13,-53 -36,-66 -43,-25 -95,-26 -143,-22 -31,1 -63,13 -85,35 -18,19 -26,45 -29,70 27,2 54,2 81,1 7,-14 13,-31 27,-39 27,-14 60,-12 86,2 19,11 20,45 0,55 -28,16 -60,14 -91,15 28,-13 63,-3 89,-22 12,-7 10,-24 6,-36 -21,-17 -50,-15 -75,-12 -21,2 -30,22 -35,40 -31,2 -63,1 -95,0 -1,-39 20,-80 55,-98z"/>
   </g>
  </g>
 </g>
</svg>
