<?xml version="1.0" encoding="UTF-8"?>
<!DOCTYPE svg PUBLIC "-//W3C//DTD SVG 1.1//EN" "http://www.w3.org/Graphics/SVG/1.1/DTD/svg11.dtd">
<!-- Creator: CorelDRAW Home & Student X7 -->
<svg xmlns="http://www.w3.org/2000/svg" xml:space="preserve" width="30mm" height="30.0978mm" version="1.1" style="shape-rendering:geometricPrecision; text-rendering:geometricPrecision; image-rendering:optimizeQuality; fill-rule:evenodd; clip-rule:evenodd"
viewBox="0 0 1667 1672"
 xmlns:xlink="http://www.w3.org/1999/xlink">
 <defs>
  <style type="text/css">
   <![CDATA[
    .fil1 {fill:#41A939;fill-rule:nonzero}
    .fil0 {fill:#DF0000;fill-rule:nonzero}
    .fil2 {fill:#FCE32F;fill-rule:nonzero}
    .fil3 {fill:white;fill-rule:nonzero}
   ]]>
  </style>
 </defs>
 <g id="__x0023_Layer_x0020_1">
  <metadata id="CorelCorpID_0Corel-Layer"/>
  <g id="_446484952">
   <g>
    <g>
     <path class="fil0" d="M0 0l1208 0 5 3c-1,116 0,232 0,348 45,0 89,0 134,-1 43,-1 85,2 128,-1 0,-117 1,-233 0,-349l192 0 0 1672 -1667 0 0 -1672zm821 592l0 0c29,52 56,105 87,155 22,38 49,74 57,117 12,48 0,99 -21,142 -12,-12 -13,-30 -21,-45 -32,-61 -71,-118 -103,-178 -24,-42 -47,-83 -72,-124 -9,-16 -15,-34 -19,-52 -17,16 -23,40 -30,61 -4,27 -3,54 -1,81 6,32 23,60 40,88 22,40 45,80 69,120 14,26 31,50 41,78 11,26 8,56 8,83 1,29 -11,56 -26,81 -29,-76 -79,-141 -116,-213 -21,-41 -49,-78 -64,-121 -9,-21 -7,-45 -13,-67 -53,17 -105,38 -153,67 -30,19 -56,46 -75,77 -30,43 -30,104 -2,149 25,46 70,78 117,102 72,40 156,56 238,64 37,6 75,4 112,4 53,-7 106,-11 158,-25 69,-17 136,-48 190,-96 35,-33 63,-80 58,-130 1,-37 -21,-69 -43,-97 -30,-38 -73,-60 -116,-80 -29,-15 -60,-25 -92,-33 -3,-38 -14,-74 -35,-106 -47,-73 -87,-151 -132,-226 -10,-17 -17,-36 -23,-55 -37,50 -41,121 -18,179z"/>
    </g>
   </g>
   <g>
    <path class="fil1" d="M1208 0l267 0c1,116 0,232 0,349 -43,3 -85,0 -128,1 -4,-31 -3,-63 -3,-95 0,-83 0,-167 0,-250 -43,-4 -87,1 -131,-2l-5 -3z"/>
   </g>
   <g>
    <path class="fil2" d="M1213 3c44,3 88,-2 131,2 0,83 0,167 0,250 0,32 -1,64 3,95 -45,1 -89,1 -134,1 0,-116 -1,-232 0,-348z"/>
   </g>
   <g>
    <path class="fil3" d="M821 592c-23,-58 -19,-129 18,-179 6,19 13,38 23,55 45,75 85,153 132,226 21,32 32,68 35,106 32,8 63,18 92,33 43,20 86,42 116,80 22,28 44,60 43,97 5,50 -23,97 -58,130 -54,48 -121,79 -190,96 -52,14 -105,18 -158,25 -37,0 -75,2 -112,-4 -82,-8 -166,-24 -238,-64 -47,-24 -92,-56 -117,-102 -28,-45 -28,-106 2,-149 19,-31 45,-58 75,-77 48,-29 100,-50 153,-67 6,22 4,46 13,67 15,43 43,80 64,121 37,72 87,137 116,213 15,-25 27,-52 26,-81 0,-27 3,-57 -8,-83 -10,-28 -27,-52 -41,-78 -24,-40 -47,-80 -69,-120 -17,-28 -34,-56 -40,-88 -2,-27 -3,-54 1,-81 7,-21 13,-45 30,-61 4,18 10,36 19,52 25,41 48,82 72,124 32,60 71,117 103,178 8,15 9,33 21,45 21,-43 33,-94 21,-142 -8,-43 -35,-79 -57,-117 -31,-50 -58,-103 -87,-155z"/>
   </g>
  </g>
 </g>
</svg>
