<?xml version="1.0" encoding="UTF-8"?>
<!DOCTYPE svg PUBLIC "-//W3C//DTD SVG 1.1//EN" "http://www.w3.org/Graphics/SVG/1.1/DTD/svg11.dtd">
<!-- Creator: CorelDRAW Home & Student X7 -->
<svg xmlns="http://www.w3.org/2000/svg" xml:space="preserve" width="29mm" height="29mm" version="1.1" style="shape-rendering:geometricPrecision; text-rendering:geometricPrecision; image-rendering:optimizeQuality; fill-rule:evenodd; clip-rule:evenodd"
viewBox="0 0 605 605"
 xmlns:xlink="http://www.w3.org/1999/xlink">
 <defs>
  <style type="text/css">
   <![CDATA[
    .fil0 {fill:#FEFEFE}
    .fil1 {fill:#00A867}
    .fil3 {fill:#01A562}
    .fil11 {fill:#02A45D}
    .fil2 {fill:#02A765}
    .fil34 {fill:#06A969}
    .fil39 {fill:#09A969}
    .fil55 {fill:#12AE71}
    .fil43 {fill:#1CAF74}
    .fil54 {fill:#22B176}
    .fil31 {fill:#25B176}
    .fil42 {fill:#2AB279}
    .fil41 {fill:#2CB47C}
    .fil49 {fill:#2EB47A}
    .fil13 {fill:#34B47D}
    .fil14 {fill:#34B681}
    .fil40 {fill:#41B986}
    .fil33 {fill:#42BA87}
    .fil5 {fill:#59C294}
    .fil30 {fill:#5CC59A}
    .fil19 {fill:#63C59B}
    .fil57 {fill:#64CAA3}
    .fil22 {fill:#65C69B}
    .fil6 {fill:#6AC59D}
    .fil56 {fill:#6BCBA6}
    .fil17 {fill:#6DC9A2}
    .fil44 {fill:#73CAA5}
    .fil45 {fill:#74CEAA}
    .fil24 {fill:#78CDA6}
    .fil47 {fill:#7BCEAA}
    .fil37 {fill:#7CD0AE}
    .fil38 {fill:#81D1AE}
    .fil46 {fill:#84D3B3}
    .fil23 {fill:#8BD3B4}
    .fil35 {fill:#92D7B8}
    .fil52 {fill:#94D9BD}
    .fil29 {fill:#95D6BA}
    .fil25 {fill:#9AD9BE}
    .fil12 {fill:#A5DDC5}
    .fil26 {fill:#A5DEC8}
    .fil36 {fill:#B1E2CC}
    .fil8 {fill:#B5E2CE}
    .fil15 {fill:#B6E4D0}
    .fil58 {fill:#BBE5D3}
    .fil20 {fill:#BEE6D5}
    .fil9 {fill:#C1E6D6}
    .fil51 {fill:#C5E9DA}
    .fil53 {fill:#CAEBDD}
    .fil18 {fill:#D1EDE2}
    .fil32 {fill:#D5EFE3}
    .fil50 {fill:#D6F0E6}
    .fil48 {fill:#E0F2EA}
    .fil4 {fill:#E2F3EC}
    .fil16 {fill:#E5F5EE}
    .fil10 {fill:#E6F6F0}
    .fil27 {fill:#E9F6F0}
    .fil7 {fill:#EAF6F2}
    .fil21 {fill:#ECF7F4}
    .fil28 {fill:#F5FCF9}
   ]]>
  </style>
 </defs>
 <g id="__x0023_Layer_x0020_1">
  <metadata id="CorelCorpID_0Corel-Layer"/>
  <g id="_635050016">
   <rect class="fil0" width="605" height="605"/>
   <g>
    <path class="fil1" d="M304 56l1 -1c2,2 1,3 1,6l0 93c0,13 1,5 2,9 0,2 0,2 -1,1l0 3c7,1 3,3 6,3 4,1 5,0 9,2 1,1 -1,1 1,1l7 0c8,1 5,2 7,3 2,1 3,0 5,1 5,2 0,2 8,3 2,0 2,0 3,2 4,1 5,0 6,4 3,-1 5,0 6,2 2,1 5,1 5,3 2,1 4,1 6,2 3,3 0,1 3,2 1,1 0,1 1,2 0,1 4,1 5,4 3,0 2,1 4,3 1,0 1,0 2,1 1,1 0,1 1,2 1,1 1,0 2,1 1,1 0,1 1,2 2,2 1,-1 3,3l0 0c4,0 2,1 3,3 2,1 2,-1 3,2 1,2 0,3 2,4 2,1 1,1 2,3 0,2 0,0 1,2 1,0 1,1 1,2 1,1 2,2 3,3 0,1 0,2 1,3 1,1 1,-1 2,6 3,0 3,2 3,5 5,2 2,2 4,6 1,2 2,0 3,4 0,2 0,3 0,5 3,2 3,3 3,9 1,2 1,0 2,2 1,2 1,11 1,14 0,3 2,-1 2,7 1,5 1,9 1,14 -1,8 1,11 -3,11 -1,5 1,10 -2,14 -2,3 -1,6 -2,9 -1,3 -2,1 -2,4 -1,2 -1,4 -2,6 -1,1 -1,0 -1,1 0,7 -2,6 -3,7 0,1 0,3 -1,4 0,1 0,1 -1,1l-1 1c-2,1 2,3 -3,6 -1,0 -1,2 -1,3 -1,2 -1,1 -2,2 -1,1 -1,1 -1,3 -1,1 -1,0 -2,1 0,2 -1,4 -2,5l-1 0c0,1 0,0 -1,1 -1,2 1,2 -3,3 -1,1 0,1 -1,2 -2,1 -1,0 -3,2 0,2 0,1 -2,2l-2 2c-2,2 -1,1 -2,3 -1,2 -1,0 -2,2 -1,0 -1,1 -2,2 -1,0 -4,0 -4,1 0,0 0,0 0,0 -1,2 0,2 -2,2 -3,1 0,2 -3,3 -3,1 -1,1 -2,2 -1,1 -3,1 -5,2 -1,3 0,2 -3,3l-2 0c-3,2 -1,2 -7,3 -1,1 0,1 -2,2 -2,1 -4,1 -5,1 0,1 0,1 0,2l-3 1c2,0 3,0 4,0 0,1 0,0 0,1 -1,0 -1,0 -1,1 -1,0 -2,0 -3,0 -1,1 -1,-1 -1,2 -4,0 0,2 -11,1 -1,2 0,2 -1,2l-2 1c0,0 0,0 0,0l-1 0c-1,0 -4,1 -6,1 -1,1 -1,-2 -1,1 0,0 -1,0 -2,0l-1 1c0,0 0,0 0,0 -1,0 -3,0 -4,0 -1,1 -5,1 -6,1 -1,0 0,0 -1,1 0,0 0,1 0,1 0,1 -1,0 -2,1l0 2c-2,0 -3,0 -3,2l0 103 1 1c0,0 0,0 0,0 1,1 0,1 0,2 1,2 2,1 3,3l1 0c0,0 0,1 0,1l21 0c1,-1 1,1 1,-2l5 0c0,0 0,0 0,0l0 -1c1,0 -1,0 3,0 4,0 12,0 14,0l1 -1c0,-1 0,-1 1,-1l4 -1c0,0 0,0 1,0 4,-1 4,0 4,-2 2,0 3,-1 5,-2l7 0c0,0 0,0 0,0 1,-2 4,-2 6,-2 2,0 2,0 2,2 0,0 0,0 0,0 -1,1 -6,0 -6,0 -1,0 -2,0 -2,1 0,0 0,0 0,1l-1 0c0,1 1,0 -1,1 5,0 2,0 5,-2 1,-1 4,0 6,-1 1,-1 1,-1 1,-2 1,0 2,0 3,0 5,-1 3,0 5,-2 1,-2 3,-1 5,-2 2,0 1,-2 4,-2 3,-1 4,0 6,-2 1,-1 2,-2 5,-2 2,0 2,-3 6,-2 1,-5 0,-4 5,-4l1 -2c1,-1 2,-1 4,-1l0 -2c1,-1 3,-1 5,-1 2,-1 0,-2 2,-3 4,-1 1,0 3,-2 2,-1 4,0 6,-2 1,-3 1,-1 3,-3 1,-1 1,-1 2,-1 1,-1 2,-1 3,-2 1,-2 0,-1 3,-2 1,-4 -1,-3 3,-3 2,-4 0,-2 4,-4l3 -3c1,-2 1,-1 4,-3 3,0 0,-2 4,-2 1,-4 -1,-3 3,-4 1,-1 0,-1 1,-2 1,-1 1,0 2,-1 1,-1 0,-1 1,-2 1,-1 2,0 2,-1 1,-1 0,-1 1,-2 1,-1 1,0 2,-1 1,-1 0,-1 1,-1 1,-2 1,-1 2,-2l0 -3 -2 0c0,-2 1,-1 2,-2l1 -1c0,-1 1,-2 2,-2l1 -1c1,-3 0,-3 3,-3 1,-2 4,-3 6,-3l0 -3 3 0c0,-2 0,-3 0,-4 2,-2 2,0 2,-2 1,-4 1,-2 3,-4l0 -2c-2,0 -1,0 -1,1 0,-4 1,-2 1,-4 0,1 0,1 1,1 0,0 0,0 0,0 0,0 0,-1 1,-3 0,-1 0,-1 0,-3 2,-1 0,0 2,-1 0,0 0,-1 0,-1 0,-2 1,-1 1,-3 0,0 0,-1 0,-1l3 0 0 -4 2 0 0 3c0,0 0,-1 3,-3 0,0 0,-2 1,-3 1,-1 2,1 2,-2 1,-5 -1,-3 4,-5 -1,-6 1,-5 2,-6 1,-1 1,-3 1,-4 1,-4 0,-2 2,-4 1,-1 0,-2 1,-4 0,-2 1,-2 2,-3l2 -7c0,-1 1,-1 1,-2 1,-2 1,-4 1,-5 0,-4 2,-2 3,-4 1,-4 -1,-5 2,-8 1,-1 1,-5 1,-8 0,-1 0,-2 1,-3 0,-1 0,-1 1,-2 2,-3 0,-9 3,-16 1,-3 1,-3 1,-6 0,-4 0,-8 1,-12 0,-5 0,-9 0,-13 0,-7 -1,-34 -1,-38 -1,-4 -2,-7 -2,-11 -1,-3 0,-10 -2,-13 -1,-1 -1,-1 -2,-3 0,-2 0,-4 0,-6 -1,-6 -3,-1 -3,-10 0,-3 -1,-3 -2,-4 -1,-2 -1,-4 -1,-6 -1,-2 -2,-2 -3,-4 0,-2 0,-4 -1,-6 -1,-1 -1,-1 -2,-3 0,-1 0,-2 -1,-4 -2,-3 -2,-1 -3,-7 0,-2 0,-1 -1,-3 -1,-1 -1,-2 -2,-4 0,-2 -1,-1 -2,-2 -1,-2 0,-3 -1,-4 0,-1 -1,-1 -2,-3 -1,-2 0,-3 -2,-4 0,-1 0,0 0,-1 -1,0 -1,-1 -1,-1 -2,-3 -2,-2 -3,-3 -1,-1 0,-3 -1,-4 -1,-1 -1,1 -3,-4 -1,-1 0,0 -1,-1 -2,-2 -1,-2 -2,-3 -2,-1 -2,0 -3,-2 -1,-3 0,-2 -2,-3 -2,-5 -1,-4 -3,-5 -1,-1 0,0 -1,-1 0,0 0,-1 0,-2 -3,-1 -3,0 -3,-3 -5,0 -1,-2 -5,-5 0,0 0,0 0,0 -2,-1 -2,-2 -2,-4 0,-1 0,0 -1,-1 -1,-1 -1,-2 -1,-2 -1,1 0,2 0,3 0,1 -1,1 -1,2l-1 0c-1,-3 -1,1 -1,-3 -2,0 -2,0 -3,-1l0 -3 -2 0c0,-2 0,-1 -1,-2 -1,-1 0,0 -2,-1 0,0 1,-1 -2,-3 -1,0 0,0 -1,0 0,-2 0,-1 -1,-2 -1,-1 0,-1 -2,-1 0,-2 0,-1 -2,-2 0,-1 -1,-1 -2,-1l0 -2c-2,0 -1,0 -3,-1l0 -2c-2,0 -2,0 -3,-1 -2,-2 2,-1 -2,-2 0,0 -1,0 -1,0 0,0 0,0 0,0l-1 -3 -2 0c-1,-3 -2,-2 -1,-6 -1,0 -2,0 -2,-1 -1,-1 0,-1 -2,-2 -1,0 -2,0 -3,-1 -1,-1 -1,-1 -3,-2 -3,-1 -1,0 -2,-2 -1,-1 -1,-1 -2,-2 -1,0 -1,-1 -1,-2 -2,1 -4,0 -5,0l-1 -3c-1,0 -2,0 -3,-1 -2,0 -2,-1 -4,-2 -1,0 -2,0 -2,-3 -3,0 -6,0 -7,-3 0,0 0,0 0,0 -1,0 -4,0 -4,0 -2,-1 -1,-2 -2,-3 -2,0 -4,0 -6,-1l0 -2 -6 0 0 -3c-3,0 -6,-1 -8,-1 -1,-3 -1,-2 -4,-2 -2,0 -2,-1 -3,-1l-1 -3c0,0 -5,0 -6,-1 -1,-1 -1,-2 -5,-2 -2,1 -4,1 -5,-1 -2,-2 -1,-1 -5,-1 -8,-1 -7,0 -9,-3l-15 -1c-3,-1 -1,-2 -3,-2 -3,-1 -27,-1 -31,0 -1,0 -1,1 -1,1 -1,1 -2,1 -2,2 -1,1 1,1 -3,3l0 2z"/>
    <path class="fil1" d="M142 183l0 1c-1,1 -3,3 -3,3 -2,2 -1,3 -4,4 0,0 0,1 -1,1l0 1c0,0 0,0 0,0 -1,0 -1,0 -1,0l0 1 0 2c-4,2 -2,0 -3,2 -1,1 0,1 -1,1 -1,1 -1,1 -2,1l-1 3 -2 0c-1,1 0,2 -1,2 -1,1 -2,1 -2,2 -1,1 0,1 -2,2 -1,1 -1,0 -1,1 -2,4 -3,0 -4,4 0,2 0,1 -1,2 -2,2 -2,3 -3,4 -1,1 -1,0 -2,2 -1,2 0,1 -2,2 -1,1 0,0 -1,2 -1,2 -1,0 -2,1 -2,1 0,1 -1,3 -1,0 -2,0 -2,1 -1,0 -1,1 -1,2 -4,1 -2,0 -3,2 0,2 -1,1 -3,2 -1,4 -1,1 -3,3 -1,2 1,2 -3,3 1,2 0,2 -1,3l-6 7c-1,1 -1,1 -2,2 -1,1 0,1 -1,2 -3,1 -1,0 -2,2 -1,2 -1,2 -3,2l-1 3 -2 0c-1,1 0,1 -2,2 -2,1 -1,0 -2,2 -1,3 -1,1 -3,3 -1,3 -1,1 -3,3 -1,1 1,0 -1,2 -2,1 -1,1 -2,2 -1,1 -1,1 -2,1l-1 5c-2,1 -2,1 -3,2 0,2 0,2 -3,3l1 0c0,1 0,4 -1,6 0,2 -1,3 -2,3 0,3 -2,6 1,9 2,3 1,6 2,9 1,1 2,1 2,2 1,2 -1,1 1,2 1,1 2,0 3,6l2 3c0,0 2,0 2,1 1,1 1,0 1,2 1,1 1,0 2,1 1,1 1,1 2,2l2 0c1,2 0,3 2,3 1,1 0,0 1,1l1 2c2,0 2,2 3,3 1,2 0,-1 3,3 0,1 0,1 1,1l4 5c1,1 2,2 3,3 1,1 1,2 2,3 3,2 1,2 3,3 2,1 1,-1 2,3l3 1 0 2 0 0c0,-1 0,-3 1,-4 2,1 0,1 2,3l2 2c1,-1 0,0 1,-1 0,0 0,-1 0,-1l0 3 2 0c0,3 0,1 1,2 0,0 0,0 0,0l2 1c0,0 0,0 0,1 0,0 0,0 0,0 0,0 0,0 0,0 1,2 2,2 3,2 0,3 0,1 1,2 0,1 0,1 0,3 3,1 3,0 3,3l3 0c2,3 -1,1 2,4 0,0 0,0 0,0 1,1 1,-1 1,3 1,0 1,0 1,0l1 1c3,4 0,0 3,3 2,2 1,2 2,3 0,0 0,0 0,0 1,1 1,1 2,1 1,1 1,2 2,2 0,1 1,3 2,4 0,0 0,0 0,0 0,0 0,0 1,0 0,0 0,0 0,0 0,0 0,0 0,0 0,0 0,1 0,1 2,0 2,0 3,0 0,2 0,1 1,2 0,0 0,0 0,0l0 1c1,0 0,0 2,0 0,2 0,2 1,3l1 2 3 1c0,1 0,1 0,2 4,0 2,2 4,4 1,0 2,0 2,3 1,0 2,0 3,0 1,1 -2,1 2,1 0,1 0,1 1,2 11,0 6,-1 8,-3 1,0 2,0 2,0 1,-3 2,-2 2,-5l2 0 0 -233 -2 0c0,-3 -1,-2 -1,-5 -7,0 -1,-1 -6,-1 0,-2 0,-2 0,-2l-5 0c-1,1 -1,0 -1,1 0,1 0,1 0,1 -2,0 -4,1 -5,1 0,-3 0,-2 -1,-3l-2 1c0,0 -1,1 -1,2 -1,0 -1,0 -2,1l0 1z"/>
    <path class="fil2" d="M147 178c1,1 1,0 1,3 1,0 3,-1 5,-1 0,0 0,0 0,-1 0,-1 0,0 1,-1l5 0c0,0 0,0 0,2 5,0 -1,1 6,1 0,3 1,2 1,5l2 0 0 233 -2 0c0,3 -1,2 -2,5 0,0 -1,0 -2,0 -2,2 3,3 -8,3 -1,-1 -1,-1 -1,-2 -4,0 -1,0 -2,-1 -1,0 -2,0 -3,0 0,-3 -1,-3 -2,-3 -2,-2 0,-4 -4,-4 0,-1 0,-1 0,-2l-3 -1 -1 -2c-1,-1 -1,-1 -1,-3 -2,0 -1,0 -2,0l0 -1c0,0 0,0 0,0 -1,-1 -1,0 -1,-2 -1,0 -1,0 -3,0 0,0 0,-1 0,-1 0,0 0,0 0,0 0,0 0,0 0,0 -1,0 -1,0 -1,0 0,0 0,0 0,0 -1,-1 -2,-3 -2,-4 -1,0 -1,-1 -2,-2 -1,0 -1,0 -2,-1 0,0 0,0 0,0 -1,-1 0,-1 -2,-3 -3,-3 0,1 -3,-3l-1 -1c0,0 0,0 -1,0 0,-4 0,-2 -1,-3 0,0 0,0 0,0 -3,-3 0,-1 -2,-4l-3 0c0,-3 0,-2 -3,-3 0,-2 0,-2 0,-3 -1,-1 -1,1 -1,-2 -1,0 -2,0 -3,-2 0,0 0,0 0,0 0,0 0,0 0,0 0,-1 0,-1 0,-1l-2 -1c0,0 0,0 0,0 -1,-1 -1,1 -1,-2l-2 0 0 -3c0,0 0,1 0,1 -1,1 0,0 -1,1l-2 -2c-2,-2 0,-2 -2,-3 -1,1 -1,3 -1,4l3 1 0 2 3 1c1,5 1,1 3,3 1,2 0,2 1,3 1,0 1,-1 2,1 1,0 0,1 1,2 1,1 1,-1 2,1 1,2 0,1 1,2 1,0 1,0 2,1l0 2c1,3 2,2 3,5 1,1 1,1 2,1 2,2 0,2 3,3 2,1 1,1 2,3 1,1 0,0 1,1 1,1 1,1 2,2 2,0 3,0 3,3 2,0 2,0 3,2 0,1 -1,0 0,1 1,1 1,0 2,1 1,1 0,1 1,1 1,2 -1,1 1,2 2,0 1,0 2,2 2,1 2,1 3,3 0,2 1,2 2,3 2,2 0,2 2,3 3,2 1,3 3,4 1,0 1,-1 3,2 2,2 11,1 13,0 1,-1 0,0 1,-1 1,-1 3,-1 4,-2 1,0 1,-2 1,-3 2,-4 3,2 3,-9l0 -222c0,-11 -1,-6 -3,-10 -1,-2 0,-3 -2,-3 -6,-3 -2,-3 -5,-4 -2,0 -8,0 -10,1 -1,0 1,1 -4,2z"/>
    <path class="fil3" d="M322 432l0 -1 -1 2c0,0 0,0 0,0 -3,3 -8,0 -11,3 -1,2 -1,1 -3,2 -1,4 0,3 -2,5 -2,1 -1,5 -1,7l0 101c0,1 1,0 3,1l0 3c3,0 2,-1 3,1 0,2 -1,2 4,2l20 0c10,-1 7,-1 9,-2 2,-2 11,-1 14,-2 1,0 2,-1 3,-2 3,-1 7,0 9,-1 1,-1 1,-1 2,-1 2,-2 4,-1 6,-2 2,-1 1,0 1,-1l1 0c0,-1 0,-1 0,-1 0,-1 1,-1 2,-1 0,0 5,1 6,0 0,0 0,0 0,0 0,-2 0,-2 -2,-2 -2,0 -5,0 -6,2 0,0 0,0 0,0l-7 0c-2,1 -3,2 -5,2 0,2 0,1 -4,2 -1,0 -1,0 -1,0l-4 1c-1,0 -1,0 -1,1l-1 1c-2,0 -10,0 -14,0 -4,0 -2,0 -3,0l0 1c0,0 0,0 0,0l-5 0c0,3 0,1 -1,2l-21 0c0,0 0,-1 0,-1l-1 0c-1,-2 -2,-1 -3,-3 0,-1 1,-1 0,-2 0,0 0,0 0,0l-1 -1 0 -103c0,-2 1,-2 3,-2l0 -2c1,-1 2,0 2,-1 0,0 0,-1 0,-1 1,-1 0,-1 1,-1 1,0 5,0 6,-1 1,0 3,0 4,0 0,0 0,0 0,0l1 -1c1,0 2,0 2,0 0,-3 0,0 1,-1 2,0 5,-1 6,-1l1 0c0,0 0,0 0,0l2 -1c1,0 0,0 1,-2 11,1 7,-1 11,-1 0,-3 0,-1 1,-2 1,0 2,0 3,0 0,-1 0,-1 1,-1 0,-1 0,0 0,-1 -1,0 -2,0 -4,0l3 -1c0,-1 0,-1 0,-2 0,3 -4,2 -7,3 -2,2 0,2 -7,3 -3,0 -3,0 -4,1 -3,2 -9,2 -12,2z"/>
    <path class="fil4" d="M143 176c-1,3 -4,3 -3,6 0,0 0,0 0,-1 2,-2 1,-1 3,-2 1,-1 0,-1 2,-3 2,-1 2,-2 4,-2 1,-1 3,-1 4,-1 4,-1 6,0 10,1 3,1 2,1 4,2 1,1 2,1 2,3 2,0 3,3 3,5 1,3 2,4 2,7 0,38 0,78 0,116l0 108c0,2 -2,8 -3,10 0,0 -1,0 -1,1 -1,1 -1,1 -1,1 -1,2 -1,1 -2,2 0,0 0,0 0,1l-1 1c-9,0 -4,4 -18,0 -1,0 -1,0 -2,-1 -1,-2 -1,-1 -2,-2 -1,-1 -1,-1 -1,-2 -1,-1 -1,0 -2,-1 -2,-2 0,-1 -2,-2 -1,-1 -1,-1 -2,-2 -2,-4 0,0 -3,-4 -1,-2 -3,-1 -3,-4 -2,-1 -3,-3 -4,-4 -3,-3 -4,-4 -6,-7 -1,-1 -1,-1 -2,-2 -1,-1 0,-1 -2,-2 -1,-1 -1,0 -1,-2 -1,-2 -1,0 -3,-2 -1,-1 0,-1 -1,-2 -2,-1 -1,0 -2,-2 -2,-3 -2,0 -3,-3 -2,-3 -2,-1 -3,-3 -2,-3 -1,0 -4,-4 -2,-1 -1,-2 -3,-3 0,2 0,3 3,3 0,1 0,2 0,3 1,0 1,0 1,0l2 3c0,0 1,0 1,0l0 1c0,0 1,0 1,0 1,2 0,0 2,2 3,5 3,1 6,6 0,0 0,0 0,0 1,2 0,1 2,2 2,2 0,2 2,3 0,0 1,1 1,1 1,1 0,0 1,2 1,1 1,1 2,1 2,2 -1,3 3,3l1 3c0,0 1,0 2,0 1,4 0,3 3,4 1,2 1,2 3,3 1,1 1,3 2,4 1,1 1,1 2,1 1,1 0,1 1,2 1,1 1,1 1,1 2,2 1,1 2,2 1,2 2,0 2,4 2,0 3,1 4,1 6,1 2,2 8,2 1,1 2,1 3,0 2,0 4,-1 5,-2 6,-1 5,-2 7,-4 4,-4 2,-2 3,-5 1,-3 2,0 2,-6 1,-3 0,-198 0,-221 0,-3 1,-10 -1,-12 0,-1 -1,-1 -1,-1 -1,-2 0,-2 -2,-4l-3 -4c0,0 0,0 0,0 -1,-1 -2,-1 -2,-2 -3,0 -2,1 -4,-1 -1,-2 -6,-2 -9,-1 0,0 -1,0 -1,0 -2,1 -1,1 -2,1 -1,1 -3,1 -4,2 -1,0 -2,2 -3,2z"/>
    <path class="fil5" d="M145 178l0 1 2 -1c5,-1 3,-2 4,-2 2,-1 8,-1 10,-1 3,1 -1,1 5,4 2,0 1,1 2,3 2,4 3,-1 3,10l0 222c0,11 -1,5 -3,9 0,1 0,3 -1,3 -1,1 -3,1 -4,2 -1,1 0,0 -1,1 -2,1 -11,2 -13,0 -2,-3 -2,-2 -3,-2 -2,-1 0,-2 -3,-4 -2,-1 0,-1 -2,-3 -1,-1 -2,-1 -2,-3 -2,0 -1,0 -2,-1 -2,-2 -10,-10 -10,-11 -1,0 -1,0 -1,-1 0,0 -1,0 -1,-1 -1,-1 0,0 -1,-1 -1,-1 -1,-1 -2,-2 -1,-1 0,0 -1,-1 -1,-2 0,-2 -2,-3 -3,-1 -1,-1 -3,-3 -1,0 -1,0 -2,-1 -1,-3 -2,-2 -3,-5 0,0 0,0 0,-1 0,0 -1,0 -1,0l-2 -2c-1,-1 0,0 -1,-1 0,0 -3,-4 -4,-4 0,0 0,0 0,0 0,0 0,1 0,1 0,0 0,0 0,0l1 1c1,1 1,1 2,2 1,1 2,2 2,4l3 3c1,1 1,1 2,2 0,0 0,1 1,1 1,1 1,1 2,2 0,1 0,1 1,2 0,0 1,0 2,1 0,1 0,1 1,2l9 9c1,2 2,2 2,4 2,0 4,3 5,4l12 13c3,2 9,2 13,1 4,0 2,-1 6,-3 1,-1 2,-2 4,-4 1,-2 1,-8 1,-11 0,-15 1,-223 0,-227 -1,-5 -3,-4 -3,-7 -1,0 0,0 -2,-2l-3 -1c-2,-2 -12,-2 -14,-1 -3,1 -2,3 -5,3z"/>
    <path class="fil6" d="M490 127c2,1 1,2 4,3 0,0 0,1 1,2 1,1 1,0 1,1 1,0 1,0 1,1 2,4 1,0 3,3 1,3 3,3 3,5 2,0 3,4 5,5l4 6c2,4 2,2 3,5 1,1 0,1 2,3 1,1 0,0 1,1 2,5 2,3 3,4 1,1 0,3 1,4 1,1 1,0 3,3 0,0 0,1 1,1 0,1 0,0 0,1 2,1 1,2 2,4 1,2 2,2 2,3 1,1 0,2 1,4 1,1 2,0 2,2 1,2 1,3 2,4 1,2 1,1 1,3 1,6 1,4 3,7 1,2 1,3 1,4 1,2 1,2 2,3 1,2 1,4 1,6 1,2 2,2 3,4 0,2 0,4 1,6 1,1 2,1 2,4 0,9 2,4 3,10 0,2 0,4 0,6 1,2 1,2 2,3 2,3 1,10 2,13 0,4 1,7 2,11 0,4 1,31 1,38 0,4 0,8 0,13 -1,4 -1,8 -1,12 0,3 0,3 -1,6 -3,7 -1,13 -3,16 -1,1 -1,1 -1,2 -1,1 -1,2 -1,3 0,3 0,7 -1,8 -3,3 -1,4 -2,8 -1,2 -3,0 -3,4 0,1 0,3 -1,5 0,1 -1,1 -1,2l-2 7c-1,1 -2,1 -2,3 -1,2 0,3 -1,4 -2,2 -1,0 -2,4 0,1 0,3 -1,4 -1,1 -3,0 -2,6 -1,3 -2,1 -3,5 0,3 -1,2 -3,4 -1,2 0,2 -2,5l-2 3c0,1 -1,-1 0,2 1,-1 0,0 1,-1 0,-1 0,-2 1,-2 1,-3 1,0 3,-5 1,-3 1,-2 2,-3 1,-1 0,-1 3,-6 1,-3 0,-2 2,-6 2,-2 2,-5 3,-7 0,0 1,0 1,-2 1,-2 1,-2 1,-4 2,-2 2,-2 3,-6 1,-2 2,-4 3,-6 0,-2 0,-2 2,-7 1,-2 1,-3 1,-7 1,-1 1,-1 2,-2 0,-1 1,-3 1,-4 1,-3 0,-4 1,-7l5 -22c0,-3 0,-6 0,-8 1,-5 2,-10 2,-16 0,-10 1,-15 0,-25l-2 -16c0,-6 -1,-5 -1,-7 0,-2 0,-3 -1,-4 -2,-7 0,-11 -3,-19 -1,-3 -1,-5 -1,-8 -1,-3 -2,-4 -3,-6 -2,-8 -2,-5 -4,-14 -1,-4 -2,-2 -2,-6l1 0c-1,-1 -1,0 -1,-1 0,0 0,0 -1,-1 0,-1 0,0 0,-1 -3,-5 -2,-7 -4,-9 -1,-1 -1,0 -1,-2 -1,-5 -2,-4 -3,-6 0,-1 0,-2 -1,-3 -1,-2 -2,-2 -3,-5 0,-3 -2,-2 -2,-5 -2,-4 -2,-2 -3,-5 -1,-2 -4,-7 -5,-8 -1,-1 -1,-1 -2,-2 0,-1 0,-2 -1,-3 -1,-1 0,0 -1,-1l-6 -8c-1,-1 -1,-2 -1,-3 -1,-1 -1,-1 -2,-2 -3,-3 -10,-13 -13,-15 0,0 0,0 0,0l-2 -2c-1,-2 -1,-1 -2,-3 -4,-2 -2,-2 -5,-4l3 4c1,1 0,0 1,1l0 1z"/>
    <path class="fil7" d="M396 215c0,0 0,0 0,0l-2 -1c0,0 0,-1 0,-1 -1,-1 -1,0 -1,-1 -3,-1 -1,-2 -4,-4 -2,-1 -1,-1 -2,-2 -1,-1 -2,0 -3,-2 -1,-1 1,0 -2,-2 -1,-1 -1,-1 -2,-2 0,0 -1,0 -2,-1l-5 -3c-1,-1 -1,-2 -2,-2 -7,-2 -3,-1 -5,-3 -1,-1 -2,0 -3,-1 -2,-1 -1,-1 -2,-2 -2,-1 -4,0 -6,-2 -3,-3 -3,-1 -6,-2 -1,-1 -2,-2 -2,-2 -1,0 -3,-1 -4,-1 -6,-1 -3,-1 -5,-2 -3,-1 -5,-1 -7,-1 -3,-1 -3,-2 -6,-2 -7,-1 -10,0 -14,-3 -2,-2 -2,-1 -4,-4 -2,0 -2,-2 -3,-4 -1,-1 0,0 -1,-1 -1,-1 -1,-2 -1,-3 -1,0 0,1 -1,-1 0,-2 0,-10 0,-12l0 -80c0,-4 0,-9 0,-13 -1,1 0,0 -1,1 0,0 0,1 -1,1 -1,2 0,6 0,9 0,30 -1,60 0,90 0,2 0,3 1,4 0,0 0,0 1,0 0,2 1,6 1,8 0,1 1,1 2,2 0,0 1,2 1,2 2,0 2,0 2,1 1,0 1,1 1,1l0 1c1,1 3,1 5,1 4,3 -2,2 17,3l0 1c1,1 2,1 4,1 2,0 4,1 7,1 0,1 0,0 0,1 0,0 0,0 0,1 5,1 4,1 9,1 0,2 0,3 3,3 1,0 5,0 5,1 0,1 2,1 3,2 2,0 3,0 3,1 4,1 -2,2 5,2 0,2 0,2 0,3 4,0 2,0 5,2 1,0 1,0 1,1 1,0 1,0 3,0 0,2 0,3 3,3l0 3 2 0c1,0 1,1 1,3 2,0 4,0 5,0 1,3 1,3 4,3l0 3 3 0z"/>
    <path class="fil8" d="M131 413c0,3 2,2 3,4 3,4 1,0 3,4 1,1 1,1 2,2 2,1 0,0 2,2 1,1 1,0 2,1 0,1 0,1 1,2 1,1 1,0 2,2 1,1 1,1 2,1 14,4 9,0 18,0l1 -1c0,-1 0,-1 0,-1 1,-1 1,0 2,-2 0,0 0,0 1,-1 0,-1 1,-1 1,-1 1,-2 3,-8 3,-10l0 -108c0,-38 0,-78 0,-116 0,-3 -1,-4 -2,-7 0,-2 -1,-5 -3,-5 0,3 2,2 3,7 1,4 0,212 0,227 0,3 0,9 -1,11 -2,2 -3,3 -4,4 -4,2 -2,3 -6,3 -4,1 -10,1 -13,-1l-12 -13c-1,-1 -3,-4 -5,-4z"/>
    <path class="fil9" d="M301 55c0,4 0,9 0,13l0 80c0,2 0,10 0,12 1,2 0,1 1,1 -1,-12 0,-42 0,-56 0,-8 -1,-41 0,-48 0,-3 0,-5 3,-5l0 -1 0 -1c1,-1 2,-2 2,-3 2,-1 2,-1 4,-1 0,-1 2,-2 4,-2 4,-1 11,0 15,1 9,1 11,0 19,3 2,0 8,1 10,1 4,1 5,2 9,3 3,0 5,1 8,2 3,1 3,0 8,3 3,1 6,1 9,3 1,0 2,1 4,1 5,2 3,2 7,3 4,1 3,2 4,2 1,1 3,1 6,3 3,2 4,1 6,2 1,1 1,2 3,2 2,1 3,1 4,2 2,2 1,1 3,2 2,1 1,1 4,2 2,1 2,0 3,2 2,3 1,0 6,4l0 1c3,-1 3,1 8,4 1,1 4,4 6,5 1,0 4,2 4,4 2,-1 2,1 4,2 1,0 1,0 2,1 1,0 1,1 2,1 -1,-1 0,-1 -1,-1l-1 -2 -1 0c-1,-3 -1,-2 -4,-3 -2,-1 -2,-2 -4,-3 -3,-1 -1,-2 -4,-3 -3,-1 0,-1 -4,-3 -2,-1 -2,-1 -4,-2l-1 -1 -1 0c-1,-2 0,-2 -2,-3 -6,-2 -2,-2 -6,-3 -2,-1 -1,-1 -3,-2 -2,-2 -1,0 -4,-3 -2,-2 -3,0 -5,-2 -2,-1 -1,-2 -5,-2 -3,-1 -2,-1 -3,-2 -1,-1 -2,-1 -3,-1 -2,-1 -2,-2 -3,-2 -2,-2 -4,-1 -6,-3 -1,-1 -2,-1 -3,-1 -4,-1 -2,0 -3,-2l-7 -2c-4,0 0,-1 -5,-2 -12,-2 -2,-2 -12,-4 -2,0 -2,0 -3,0 -1,0 -1,-1 -1,-1 -1,0 0,0 -2,-1 -1,0 -1,0 -3,0l-6 -1c-1,0 -1,0 -2,-1 0,0 0,0 -1,0 0,0 0,0 0,0 -5,-3 -11,-1 -15,-2 -2,-1 -4,-2 -6,-2 -2,-1 -22,-2 -25,1 -1,0 -1,1 -3,1 -1,1 -1,1 -2,2 -1,1 0,1 -1,3 -2,1 -3,2 -3,5z"/>
    <path class="fil9" d="M524 436c0,1 0,0 0,1 -1,1 -1,0 -1,1 2,-1 2,-1 3,-3 1,-3 2,-2 3,-4 1,-2 0,-2 1,-4 2,-1 2,-2 2,-4 2,-1 3,-3 3,-5 1,-3 1,-2 3,-4 1,-2 0,-3 1,-4 2,-3 1,0 3,-6 0,-3 0,-2 1,-3 1,-2 1,-4 2,-6 1,-1 1,0 2,-2 0,-2 0,-2 1,-4 0,-2 1,-2 2,-5 1,-3 0,-5 2,-7 3,-3 0,-6 3,-9 0,0 0,0 0,0l0 -1c3,-2 1,-12 3,-16 1,-1 1,-2 1,-3 1,-7 0,-9 2,-14 2,-3 3,-52 0,-59 -1,-2 -1,-3 -1,-7 0,-4 0,-11 -2,-14 -2,-4 -1,-10 -2,-14 -2,-3 -1,2 -3,-6 -1,-10 -2,-4 -3,-9 0,-2 0,-2 -1,-4 -2,-4 0,1 -2,-6 0,-1 -1,-4 -3,-5 0,4 1,2 2,6 2,9 2,6 4,14 1,2 2,3 3,6 0,3 0,5 1,8 3,8 1,12 3,19 1,1 1,2 1,4 0,2 1,1 1,7l2 16c1,10 0,15 0,25 0,6 -1,11 -2,16 0,2 0,5 0,8l-5 22c-1,3 0,4 -1,7 0,1 -1,3 -1,4 -1,1 -1,1 -2,2 0,4 0,5 -1,7 -2,5 -2,5 -2,7 -1,2 -2,4 -3,6 -1,4 -1,4 -3,6 0,2 0,2 -1,4 0,2 -1,2 -1,2 -1,2 -1,5 -3,7 -2,4 -1,3 -2,6 -3,5 -2,5 -3,6 -1,1 -1,0 -2,3 -2,5 -2,2 -3,5 -1,0 -1,1 -1,2 -1,1 0,0 -1,1z"/>
    <path class="fil10" d="M344 560c-6,0 -6,0 -10,1 0,1 -20,3 -24,0l-1 -1c0,0 0,0 0,0 -6,-4 -2,-1 -4,-4l-2 -2c-2,-2 -2,-8 -2,-11 0,-11 0,-93 0,-97 1,-1 1,-5 2,-6 1,-2 1,0 1,-2 -1,0 -2,0 -3,2 0,3 1,4 -1,5l-1 1c0,1 0,2 0,3l0 97c0,1 0,2 1,3 0,0 0,0 0,0l1 1c0,2 0,5 1,7l2 0 1 3 3 0c0,2 -1,3 2,3 7,0 19,1 25,-1 2,0 8,-2 9,-2z"/>
    <path class="fil11" d="M307 164c1,1 1,1 1,-1 -1,-4 -2,4 -2,-9l0 -93c0,-3 1,-4 -1,-6l-1 1c-1,4 0,104 0,104 0,3 1,1 2,2 1,0 0,1 1,2z"/>
    <path class="fil12" d="M304 438c0,2 0,0 -1,2 -1,1 -1,5 -2,6 0,4 0,86 0,97 0,3 0,9 2,11l2 2c2,3 -2,0 4,4 0,0 0,0 0,0l1 1c4,3 24,1 24,0 4,-1 4,-1 10,-1l0 0 2 -1c1,0 1,0 2,0 2,-1 3,-1 4,-1 2,-2 6,-1 9,-2 3,-1 4,-2 8,-2 2,-1 4,-1 6,-2 4,-2 4,0 9,-3 2,-2 6,-2 8,-3 1,0 2,-1 3,-1 7,-2 5,-3 8,-3 0,-1 1,-1 2,-1 2,-1 1,0 1,-1 -2,0 -3,1 -4,1 -3,1 -3,1 -4,2 -1,0 -2,0 -3,0 -2,1 -3,1 -4,2 -3,1 -6,2 -8,3 0,0 0,0 0,0 -3,2 -4,1 -8,2 -1,0 -1,1 -2,1 -1,1 -3,1 -5,2 -8,1 -5,2 -15,3 -4,1 -8,2 -11,3l-18 1c-2,0 -1,0 -2,1 -4,0 -11,-1 -14,-3 -1,-1 -5,-6 -5,-7 -1,-2 -1,-56 -1,-62 0,-4 -1,-43 1,-47 1,-1 1,-1 2,-1 0,-1 0,-1 1,-3 0,-2 1,-1 1,-3 -1,1 -1,1 -2,1 0,1 0,1 0,1l-1 1z"/>
    <path class="fil13" d="M306 438c-1,2 -1,2 -1,3 -1,3 -2,-1 -2,10l0 88c0,17 0,11 3,15 2,5 9,6 13,6l11 -1c4,-1 9,-1 12,-1 2,-1 3,-1 4,-2 3,-1 8,-1 12,-1 4,-1 -1,-2 9,-3 3,0 4,-1 6,-1 1,0 1,-1 2,-1 4,-1 5,0 8,-2 0,0 0,0 0,0 2,-1 5,-2 8,-3 1,-1 2,-1 4,-2 1,0 2,0 3,0 0,-2 0,-2 2,-3 1,0 1,0 2,0 4,-1 3,-2 5,-3 3,0 3,0 5,-1 3,-3 4,-2 5,-3 -3,0 -4,1 -5,2 -2,2 -3,1 -6,2 -3,0 -2,2 -4,2 -2,1 -4,0 -5,2 -2,2 0,1 -5,2 -1,0 -2,0 -3,0 0,1 0,1 -1,2 -2,1 -5,0 -6,1 -3,2 0,2 -5,2 -2,1 -4,0 -6,2 -1,0 -1,0 -2,1 -2,1 -6,0 -9,1 -1,1 -2,2 -3,2 -3,1 -12,0 -14,2 -2,1 1,1 -9,2l-20 0c-5,0 -4,0 -4,-2 -1,-2 0,-1 -3,-1l0 -3c-2,-1 -3,0 -3,-1l0 -101c0,-2 -1,-6 1,-7 2,-2 1,-1 2,-5 2,-1 2,0 3,-2 3,-3 8,0 11,-3 0,0 0,0 0,0l1 -2c-3,0 -3,1 -5,2 -2,0 -3,0 -4,1 -4,1 -1,0 -6,3 -1,1 0,1 -1,1z"/>
    <path class="fil14" d="M311 46l-4 4c-2,1 0,0 -2,1l0 1c-1,1 -2,1 -2,3l0 61c0,13 0,29 0,42 0,5 1,4 2,6 1,1 1,1 1,3 1,1 1,1 2,1 2,1 1,2 2,2 1,1 1,0 3,1l0 1c1,0 1,0 2,0l0 0c3,2 7,2 11,2 9,1 6,3 11,3 3,0 4,1 6,2 2,1 4,1 6,2 2,0 2,1 5,2 5,1 2,2 5,3 -1,-4 -2,-3 -6,-4 -1,-2 -1,-2 -3,-2 -8,-1 -3,-1 -8,-3 -2,-1 -3,0 -5,-1 -2,-1 1,-2 -7,-3l-7 0c-2,0 0,0 -1,-1 -4,-2 -5,-1 -9,-2 -3,0 1,-2 -6,-3l0 -3c-1,-1 0,-2 -1,-2 -1,-1 -2,1 -2,-2 0,0 -1,-100 0,-104l0 -2c4,-2 2,-2 3,-3 0,-1 1,-1 2,-2 0,0 0,-1 1,-1 4,-1 28,-1 31,0 2,0 0,1 3,2l15 1c2,3 1,2 9,3 4,0 3,-1 5,1 1,2 3,2 5,1l-2 0c-4,-1 -2,-2 -5,-3 -3,0 -7,0 -9,-1 -3,-2 0,-2 -8,-2 -3,-1 -5,-1 -8,-2 -5,-2 -12,-1 -18,-2 -3,0 -5,-1 -8,-1 -4,0 -8,1 -9,1z"/>
    <path class="fil15" d="M429 289c0,4 1,27 0,30 -1,1 -1,0 -1,3 -1,7 -1,10 -3,15 -2,3 -1,5 -2,7 0,3 -2,2 -2,6 -1,4 -1,3 -2,4 -2,3 -1,4 -2,6 -1,1 -1,0 -2,2 -2,7 -1,1 -3,6 0,1 -1,1 -1,1l-2 3c-1,1 0,0 -1,2 0,2 -1,1 -2,4 -2,2 -2,2 -3,3 -1,1 -1,1 -1,2 -1,2 0,0 -2,1 -1,1 0,1 -1,2 -1,3 0,-1 -3,3 -1,3 0,0 -3,3 -1,2 0,0 -3,3 -1,2 0,1 -1,2 -2,1 -1,1 -4,3 -1,0 -1,0 -1,1 -2,3 -1,-1 -4,3l-1 1c0,1 0,1 0,1 2,-1 1,-2 4,-3 2,-1 1,-1 2,-2 1,-1 1,-1 3,-1l0 0c0,-1 1,-2 2,-3l9 -9c3,-3 5,-7 7,-8 0,-2 1,-2 2,-3l3 -5c1,-1 1,-2 2,-3 1,-2 1,-1 2,-3 0,-1 0,-2 1,-3 1,-1 1,-1 2,-3 2,-6 0,-1 2,-5 1,-2 1,-3 2,-5 1,-2 2,-3 2,-5 2,-8 2,-4 3,-8 1,-6 2,-9 3,-14 1,-18 2,-23 0,-42 -1,-5 -4,-11 -3,-15l-2 -3c0,-1 -1,-2 -1,-3 -1,-3 -2,-4 -2,-6 -3,-6 -1,-2 -3,-6 -1,-2 -1,-4 -3,-6l-4 -8c-1,-1 -1,-2 -2,-2 0,0 -4,-7 -5,-8 -1,-1 -2,-2 -2,-2 -1,2 1,2 2,4 1,2 1,2 2,3 2,2 1,3 2,4 2,2 2,1 3,4 1,3 1,1 2,3 0,1 0,2 1,2 1,3 1,1 3,6 1,3 1,3 2,4 0,1 1,3 1,4 1,2 1,2 2,4 1,2 1,3 1,5 1,2 2,2 2,4 1,3 1,7 2,10 1,3 0,-1 1,4 0,2 0,4 0,6z"/>
    <path class="fil16" d="M304 438l1 -1c0,0 0,0 0,-1 1,0 1,0 2,-1 3,-3 0,0 6,-4 3,-1 9,-1 13,-2 5,-2 8,-2 11,-3 3,0 1,-1 4,-1 2,-1 3,-1 5,-1 3,-1 3,-2 5,-3 2,-1 1,1 4,-2 1,-1 2,-1 4,-1 3,-1 2,-2 4,-3 2,-1 3,0 5,-2 3,-2 2,-1 4,-2l7 -5c0,0 0,0 0,-1l1 -1c3,-4 2,0 4,-3 0,-1 0,-1 1,-1 3,-2 2,-2 4,-3 1,-1 0,0 1,-2 3,-3 2,-1 3,-3 3,-3 2,0 3,-3 3,-4 2,0 3,-3 1,-1 0,-1 1,-2 2,-1 1,1 2,-1 0,-1 0,-1 1,-2 1,-1 1,-1 3,-3 1,-3 2,-2 2,-4 1,-2 0,-1 1,-2l2 -3c0,0 1,0 1,-1 2,-5 1,1 3,-6 1,-2 1,-1 2,-2 1,-2 0,-3 2,-6 1,-1 1,0 2,-4 0,0 -1,0 -1,0 0,0 0,0 0,0l-2 3c-2,5 0,2 -3,6 -2,3 1,3 -3,5 0,1 -1,3 -1,4 0,2 -1,1 -2,2 0,0 0,1 -1,1 0,0 0,1 0,1 -1,2 -2,2 -3,3l0 3c-4,0 -1,1 -4,3 -2,2 -1,1 -2,3l-1 1c-1,0 0,0 -1,1l-1 1c0,0 0,0 0,0 0,1 0,2 0,3 -3,0 -3,0 -3,3 -3,0 -3,0 -3,3 -2,0 -3,0 -4,0 -2,0 -2,0 -2,1 0,3 0,2 -2,3 -1,0 -1,0 -1,2 -1,0 -3,0 -3,1l-1 2 -3 0c0,0 -1,0 -1,0 0,1 0,0 -1,1l0 1c0,1 0,1 -1,1l-2 0 0 3 -3 0c-1,3 0,3 -3,3 -4,1 -3,1 -4,2 -1,3 -3,-1 -7,3 -1,1 -1,1 -2,1 -1,1 -1,0 -2,1 -2,1 -3,2 -4,2 -2,1 -5,0 -8,2 -3,2 -7,1 -10,2 -7,0 -5,2 -8,2 -9,1 -7,2 -9,3 -2,1 -1,0 -3,2 -1,1 -2,2 -2,4z"/>
    <path class="fil6" d="M406 380c1,0 0,1 1,0 2,-2 3,-6 4,-6 2,-3 1,-1 2,-3 1,-2 2,-2 2,-4 1,-1 1,-2 2,-3 1,-2 1,-1 2,-4 1,-4 2,-1 3,-5 0,-2 0,-2 1,-3 0,-1 0,0 1,-1 1,-2 1,-4 2,-6 0,-3 1,-1 2,-4 1,-3 0,-6 2,-9 3,-4 1,-9 2,-14 0,-2 0,-1 1,-3 0,-1 0,-2 0,-3 0,-8 1,-10 0,-19 0,-1 -1,-1 -1,-2 -1,-3 -1,-10 -2,-14 0,-2 -1,-1 -2,-6 0,-1 0,-2 0,-3 0,-2 0,-2 -1,-2 -1,4 2,10 3,15 2,19 1,24 0,42 -1,5 -2,8 -3,14 -1,4 -1,0 -3,8 0,2 -1,3 -2,5 -1,2 -1,3 -2,5 -2,4 0,-1 -2,5 -1,2 -1,2 -2,3 -1,1 -1,2 -1,3 -1,2 -1,1 -2,3 -1,1 -1,2 -2,3l-3 5c-1,1 -2,1 -2,3z"/>
    <path class="fil17" d="M311 46c1,0 5,-1 9,-1 3,0 5,1 8,1 6,1 13,0 18,2 3,1 5,1 8,2 8,0 5,0 8,2 2,1 6,1 9,1 3,1 1,2 5,3l2 0c4,0 4,1 5,2 1,1 6,1 6,1 3,1 2,1 4,2 3,2 4,1 6,3 1,1 1,1 4,1 1,0 1,0 2,1 2,0 1,1 3,2 1,0 2,0 3,1 2,0 1,1 3,2 0,0 2,0 4,1 1,0 1,1 2,1 1,1 2,1 4,2 2,1 0,1 4,2 0,0 0,0 1,0 1,1 0,1 1,1l1 1c1,1 1,1 1,1 2,1 3,0 4,2 2,2 2,1 4,2 1,1 1,2 3,2l0 -1c-5,-4 -4,-1 -6,-4 -1,-2 -1,-1 -3,-2 -3,-1 -2,-1 -4,-2 -2,-1 -1,0 -3,-2 -1,-1 -2,-1 -4,-2 -2,0 -2,-1 -3,-2 -2,-1 -3,0 -6,-2 -3,-2 -5,-2 -6,-3 -1,0 0,-1 -4,-2 -4,-1 -2,-1 -7,-3 -2,0 -3,-1 -4,-1 -3,-2 -6,-2 -9,-3 -5,-3 -5,-2 -8,-3 -3,-1 -5,-2 -8,-2 -4,-1 -5,-2 -9,-3 -2,0 -8,-1 -10,-1 -8,-3 -10,-2 -19,-3 -4,-1 -11,-2 -15,-1 -2,0 -4,1 -4,2z"/>
    <path class="fil18" d="M48 322c1,-1 0,-1 -1,-2l-4 -8c0,-3 -1,-11 0,-14 0,-3 1,-5 2,-6 0,-2 1,-4 2,-6 3,-3 1,-3 3,-4 1,-2 1,-1 2,-3 0,-1 0,-1 2,-2 2,-2 2,-2 4,-3 0,-3 1,-2 2,-4 1,0 1,-1 1,-1 1,-1 2,-1 2,-2 1,0 1,-1 1,-1 1,-1 1,-1 2,-2 1,-1 1,-3 3,-3 1,-1 1,-1 2,-2l4 -5c3,-2 3,-3 6,-6l4 -5c1,-3 2,-1 3,-4 1,-1 1,-1 2,-1l5 -6c1,-1 2,-2 2,-4 -1,1 -2,1 -2,2 -2,2 -2,1 -3,3 -2,2 -1,1 -3,2 -1,1 0,2 -2,3 -1,1 -1,1 -2,3 -2,3 -5,3 -6,8 -4,2 -2,2 -4,3 -1,2 -1,0 -2,4l-3 0c-1,3 0,2 -2,3 -1,1 -1,0 -1,1 -1,2 0,1 -2,2 -2,1 0,1 -2,3 0,1 0,0 -1,1 -1,1 0,1 -1,2 -2,1 -1,0 -3,2 -1,2 -2,1 -3,3 -2,3 0,1 -3,3 0,0 0,0 0,0l0 1c-1,1 -1,1 -1,2 -1,1 -1,1 -2,2 -1,2 0,1 -2,2 -2,2 -1,2 -2,5 -1,2 -2,1 -3,5 0,2 0,4 0,7 0,5 0,9 0,14 1,3 2,3 3,4 1,2 0,3 2,4l1 0c0,0 0,0 0,0 0,0 0,0 0,0z"/>
    <path class="fil19" d="M393 212c2,0 1,-1 2,0l6 7c1,1 2,1 2,3 0,0 1,1 2,2 1,1 5,8 5,8 1,0 1,1 2,2l4 8c2,2 2,4 3,6 2,4 0,0 3,6 0,2 1,3 2,6 0,1 1,2 1,3l2 3c1,-3 -1,-2 -2,-6 0,-1 0,-3 -1,-5 -1,-1 -2,-1 -2,-4 -1,-4 -2,-2 -3,-5 0,-3 0,-5 -3,-5 -1,-7 -1,-5 -2,-6 -1,-1 -1,-2 -1,-3 -1,-1 -2,-2 -3,-3 0,-1 0,-2 -1,-2 -1,-2 -1,0 -1,-2 -1,0 -1,0 -2,-1 0,-2 0,-1 -1,-1 -1,-1 0,0 -1,-2 -2,-3 -1,-2 -5,-6 -1,-1 0,0 -1,-2l0 0c-2,0 -3,-3 -5,-4l-5 -5c-1,-1 -2,-1 -3,-3 -2,0 -2,-1 -4,-2 -1,-1 -7,-6 -9,-7 0,0 -1,0 -1,0 -1,-1 0,0 -1,-1 0,-2 -3,-2 -5,-3 -1,-2 -3,-3 -6,-2 -3,-1 0,-2 -5,-3 -3,-1 -3,-2 -5,-2 -2,-1 -4,-1 -6,-2 -2,-1 -3,-2 -6,-2 1,1 1,1 2,1 3,1 4,2 6,3 3,0 3,0 5,1 3,2 2,1 8,4 1,1 2,1 4,1 1,1 1,2 3,3l7 4c1,0 2,1 3,2 4,2 2,1 4,2 2,2 1,0 3,3 1,1 2,1 3,2 1,1 2,2 3,3 1,0 1,1 2,1l2 2c2,2 1,1 1,3z"/>
    <path class="fil20" d="M495 130c3,2 10,12 13,15 1,1 1,1 2,2 0,1 0,2 1,3l6 8c1,1 0,0 1,1 1,1 1,2 1,3 1,1 1,1 2,2 1,1 4,6 5,8 1,3 1,1 3,5 0,3 2,2 2,5 1,3 2,3 3,5 1,1 1,2 1,3 1,2 2,1 3,6 0,2 0,1 1,2 2,2 1,4 4,9 0,1 0,0 0,1 1,1 1,1 1,1 0,1 0,0 1,1 0,-2 0,-2 -1,-3 0,-2 0,-1 -1,-2 -1,-1 -1,-2 -1,-4l-1 -2c0,-1 0,0 -1,-1 0,-1 -1,-2 -1,-3 -1,-2 -1,-3 -2,-5 -3,-3 -1,-3 -3,-6 -3,-4 -1,-2 -3,-5 -3,-4 0,0 -2,-5 -1,-3 -2,-2 -3,-5 -1,-4 -1,0 -3,-5 -1,-1 -1,-2 -2,-2 -2,-2 0,-1 -3,-5 -3,-3 0,-3 -3,-5 -1,0 0,0 -1,0l-1 -2c0,-1 -1,-1 -1,-2 -1,-1 -1,-1 -2,-2 -1,-1 -1,-1 -2,-3 -2,-3 -3,-3 -3,-4 -1,-2 -1,-1 -2,-2 -2,-1 -1,-1 -2,-2 -1,-2 -1,-1 -2,-2 -1,-1 0,-1 -1,-3 -1,0 -1,0 -2,-1 -3,-4 -3,-2 -4,-5l-5 -5c-1,-1 -1,-2 -2,-2 -1,-1 0,0 -3,-3 -1,-1 -1,-1 -3,-3 0,0 0,0 0,-1 -1,0 -1,0 -1,0 -2,-1 -1,-1 -3,-2 -1,-1 -1,-1 -2,-2 -2,-1 -1,-3 -4,-3 0,0 0,0 0,0l0 1c0,0 0,0 0,0 3,2 1,2 3,3 3,1 2,1 3,2l4 4c3,2 8,8 11,11 1,0 0,0 1,0 0,1 1,1 1,2 2,2 2,2 3,4z"/>
    <path class="fil21" d="M469 502c-2,4 -2,1 -5,4 0,1 -1,1 -2,2 -2,1 -1,1 -3,1 0,2 0,2 -2,2 -1,1 0,1 -1,2 -1,1 -1,0 -2,1 -3,1 0,1 -4,3 -3,1 -1,2 -7,4 0,0 -2,2 -3,2 -4,1 -2,1 -4,2 -3,2 -2,1 -4,3 -1,1 -3,1 -5,2 -5,4 -3,1 -6,3 0,1 0,0 -1,1 -3,2 -3,1 -5,3 -1,0 -1,0 -2,1 -1,0 -2,0 -3,1 2,0 7,0 7,-3 2,0 5,0 6,-1 5,-5 3,-1 6,-4 1,-1 1,-1 2,-1 3,-1 3,-1 4,-3 1,0 3,-1 4,-1 1,0 1,-1 2,-2 0,0 0,0 0,-1 1,0 4,1 6,-1 0,-1 0,0 0,-2 4,0 2,-1 4,-3 5,0 5,0 5,-3 3,0 3,1 3,-3 3,0 3,0 4,-3 2,0 2,-1 5,-1 0,-3 0,-2 3,-3l0 -2c4,0 3,0 4,-3l2 0 1 -3 2 0 1 -3c2,-1 1,0 2,-2 1,-2 2,-1 3,-2l1 -3c-2,1 -2,1 -3,2l-6 6c-1,1 -2,1 -3,2 -1,1 0,2 -2,2 -1,1 -1,0 -2,2 -1,1 -1,2 -2,2z"/>
    <path class="fil22" d="M373 551c-2,0 -3,1 -6,1 -10,1 -5,2 -9,3 -4,0 -9,0 -12,1 -1,1 -2,1 -4,2 -3,0 -8,0 -12,1l-11 1c-4,0 -11,-1 -13,-6 -3,-4 -3,2 -3,-15l0 -88c0,-11 1,-7 2,-10 -1,0 -1,0 -2,1 -2,4 -1,43 -1,47 0,6 0,60 1,62 0,1 4,6 5,7 3,2 10,3 14,3 1,-1 0,-1 2,-1l18 -1c3,-1 7,-2 11,-3 10,-1 7,-2 15,-3 2,-1 4,-1 5,-2z"/>
    <path class="fil2" d="M494 130c-3,-1 -2,-2 -4,-3 -5,-1 0,-3 -5,-4 -1,-3 -1,-2 -3,-3l0 -2c-4,-1 -3,-2 -4,-3 -1,-1 -1,0 -2,-1 -1,-1 0,-1 -1,-2 -2,-2 -2,1 -3,-3 -3,-1 -3,0 -3,-3 -6,-2 -4,-3 -6,-4 -4,-1 -2,-1 -3,-3 -1,4 0,3 1,6l2 0 1 3c0,0 0,0 0,0 0,0 1,0 1,0 4,1 0,0 2,2 1,1 1,1 3,1l0 2c2,1 1,1 3,1l0 2c1,0 2,0 2,1 2,1 2,0 2,2 2,0 1,0 2,1 1,1 1,0 1,2 1,0 0,0 1,0 3,2 2,3 2,3 2,1 1,0 2,1 1,1 1,0 1,2l2 0 0 3c1,1 1,1 3,1 0,4 0,0 1,3l1 0c0,-1 1,-1 1,-2 0,-1 -1,-2 0,-3z"/>
    <path class="fil10" d="M429 289c0,-2 0,-4 0,-6 -1,-5 0,-1 -1,-4 -1,-3 -1,-7 -2,-10 0,-2 -1,-2 -2,-4 0,-2 0,-3 -1,-5 -1,-2 -1,-2 -2,-4 0,-1 -1,-3 -1,-4 -1,-1 -1,-1 -2,-4 -2,-5 -2,-3 -3,-6 -1,0 -1,-1 -1,-2 -1,-2 -1,0 -2,-3 -1,-3 -1,-2 -3,-4 -1,-1 0,-2 -2,-4 -1,-1 -1,-1 -2,-3 -1,-2 -3,-2 -2,-4 0,0 -1,0 -1,0l-1 -1c-2,-1 -1,-1 -2,-2 -1,-2 0,0 -2,-3 -1,-1 -1,0 -1,-1 0,3 0,3 3,4 0,6 0,5 3,5 0,2 0,3 1,3l2 1c0,2 0,3 0,5 4,0 3,0 3,3l3 0c0,4 0,6 3,7 0,1 0,2 0,4 1,0 1,1 1,1l2 1c0,7 0,4 3,6 1,4 0,6 2,8 2,2 1,1 2,4 0,1 0,1 0,1l1 2c1,3 1,2 1,6l1 10c1,2 1,2 2,3z"/>
    <path class="fil23" d="M379 406l-7 5c-2,1 -1,0 -4,2 -2,2 -3,1 -5,2 -2,1 -1,2 -4,3 -2,0 -3,0 -4,1 -3,3 -2,1 -4,2 -2,1 -2,2 -5,3 -2,0 -3,0 -5,1 -3,0 -1,1 -4,1 -3,1 -6,1 -11,3 -4,1 -10,1 -13,2 -6,4 -3,1 -6,4 0,2 -1,1 -1,3 1,0 0,0 1,-1 5,-3 2,-2 6,-3 1,-1 2,-1 4,-1 2,-1 2,-2 5,-2l0 1c1,-1 -1,-1 1,-1 0,0 2,0 2,0 1,0 2,0 3,0 6,-1 3,-2 9,-3 9,-1 4,-2 9,-3 7,-2 3,-2 9,-4 3,0 1,-1 4,-2 1,0 3,0 4,-1 1,-1 1,-1 2,-2 0,0 1,0 2,0 2,-1 2,-2 3,-3 1,-1 2,-1 3,-1l10 -8c0,-1 1,-1 2,-1 1,-1 2,-2 3,-3 -2,0 -2,0 -3,1 -1,1 0,1 -2,2 -3,1 -2,2 -4,3z"/>
    <path class="fil24" d="M302 161c0,1 0,2 1,3 1,1 0,0 1,1 1,2 1,4 3,4 2,1 1,1 2,2 2,1 3,1 4,1l0 -1c-2,-1 -2,0 -3,-1 -1,0 0,-1 -2,-2 -1,0 -1,0 -2,-1 0,-2 0,-2 -1,-3 -1,-2 -2,-1 -2,-6 0,-13 0,-29 0,-42l0 -61c0,-2 1,-2 2,-3 -3,0 -3,2 -3,5 -1,7 0,40 0,48 0,14 -1,44 0,56z"/>
    <path class="fil25" d="M140 182c-1,1 -1,0 -1,1 -2,2 -1,1 -2,3 -1,1 -1,0 -2,1 -1,1 -5,7 -7,8l0 1c-1,1 -4,4 -5,5 -2,1 -1,2 -3,4l-2 1 0 1c-3,0 -2,1 -3,3 0,0 0,0 0,0 0,0 0,0 0,0 -3,1 -2,1 -3,3 -1,1 -1,0 -2,1 0,0 0,1 -1,2l-8 10c-1,0 -3,2 -4,2 0,2 -1,3 -2,4l-5 6c-1,0 -1,0 -2,1 -1,3 -2,1 -3,4 2,-1 5,-5 7,-7l6 -5c0,-1 0,-1 0,-1 1,-1 1,-1 1,-1 1,-1 5,-6 6,-7 3,-3 2,-3 4,-4 1,-2 1,-2 3,-3 2,-1 1,-2 3,-3 1,-1 1,-1 1,-2 3,-4 2,-1 4,-3l4 -5c1,-2 6,-8 8,-10 2,-2 2,-2 4,-3 0,-1 2,-3 3,-4l3 -4c3,-3 0,-1 3,-3 3,0 2,-2 5,-3 2,-1 12,-1 14,1l3 1c2,2 1,2 2,2 0,-2 -1,-2 -2,-3 -2,-1 -1,-1 -4,-2 -4,-1 -6,-2 -10,-1 -1,0 -3,0 -4,1 -2,0 -2,1 -4,2 -2,2 -1,2 -2,3 -2,1 -1,0 -3,2 0,1 0,1 0,1z"/>
    <path class="fil14" d="M493 475c-1,1 -1,0 -2,2 -1,0 0,0 -1,1 -1,1 -1,0 -2,1 -1,1 0,1 -1,2 0,1 -1,0 -2,1 -1,1 0,1 -1,2 -1,1 -1,0 -2,1 -1,1 0,1 -1,2 -4,1 -2,0 -3,4 -4,0 -1,2 -4,2 -3,2 -3,1 -4,3l-3 3c-4,2 -2,0 -4,4 -4,0 -2,-1 -3,3 -3,1 -2,0 -3,2 -1,1 -2,1 -3,2 -1,0 -1,0 -2,1 -2,2 -2,0 -3,3 -2,2 -4,1 -6,2 -2,2 1,1 -3,2 -2,1 0,2 -2,3 -2,0 -4,0 -5,1l0 2c-2,0 -3,0 -4,1l-1 2c-5,0 -4,-1 -5,4 3,-2 1,-2 4,-3 4,-1 2,-1 5,-3 1,-1 2,0 4,-2l5 -3c0,0 2,-1 3,-2l14 -10c2,-2 6,-4 7,-5 1,-1 1,-1 2,-2 0,0 1,0 2,-1 0,-1 0,-1 1,-2 1,0 1,0 2,-1 1,0 0,0 3,-3 2,-1 0,-1 3,-3 1,0 1,-1 2,-1l10 -11c2,-1 1,-2 4,-3l0 0c0,-1 0,-1 0,-2l-1 1z"/>
    <path class="fil14" d="M388 400l0 0c-1,1 -2,2 -3,3 -1,0 -2,0 -2,1l-10 8c-1,0 -2,0 -3,1 -1,1 -1,2 -3,3 -1,0 -2,0 -2,0 -1,1 -1,1 -2,2 -1,1 -3,1 -4,1 -3,1 -1,2 -4,2 -6,2 -2,2 -9,4 -5,1 0,2 -9,3 -6,1 -3,2 -9,3 -1,0 -2,0 -3,0 0,0 -2,0 -2,0 -2,0 0,0 -1,1 3,0 9,0 12,-2 1,-1 1,-1 4,-1 7,-1 5,-1 7,-3 3,-1 7,0 7,-3 1,0 3,0 5,-1 2,-1 1,-1 2,-2 6,-1 4,-1 7,-3l2 0c3,-1 2,0 3,-3 2,-1 4,-1 5,-2 1,-1 -1,-1 2,-2 3,-1 0,-2 3,-3 2,0 1,0 2,-2 0,0 0,0 0,0 0,-1 3,-1 4,-1 1,-1 1,-2 2,-2 1,-2 1,0 2,-2 1,-2 0,-1 2,-3l2 -2c2,-1 2,0 2,-2 2,-2 1,-1 3,-2 1,-1 0,-1 1,-2 1,-2 1,-1 2,-3 1,-1 1,-1 1,-3 0,1 -3,4 -3,5 -2,2 -8,7 -10,10 -2,2 -2,2 -3,2z"/>
    <path class="fil26" d="M393 212c0,-2 1,-1 -1,-3l-2 -2c-1,0 -1,-1 -2,-1 -1,-1 -2,-2 -3,-3 -1,-1 -2,-1 -3,-2 -2,-3 -1,-1 -3,-3 -2,-1 0,0 -4,-2 -1,-1 -2,-2 -3,-2l-7 -4c-2,-1 -2,-2 -3,-3 -2,0 -3,0 -4,-1 -6,-3 -5,-2 -8,-4 -2,-1 -2,-1 -5,-1 -2,-1 -3,-2 -6,-3 -1,0 -1,0 -2,-1 -5,0 -2,-2 -11,-3 -4,0 -8,0 -11,-2l0 0c-1,0 -1,0 -2,0 -1,0 -2,0 -4,-1 -1,-1 0,-1 -2,-2 2,3 2,2 4,4 4,3 7,2 14,3 3,0 3,1 6,2 2,0 4,0 7,1 2,1 -1,1 5,2 1,0 3,1 4,1 0,0 1,1 2,2 3,1 3,-1 6,2 2,2 4,1 6,2 1,1 0,1 2,2 1,1 2,0 3,1 2,2 -2,1 5,3 1,0 1,1 2,2l5 3c1,1 2,1 2,1 1,1 1,1 2,2 3,2 1,1 2,2 1,2 2,1 3,2 1,1 0,1 2,2 3,2 1,3 4,4z"/>
    <path class="fil21" d="M542 201c1,-5 -3,-7 -3,-7 0,-1 0,0 0,-1 0,0 0,-1 0,-1 0,0 0,-1 -1,-2 0,-2 0,-1 -2,-2 -1,-2 1,-4 -2,-7 -1,-1 -1,1 -2,-3 0,-3 -1,-1 -2,-2 -1,-1 -1,-3 -1,-4 0,-2 -1,-2 -2,-2 -2,-10 -3,-1 -4,-9l-2 -1c-1,-2 -1,-3 -1,-5l-3 0c0,-2 0,-4 -1,-5l-1 -1c-1,0 -1,0 -1,0 0,0 0,0 0,0l0 -1c0,-1 0,-1 0,-1 -1,-1 -2,-1 -3,-1l0 -3 -3 0c0,-3 0,-2 -1,-4l-2 -1c-1,-1 -1,-2 -2,-3 -1,-1 0,0 -1,-3 -1,-3 -2,1 -3,-3 -1,-1 0,-1 -1,-1 -3,-1 -1,0 -3,-2 0,-2 -2,-2 -3,-2 1,3 1,1 4,5 1,1 1,1 2,1 1,2 0,2 1,3 1,1 1,0 2,2 1,1 0,1 2,2 1,1 1,0 2,2 0,1 1,1 3,4 1,2 1,2 2,3 1,1 1,1 2,2 0,1 1,1 1,2l1 2c1,0 0,0 1,0 3,2 0,2 3,5 3,4 1,3 3,5 1,0 1,1 2,2 2,5 2,1 3,5 1,3 2,2 3,5 2,5 -1,1 2,5 2,3 0,1 3,5 2,3 0,3 3,6 1,2 1,3 2,5 0,1 1,2 1,3 1,1 1,0 1,1l1 2z"/>
    <path class="fil27" d="M532 423c0,2 0,3 -2,4 -1,2 0,2 -1,4 -1,2 -2,1 -3,4 -1,2 -1,2 -3,3l0 2c0,1 -1,2 -1,2 -1,1 -1,1 -1,1 -1,1 0,1 -1,1 0,0 -1,2 -2,2 -1,1 0,0 -1,2 -1,2 -2,3 -3,4 -1,5 -2,3 -3,5 -2,5 -2,2 -3,4 -1,1 -1,2 -2,3 -3,3 0,2 -3,4 -2,1 -1,0 -2,2 -1,2 -1,1 -2,2 -1,1 0,1 -1,2 -4,3 -1,1 -3,3 0,0 -1,1 -1,1 -1,1 -1,1 -2,2l-5 5c-1,1 0,0 -1,2 4,-1 2,-1 4,-3 1,-1 1,0 2,-2 2,-2 1,-1 3,-3 1,-1 0,-1 2,-2 1,-1 0,0 1,-1 2,-4 1,0 4,-4 2,-5 2,-1 3,-6 3,-1 3,-1 3,-4 1,0 2,0 3,-1 0,-1 -1,-1 1,-2 1,-1 1,1 1,-1 1,-1 1,-2 1,-3l2 0c0,-1 1,-5 2,-6 2,-2 2,-2 3,-5 2,0 2,-2 3,-4 0,-2 2,0 2,-5l3 0c2,0 0,0 0,0l0 -3c2,0 1,0 3,-1 0,-1 0,-5 1,-5l2 -1c0,-1 0,-3 0,-5 0,0 0,1 0,1 0,1 0,1 0,1l-3 1z"/>
    <path class="fil28" d="M100 225c1,-2 0,-2 3,-3 1,-3 0,-2 3,-3 1,-2 0,-3 3,-3 1,-1 1,-2 1,-2 1,-1 1,0 2,-1 1,-2 0,-2 3,-3 0,0 0,0 0,0 0,0 0,0 0,0 1,-2 0,-3 3,-3l0 -1c1,-3 3,-4 3,-5 1,0 1,0 1,-1 1,-2 1,-1 3,-2 1,-2 0,-2 3,-2l0 -1c0,-4 2,-3 2,-4l1 -2c1,-1 2,0 2,-1 1,-1 1,-1 1,-2l2 -1c2,-2 0,-2 4,-3 -1,-3 2,-3 3,-6l-3 1 -1 2 -2 1 -1 3c-1,0 -2,0 -2,0l0 2c-2,0 -2,1 -3,1l0 3c-4,0 -3,2 -4,5 -3,1 -2,1 -3,3 -3,1 -2,1 -3,3l-2 1 -1 3c-4,1 -2,2 -4,3 0,1 0,0 -1,1l0 1c-1,1 -1,1 -3,1 -1,1 -1,2 -1,3 -1,0 -1,0 -3,1l0 2c-2,0 -2,0 -3,2 -1,3 -1,0 -3,3 0,1 0,2 -2,2 0,1 -1,3 -1,5l1 -2c0,0 0,-1 0,-1l2 0z"/>
    <path class="fil29" d="M441 520l-1 2c-2,0 -3,1 -4,2 -1,1 -3,1 -4,2 -3,2 0,1 -4,3 -2,0 -3,1 -4,2 -3,1 -3,1 -5,2 -2,1 -3,1 -4,2 -2,1 -2,2 -5,2l-2 1c-2,1 -2,1 -2,2 4,0 1,-1 4,-2l0 1c1,-1 2,-1 3,-1 1,-1 1,-1 2,-1 2,-2 2,-1 5,-3 1,-1 1,0 1,-1 3,-2 1,1 6,-3 2,-1 4,-1 5,-2 2,-2 1,-1 4,-3 2,-1 0,-1 4,-2 1,0 3,-2 3,-2 1,-1 0,-1 1,-2 4,-2 2,-1 3,-2 2,-1 2,0 4,-2l7 -5c1,-1 0,0 1,-1l0 -1 7 -5c1,-1 1,-1 3,-1 0,-2 -1,0 1,-2 2,-2 3,-2 4,-3l1 -2c4,-2 0,0 4,-3 1,-1 1,-1 3,-3l8 -8c0,0 1,-1 1,-1 1,-1 1,-1 2,-2l1 -2c-3,1 -2,2 -4,3l-10 11c-1,0 -1,1 -2,1 -3,2 -1,2 -3,3 -3,3 -2,3 -3,3 -1,1 -1,1 -2,1 -1,1 -1,1 -1,2 -1,1 -2,1 -2,1 -1,1 -1,1 -2,2 -1,1 -5,3 -7,5l-14 10c-1,1 -3,2 -3,2z"/>
    <path class="fil18" d="M97 377c2,1 1,2 3,3 0,-1 0,-1 -1,-2 -1,0 -1,-1 -2,-2 -1,-1 -2,-2 -3,-4 0,-2 -1,0 -2,-2 -1,-1 0,-1 -2,-3 -1,-1 -1,-1 -2,-2 -1,-1 -2,-1 -2,-3 -2,0 -3,-3 -5,-4 -1,-1 -1,-1 -1,-2 -1,0 -9,-10 -10,-11l-8 -8c-1,-1 -1,-1 -1,-2 -2,-3 -1,1 -3,-3l-5 -4c-1,-1 -1,-2 -1,-3l-1 -1 -1 0c-1,-1 0,-1 -1,-1l-1 -1c0,3 2,3 3,4 0,1 0,1 1,2 0,0 1,1 2,1 0,3 4,2 4,8 4,0 2,1 4,2 1,1 1,0 1,1 1,2 0,2 1,3 2,0 2,-1 2,1 1,0 1,1 1,2 1,0 2,0 2,1 1,0 1,1 1,2l3 1c0,3 1,1 3,3 0,1 0,1 1,2 1,1 1,0 2,1 0,2 0,2 1,3 1,1 1,-1 2,1 1,2 1,2 3,4 0,0 0,1 1,1 5,5 0,2 5,5 1,1 0,1 1,2 1,1 1,1 2,2 1,1 0,1 1,2 1,1 1,0 2,1z"/>
    <path class="fil30" d="M85 243l-4 5c-3,3 -3,4 -6,6l-4 5c-1,1 -1,1 -2,2 -1,2 -3,4 -4,5 0,1 -1,1 -1,2 -1,1 -1,1 -2,1 -1,1 -1,1 -1,2 -1,1 -1,1 -2,1 -1,1 0,1 -1,2 -2,1 -2,1 -4,3l-1 2c-1,1 -1,1 -1,2l-6 8c0,2 0,3 -1,5 -3,6 -2,12 0,18 0,0 0,1 0,1l1 1c0,-3 -3,-9 -2,-15 0,0 0,0 0,0 0,0 0,-1 0,-1l1 0c0,-2 1,-3 1,-5l1 -3c0,-2 0,-1 1,-1l-1 0c1,-1 1,-1 1,-1l1 -2c3,-5 2,-2 3,-4 1,-1 1,-2 2,-3 1,0 1,0 2,-1 1,-1 0,-1 2,-2 2,-2 0,-1 1,-2 2,-2 2,0 3,-3 2,-2 2,0 3,-3 1,-2 0,-1 2,-2 2,-1 1,-1 2,-2l1 -1c2,-2 1,-2 2,-3 1,-1 1,-1 2,-1l7 -8c1,-2 0,-1 2,-3 1,-1 1,-1 2,-2 2,-2 1,-2 2,-3 0,-1 0,0 1,-1 0,-1 0,0 1,-1 2,-3 3,-2 3,-5 -2,2 -5,6 -7,7z"/>
    <path class="fil31" d="M427 266c1,0 1,0 1,2 0,1 0,2 0,3 1,5 2,4 2,6 1,4 1,11 2,14 0,1 1,1 1,2 1,9 0,11 0,19 0,1 0,2 0,3 -1,2 -1,1 -1,3 4,0 2,-3 3,-11 0,-5 0,-9 -1,-14 0,-8 -2,-4 -2,-7 0,-3 0,-12 -1,-14 -1,-2 -1,0 -2,-2 0,-6 0,-7 -3,-9 0,-2 0,-3 0,-5 -1,-4 -2,-2 -3,-4 -2,-4 1,-4 -4,-6 1,3 2,1 3,5 0,3 1,3 2,4 1,2 1,4 1,5 1,4 3,3 2,6z"/>
    <path class="fil32" d="M406 540c0,1 1,0 -1,1 -1,0 -2,0 -2,1 -3,0 -1,1 -8,3 -1,0 -2,1 -3,1 -2,1 -6,1 -8,3 -5,3 -5,1 -9,3 -2,1 -4,1 -6,2 -4,0 -5,1 -8,2 -3,1 -7,0 -9,2 -1,0 -2,0 -4,1 -1,0 -1,0 -2,0l-2 1c11,0 11,-2 14,-3 1,0 4,0 5,0 6,-1 7,-3 8,-3 3,-1 5,1 9,-2 1,-2 0,-1 4,-2 1,0 3,0 4,-1 1,-1 0,-1 2,-1 3,-1 4,0 6,-2 3,-3 6,0 8,-3 1,-2 1,-1 3,-2 3,-1 3,-1 3,-3 -3,1 0,2 -4,2z"/>
    <path class="fil14" d="M124 202l-4 5c-2,2 -1,-1 -4,3 0,1 0,1 -1,2 -2,1 -1,2 -3,3 -1,3 -9,10 -11,12 -1,1 0,2 -2,2 0,0 0,0 -1,1 0,0 0,0 0,1l-6 5c0,3 -1,2 -3,5 -1,1 -1,0 -1,1 -1,1 -1,0 -1,1 4,-1 2,-1 3,-3 2,-2 2,1 3,-3 2,-1 3,0 3,-2 1,-2 -1,-1 3,-2 0,-1 0,-2 1,-2 0,-1 1,-1 2,-1 1,-2 -1,-2 1,-3 1,-1 1,1 2,-1 1,-2 0,-1 1,-2 2,-1 1,0 2,-2 1,-2 1,-1 2,-2 1,-1 1,-2 3,-4 1,-1 1,0 1,-2 1,-4 2,0 4,-4 0,-1 0,0 1,-1 2,-1 1,-1 2,-2 0,-1 1,-1 2,-2 1,0 0,-1 1,-2l2 0 1 -3c1,0 1,0 2,-1 1,0 0,0 1,-1 1,-2 -1,0 3,-2l0 -2c-2,0 -3,3 -5,4 0,1 -1,1 -2,2 -1,1 0,2 -2,2z"/>
    <path class="fil33" d="M527 427l0 2c-2,1 -2,0 -3,2 -1,3 0,2 -2,3 -1,1 0,2 -1,4 0,1 -1,1 -2,2l-4 6c-1,4 -1,1 -2,4 -1,1 0,0 -2,1 0,2 0,0 -2,2 0,1 0,2 0,4l-3 0 0 3c-1,1 -1,0 -2,1 -1,1 -1,1 -1,2 -1,1 -1,0 -3,4 -1,1 -3,2 -3,3 -1,2 0,1 -1,2 -2,1 -1,0 -2,2 0,1 0,1 0,2 2,-1 0,-1 2,-2 1,-1 1,0 1,-2 1,-2 1,-2 2,-3l6 -7c1,-1 1,-1 2,-2 1,-3 1,-1 2,-3 2,-1 1,-4 4,-5 0,-2 1,-2 2,-4 1,-1 1,-1 2,-2 2,-3 2,-4 4,-6 2,-2 1,-4 3,-4 -1,-3 0,-1 0,-2l2 -3c2,-3 1,-3 2,-5 2,-2 3,-1 3,-4 1,-4 2,-2 3,-5 -5,2 -3,0 -4,5 0,3 -1,1 -2,2 -1,1 -1,3 -1,3z"/>
    <path class="fil34" d="M511 451c2,-1 1,0 2,-1 1,-3 1,0 2,-4l4 -6c1,-1 2,-1 2,-2 1,-2 0,-3 1,-4 2,-1 1,0 2,-3 1,-2 1,-1 3,-2l0 -2c-3,2 -3,3 -3,3l0 -3 -2 0 0 4 -3 0c0,0 0,1 0,1 0,2 -1,1 -1,3 0,0 0,1 0,1 -2,1 0,0 -2,1 0,2 0,2 0,3 -1,2 -1,3 -1,3 0,0 0,0 0,0 -1,0 -1,0 -1,-1 0,2 -1,0 -1,4 0,-1 -1,-1 1,-1l0 2c-2,2 -2,0 -3,4z"/>
    <path class="fil20" d="M497 472c0,2 0,1 -1,2 -2,1 0,1 -2,2l0 0 -1 2c-1,1 -1,1 -2,2 0,0 -1,1 -1,1l-8 8c-2,2 -2,2 -3,3 -4,3 0,1 -4,3l-1 2c-1,1 -2,1 -4,3 -2,2 -1,0 -1,2 1,0 1,-1 2,-2 1,-2 1,-1 2,-2 2,0 1,-1 2,-2 1,-1 2,-1 3,-2l6 -6c1,-1 1,-1 3,-2l-1 1c1,-2 0,-1 1,-2l5 -5c1,-1 1,-1 2,-2 0,0 1,-1 1,-1 2,-2 -1,0 3,-3 1,-1 0,-1 1,-2 1,-1 1,0 2,-2 1,-2 0,-1 2,-2 3,-2 0,-1 3,-4 1,-1 1,-2 2,-3 1,-2 1,1 3,-4 1,-2 2,0 3,-5l-1 0c0,2 -1,2 -2,3 0,1 -1,2 -1,3 -1,1 -1,1 -3,2l-7 10c-1,0 -1,1 -1,1l-1 1c0,0 -1,0 -1,0z"/>
    <path class="fil14" d="M460 99c1,2 -1,2 3,3 2,1 0,2 6,4 0,3 0,2 3,3 1,4 1,1 3,3 1,1 0,1 1,2 1,1 1,0 2,1 1,1 0,2 4,3l0 -1c-2,-1 -2,-1 -3,-3l-7 -7c-2,-1 -2,-1 -3,-2l-5 -4c-1,0 -2,-2 -3,-2 -2,-1 -2,-2 -4,-3 -1,-1 -1,-1 -2,-2 -4,-3 -2,-1 -5,-2l-3 -3c-2,-2 -1,-2 -2,-2 0,1 0,2 1,2 1,1 1,1 2,2 1,2 -1,1 2,2 2,1 2,1 3,2 1,1 2,1 3,1 2,1 1,1 2,2 0,1 1,1 2,1z"/>
    <path class="fil35" d="M48 322l1 1c1,0 0,0 1,1l1 0c-1,-2 0,0 0,-1 0,0 -1,-1 -1,-1 0,0 0,0 -1,-2 0,-2 -3,-2 -3,-6l-1 -1c0,0 0,-1 0,-1 -2,-6 -3,-12 0,-18 1,-2 1,-3 1,-5l6 -8c0,-1 0,-1 1,-2l1 -2c-2,1 -2,1 -2,2 -1,2 -1,1 -2,3 -2,1 0,1 -3,4 -1,2 -2,4 -2,6 -1,1 -2,3 -2,6 -1,3 0,11 0,14l4 8c1,1 2,1 1,2z"/>
    <path class="fil36" d="M100 380c3,4 2,1 4,4 1,2 1,0 3,3 1,3 1,0 3,3 1,2 0,1 2,2 1,1 0,1 1,2 2,2 2,0 3,2 0,2 0,1 1,2 2,1 1,1 2,2 1,1 1,1 2,2 2,3 3,4 6,7 1,1 2,3 4,4 0,-2 -1,-2 -2,-4l-9 -9c-1,-1 -1,-1 -1,-2 -1,-1 -2,-1 -2,-1 -1,-1 -1,-1 -1,-2 -1,-1 -1,-1 -2,-2 -1,0 -1,-1 -1,-1 -1,-1 -1,-1 -2,-2l-3 -3c-2,-2 -10,-12 -13,-14l-1 -1c1,2 2,3 3,4 1,1 1,2 2,2 1,1 1,1 1,2z"/>
    <path class="fil37" d="M80 356c0,-2 -4,-5 -5,-7l-5 -6c-1,-1 -1,0 -1,-2 -2,0 -1,0 -2,-1 0,-1 -1,-1 -1,-1 -1,-1 -1,-2 -2,-2 -1,-1 -1,0 -1,-2 -1,-1 -1,-1 -2,-2 -1,-1 -1,0 -2,-1 0,-2 0,-1 -1,-2 0,-1 -2,-1 -2,-1l-1 -1c0,-1 0,-1 -1,-1l-2 -2c0,0 0,0 0,0 0,1 0,2 1,3l5 4c2,4 1,0 3,3 0,1 0,1 1,2l8 8c1,1 9,11 10,11z"/>
    <path class="fil38" d="M482 118l0 0c0,0 1,1 1,1 1,1 0,0 3,2 3,2 1,2 5,4 1,2 1,1 2,3l2 2c0,0 0,0 0,0 -1,-2 -1,-2 -3,-4 0,-1 -1,-1 -1,-2 -1,0 0,0 -1,0 -3,-3 -8,-9 -11,-11l-4 -4c-1,-1 0,-1 -3,-2 -2,-1 0,-1 -3,-3 0,0 0,0 0,0l0 -1c0,0 0,0 0,0 -1,0 -1,-1 -2,-1 -1,-1 -1,-1 -2,-1 -2,-1 -2,-3 -4,-2 1,0 2,2 3,2l5 4c1,1 1,1 3,2l7 7c1,2 1,2 3,3l0 1z"/>
    <path class="fil39" d="M493 475l1 -1c1,-2 0,-1 2,-2 1,-1 0,0 1,-2 0,-1 2,-2 3,-3 2,-4 2,-3 3,-4 0,-1 0,-1 1,-2 1,-1 1,0 2,-1 -2,0 -5,1 -6,3 -3,0 -2,0 -3,3l-1 1c-1,0 -2,1 -2,2l-1 1c-1,1 -2,0 -2,2l2 0 0 3z"/>
    <path class="fil40" d="M80 356c1,0 1,0 2,1 1,1 1,1 1,2 1,1 3,2 3,3 1,0 2,1 3,2 1,2 0,1 2,3 1,1 1,1 2,2 1,1 1,1 2,2 1,1 -1,0 1,1 -1,-3 -2,-2 -3,-4l0 -2 -3 -1c-1,-4 0,-2 -2,-3 -2,-1 0,-1 -3,-3 -1,-1 -1,-2 -2,-3 -1,-1 -2,-2 -3,-3l-4 -5c-1,0 -1,0 -1,-1 -3,-4 -2,-1 -3,-3 -1,-1 -1,-3 -3,-3 0,2 0,1 1,2l5 6c1,2 5,5 5,7z"/>
    <path class="fil19" d="M423 531c-4,-1 -4,2 -6,2 -1,1 -2,0 -5,3 -2,1 -2,1 -5,1 -2,1 -1,2 -5,3 -1,0 -1,0 -2,0 -2,1 -2,1 -2,3 1,-1 1,-1 4,-2 1,0 2,-1 4,-1 0,-1 0,-1 2,-2l2 -1c3,0 3,-1 5,-2 1,-1 2,-1 4,-2 2,-1 2,-1 5,-2 1,-1 2,-2 4,-2 4,-2 1,-1 4,-3 1,-1 3,-1 4,-2 1,-1 2,-2 4,-2l1 -2 -5 3c-2,2 -3,1 -4,2 -3,2 -1,2 -5,3 -3,1 -1,1 -4,3z"/>
    <path class="fil14" d="M406 380c0,3 -1,1 -2,3 1,0 0,0 2,0 0,0 0,0 0,-1 2,-1 0,-1 2,-2 1,-1 1,0 2,-1 0,-2 0,-2 1,-3 1,-1 1,0 2,-2 0,-1 0,-3 1,-3 5,-3 1,-5 3,-6l1 -1c1,0 1,0 1,-1 1,-1 1,-3 1,-4 1,-1 3,0 3,-7 -1,1 -1,1 -1,3 -1,4 -2,1 -3,5 -1,3 -1,2 -2,4 -1,1 -1,2 -2,3 0,2 -1,2 -2,4 -1,2 0,0 -2,3 -1,0 -2,4 -4,6 -1,1 0,0 -1,0z"/>
    <path class="fil41" d="M46 314c0,4 3,4 3,6 2,2 1,2 3,3 2,1 0,2 2,3 -1,-6 -2,-5 -3,-6 -2,-1 0,0 -1,-2 0,-1 -1,-1 -2,-2 -1,-3 0,-6 -2,-9 -3,-3 -1,-6 -1,-9l-1 0c0,0 0,1 0,1 0,0 0,0 0,0 -1,6 2,12 2,15z"/>
    <path class="fil24" d="M94 372l1 1c3,2 11,12 13,14 0,-2 -1,-3 -2,-4 -1,-1 -1,-1 -2,-2l-1 -1c0,0 0,0 0,0 0,0 0,-1 0,-1 0,0 0,0 0,0l-4 -4c0,0 -1,-1 -1,-2 -1,-1 -1,0 -2,-1 -2,-1 0,0 -1,-1 -1,-1 -1,-1 -2,-2 -1,-1 -1,-1 -2,-2 -2,-2 -1,-1 -2,-3 -1,-1 -2,-2 -3,-2 0,2 1,2 2,3 1,1 1,1 2,2 2,2 1,2 2,3 1,2 2,0 2,2z"/>
    <path class="fil31" d="M430 78c-1,0 0,0 -1,-1 -1,0 -1,0 -1,0 -4,-1 -2,-1 -4,-2 -2,-1 -3,-1 -4,-2 -1,0 -1,-1 -2,-1 -2,-1 -4,-1 -4,-1 -2,-1 -1,-2 -3,-2 -1,-1 -2,-1 -3,-1 -2,-1 -1,-2 -3,-2l0 3 6 0 0 2c2,1 4,1 6,1 1,1 0,2 2,3 0,0 3,0 4,0 0,0 0,0 0,0 1,3 4,3 7,3z"/>
    <path class="fil42" d="M69 264l2 0 1 -3c2,0 2,0 3,-2 1,-2 -1,-1 2,-2 1,-1 0,-1 1,-2 1,-1 1,-1 2,-2l6 -7c1,-1 2,-1 1,-3 -1,1 0,1 -2,3 -1,1 -1,1 -2,2 -2,2 -1,1 -2,3l-7 8c-1,0 -1,0 -2,1 -1,1 0,1 -2,3l-1 1z"/>
    <path class="fil43" d="M96 372c1,1 1,0 2,1 0,1 1,2 1,2l4 4c1,0 4,4 4,4 1,1 0,0 1,1l2 2c0,0 1,0 1,0 0,1 0,1 0,1l0 -2c-1,-1 -1,-1 -2,-1 -1,-1 0,0 -1,-2 -1,-2 -1,0 -2,-1 -1,-1 0,-2 -1,-2 -1,-2 -1,-1 -2,-1 -1,-1 0,-1 -1,-3 -2,-2 -2,2 -3,-3l-3 -1 0 -2 -3 -1 0 0c1,2 2,1 3,4z"/>
    <path class="fil44" d="M388 400c1,0 1,0 3,-2 2,-3 8,-8 10,-10 0,-1 3,-4 3,-5 1,-2 2,0 2,-3 -2,1 -4,5 -7,8l-9 9c-1,1 -2,2 -2,3z"/>
    <path class="fil45" d="M445 87c1,0 0,0 2,2l3 3c3,1 1,-1 5,2 1,1 1,1 2,2 2,1 2,2 4,3 0,-2 -3,-4 -4,-4 -2,-1 -5,-4 -6,-5 -5,-3 -5,-5 -8,-4 1,0 1,0 1,0 0,0 0,0 0,0 0,0 0,0 0,0l1 1z"/>
    <path class="fil46" d="M513 452l1 0c1,-1 2,-2 3,-4 1,-2 0,-1 1,-2 1,0 2,-2 2,-2 0,-2 1,-3 3,-4l0 -2c0,-1 0,0 1,-1 0,-1 0,0 0,-1 -2,0 -1,2 -3,4 -2,2 -2,3 -4,6 -1,1 -1,1 -2,2 -1,2 -2,2 -2,4z"/>
    <path class="fil41" d="M515 158c-1,-3 -1,-1 -3,-5l-4 -6c-2,-1 -3,-5 -5,-5 0,3 0,2 3,3 0,1 0,2 0,2 1,1 0,0 1,1 2,1 1,0 3,5 2,1 1,0 2,3 1,2 1,1 3,2z"/>
    <path class="fil47" d="M497 472c0,0 1,0 1,0l1 -1c0,0 0,-1 1,-1l7 -10c2,-1 2,-1 3,-2 0,-1 1,-2 1,-3 1,-1 2,-1 2,-3 -3,1 -2,4 -4,5 -1,2 -1,0 -2,3 -1,1 -1,1 -2,2l-6 7c-1,1 -1,1 -2,3z"/>
    <path class="fil48" d="M462 97c-2,-4 -2,-1 -3,-4 -1,-1 0,-1 -2,-1 -5,-2 -2,-2 -4,-3 -2,-1 -2,-1 -3,-1 0,-1 -1,-3 -5,-3l1 1c2,1 2,1 4,2 4,2 1,2 4,3 3,1 1,2 4,3 2,1 2,2 4,3z"/>
    <path class="fil42" d="M445 87l-1 -1c0,0 0,0 0,0 0,0 0,0 0,0 0,0 0,0 -1,0 -2,0 -2,-1 -3,-2 -2,-1 -2,0 -4,-2 -1,-2 -2,-1 -4,-2 0,0 0,0 -1,-1l-1 -1c0,3 1,3 2,3 2,1 2,2 4,2 1,1 2,1 3,1l1 3c1,0 3,1 5,0z"/>
    <path class="fil31" d="M405 66c-1,-1 -1,-1 -2,-1 -3,0 -3,0 -4,-1 -2,-2 -3,-1 -6,-3 -2,-1 -1,-1 -4,-2l1 3c1,0 1,1 3,1 3,0 3,-1 4,2 2,0 5,1 8,1z"/>
    <path class="fil49" d="M398 213c-2,-4 -1,-1 -3,-3 -1,-1 0,-1 -1,-2 -1,-1 -1,0 -2,-1 -1,-1 0,-1 -1,-2 -1,-1 -1,-1 -2,-1 -2,-2 -1,-3 -4,-3 1,2 2,2 3,3l5 5c2,1 3,4 5,4z"/>
    <path class="fil42" d="M139 417c-1,-2 -1,-2 -3,-3 -1,-2 0,-2 -2,-2 -2,-1 0,0 -1,-2 -1,0 0,0 -1,-1 -1,-1 -1,0 -2,-1 -1,-1 0,0 0,-1 -1,-2 -1,-2 -3,-2 0,1 8,9 10,11 1,1 0,1 2,1z"/>
    <path class="fil27" d="M469 103c3,0 2,2 4,3 1,1 1,1 2,2 2,1 1,1 3,2 -2,-5 -2,-2 -4,-5 -2,-3 -1,0 -3,-3 -1,-2 -3,-2 -4,-2l1 2c1,0 0,0 1,1z"/>
    <path class="fil43" d="M408 225c-1,-2 0,-2 -2,-3 -2,-1 -1,-2 -2,-4 -1,-3 -1,-1 -3,-2 -1,-2 1,-3 -3,-3 1,2 0,1 1,2 4,4 3,3 5,6 1,2 0,1 1,2 1,0 1,-1 1,1 1,1 1,1 2,1z"/>
    <path class="fil50" d="M100 225c-1,0 -2,1 -2,1l-1 2c1,0 3,-2 4,-2l8 -10c-3,0 -2,1 -3,3 -3,1 -2,0 -3,3 -3,1 -2,1 -3,3z"/>
    <path class="fil50" d="M128 195c2,-1 6,-7 7,-8 1,-1 1,0 2,-1 1,-2 0,-1 2,-3 0,-1 0,0 1,-1 -4,1 -2,1 -4,3l-2 1c0,1 0,1 -1,2 0,1 -1,0 -2,1l-1 2c0,1 -2,0 -2,4z"/>
    <path class="fil13" d="M385 201c-1,-3 -5,-3 -5,-4 -1,-1 0,-1 -1,-2 -3,-1 0,1 -3,-2 -2,-1 -4,-1 -6,-2 1,1 0,0 1,1 0,0 1,0 1,0 2,1 8,6 9,7 2,1 2,2 4,2z"/>
    <path class="fil51" d="M443 521c6,-2 4,-3 7,-4 4,-2 1,-2 4,-3 1,-1 1,0 2,-1 1,-1 0,-1 1,-2 2,0 2,0 2,-2 -1,1 0,0 -1,1l-7 5c-2,2 -2,1 -4,2 -1,1 1,0 -3,2 -1,1 0,1 -1,2z"/>
    <path class="fil19" d="M124 202c2,0 1,-1 2,-2 1,-1 2,-1 2,-2 2,-1 3,-4 5,-4l0 -1c0,0 0,0 1,0 0,0 0,0 0,0l0 -1c1,0 1,-1 1,-1l1 -2c-2,1 -2,1 -4,3 -2,2 -7,8 -8,10z"/>
    <path class="fil44" d="M99 229c2,0 1,-1 2,-2 2,-2 10,-9 11,-12 -2,1 -2,1 -3,3 -2,1 -1,1 -4,4 -1,1 -5,6 -6,7z"/>
    <path class="fil52" d="M58 274c1,-1 0,-1 1,-2 1,0 1,0 2,-1 0,-1 0,-1 1,-2 1,0 1,0 2,-1 0,-1 1,-1 1,-2 1,-1 3,-3 4,-5 -2,0 -2,2 -3,3 -1,1 -1,1 -2,2 0,0 0,1 -1,1 0,1 -1,1 -2,2 0,0 0,1 -1,1 -1,2 -2,1 -2,4z"/>
    <path class="fil53" d="M118 206l2 -1c2,-2 1,-3 3,-4 1,-1 4,-4 5,-5 -3,0 -2,0 -3,2 -2,1 -2,0 -3,2 0,1 0,1 -1,1 0,1 -2,2 -3,5z"/>
    <path class="fil36" d="M396 215c0,1 0,0 1,1 2,3 1,1 2,3 1,1 0,1 2,2l1 1c0,0 1,0 1,0 0,-2 -1,-2 -2,-3l-6 -7c-1,-1 0,0 -2,0 0,1 0,0 1,1 0,0 0,1 0,1l2 1c0,0 0,0 0,0z"/>
    <path class="fil43" d="M503 142c0,-2 -2,-2 -3,-5 -2,-3 -1,1 -3,-3 0,-1 0,-1 -1,-1 0,2 0,3 2,4 0,0 0,0 0,0 4,3 0,5 5,5z"/>
    <path class="fil49" d="M490 127l0 -1c-1,-1 0,0 -1,-1l-3 -4c-3,-2 -2,-1 -3,-2 0,0 -1,-1 -1,-1l0 0 0 2c2,1 2,0 3,3 5,1 0,3 5,4z"/>
    <path class="fil53" d="M459 509c2,0 1,0 3,-1 1,-1 2,-1 2,-2 3,-3 3,0 5,-4 -2,0 -2,0 -3,1l-7 5 0 1z"/>
    <path class="fil40" d="M139 185c-1,1 -3,3 -3,4l-1 2c3,-1 2,-2 4,-4 0,0 2,-2 3,-3l0 -1c-2,1 -1,1 -3,2z"/>
    <path class="fil54" d="M47 289c3,-1 3,-1 3,-3 1,-1 1,-1 3,-2l1 -5c-1,1 -1,2 -2,3 -1,2 0,-1 -3,4l-1 2c0,0 0,0 -1,1z"/>
    <path class="fil55" d="M404 383c0,2 0,2 -1,3 -1,2 -1,1 -2,3 4,-1 2,-1 3,-3 1,-1 1,0 1,-1l1 0c1,-1 2,-3 2,-5 -2,1 0,1 -2,2 0,1 0,1 0,1 -2,0 -1,0 -2,0z"/>
    <path class="fil41" d="M45 298c1,0 2,-1 2,-3 1,-2 1,-5 1,-6 -1,0 -1,-1 -1,1l-1 3c0,2 -1,3 -1,5z"/>
    <path class="fil14" d="M69 341l-1 -2c-1,-1 0,0 -1,-1 -2,0 -1,-1 -2,-3l-2 0c0,2 0,1 1,2 1,0 1,1 2,2 0,0 1,0 1,1 1,1 0,1 2,1z"/>
    <path class="fil46" d="M86 362c0,-1 -2,-2 -3,-3 0,-1 0,-1 -1,-2 -1,-1 -1,-1 -2,-1 0,1 0,1 1,2 2,1 3,4 5,4z"/>
    <path class="fil56" d="M139 185c2,-1 1,-1 3,-2l0 -1c1,-1 1,-1 2,-1 0,-1 1,-2 1,-2l0 -1c-3,2 0,0 -3,3l-3 4z"/>
    <path class="fil44" d="M305 51c2,-1 0,0 2,-1l4 -4c-2,0 -2,0 -4,1 0,1 -1,2 -2,3l0 1z"/>
    <path class="fil57" d="M51 324l1 1c0,0 0,0 0,0l2 2c1,0 1,0 1,1l1 1 -2 -3c-2,-1 0,-2 -2,-3 -2,-1 -1,-1 -3,-3 1,2 1,2 1,2 0,0 1,1 1,1 0,1 -1,-1 0,1z"/>
    <path class="fil58" d="M520 444c1,0 0,0 1,-1 0,0 0,0 1,-1 0,0 1,-1 1,-2 -2,1 -3,2 -3,4z"/>
    <path class="fil42" d="M127 405c0,-3 -1,-3 -3,-3 1,1 0,0 1,1 0,1 1,1 1,1 0,1 0,1 1,1z"/>
   </g>
  </g>
 </g>
</svg>
