<?xml version="1.0" encoding="UTF-8"?>
<!DOCTYPE svg PUBLIC "-//W3C//DTD SVG 1.1//EN" "http://www.w3.org/Graphics/SVG/1.1/DTD/svg11.dtd">
<!-- Creator: CorelDRAW Home & Student X7 -->
<svg xmlns="http://www.w3.org/2000/svg" xml:space="preserve" width="29mm" height="29mm" version="1.1" style="shape-rendering:geometricPrecision; text-rendering:geometricPrecision; image-rendering:optimizeQuality; fill-rule:evenodd; clip-rule:evenodd"
viewBox="0 0 2900 2900"
 xmlns:xlink="http://www.w3.org/1999/xlink">
 <defs>
  <style type="text/css">
   <![CDATA[
    .fil0 {fill:#28201D;fill-rule:nonzero}
    .fil1 {fill:#F6F4EE;fill-rule:nonzero}
   ]]>
  </style>
 </defs>
 <g id="__x0023_Layer_x0020_1">
  <metadata id="CorelCorpID_0Corel-Layer"/>
  <g id="_629275976">
   <g>
    <g>
     <path class="fil0" d="M0 0l2900 0 0 2900 -2900 0 0 -2900zm593 1062l0 0c-1,6 -4,18 -6,24 33,8 67,2 101,3 -1,174 0,348 -1,522 -1,52 -2,108 -31,153 -31,43 -92,50 -139,37 -50,-20 -35,-81 -44,-123 -8,-35 -55,-38 -81,-23 -39,31 -32,91 -10,130 28,44 85,53 133,56 71,3 150,-2 209,-46 57,-42 74,-116 75,-183 0,-174 0,-348 0,-523 34,0 68,0 101,2 1,-8 2,-23 2,-30 -103,1 -206,-2 -309,1zm394 22l0 0c27,13 60,3 89,4 3,196 1,391 2,587 -2,29 1,60 -12,86 -21,33 -64,33 -98,37 1,6 2,19 3,25 109,-1 219,-1 328,0 0,-7 1,-20 1,-26 -43,1 -102,-9 -107,-62 -5,-78 -3,-156 -1,-233 93,2 190,5 276,-34 56,-25 97,-79 104,-140 7,-57 7,-120 -22,-173 -33,-60 -105,-81 -168,-89 -117,-11 -234,-2 -351,-5 -15,2 -59,-7 -44,23zm640 -21l0 0c-3,7 -9,19 -11,25 32,2 64,2 97,0 4,209 3,418 0,627 6,56 -47,86 -96,84 1,6 4,17 5,23 71,0 142,0 212,0 2,-5 3,-17 4,-22 -25,-7 -57,-8 -73,-31 -20,-31 -14,-71 -16,-106 0,-166 -2,-333 1,-499 21,15 26,43 36,65 79,187 160,373 239,561 7,14 15,28 25,41 6,-7 16,-22 21,-29 88,-211 169,-425 260,-634 2,187 4,374 -1,561 0,50 -52,69 -94,70 0,6 2,17 3,23 99,1 199,-1 298,1 0,-6 1,-19 2,-25 -25,-5 -54,-4 -74,-22 -23,-23 -21,-58 -22,-87 0,-200 0,-400 0,-600 26,0 53,0 79,1 0,-7 1,-21 1,-28 -65,1 -130,1 -196,0 -69,172 -138,345 -207,517 -10,23 -15,49 -33,68 -84,-195 -167,-390 -250,-585 -70,2 -140,-1 -210,1z"/>
    </g>
    <path class="fil0" d="M1189 1095c71,-7 148,-6 212,29 57,34 69,105 68,165 1,57 -20,118 -70,149 -62,39 -139,37 -210,32 3,-125 3,-250 0,-375z"/>
   </g>
   <g>
    <path class="fil1" d="M593 1062c103,-3 206,0 309,-1 0,7 -1,22 -2,30 -33,-2 -67,-2 -101,-2 0,175 0,349 0,523 -1,67 -18,141 -75,183 -59,44 -138,49 -209,46 -48,-3 -105,-12 -133,-56 -22,-39 -29,-99 10,-130 26,-15 73,-12 81,23 9,42 -6,103 44,123 47,13 108,6 139,-37 29,-45 30,-101 31,-153 1,-174 0,-348 1,-522 -34,-1 -68,5 -101,-3 2,-6 5,-18 6,-24z"/>
    <g>
     <path class="fil1" d="M987 1084c-15,-30 29,-21 44,-23 117,3 234,-6 351,5 63,8 135,29 168,89 29,53 29,116 22,173 -7,61 -48,115 -104,140 -86,39 -183,36 -276,34 -2,77 -4,155 1,233 5,53 64,63 107,62 0,6 -1,19 -1,26 -109,-1 -219,-1 -328,0 -1,-6 -2,-19 -3,-25 34,-4 77,-4 98,-37 13,-26 10,-57 12,-86 -1,-196 1,-391 -2,-587 -29,-1 -62,9 -89,-4zm202 11l0 0c3,125 3,250 0,375 71,5 148,7 210,-32 50,-31 71,-92 70,-149 1,-60 -11,-131 -68,-165 -64,-35 -141,-36 -212,-29z"/>
    </g>
    <path class="fil1" d="M1627 1063c70,-2 140,1 210,-1 83,195 166,390 250,585 18,-19 23,-45 33,-68 69,-172 138,-345 207,-517 66,1 131,1 196,0 0,7 -1,21 -1,28 -26,-1 -53,-1 -79,-1 0,200 0,400 0,600 1,29 -1,64 22,87 20,18 49,17 74,22 -1,6 -2,19 -2,25 -99,-2 -199,0 -298,-1 -1,-6 -3,-17 -3,-23 42,-1 94,-20 94,-70 5,-187 3,-374 1,-561 -91,209 -172,423 -260,634 -5,7 -15,22 -21,29 -10,-13 -18,-27 -25,-41 -79,-188 -160,-374 -239,-561 -10,-22 -15,-50 -36,-65 -3,166 -1,333 -1,499 2,35 -4,75 16,106 16,23 48,24 73,31 -1,5 -2,17 -4,22 -70,0 -141,0 -212,0 -1,-6 -4,-17 -5,-23 49,2 102,-28 96,-84 3,-209 4,-418 0,-627 -33,2 -65,2 -97,0 2,-6 8,-18 11,-25z"/>
   </g>
  </g>
 </g>
</svg>
