<?xml version="1.0" encoding="UTF-8"?>
<!DOCTYPE svg PUBLIC "-//W3C//DTD SVG 1.1//EN" "http://www.w3.org/Graphics/SVG/1.1/DTD/svg11.dtd">
<!-- Creator: CorelDRAW Home & Student X7 -->
<svg xmlns="http://www.w3.org/2000/svg" xml:space="preserve" width="30mm" height="30mm" version="1.1" style="shape-rendering:geometricPrecision; text-rendering:geometricPrecision; image-rendering:optimizeQuality; fill-rule:evenodd; clip-rule:evenodd"
viewBox="0 0 789 789"
 xmlns:xlink="http://www.w3.org/1999/xlink">
 <defs>
  <style type="text/css">
   <![CDATA[
    .fil0 {fill:#FEFEFE}
    .fil4 {fill:#373435}
    .fil8 {fill:#171824}
    .fil10 {fill:#3D4246}
    .fil7 {fill:#50C2C6}
    .fil3 {fill:#5C6063}
    .fil9 {fill:#87D4D7}
    .fil5 {fill:#8C8F91}
    .fil2 {fill:#B1B3B4}
    .fil1 {fill:#DBDBDC}
    .fil6 {fill:white}
    .fil11 {fill:#B1B3B4;fill-rule:nonzero}
   ]]>
  </style>
 </defs>
 <g id="Camada_x0020_1">
  <metadata id="CorelCorpID_0Corel-Layer"/>
  <g id="_634343312">
   <rect class="fil0" width="789" height="789" rx="33" ry="45"/>
   <g>
    <path class="fil1" d="M712 333l0 0zm0 0c-2,0 -6,0 -8,1 -2,1 -1,2 -4,3 -5,2 -1,3 -5,4 -6,3 1,1 -4,4 -3,1 -1,2 -4,4 -2,2 -1,3 -3,5 -2,3 -1,2 -2,6 -2,5 0,1 -2,6 -2,4 -1,25 -1,31 0,9 -2,24 1,31 1,1 1,4 2,6 1,6 0,3 2,6 2,1 1,4 3,6 0,1 1,1 2,2 1,1 0,1 1,2 2,2 1,0 5,4 2,2 3,1 5,2 2,1 1,3 5,3 5,1 3,0 5,3 4,3 25,2 31,1 5,0 3,0 6,-2 2,-2 4,-1 6,-2 3,-1 2,-2 5,-3 4,-2 2,-1 3,-4l4 0 0 -4c3,0 3,0 4,-3 1,-3 1,-1 2,-3 2,-3 1,-8 3,-10 1,-2 2,-1 2,-5l0 -55c0,-5 1,-7 -2,-10 -3,-3 0,-7 -3,-9 -3,-2 0,0 -2,-4 -1,-2 -1,-2 -3,-3 -2,-2 -1,-3 -3,-4 -1,0 -1,-1 -2,-1 -2,-2 -2,-3 -5,-4 -4,-1 -2,0 -4,-2 -3,-3 -7,-1 -10,-3 -1,0 -1,-1 -4,-2 -5,-1 -19,-1 -23,1l-3 2z"/>
    <path class="fil2" d="M772 413c-2,11 2,18 -3,25 -1,1 -1,2 -2,4 -2,4 -9,9 -10,10 -2,2 -2,2 -5,2 -3,1 -2,2 -4,3 -1,1 -9,2 -11,2 -5,1 -1,2 -12,2 -8,0 -7,-2 -11,-3 -2,0 -4,0 -6,-1 -2,0 -2,-1 -4,-2 -7,-3 -3,-1 -6,-4 -6,-3 -5,-4 -9,-9 -3,-4 -5,-16 -5,-22l0 -40c0,-11 0,-13 3,-24 1,-2 1,-1 3,-4 0,-1 1,-3 2,-4 2,-2 10,-9 11,-9 3,-1 3,0 5,-2l4 -2c2,-1 5,-1 7,-1 4,0 8,-2 12,-1 2,0 3,1 6,1 2,0 4,0 6,1 2,0 4,0 5,1 2,3 1,1 4,3 2,1 10,7 12,9l3 3c1,2 1,3 2,5 1,1 1,1 2,2 0,0 0,0 0,1 1,2 1,23 1,28 0,8 1,19 0,26zm-60 -80l0 0z"/>
    <path class="fil3" d="M201 371l0 0zm0 0c0,-2 0,-4 0,-7 -1,-3 -1,-2 -3,-3 -2,-5 0,-3 -3,-5 -3,-1 0,-2 -3,-3 -7,-2 0,-2 -10,-4 -7,-1 -12,-1 -19,0 -2,1 -2,1 -4,3 -1,1 -3,1 -5,2 -2,1 0,1 -3,3 -2,1 -2,2 -3,5 -1,3 -1,1 -2,4 -2,5 -2,45 -2,53 0,5 1,8 3,11 2,2 2,4 2,5 2,2 2,0 4,3 2,3 2,1 4,3l2 2c4,2 26,1 28,0 4,-1 1,-1 4,-3 3,-1 2,-1 3,-3 4,-2 2,-1 4,-4 3,-2 3,-1 3,-6 0,-2 1,-5 1,-7 0,-6 1,-47 -1,-49z"/>
    <path class="fil4" d="M334 446c1,-2 1,-3 3,-4 3,4 -1,3 -2,6 -2,2 -5,2 -4,0 0,-2 2,-2 3,-2zm-61 -81c0,0 2,-1 2,-1 2,-1 -1,0 4,-5 1,-1 3,-4 5,-6 1,0 1,0 2,-1 4,-1 2,-3 16,-4 5,0 11,1 15,3 1,1 2,1 3,2 2,1 3,2 4,3 3,3 2,0 5,6 1,3 1,1 3,3 1,17 -1,36 0,54 0,12 -1,7 -3,11 0,1 0,5 -1,5 -1,1 -1,1 -2,1 -2,1 -1,1 -2,3 -1,1 -2,1 -5,1 -6,2 4,4 -16,4 -20,0 -12,-1 -17,-3 -2,-1 -4,-1 -5,-2 -1,-2 0,-1 -1,-3 -1,0 -2,0 -3,-1 -1,-1 -1,-3 -2,-5 -1,-1 -2,-1 -2,-4l0 -61zm60 61c0,-7 -1,-54 0,-59 3,4 2,8 2,14l0 32c0,2 0,5 0,7 0,3 0,3 -1,4l-1 2zm-71 -44l0 127c0,4 2,6 -2,7 -1,-2 -1,-4 -1,-7l0 -135c0,-4 0,-5 1,-9 4,1 2,4 2,7 0,3 0,7 0,10zm5 -28c0,-2 0,-2 1,-3 1,0 1,0 2,1 -1,1 -1,2 -3,2zm11 -14c1,-1 4,0 5,0 -1,2 -5,5 -5,0zm49 0c-1,5 -3,2 -4,0l4 0zm-8 -1c-5,0 -6,0 -9,-2 0,-1 5,-1 6,-1 3,0 2,0 4,1 0,1 0,1 -1,2zm-34 -2c3,-1 9,-2 11,0 -1,1 -3,2 -5,2 -4,0 -5,0 -6,-2zm6 -2c-1,0 1,0 -2,0 -1,1 -1,1 -2,0 -2,1 -2,1 -4,2 -1,1 -1,2 -4,2 -5,3 -4,4 -6,4 -1,1 0,1 -1,2 -1,0 -1,1 -2,1 0,1 -1,2 -2,3 -2,1 -2,3 -3,4 -1,1 -1,1 -2,1 0,1 0,1 0,1 0,2 0,0 -1,1 0,0 0,1 0,1 0,1 0,1 0,1 0,1 0,1 0,1 -1,1 -1,1 -1,1 0,2 0,2 -1,2 0,2 0,1 -1,1l0 4c0,5 0,69 0,76 0,10 -1,71 1,74 1,2 10,1 12,1 2,-6 1,-18 1,-25 0,-9 0,-18 0,-26 3,-2 2,-1 4,-4 2,-4 6,-1 10,-4 2,-1 3,-1 5,-1 7,-2 20,-1 28,-1 5,-1 2,-2 4,-3 2,-1 4,0 6,-1 1,-1 0,-1 1,-2 1,-1 2,-1 3,-1 2,-1 1,-1 3,-3l1 -1c2,-2 0,-2 2,-4 1,-1 2,0 2,-5 2,-10 3,-1 3,-12 0,-7 2,-58 -1,-62 0,-1 0,0 -1,-2 -1,-3 0,-5 -3,-8 -3,-3 -1,-2 -3,-4 -1,-2 -1,-1 -3,-3 -2,-3 -3,-2 -4,-4 -5,-5 -4,-2 -7,-4 0,-1 -1,-1 -1,-2 -3,0 -1,0 -2,-1 -2,1 -10,0 -13,-1 -1,-1 0,0 -1,-1 -5,-1 -9,4 -15,2z"/>
    <path class="fil4" d="M407 407c3,-1 31,-1 36,-1 6,1 4,2 7,5 3,1 2,1 3,3 1,2 3,2 2,11 0,2 -1,1 -2,3 -2,3 0,3 -4,8 -4,4 -2,3 -8,5 -2,1 -2,3 -9,3 -28,1 -19,-2 -26,-4 -3,0 -2,0 -4,-2l-5 -7c-1,-2 -1,-8 -1,-11 0,-6 1,-5 3,-7 1,-1 0,-1 1,-2 2,-2 1,0 3,-2 2,-2 2,-2 4,-2zm-23 27c-2,-2 -1,-18 0,-20 3,3 1,6 1,11 0,3 3,7 -1,9zm21 -39c-1,1 -1,1 -3,2 -1,0 -3,1 -4,-1 -3,-4 6,-2 7,-1zm-22 -25c0,-3 -1,-3 1,-5 3,2 2,4 -1,5zm18 -30c2,0 3,0 5,0 -1,3 -2,3 -5,3 -1,-2 -1,-2 0,-3 0,0 0,0 0,0 0,0 0,0 0,0zm48 0c0,1 0,0 1,0 0,2 0,3 -3,2 -1,0 -1,-1 -2,-2l4 0zm-7 -4c2,5 -7,2 -9,1 1,-1 1,-1 4,-1 2,0 3,0 5,0zm-33 0c-4,0 -1,1 -4,2 -1,1 -2,1 -4,2 -3,0 -1,1 -3,3 -1,1 -1,0 -2,1 -2,1 -1,0 -2,2 -1,2 -2,1 -3,3 -1,2 0,2 -3,4 -4,4 -1,6 -3,9 -2,1 -1,-1 -2,2 -2,3 -1,5 1,8 4,-1 6,1 10,-1 4,-2 2,-5 4,-6 2,-2 0,0 1,-3 3,-5 2,-2 5,-6 4,-5 3,-2 6,-4 2,-1 1,-2 8,-3 4,-1 9,-1 14,0 3,0 6,0 8,2 2,2 7,3 9,8 1,2 1,1 2,3 3,7 0,3 4,6l0 16c0,0 -1,0 -1,0 -6,3 2,6 -11,6 -6,0 -12,0 -18,0 -6,0 -14,-1 -17,2 -2,2 -4,1 -8,1 -5,1 -3,2 -5,4 -4,2 -3,1 -5,4 -2,4 -3,3 -4,6 -1,5 -2,2 -3,6 -1,3 -1,14 -1,17 0,7 2,6 3,7 1,2 0,5 2,7 1,1 2,1 3,2l1 3c2,1 2,0 4,2 2,1 1,1 3,2 4,2 4,-1 7,4 3,0 5,0 7,0 7,0 6,3 19,1 4,-1 9,-1 13,-1 2,-1 1,-1 2,-2 3,-3 6,-1 7,-3 0,-1 0,-1 0,-1 1,-2 2,-1 5,-2 0,0 0,-2 0,-3 1,0 1,0 1,0 2,-1 2,0 3,-3 1,-4 2,-3 3,-4 2,-2 0,-9 2,-12 1,-2 2,-1 2,-5l0 -49c-1,-4 -1,-2 -2,-4 -2,-3 1,-9 -2,-10 0,3 0,4 0,4 0,0 -1,0 -1,0 -1,-1 -1,-1 -2,-3l2 -2c0,0 1,0 1,0l0 1c-1,-5 -2,-2 -3,-6 -1,-3 -2,-3 -3,-5 -5,-5 -4,-3 -7,-6 -1,-1 0,-1 -2,-2 1,-1 0,-1 -1,0 0,-1 -1,-1 -2,-1 -5,-1 -1,-2 -5,-3l-26 -1c2,2 3,1 5,2 -3,1 -10,4 -13,0 0,0 0,-1 1,-1z"/>
    <path class="fil5" d="M185 354c3,0 8,4 9,5 3,3 2,3 2,4 1,-1 1,-1 1,0l0 1c2,2 2,2 2,3 1,1 1,2 1,3 0,1 0,3 0,4l0 40c0,9 0,14 -5,20 -6,6 -6,4 -10,6 -7,2 -1,2 -14,2 -4,0 -4,0 -7,-2 -3,-1 -4,0 -10,-5 -5,-5 -3,-6 -6,-11 -2,-4 -1,-10 -1,-15 0,-11 0,-22 0,-33 0,-3 0,-4 1,-6 2,-3 1,-4 2,-7 1,-2 7,-7 8,-8 4,-2 16,-5 21,-3 1,0 2,0 3,1 2,0 3,0 3,1zm16 17l0 0z"/>
    <path class="fil4" d="M143 446c2,0 2,0 3,1 2,2 -1,3 -2,2 -1,0 -1,-1 -1,-3zm-3 0c-1,-3 0,-5 2,-3 2,2 0,3 -2,3zm-4 -8c2,0 3,1 3,4 -2,0 -2,0 -3,0 0,-1 0,-2 0,-4zm65 -67c2,2 1,43 1,49 0,2 -1,5 -1,7 0,5 0,4 -3,6 -2,3 0,2 -4,4 -1,2 0,2 -3,3 -3,2 0,2 -4,3 -2,1 -24,2 -28,0l-2 -2c-2,-2 -2,0 -4,-3 -2,-3 -2,-1 -4,-3 0,-1 0,-3 -2,-5 -2,-3 -3,-6 -3,-11 0,-8 0,-48 2,-53 1,-3 1,-1 2,-4 1,-3 1,-4 3,-5 3,-2 1,-2 3,-3 2,-1 4,-1 5,-2 2,-2 2,-2 4,-3 7,-1 12,-1 19,0 10,2 3,2 10,4 3,1 0,2 3,3 3,2 1,0 3,5 2,1 2,0 3,3 0,3 0,5 0,7zm-58 -25l0 1c0,2 -1,4 -3,4 -1,-4 0,-3 3,-5l0 0zm6 -5c1,-1 7,-3 6,1 -1,1 -2,1 -4,1 -2,0 -2,-1 -2,-2zm46 0c2,-2 5,-2 4,1 0,2 -3,-1 -4,-1zm-4 -3c-2,2 -8,1 -10,-2 1,0 9,0 11,0l-1 2zm-34 -2c2,-1 9,0 12,1 -2,1 -4,2 -6,2 -4,0 -5,0 -6,-3zm-1 0l-1 1c-2,2 -5,3 -7,3 0,1 0,1 -1,0l0 2c-1,1 -1,1 -3,1 0,0 0,0 0,0l-1 1c0,0 0,0 0,0 -2,4 -1,2 -3,3 -2,2 0,2 -4,4 0,1 0,1 0,1l-1 0c1,3 0,5 -3,6 0,2 0,6 0,9 0,3 -1,6 -1,10 0,6 1,14 0,19 -1,4 -1,5 0,9l1 19c0,4 -1,7 -1,10l2 2c1,1 1,1 2,1 0,7 1,4 3,7l4 5c2,2 2,1 4,2 2,1 0,2 2,2 2,1 3,0 5,1 1,0 1,1 1,3 5,0 8,0 12,1 13,3 7,-1 23,-1 7,0 4,-4 10,-3 0,0 0,-1 0,-1 0,1 0,0 0,0l3 -2c1,-2 3,-1 4,-3 1,-1 0,-1 1,-2 1,-1 1,-1 2,-2 3,-3 1,-6 4,-10 2,-2 2,-6 2,-9 0,-11 0,-22 0,-33 0,-8 2,-29 -2,-33 -1,0 -1,0 -1,-1 0,0 -1,-3 -1,-4 0,0 0,-1 0,-1 -1,-3 -2,-1 -3,-4 -2,-4 -1,0 -4,-4 -2,-3 -4,-1 -4,-5 -1,0 -1,1 0,0 -2,0 -1,0 -1,-1 -6,0 -5,1 -7,-3 -1,-1 -2,-1 -5,-1 -2,0 -5,0 -8,0 -4,-1 -3,-1 -7,0 -1,0 -15,1 -16,1z"/>
    <path class="fil4" d="M759 447c0,0 0,0 0,0 0,2 0,2 -2,2 -2,0 0,0 -1,0 0,0 -1,-2 1,-2 3,0 0,0 2,0zm3 -4c1,1 1,-1 1,1 0,3 -3,2 -3,1 0,-1 -1,1 0,-1 0,-1 1,-2 2,-1zm4 -5c0,0 0,1 0,2 1,4 -3,2 -2,-1 1,-1 1,-1 2,-1zm3 -27l1 13c0,4 1,7 0,10 -6,0 -2,-6 -2,-10 1,-5 1,-9 1,-13zm-71 2c0,-9 -1,-29 0,-36 1,-5 0,-3 2,-7 1,-2 1,-8 2,-9 2,-1 2,0 3,-1 1,-3 -1,-2 2,-4 2,-1 0,-2 3,-3 1,-1 1,0 3,-2 1,0 1,0 2,-1 4,-2 16,-2 23,-1 5,1 3,2 6,3 5,2 3,2 6,4 1,2 1,1 2,2 1,1 4,7 5,10 1,6 1,51 0,56 -1,6 -1,4 -3,7 -1,1 -1,2 -1,3 -1,2 -1,1 -3,2 -2,2 0,2 -2,3 0,1 -2,1 -3,2 -5,2 1,3 -16,3l-11 0c-4,0 -3,-1 -5,-3 -2,-2 -3,0 -5,-2 -4,-5 -2,-1 -4,-5 -1,-2 -1,0 -3,-3 0,0 0,-4 -1,-6 -1,-3 -2,-1 -2,-5 0,-3 0,-4 0,-7zm69 -54c3,-1 3,-1 3,2 0,1 0,15 -1,16 0,-4 -3,-15 -2,-18zm-15 -19c-1,4 -4,3 -4,0 1,-1 3,0 4,0zm-49 0l5 0c-1,1 -2,3 -3,3 -3,0 -2,-2 -2,-3zm42 -3c-3,3 -5,2 -10,0 2,-1 2,-1 5,-1 6,0 4,1 5,1zm-35 -1c0,0 10,-2 12,1 -3,2 -2,2 -6,2 -4,0 -5,1 -6,-3zm-7 4c-3,1 0,1 -3,3 -2,1 -4,4 -6,6 -1,2 -2,1 -2,3 -1,2 -1,4 -2,5 -1,3 -1,-1 -2,3 -2,8 -2,63 -1,72 1,2 1,3 2,4 2,3 1,2 2,5 1,4 3,4 4,5 1,2 -1,2 2,3 6,2 3,3 6,4 2,1 3,0 5,1 1,2 0,3 3,3 2,0 4,0 6,0 7,1 9,2 18,0 4,0 8,0 12,0 1,-2 1,-3 3,-4 3,0 4,1 5,-1 1,-1 0,-1 2,-1 4,-2 1,-1 4,-3 1,-2 1,-1 2,-2 2,-2 0,-1 3,-3 2,-2 0,-2 1,-5 1,-3 2,-1 3,-3 0,0 0,0 0,0 1,-2 1,-6 1,-7 -1,-13 0,-39 0,-53 0,-5 0,-11 0,-15 -1,-1 0,0 -1,-1 0,-1 -1,-1 -1,-2 -3,-2 -2,-2 -3,-4 -1,-3 -2,0 -3,-4 -2,-4 -1,-1 -3,-3 -2,-2 0,-2 -4,-3 -3,-1 -1,-2 -3,-3 -2,-1 -4,-1 -5,-2 -2,-1 0,-2 -4,-2 -3,-1 -29,-1 -33,0 -2,0 -1,1 -3,3 -1,0 -4,0 -5,1z"/>
    <path class="fil6" d="M288 438l1 -1c1,0 5,1 7,1 6,2 19,0 21,-2 4,-4 4,-2 5,-4 3,-5 2,-2 3,-5 2,-4 1,-42 1,-48 0,-7 1,-10 -2,-14 -1,-2 -3,-4 -4,-5 -2,-1 -3,-1 -5,-3 -3,-3 -15,-3 -21,-2 -4,1 -2,2 -5,3 -5,3 -2,1 -5,4 -1,1 -4,6 -5,7 -1,4 0,50 0,53 0,3 4,11 5,11 2,1 1,0 3,2 0,0 0,1 0,1 1,1 1,0 1,2z"/>
    <path class="fil6" d="M704 371c0,3 0,52 0,55 1,0 1,0 2,1 1,1 1,1 0,3 1,-1 1,-1 1,0 1,1 0,0 1,1l5 5c2,2 1,1 5,2 7,0 2,1 9,1 6,0 8,-1 15,-2 1,-2 0,-2 2,-3 2,-1 2,0 3,-2 1,-2 0,-1 2,-3 1,-1 1,0 2,-2 2,-9 -1,-49 0,-56 0,-1 0,1 0,-2 0,-1 0,-1 0,-2l0 0 -1 -1c0,0 0,0 0,-1 -9,-9 -5,-4 -9,-7 -2,-1 -1,-2 -3,-2 -2,-1 -11,-1 -13,-1 -11,0 -9,2 -11,3 -1,1 -2,0 -3,2 -1,0 -1,1 -2,2 -2,1 -1,0 -2,3 -1,2 -1,1 -2,3 -1,3 1,2 -1,3z"/>
    <path class="fil6" d="M151 367l-1 31c0,4 0,21 1,24 0,2 1,4 1,7l1 0c0,0 0,0 0,0 1,1 1,0 2,1 0,1 0,2 0,4 5,0 2,1 6,3 2,1 1,0 1,1 3,-1 4,0 6,0 2,0 5,0 7,0 4,0 9,-1 12,0l0 -1c0,0 0,0 0,0 3,-5 3,-1 5,-4 0,-2 -1,0 0,-2l2 -1c2,-1 0,-2 3,-6 2,-2 1,-5 1,-9l0 -41c0,-3 0,-2 -1,-4 -3,-4 0,-6 -4,-7 -1,-1 0,0 -1,-1 0,0 0,0 -1,-1 0,0 0,0 0,0l-1 -2c-3,0 -4,0 -6,-2l-1 -1c-4,-2 -15,-1 -20,-1l0 0c-1,1 -1,1 -2,2 0,1 -1,1 -1,1 -1,1 -3,1 -4,3 -1,1 0,0 -2,3 -2,1 -2,2 -3,3z"/>
    <path class="fil4" d="M44 441c2,1 2,3 3,5 2,1 3,0 4,3 -4,2 -4,-1 -5,-2 -1,-2 -5,-1 -2,-6zm-4 -4c-1,-4 -1,-73 0,-80 2,1 2,4 2,7 0,10 1,67 -1,71 -1,3 0,1 -1,2zm-21 -90c-3,1 -2,0 -2,-4 0,-2 -1,-2 0,-4 0,0 1,0 1,-1 1,-1 0,-1 1,-1 2,-2 14,-1 16,0 -1,1 -2,1 -4,2 -2,1 -3,0 -6,0 -7,0 -6,0 -6,8zm38 -10c5,-1 28,-2 31,0 0,1 -1,2 -2,3 -12,-2 -16,0 -23,-1 -4,0 -4,0 -6,-2zm-17 -47c-1,-4 -2,-4 3,-4 4,0 6,-1 7,1 -1,2 -2,1 -5,2 -3,0 -3,1 -5,1zm-21 46c-3,0 -3,3 -3,6 0,8 0,6 4,9 1,1 0,1 1,1 4,1 17,-3 17,10 0,11 0,69 0,74 1,5 5,11 8,13l6 5c5,2 3,3 7,3 5,-1 11,1 17,0 3,0 5,0 8,0 7,0 2,-1 9,-4 3,-1 2,0 3,-2 1,-2 1,0 2,-1 2,-1 1,-2 2,-4 1,-3 6,-5 2,-12 -2,0 -3,1 -4,1 -3,0 -3,-1 -5,0 -4,1 -3,1 -5,5l-2 0c1,1 1,1 0,0 0,1 0,1 -1,1 1,4 -8,3 -12,3 -15,0 -11,-1 -13,-3l-1 -1c-2,-1 -2,0 -3,-2 -1,-4 0,-1 -3,-3 -1,-20 -1,-55 0,-77 0,-3 0,-4 2,-5 3,-2 2,-2 5,-3 3,-1 19,-1 23,0 4,0 3,0 6,-2 0,-2 0,-4 0,-6 0,-2 1,-2 1,-5 -2,-1 -2,-1 -3,-2 -4,1 -17,0 -21,0 -6,0 -13,2 -13,-8 -1,-7 0,-37 -1,-41 -5,-2 -8,-1 -12,-1 -1,1 -1,0 -2,2l1 20c0,8 0,17 -1,24 0,0 0,0 -1,0 -1,1 0,0 -1,1 -1,1 0,2 -2,3 -5,1 -10,-1 -15,1z"/>
    <path class="fil4" d="M507 435c1,1 1,1 2,2 0,6 0,9 1,15 0,2 -1,2 -3,2 -1,-3 0,-5 0,-9 0,-2 0,-3 0,-5 0,-1 -1,-2 0,-3l0 -2zm78 9c0,2 0,6 0,8 0,5 1,6 -4,4 0,-2 1,-4 1,-7 0,-3 -2,-5 2,-5 1,0 0,0 1,0zm-47 -50c-2,-4 -1,-5 2,-4 0,2 -1,3 -2,4zm3 -5c0,-1 0,-2 0,-3l3 1c0,1 -1,2 -3,2zm20 -22c-1,-3 -1,-11 0,-13 2,2 3,3 3,7 0,2 0,5 -3,6zm-54 -18c-1,-2 0,-7 -1,-10 0,-4 1,-3 6,-3l64 0c2,0 5,-1 5,1 0,3 -3,2 -5,2l-64 0c-2,0 -2,1 -3,1 -1,2 -1,4 0,6 0,2 1,3 -2,3zm-1 -13c0,1 0,1 -1,0 1,1 1,1 0,1l0 11c1,1 1,-1 0,1 1,0 1,0 1,1 1,-1 1,-1 0,0 1,0 1,0 1,1 1,-1 1,-1 0,0 2,0 10,-1 13,-1l26 0c2,0 3,0 6,1 1,1 4,1 5,2 2,1 2,2 2,4 1,11 -1,9 -2,11 -1,3 -3,4 -6,8 -1,2 -1,1 -3,3 -1,4 -1,1 -3,3 -2,3 0,3 -4,3 -1,6 -3,2 -4,6 -1,1 0,1 -1,1 -1,2 -1,1 -3,2l0 5c-1,1 -2,1 -3,2 -1,1 -1,2 -2,3 -2,3 -1,0 -2,3 -2,5 -1,-1 -5,7 -2,3 -2,1 -3,3 -2,2 1,2 -4,4 -1,4 0,2 -2,4 -2,2 -2,3 -3,6 -1,3 -2,1 -3,5 0,1 0,5 0,7 0,4 -2,11 2,13 3,2 11,1 15,1 10,0 55,-1 61,1 0,-1 0,-1 1,0 0,-1 0,-1 0,-1 0,-1 0,-1 1,-1 -1,-2 -1,-9 0,-11 -1,0 -1,0 0,-1 -1,0 -1,0 -1,-1 -1,1 0,1 0,0 -8,1 -38,1 -48,1 -4,0 -4,0 -6,-2 -2,-2 -4,-1 -4,-5 0,0 0,-1 0,0 0,0 0,-1 0,-1 -2,-2 -2,-1 -3,-3 5,-5 2,-3 4,-8 1,-2 1,-1 2,-2 2,-1 1,-1 2,-3 1,-2 1,-1 2,-2l1 -1c0,-1 0,-3 3,-3l1 -3c3,-5 2,-2 4,-5 2,-3 2,-1 3,-4 1,-2 0,-1 3,-3 2,-1 1,-2 2,-3 2,-2 1,0 3,-2 1,-2 0,-1 2,-3 1,-1 1,0 2,-2 1,-2 2,-3 3,-5 2,-1 1,-1 2,-3l1 -1c3,-2 -1,-2 5,-5 2,-1 -1,-1 2,-4l7 -6c0,-1 1,-2 1,-2 1,-1 0,-1 1,-1l1 -1c1,-1 1,-2 1,-3l3 -3c0,-2 1,-3 1,-7 0,-2 0,-6 0,-8 -1,0 -1,0 -1,0 -1,0 -1,0 0,-1 -1,0 -1,1 -1,0 -1,-1 -1,0 -4,-4 -2,1 -71,1 -73,0 0,1 1,1 -1,1z"/>
    <path class="fil1" d="M524 279c1,1 1,1 3,1 4,2 2,3 6,3 3,1 4,1 5,2 5,4 4,0 8,6 8,10 -17,15 -25,19l-14 6c-7,2 -10,6 -15,1 -4,-3 -3,-4 -3,-11 0,-9 0,-18 0,-27 0,-4 0,-8 4,-10 4,-1 8,1 10,2 4,2 4,0 10,4 4,2 7,1 9,4l2 0zm0 0l0 0z"/>
    <path class="fil7" d="M491 276l0 38c1,0 1,0 2,1l2 3c3,-1 5,-2 7,-3 4,-1 4,0 7,-2 3,-3 7,-1 10,-4 2,-2 0,-1 3,-1 3,-1 4,-2 6,-3 3,-2 5,-1 10,-4 4,-3 3,-1 6,-4 2,-2 3,-1 1,-4 -2,-3 0,-4 -7,-4 -2,-3 -2,-4 -5,-4 -7,0 -3,-2 -6,-3 -2,-1 -6,0 -7,-2 -2,-2 1,-1 -7,-3 -6,-1 -3,-1 -6,-3 -2,-1 -5,0 -6,-1 -2,-1 -1,-2 -3,-2 -1,-1 -2,-1 -4,-1 -1,1 -3,4 -3,6z"/>
    <path class="fil7" d="M434 318c2,-2 2,-2 5,-3 11,-2 2,-1 13,-4 3,-1 3,-2 5,-3 2,-1 4,-1 6,-2 4,-3 7,-3 9,-4 1,-1 1,-1 2,-1 2,-1 2,-1 4,-1l1 -1c4,-2 3,-9 -3,-11 -2,0 -2,1 -4,-1 -2,-3 -6,-2 -7,-3 -2,-1 -1,-2 -3,-3 -4,-1 -5,1 -7,-1 -2,-3 -1,-2 -10,-2 -1,-1 -1,-2 -1,-3l-8 -2c-4,-1 1,-2 -7,-3 -1,5 -1,7 -1,13l0 27c0,3 -1,4 1,6 1,1 2,1 5,2z"/>
    <path class="fil4" d="M633 339c-3,0 -3,1 -4,-3 1,0 14,-2 10,3 -1,1 -4,0 -6,0zm6 -4c-5,0 -8,0 -12,1 1,4 2,3 2,6 0,17 0,37 0,54l0 53c0,3 -1,5 -1,8 2,0 10,1 12,0l-1 -114c0,-3 1,-4 1,-7l-1 -1z"/>
    <path class="fil1" d="M503 336c0,-1 0,-1 1,0 -1,-1 -1,-1 0,-1 0,-1 0,-1 1,0 0,-1 0,-1 2,-1 7,-1 70,-1 73,0 10,0 9,15 7,22 -1,3 -7,12 -9,14 -1,1 -1,1 -2,2l-27 32c-1,2 -1,2 -3,4l-14 17c-4,6 -2,8 -3,12 6,3 2,1 7,2l1 1c0,0 0,0 0,0 0,0 0,0 0,0 3,-1 18,0 22,0 9,0 15,-1 23,-1 0,1 1,1 1,2 1,1 2,0 4,2 0,1 0,4 1,6 0,4 0,9 -3,10 0,1 0,1 -1,1 0,0 0,0 -1,1 -3,1 -71,0 -72,0 -4,-2 -6,-2 -7,-5 -4,-9 -3,-16 0,-25 2,-5 5,-10 9,-15l10 -12c1,-1 2,-3 3,-3 3,-3 0,-1 4,-5 2,-1 0,0 1,-2 1,-2 1,-2 3,-3 0,0 1,0 1,0 0,0 -1,-2 2,-3 3,-2 0,-2 3,-5 1,-1 2,-2 3,-3l6 -7c2,-2 1,-3 3,-4 2,-2 6,-8 5,-9 -1,-2 -1,-2 -2,-3 -1,-2 -1,-2 -3,-2 -3,-1 -25,-1 -29,-1 -11,0 -21,4 -21,-9 0,-2 0,-4 0,-5 0,-5 1,-4 1,-4zm28 95l3 -6c1,-1 1,0 3,-3 1,-3 1,-1 3,-3 1,-1 1,-3 2,-4 1,-2 2,-1 3,-2 1,-3 -1,-2 2,-4 3,-1 1,-2 3,-3 0,0 0,-1 0,-1 3,-2 2,-2 3,-3 1,-2 1,-1 3,-2 1,-1 0,-2 1,-3 1,-1 1,0 2,-2 3,-4 1,-2 6,-6l4 -5c1,-1 1,-1 3,-3 0,-1 0,-1 1,-2 5,-3 2,-1 4,-3 2,-3 2,1 3,-5 2,-1 2,-1 3,-4 2,-3 0,-2 3,-4 2,-1 1,-2 2,-5 1,-4 1,-2 2,-4 1,-1 2,-12 -1,-16 -3,-3 0,-4 -5,-5 -7,-1 -44,0 -55,0 -32,0 -29,-2 -29,12 0,3 -1,8 3,10 6,2 45,-1 48,1 1,0 1,2 3,3l0 5c-2,1 -2,0 -3,2 -1,2 0,2 -2,3 -2,2 -3,2 -3,7 -4,0 -4,0 -4,4 -4,0 -3,-1 -4,4 -3,0 -3,1 -3,3 -1,1 0,0 -1,1l0 0c-4,3 -2,1 -4,6 -1,2 -3,-1 -3,5 -5,0 -3,0 -4,3 0,0 0,0 0,0 0,0 0,0 0,1l-2 0c-2,1 -2,4 -2,3l-1 1c-3,1 -2,1 -2,2 -2,3 -1,0 -4,5 -2,2 -2,0 -3,2 -2,3 0,4 -3,6 0,0 0,0 -1,0 0,0 -1,0 -1,0l0 5c-5,1 -4,7 -4,12 0,6 0,11 0,16 1,4 1,3 4,4 2,1 2,3 4,4 2,1 12,0 15,0 21,0 44,1 64,0 1,-2 0,-2 2,-3 1,-1 1,-1 2,-1 0,-8 1,-12 -3,-17 -4,-5 -2,-5 -16,-4 -8,0 -33,1 -40,-1l-2 -4c1,-1 1,-1 1,-2z"/>
    <path class="fil6" d="M402 417l0 10 0 1c0,0 0,0 0,0l4 6c5,4 2,3 7,4 4,0 25,1 28,-2 7,-7 3,-1 6,-10 1,-4 0,-11 -2,-13 -1,-1 -9,0 -11,0l-24 0c-5,0 -4,0 -6,3l-2 1z"/>
    <path class="fil1" d="M89 333l2 2c3,1 2,5 2,9 0,5 -1,9 -5,10 -8,2 -21,-1 -30,1 -2,7 -1,11 -1,20 0,7 -1,51 0,56 1,2 1,3 2,4 1,1 1,2 4,4l6 3c1,0 2,0 4,0 2,0 2,0 3,-1 5,2 6,-3 9,-3 1,-1 2,-3 3,-4 0,-1 -1,-1 1,0 0,-5 6,-4 9,-4 2,0 3,0 4,1 3,-1 2,0 2,0 3,0 4,3 4,7l-2 6c0,1 -1,1 -1,1 0,2 -2,4 -3,5 -1,1 -1,1 -2,2 -1,2 -1,2 -2,2 0,1 0,1 -1,0 0,1 1,0 -1,1 -1,1 1,0 -1,0 0,1 0,0 -1,1 0,0 0,1 0,1 -2,1 -1,1 -3,1 0,1 -2,1 -3,1 0,0 0,0 -1,1 -1,0 -1,0 -2,0 0,0 1,0 -1,0 -1,1 0,1 -1,1 -1,0 1,0 -2,0 -2,2 -16,1 -19,0 -2,-1 -3,-2 -6,-2 0,0 0,0 0,0l-1 -1c-3,0 -1,0 -4,-2 -1,-1 -1,0 -1,-1 -1,0 0,0 -1,-1 -1,0 0,1 -2,0 -1,-1 0,0 -1,-1 -1,-1 1,0 -1,-1 1,-1 1,0 0,0 0,-1 0,-1 -1,0 0,-1 0,-1 -2,-3 -1,-1 0,0 -1,-1 0,-3 -5,-4 -4,-9 0,0 0,-1 0,0 0,0 -2,-4 -2,-8l0 -66c0,-4 0,-9 -3,-10l-5 -1c-4,0 -12,2 -13,-6 -1,-15 0,-14 13,-15 9,0 7,-9 7,-19 0,-6 0,-23 1,-27 1,-4 6,-4 9,-4 4,0 9,0 11,2 3,5 2,18 2,26 0,3 -1,17 1,19 1,2 1,3 4,3 2,0 26,1 27,0zm-48 115c-1,3 1,4 3,4 0,1 0,0 1,0 -1,1 -1,1 0,0 0,4 3,3 5,5 2,1 3,3 6,2l3 3c3,2 23,3 28,-1 3,-2 4,-1 7,-2 2,-1 2,-1 3,-2 1,-2 0,-1 2,-2 2,-1 1,-1 2,-2 1,-2 1,-1 3,-2 1,-1 0,-1 1,-3 1,-2 1,0 3,-2 1,-2 0,-5 1,-7 1,-2 3,-2 0,-7 -2,-4 -2,-1 -5,-3 -1,-1 -1,-1 -3,-2 -11,0 -7,1 -11,2 -1,1 -2,1 -3,2 -1,2 0,2 -1,3 -3,3 -2,3 -5,4 -3,1 -1,1 -4,3l-1 0c-4,-1 -5,1 -7,-1 -4,-3 -5,-1 -7,-3 -2,-6 -2,-2 -3,-5 -1,-4 0,-59 0,-64 0,-10 -2,-13 6,-13 6,0 13,0 19,0 9,0 10,3 10,-18 -1,-3 -1,-4 -5,-4 0,0 -5,-3 -7,-3 -5,0 -15,1 -20,0 -3,0 -3,0 -4,-2l1 -25c0,-4 1,-16 -2,-18 -1,-1 -2,-2 -3,-2 -2,-1 -2,-1 -3,-2 -2,-2 -6,-1 -8,-1 -7,1 -3,1 -6,3 -1,0 -1,0 -1,0 -2,1 -2,0 -3,2 -1,5 0,35 0,42 0,1 0,2 -1,2 0,0 0,0 0,0 0,0 -1,1 -1,1 -5,1 1,1 -8,2 -4,0 -1,1 -5,1 -2,0 -3,0 -4,1 -1,4 -2,18 1,20 2,2 10,1 14,2 5,1 4,8 4,11l0 59c0,18 2,13 4,18 1,2 1,4 4,4z"/>
    <path class="fil3" d="M401 340c2,-1 3,-1 4,-2 3,-1 0,-2 4,-2l7 -1 26 1c4,1 0,2 5,3 1,0 2,0 2,1 1,-1 2,-1 1,0 2,1 1,1 2,2 3,3 2,1 7,6 1,2 2,2 3,5 1,4 2,1 3,6l0 0c3,1 0,7 2,10 1,2 1,0 2,4l0 49c0,4 -1,3 -2,5 -2,3 0,10 -2,12 -1,1 -2,0 -3,4 -1,3 -1,2 -3,3 0,0 0,0 -1,0 0,1 0,3 0,3 -3,1 -4,0 -5,2 0,0 0,0 0,1 -1,2 -4,0 -7,3 -1,1 0,1 -2,2 -4,0 -9,0 -13,1 -13,2 -12,-1 -19,-1 -2,0 -4,0 -7,0 -3,-5 -3,-2 -7,-4 -2,-1 -1,-1 -3,-2 -2,-2 -2,-1 -4,-2l-1 -3c-1,-1 -2,-1 -3,-2 -2,-2 -1,-5 -2,-7 -1,-1 -3,0 -3,-7 0,-3 0,-14 1,-17 1,-4 2,-1 3,-6 1,-3 2,-2 4,-6 2,-3 1,-2 5,-4 2,-2 0,-3 5,-4 4,0 6,1 8,-1 3,-3 11,-2 17,-2 6,0 12,0 18,0 13,0 5,-3 11,-6 0,0 1,0 1,0l0 -16c-4,-3 -1,1 -4,-6 -1,-2 -1,-1 -2,-3 -2,-5 -7,-6 -9,-8 -2,-2 -5,-2 -8,-2 -5,-1 -10,-1 -14,0 -7,1 -6,2 -8,3 -3,2 -2,-1 -6,4 -3,4 -2,1 -5,6 -1,3 1,1 -1,3 -2,1 0,4 -4,6 -4,2 -6,0 -10,1 -2,-3 -3,-5 -1,-8 1,-3 0,-1 2,-2 2,-3 -1,-5 3,-9 3,-2 2,-2 3,-4 1,-2 2,-1 3,-3 1,-2 0,-1 2,-2 1,-1 1,0 2,-1 2,-2 0,-3 3,-3zm-20 25l0 5c1,1 1,-1 1,2 1,-1 1,-1 0,0 1,0 1,0 1,1 1,-1 1,-1 0,0l12 0c0,-1 0,0 1,-2l2 -1c-1,-1 -1,0 0,-1 1,-2 -1,0 0,-1 0,-2 0,-1 1,-1 0,-3 0,-1 1,-1 0,-2 0,-1 1,-1 -1,-3 2,-5 3,-6 1,-2 1,-2 2,-3 2,-1 2,-1 4,-1 0,-1 -1,-1 1,-2 1,0 1,0 2,0 1,-1 -1,-1 2,-1 1,0 1,-1 4,-1 9,-2 14,0 21,3 3,2 8,7 9,9 6,11 4,24 -3,26 -5,1 -34,-1 -38,1l-2 0c0,0 0,0 0,0 -6,3 -5,1 -9,3 -2,0 -2,1 -3,3 -6,4 -1,-1 -7,6 -1,1 -1,2 -2,3 -2,4 -3,4 -4,9 -1,7 -1,17 1,23 3,2 -2,-3 1,1 0,0 0,0 0,1 1,1 1,1 1,2 1,0 1,-1 0,1l6 7c1,1 1,0 1,1 3,0 2,1 5,3l2 2c5,-1 1,2 11,3 5,0 7,2 11,3 3,0 5,0 7,0 4,0 4,-1 6,-2 2,0 4,-1 6,-1 1,0 2,0 3,0 1,0 2,-1 2,-1 0,0 0,0 0,0 4,-1 3,-1 6,-2 2,-2 3,-1 5,-3 1,-2 2,-1 4,-3l3 -4c1,-2 1,-2 3,-4 3,-4 1,-5 3,-12 3,-7 2,-57 1,-62 -1,-1 -2,-3 -2,-5 0,-3 0,-3 -1,-6 -1,-2 -2,-2 -3,-4 -3,-6 -8,-9 -11,-11 -2,-3 -6,-3 -9,-6 -1,0 0,0 -1,0 0,0 0,0 0,0 0,0 0,0 0,0 -6,1 -15,-2 -22,-1 -5,1 -11,0 -15,3 -2,1 -1,1 -4,2l-3 2c-2,2 -2,1 -4,2 -1,2 -1,2 -2,3 -3,2 -1,1 -3,4 -1,1 -1,1 -2,3 -1,1 -2,2 -2,4 -1,2 -2,2 -3,6 0,0 0,1 0,1 0,0 0,1 0,1l-1 0z"/>
    <path class="fil2" d="M59 435c-1,2 0,2 1,3 1,1 2,1 2,2 2,1 4,3 7,2l2 1c1,0 2,0 3,0 4,0 8,-1 10,-4 2,-1 1,0 1,-1 2,0 1,0 2,0 1,-2 1,-2 1,-4 1,0 1,1 1,0 1,-1 -1,0 0,-1 1,0 1,0 1,0 6,-4 7,-1 12,-2 0,0 -1,1 2,0 0,2 0,0 1,2 1,1 2,3 2,4 0,3 -2,5 -2,8 -2,0 -1,0 -2,2 -1,2 -4,4 -5,5 -1,1 0,1 0,2 -2,-1 -1,-1 -1,0 -2,0 -2,0 -2,1 -2,0 -2,0 -3,2l-1 1c0,0 0,0 0,0 -1,0 0,0 -2,0 -1,0 0,0 -1,1 -1,0 -1,0 -2,0 -1,0 -1,0 -1,1 -3,-1 -1,0 -1,0 -2,-1 -1,0 -1,1 -4,-1 -2,0 -2,0 -2,-1 -10,1 -14,0 -2,-1 -9,-3 -12,-3l-1 -1c-1,-2 -3,-2 -5,-3 0,0 0,0 0,-1 -1,0 -5,-3 -7,-5l-5 -9c0,0 0,0 0,0 0,-1 0,-12 0,-14l0 -56c0,-7 0,-8 -2,-12 -2,-4 -6,-4 -11,-4 -4,0 -7,-1 -9,-4 -1,-3 -1,-11 1,-13 1,-2 7,-2 11,-2 5,0 7,-1 9,-5 2,-6 -1,-31 1,-42 0,-4 5,-4 10,-3 5,0 7,1 8,5 1,8 0,21 0,28 0,5 -1,11 1,13 1,2 2,3 4,4 6,1 30,-2 32,3 0,1 0,11 -1,13 -1,3 -5,3 -10,3 -4,0 -9,0 -14,0 -2,0 -5,0 -7,1 -4,0 -5,4 -5,8 0,3 0,5 0,7l0 56c0,3 1,9 4,10zm-22 4c-1,5 4,6 4,9 1,1 0,0 1,1 2,2 2,2 2,3 1,-1 1,-1 1,0 1,0 1,-1 0,0 2,1 0,0 1,1 1,1 0,0 1,1 2,1 1,0 2,0 1,1 0,1 1,1 0,1 0,0 1,1 3,2 1,2 4,2l1 1c0,0 0,0 0,0 3,0 4,1 6,2 3,1 17,2 19,0 3,0 1,0 2,0 1,0 0,0 1,-1 2,0 1,0 1,0 1,0 1,0 2,0 1,-1 1,-1 1,-1 1,0 3,0 3,-1 2,0 1,0 3,-1 0,0 0,-1 0,-1 1,-1 1,0 1,-1 2,0 0,1 1,0 2,-1 1,0 1,-1 1,1 1,1 1,0 1,0 1,0 2,-2 1,-1 1,-1 2,-2 1,-1 3,-3 3,-5 0,0 1,0 1,-1l2 -6c0,-4 -1,-7 -4,-7 0,0 1,-1 -2,0 -1,-1 -2,-1 -4,-1 -3,0 -9,-1 -9,4 -2,-1 -1,-1 -1,0 -1,1 -2,3 -3,4 -3,0 -4,5 -9,3 -1,1 -1,1 -3,1 -2,0 -3,0 -4,0l-6 -3c-3,-2 -3,-3 -4,-4 -1,-1 -1,-2 -2,-4 -1,-5 0,-49 0,-56 0,-9 -1,-13 1,-20 9,-2 22,1 30,-1 4,-1 5,-5 5,-10 0,-4 1,-8 -2,-9l-2 -2c-1,1 -25,0 -27,0 -3,0 -3,-1 -4,-3 -2,-2 -1,-16 -1,-19 0,-8 1,-21 -2,-26 -2,-2 -7,-2 -11,-2 -3,0 -8,0 -9,4 -1,4 -1,21 -1,27 0,10 2,19 -7,19 -13,1 -14,0 -13,15 1,8 9,6 13,6l5 1c3,1 3,6 3,10l0 66c0,4 2,8 2,8 0,-1 0,0 0,0z"/>
    <path class="fil2" d="M411 333l-2 0c-1,1 1,0 -2,1 -1,0 0,0 -1,0 -1,0 -1,0 -1,0 0,0 0,0 0,0 0,0 0,1 0,1l-3 2c-1,0 -1,0 -1,0 0,0 0,0 0,1 -3,-1 -1,0 -1,0 -4,0 -3,1 -6,3 -3,2 -6,6 -8,9 -3,3 -7,13 -6,19 1,7 5,6 12,6 3,0 4,0 6,-2 3,-4 3,-7 8,-13 1,-1 1,-1 3,-2 2,-2 1,-3 5,-3 10,-3 10,-2 19,-1 1,0 1,0 2,0 2,1 1,1 2,1l1 0c2,3 8,5 8,8 1,1 1,0 1,2 1,1 0,0 0,1 2,0 0,0 1,0 1,1 1,1 1,2 1,1 0,2 0,3 0,0 1,-1 1,2 0,0 0,2 0,3 0,2 1,4 -1,6 1,3 0,1 0,1 0,1 0,1 -1,0 1,1 1,1 0,1 0,1 0,1 -1,0 1,1 1,1 0,1 0,3 0,1 -1,1 1,2 1,1 -1,1l1 0c-3,2 -17,1 -19,1 -6,0 -14,0 -20,0 -4,0 -4,1 -6,2 -2,2 -5,1 -7,3 -2,1 -1,1 -3,2 -6,4 0,1 -5,5 -1,1 -5,8 -5,9 -1,2 -1,5 -2,7 -3,12 0,15 2,25 1,2 1,1 2,2 0,1 4,7 7,8 3,2 1,0 3,2 0,1 0,1 1,1 0,0 0,1 1,1 0,0 0,0 0,1 5,0 0,1 10,3 4,1 6,3 11,3 8,1 19,1 25,-2 4,-1 7,-1 10,-3 3,-3 1,0 6,-4 1,-2 2,-1 6,-5 1,-2 0,-2 2,-4 2,-2 4,-7 5,-10 3,-7 2,-53 1,-66 0,-8 -4,-15 -8,-20 -1,-2 -2,-2 -3,-4 -2,-1 -2,-2 -4,-2 -1,-2 0,0 -1,-2 -1,-1 -1,-1 -2,-1 0,-1 0,-1 -1,0 0,-1 1,-1 -1,-1 0,0 2,0 -1,0 1,1 0,1 1,0 1,1 0,1 1,1 0,1 0,1 1,0 0,2 -1,0 1,2 1,1 1,0 2,1 0,1 1,1 3,3 3,3 6,6 8,12 3,10 4,12 4,23 0,11 1,44 -2,52 -1,2 -1,3 -1,5 -1,2 -2,3 -3,5 -1,1 -1,2 -2,4 -1,1 -1,1 -2,1 -1,1 -1,1 -2,2 0,1 -5,5 -7,6 -4,1 -3,2 -10,4 -2,0 -4,0 -5,1 -7,2 -11,2 -19,2l-19 -6c-1,-1 -1,-1 -1,-1 -2,0 -3,-1 -4,-2 -1,-1 -1,-1 -2,-1 -1,-1 0,-1 -1,-2 -2,0 -2,-2 -4,-3 -1,-1 -2,-3 -3,-5 0,0 0,1 0,-1 -1,0 0,0 -1,-1 0,0 0,0 0,0 -1,-1 -1,-2 -1,-3 -2,-6 -2,-16 -1,-23 1,-5 2,-5 4,-9 1,-1 1,-2 2,-3 6,-7 1,-2 7,-6 1,-2 1,-3 3,-3 4,-2 3,0 9,-3 0,0 0,0 0,0l2 0c4,-2 33,0 38,-1 7,-2 9,-15 3,-26 -1,-2 -6,-7 -9,-9 -7,-3 -12,-5 -21,-3 -3,0 -3,1 -4,1 -1,2 0,2 -2,1 0,1 2,0 -1,1 -1,1 -1,1 -2,1 -1,2 -3,2 -8,8l-1 2c0,1 0,0 -1,1 0,2 1,1 -1,1 0,3 1,1 -1,1 1,1 1,0 0,2 0,1 1,0 0,0 0,2 -1,3 -3,3 -1,1 -11,1 -12,0 -1,0 -1,1 0,0 -1,0 -1,0 -1,-1 -1,1 0,1 0,0 0,-1 -1,1 -1,-2 0,-1 -1,-2 0,-3 0,-1 0,-1 0,-2 -1,-4 7,-17 9,-19l10 -8c2,0 1,0 1,0 4,0 3,-3 9,-4 4,0 7,0 10,-2 4,-1 8,-1 11,1 4,1 9,1 11,2 1,-1 -1,-1 1,0 0,0 0,0 0,0 0,0 0,0 0,0 3,0 3,2 6,2 0,0 0,0 0,0 -1,1 1,-3 -8,-3 -12,-1 -6,-5 -20,-3 -5,0 -5,3 -10,2z"/>
    <path class="fil1" d="M285 333c-3,0 -4,0 -6,1l-2 3c-1,0 -1,0 -1,1 -4,-1 -4,0 -5,2 -2,1 -4,2 -6,5 -4,4 -5,5 -4,7 -1,0 -1,-1 0,1 -1,1 0,0 -2,1 0,0 0,1 0,1 -2,2 -2,4 -3,7 0,9 1,9 -1,16 -1,3 -1,63 -1,67 0,21 0,45 0,67 1,3 1,2 2,4 2,5 -1,5 7,6 2,0 8,0 10,-1 2,0 0,1 1,0 2,0 1,0 1,-1l2 1c1,-2 1,-2 1,-4l-3 3c0,0 0,0 0,0 -2,0 -1,0 -1,1 -2,-1 -8,0 -11,0 -5,0 -6,-1 -6,-6 -1,-8 0,-61 0,-71 0,-9 -1,-74 0,-82 2,-7 4,-4 4,-9 0,0 0,1 0,-1l1 0c0,0 0,0 0,-1l8 -9c1,-1 1,0 3,-2 0,0 0,-1 1,-1l2 -1c0,0 0,0 0,0 4,0 3,-2 6,-4 0,0 1,0 1,0 0,0 1,0 1,0l1 -1c1,1 2,1 4,0 5,0 4,0 8,-1 2,-1 11,-2 14,-1 5,2 -3,1 12,3 3,1 1,3 5,3 0,1 -1,0 1,1 2,1 1,0 3,2 2,2 4,1 9,7 1,2 2,2 3,5 2,4 3,3 4,11 1,2 1,5 1,7 0,3 0,5 1,7l0 40c-1,2 -1,4 -2,6 0,2 0,14 0,15l-1 1c-2,4 -3,3 -3,5l-2 2c-1,1 -3,3 -4,5 -3,-1 -1,0 -1,1 -1,-1 -1,-1 -1,0 0,0 -1,-1 0,1 -1,0 -1,0 -1,1 -1,-1 -1,-1 0,0 -1,0 -1,0 -1,1 -2,-1 0,-1 -1,0 3,0 1,0 1,0 1,0 1,0 1,-1 1,1 1,1 0,0 1,0 1,0 1,-1 1,0 1,1 0,-1 1,1 1,1 1,0 2,0 1,0 1,-1 4,1 1,-1 4,-3 1,-1 3,0 2,-4 3,-1 4,-2 4,-6l1 -1c1,-5 2,-6 2,-12 0,-5 0,-10 0,-16 0,-10 0,-21 0,-32 0,-2 0,-14 -1,-15 0,-1 -1,-1 -1,-3 -2,-4 -1,-5 -3,-8 -2,-2 -2,-3 -4,-5 -1,-1 -1,0 -2,-2 -4,-4 -4,-2 -7,-5 -1,-2 -2,-2 -5,-2 -1,-1 0,-1 -1,-1 0,-1 -1,-1 -1,-1 -3,-3 -5,-1 -8,-3 -3,-1 -3,-2 -10,-3 -19,0 -17,3 -21,4 0,0 -1,0 -1,0 -2,0 -1,0 -1,0z"/>
    <path class="fil5" d="M85 441c0,-1 -1,-1 1,-1 -1,-1 -1,0 0,0 1,-1 1,-1 3,-4 0,-1 1,-2 2,-3 3,-1 8,-1 12,0 4,2 1,10 -1,13 -6,9 -6,6 -10,10 -3,1 -4,2 -8,2 -4,0 -5,1 -8,1 -11,1 -6,0 -13,-1 -1,0 -3,0 -4,-1 -4,0 -2,-1 -7,-3l-6 -5c-3,-2 -7,-8 -8,-13 0,-5 0,-63 0,-74 0,-13 -13,-9 -17,-10 -1,0 0,0 -1,-1 -4,-3 -4,-1 -4,-9 0,-3 0,-6 3,-6 1,-1 -1,-1 1,-1 4,-1 12,1 14,-2 4,-5 4,-5 4,-14l0 -27c0,-3 -1,-6 2,-7 2,-1 9,-1 11,0 3,1 3,5 3,9 0,4 -1,34 0,36 1,1 3,3 3,3 4,3 24,0 29,2 0,0 0,0 1,0 5,0 4,3 4,7 0,5 1,10 -8,10l-17 0c-9,0 -12,1 -12,10 -1,10 -1,64 0,69 0,2 4,7 4,7 1,1 2,2 4,3 3,3 8,3 14,2 9,0 6,-1 9,-2zm-48 -2c0,0 0,0 0,0l5 9c2,2 6,5 7,5 0,1 0,1 0,1 2,1 4,1 5,3l1 1c3,0 10,2 12,3 4,1 12,-1 14,0 0,0 -2,-1 2,0 0,-1 -1,-2 1,-1 0,0 -2,-1 1,0 0,-1 0,-1 1,-1 1,0 1,0 2,0 1,-1 0,-1 1,-1 2,0 1,0 2,0 0,0 0,0 0,0l1 -1c1,-2 1,-2 3,-2 0,-1 0,-1 2,-1 0,-1 -1,-1 1,0 0,-1 -1,-1 0,-2 1,-1 4,-3 5,-5 1,-2 0,-2 2,-2 0,-3 2,-5 2,-8 0,-1 -1,-3 -2,-4 -1,-2 -1,0 -1,-2 -3,1 -2,0 -2,0 -5,1 -6,-2 -12,2 0,0 0,0 -1,0 -1,1 1,0 0,1 0,1 0,0 -1,0 0,2 0,2 -1,4 -1,0 0,0 -2,0 0,1 1,0 -1,1 -2,3 -6,4 -10,4 -1,0 -2,0 -3,0l-2 -1c-3,1 -5,-1 -7,-2 0,-1 -1,-1 -2,-2 -1,-1 -2,-1 -1,-3 -3,-1 -4,-7 -4,-10l0 -56c0,-2 0,-4 0,-7 0,-4 1,-8 5,-8 2,-1 5,-1 7,-1 5,0 10,0 14,0 5,0 9,0 10,-3 1,-2 1,-12 1,-13 -2,-5 -26,-2 -32,-3 -2,-1 -3,-2 -4,-4 -2,-2 -1,-8 -1,-13 0,-7 1,-20 0,-28 -1,-4 -3,-5 -8,-5 -5,-1 -10,-1 -10,3 -2,11 1,36 -1,42 -2,4 -4,5 -9,5 -4,0 -10,0 -11,2 -2,2 -2,10 -1,13 2,3 5,4 9,4 5,0 9,0 11,4 2,4 2,5 2,12l0 56c0,2 0,13 0,14z"/>
    <path class="fil1" d="M411 333c5,1 5,-2 10,-2 14,-2 8,2 20,3 9,0 7,4 8,3 0,0 0,0 0,0l1 1c3,0 1,0 1,0 2,0 1,0 1,1 1,-1 1,-1 1,0 1,0 1,0 2,1 1,2 0,0 1,2 2,0 2,1 4,2 1,2 2,2 3,4 4,5 8,12 8,20 1,13 2,59 -1,66 -1,3 -3,8 -5,10 -2,2 -1,2 -2,4 -4,4 -5,3 -6,5 -5,4 -3,1 -6,4 -3,2 -6,2 -10,3 -6,3 -17,3 -25,2 -5,0 -7,-2 -11,-3 -10,-2 -5,-3 -10,-3 0,-1 0,-1 0,-1 -1,0 -1,-1 -1,-1 -1,0 -1,0 -1,-1 -2,-2 0,0 -3,-2 -3,-1 -7,-7 -7,-8 -1,-1 -1,0 -2,-2 -2,-10 -5,-13 -2,-25 1,-2 1,-5 2,-7 0,-1 4,-8 5,-9 5,-4 -1,-1 5,-5 2,-1 1,-1 3,-2 2,-2 5,-1 7,-3 2,-1 2,-2 6,-2 6,0 14,0 20,0 2,0 16,1 19,-1l-40 0c-9,0 -6,3 -11,4 -6,1 -1,2 -6,4 -7,2 -3,-1 -5,3l0 1c-1,1 -2,0 -3,2 -1,1 -1,3 -1,4 -1,3 -1,2 -2,3 -2,3 -3,25 0,29 1,4 1,1 2,5 1,2 1,3 2,5 4,2 2,2 4,4 1,1 2,0 3,1 2,2 2,4 6,4l1 0c1,4 3,3 8,4 2,3 3,3 8,3 6,1 18,1 24,0 5,0 6,1 8,-3 5,-1 8,0 9,-4 7,-1 5,-3 8,-4 4,-3 1,-1 3,-4 1,-2 0,0 2,-1 0,-1 0,-1 1,-1 1,-2 0,-2 2,-3 4,-3 2,-7 3,-12 1,-2 2,1 2,-11 0,-12 1,-39 0,-48 -1,-5 0,-6 -1,-9 -1,-3 -1,-5 -2,-8 -2,-2 -2,-1 -3,-2 -1,-4 2,-2 -5,-9 -3,-3 -4,-3 -6,-3 -1,-3 -2,-3 -4,-4 -6,-2 0,-3 -11,-4 -4,0 -3,0 -6,-2 -4,-2 -15,-2 -20,-1 -3,1 -4,1 -5,3z"/>
    <path class="fil5" d="M505 337c0,-1 0,-1 0,-1 0,-1 0,0 1,0 0,-1 -1,-1 1,-1 0,0 0,0 0,0l69 0c1,0 2,0 3,0 2,0 1,-1 1,0 2,1 4,2 4,4 1,-1 1,-1 1,0 1,0 0,0 0,1 1,-1 1,-1 1,0 0,2 0,6 0,8 0,4 -1,5 -1,7 0,2 -2,5 -3,6 -1,1 1,0 -1,0 0,3 -6,8 -7,9 -1,1 0,1 -1,2 -1,1 -1,1 -2,3 -2,2 -6,6 -9,11 -1,2 -1,1 -2,2 -1,1 -1,2 -2,3 -1,1 -1,1 -2,2 -1,1 -1,1 -2,2l-13 16c-2,2 -1,3 -4,5 -1,1 -6,7 -7,8 -2,2 -2,3 -2,6 -2,5 0,3 -1,7l2 2c1,0 0,0 1,1l3 1c4,3 13,2 20,2l31 -1c0,1 0,1 1,1 1,0 0,0 0,0 1,0 1,0 1,1 0,0 0,0 0,1 1,1 1,10 0,11 0,1 0,1 -1,1 1,1 1,1 0,1 0,0 0,0 -1,0 -1,1 -4,0 -7,0 -3,0 -7,0 -10,0l-54 0c-8,0 -8,-3 -8,-10 0,-6 -1,-12 2,-16 3,-4 0,-4 5,-9l6 -8c1,-2 0,-1 2,-3 1,-1 1,-1 2,-2 1,-3 0,1 4,-5 2,-4 5,-7 6,-8 1,-2 0,-2 1,-3 1,-2 1,-1 3,-3 0,-1 0,-1 2,-2 4,-3 1,-2 4,-5 3,-2 9,-9 11,-12 1,-3 9,-9 5,-16 -2,-4 -9,-4 -15,-4l-28 0c-1,0 -5,0 -6,0 -2,0 -1,0 -2,-1 -1,1 -1,1 0,0 -1,0 -1,0 -1,-1 -1,1 0,1 0,0 -1,0 -1,0 -1,-1 0,0 0,1 0,-1 0,0 -1,1 -1,-2 0,-1 0,-2 0,-3l0 -5c1,-1 0,-1 1,-1zm0 -2c0,1 0,0 -1,0 1,1 1,1 0,1 0,1 0,1 -1,0 1,6 -1,14 3,17 2,1 34,0 39,0 6,0 13,0 13,7 0,5 -6,11 -9,15 -2,2 -5,6 -7,8 -5,4 0,2 -5,5 -1,1 -1,2 -2,3 -1,1 -2,1 -3,2 -1,1 0,2 -1,3l-11 14c-1,1 -2,2 -3,3 0,1 -1,2 -2,3 -3,4 -5,6 -8,11 -3,9 -3,5 -4,16 0,6 0,13 5,15 8,4 71,0 76,2 0,-1 0,-1 1,-1 3,-1 3,-6 3,-10 -1,-2 -1,-5 -1,-6 -2,-2 -3,-1 -4,-2 -5,-1 -7,-1 -11,0l-34 0c0,0 0,0 -1,-1 -1,0 -1,0 -3,0l-2 -1c-2,-1 -2,-1 -3,-2 -2,-2 0,-9 1,-11l27 -33c0,0 0,0 0,0l2 -2c2,-3 2,-2 4,-5l22 -28c3,-3 3,-17 1,-20 -1,-1 -1,-1 -2,-2 -1,-1 -1,-1 -3,-1 -4,-2 -69,-1 -76,0z"/>
    <path class="fil3" d="M639 335l1 1c0,3 -1,4 -1,7l1 114c-2,1 -10,0 -12,0 0,-3 1,-5 1,-8l0 -53c0,-17 0,-37 0,-54 0,-3 -1,-2 -2,-6 4,-1 7,-1 12,-1zm0 0c0,0 0,0 0,0 -4,-1 -10,0 -13,1l0 121c3,1 13,3 15,0 2,-3 1,-12 1,-17l0 -70c0,-9 1,-28 -1,-34l-2 -1z"/>
    <path class="fil3" d="M703 340c1,-1 4,-1 5,-1 2,-2 1,-3 3,-3 4,-1 30,-1 33,0 4,0 2,1 4,2 1,1 3,1 5,2 2,1 0,2 3,3 4,1 2,1 4,3 2,2 1,-1 3,3 1,4 2,1 3,4 1,2 0,2 3,4 0,1 1,1 1,2 1,1 0,0 1,1 0,4 0,10 0,15 0,14 -1,40 0,53 0,1 0,5 -1,7 0,0 0,0 0,0 -1,2 -2,0 -3,3 -1,3 1,3 -1,5 -3,2 -1,1 -3,3 -1,1 -1,0 -2,2 -3,2 0,1 -4,3 -2,0 -1,0 -2,1 -1,2 -2,1 -5,1 -2,1 -2,2 -3,4 -4,0 -8,0 -12,0 -9,2 -11,1 -18,0 -2,0 -4,0 -6,0 -3,0 -2,-1 -3,-3 -2,-1 -3,0 -5,-1 -3,-1 0,-2 -6,-4 -3,-1 -1,-1 -2,-3 -1,-1 -3,-1 -4,-5 -1,-3 0,-2 -2,-5 -1,-1 -1,-2 -2,-4 -1,-9 -1,-64 1,-72 1,-4 1,0 2,-3 1,-1 1,-3 2,-5 0,-2 1,-1 2,-3 2,-2 4,-5 6,-6 3,-2 0,-2 3,-3zm69 73c1,-7 0,-18 0,-26 0,-5 0,-26 -1,-28 0,-1 0,-1 0,-1 -1,-1 -1,-1 -2,-2 -1,-2 -1,-3 -2,-5l-3 -3c-2,-2 -10,-8 -12,-9 -3,-2 -2,0 -4,-3 -1,-1 -3,-1 -5,-1 -2,-1 -4,-1 -6,-1 -3,0 -4,-1 -6,-1 -4,-1 -8,1 -12,1 -2,0 -5,0 -7,1l-4 2c-2,2 -2,1 -5,2 -1,0 -9,7 -11,9 -1,1 -2,3 -2,4 -2,3 -2,2 -3,4 -3,11 -3,13 -3,24l0 40c0,6 2,18 5,22 4,5 3,6 9,9 3,3 -1,1 6,4 2,1 2,2 4,2 2,1 4,1 6,1 4,1 3,3 11,3 11,0 7,-1 12,-2 2,0 10,-1 11,-2 2,-1 1,-2 4,-3 3,0 3,0 5,-2 1,-1 8,-6 10,-10 1,-2 1,-3 2,-4 5,-7 1,-14 3,-25z"/>
    <path class="fil3" d="M506 336c-1,0 -1,-1 -1,0 0,0 0,0 0,1 -1,0 0,0 -1,1l0 5c0,1 0,2 0,3 0,3 1,2 1,2 0,2 0,1 0,1 0,1 0,1 1,1 0,1 -1,1 0,0 0,1 0,1 1,1 -1,1 -1,1 0,0 1,1 0,1 2,1 1,0 5,0 6,0l28 0c6,0 13,0 15,4 4,7 -4,13 -5,16 -2,3 -8,10 -11,12 -3,3 0,2 -4,5 -2,1 -2,1 -2,2 -2,2 -2,1 -3,3 -1,1 0,1 -1,3 -1,1 -4,4 -6,8 -4,6 -3,2 -4,5 -1,1 -1,1 -2,2 -2,2 -1,1 -2,3l-6 8c-5,5 -2,5 -5,9 -3,4 -2,10 -2,16 0,7 0,10 8,10l54 0c3,0 7,0 10,0 3,0 6,1 7,0 1,0 1,0 1,0 1,0 1,0 0,-1 1,0 1,0 1,-1 1,-1 1,-10 0,-11 0,-1 0,-1 0,-1 0,-1 0,-1 -1,-1 0,0 1,0 0,0 -1,0 -1,0 -1,-1l-31 1c-7,0 -16,1 -20,-2l-3 -1c-1,-1 0,-1 -1,-1l-2 -2c1,-4 -1,-2 1,-7 0,-3 0,-4 2,-6 1,-1 6,-7 7,-8 3,-2 2,-3 4,-5l13 -16c1,-1 1,-1 2,-2 1,-1 1,-1 2,-2 1,-1 1,-2 2,-3 1,-1 1,0 2,-2 3,-5 7,-9 9,-11 1,-2 1,-2 2,-3 1,-1 0,-1 1,-2 1,-1 7,-6 7,-9 2,0 0,1 1,0 1,-1 3,-4 3,-6l-3 3c0,1 0,2 -1,3l-1 1c-1,0 0,0 -1,1 0,0 -1,1 -1,2l-7 6c-3,3 0,3 -2,4 -6,3 -2,3 -5,5l-1 1c-1,2 0,2 -2,3 -1,2 -2,3 -3,5 -1,2 -1,1 -2,2 -2,2 -1,1 -2,3 -2,2 -1,0 -3,2 -1,1 0,2 -2,3 -3,2 -2,1 -3,3 -1,3 -1,1 -3,4 -2,3 -1,0 -4,5l-1 3c-3,0 -3,2 -3,3l-1 1c-1,1 -1,0 -2,2 -1,2 0,2 -2,3 -1,1 -1,0 -2,2 -2,5 1,3 -4,8 1,2 1,1 3,3 0,0 0,1 0,1 0,-1 0,0 0,0 0,4 2,3 4,5 2,2 2,2 6,2 10,0 40,0 48,-1 0,1 -1,1 0,0 0,1 0,1 1,1 -1,1 -1,1 0,1 -1,2 -1,9 0,11 -1,0 -1,0 -1,1 0,0 0,0 0,1 -1,-1 -1,-1 -1,0 -6,-2 -51,-1 -61,-1 -4,0 -12,1 -15,-1 -4,-2 -2,-9 -2,-13 0,-2 0,-6 0,-7 1,-4 2,-2 3,-5 1,-3 1,-4 3,-6 2,-2 1,0 2,-4 5,-2 2,-2 4,-4 1,-2 1,0 3,-3 4,-8 3,-2 5,-7 1,-3 0,0 2,-3 1,-1 1,-2 2,-3 1,-1 2,-1 3,-2l0 -5c2,-1 2,0 3,-2 1,0 0,0 1,-1 1,-4 3,0 4,-6 4,0 2,0 4,-3 2,-2 2,1 3,-3 2,-2 2,-1 3,-3 3,-4 5,-5 6,-8 1,-2 3,0 2,-11 0,-2 0,-3 -2,-4 -1,-1 -4,-1 -5,-2 -3,-1 -4,-1 -6,-1l-26 0c-3,0 -11,1 -13,1 1,-1 1,-1 0,0 0,-1 0,-1 -1,-1 1,-1 1,-1 0,0 0,-1 0,-1 -1,-1 1,-2 1,0 0,-1l0 -11c1,0 1,0 0,-1 1,1 1,1 1,0 2,0 1,0 1,-1 2,1 71,1 73,0 3,4 3,3 4,4 0,1 0,0 1,0 -1,1 -1,1 0,1 0,0 0,0 1,0 0,-1 0,-1 -1,0 0,-1 1,-1 0,-1 0,-1 0,-1 -1,0 0,-2 -2,-3 -4,-4 0,-1 1,0 -1,0 -1,0 -2,0 -3,0l-69 0c0,0 0,0 0,0 -2,0 -1,0 -1,1z"/>
    <path class="fil2" d="M505 335c-1,-1 -1,-1 -1,0 -1,0 -1,0 0,1 -1,-1 -1,-1 -1,0 0,0 -1,-1 -1,4 0,1 0,3 0,5 0,13 10,9 21,9 4,0 26,0 29,1 2,0 2,0 3,2 1,1 1,1 2,3 1,1 -3,7 -5,9 -2,1 -1,2 -3,4l-6 7c-1,1 -2,2 -3,3 -3,3 0,3 -3,5 -3,1 -2,3 -2,3 0,0 -1,0 -1,0 -2,1 -2,1 -3,3 -1,2 1,1 -1,2 -4,4 -1,2 -4,5 -1,0 -2,2 -3,3l-10 12c-4,5 -7,10 -9,15 -3,9 -4,16 0,25 1,3 3,3 7,5 1,0 69,1 72,0 1,-1 1,-1 1,-1 1,0 1,0 1,-1 -1,0 -1,0 -1,1 -5,-2 -68,2 -76,-2 -5,-2 -5,-9 -5,-15 1,-11 1,-7 4,-16 3,-5 5,-7 8,-11 1,-1 2,-2 2,-3 1,-1 2,-2 3,-3l11 -14c1,-1 0,-2 1,-3 1,-1 2,-1 3,-2 1,-1 1,-2 2,-3 5,-3 0,-1 5,-5 2,-2 5,-6 7,-8 3,-4 9,-10 9,-15 0,-7 -7,-7 -13,-7 -5,0 -37,1 -39,0 -4,-3 -2,-11 -3,-17 1,1 1,1 1,0 1,0 1,0 0,-1 1,0 1,1 1,0 7,-1 72,-2 76,0 2,0 2,0 3,1 1,1 1,1 2,2 2,3 2,17 -1,20l-22 28c-2,3 -2,2 -4,5l-2 2c0,0 0,0 0,0l-27 33c-1,2 -3,9 -1,11 1,1 1,1 3,2l2 1c2,0 2,0 3,0 1,1 1,1 1,1l34 0c4,-1 6,-1 11,0 0,-1 -1,-1 -1,-2 -8,0 -14,1 -23,1 -4,0 -19,-1 -22,0 0,0 0,0 0,0 0,0 0,0 0,0l-1 -1c-5,-1 -1,1 -7,-2 1,-4 -1,-6 3,-12l14 -17c2,-2 2,-2 3,-4l27 -32c1,-1 1,-1 2,-2 2,-2 8,-11 9,-14 2,-7 3,-22 -7,-22 -3,-1 -66,-1 -73,0 -2,0 -2,0 -2,1z"/>
    <path class="fil3" d="M291 335c-1,0 -1,0 -2,0 -1,0 -1,0 -1,0 -1,0 -1,0 -1,0 -2,0 -3,1 -4,2 -1,0 -1,0 -2,1 -1,0 -1,0 -2,1 -2,0 -1,-1 -4,2 0,0 -1,1 -1,1l-1 1c-2,1 -6,6 -8,8 -1,2 -2,2 -2,3 -1,0 0,0 0,1 -1,0 -1,0 -1,1 -1,0 0,1 0,2 -1,0 -1,2 -1,2 -1,1 -1,1 -1,2 -1,0 -1,0 -1,1 1,0 1,1 1,-1 1,0 1,0 1,-2 0,0 0,0 1,-1 0,0 0,0 0,-1 0,0 0,0 0,-1 0,0 0,-1 0,-1 1,-1 1,1 1,-1 0,0 0,0 0,-1 1,0 1,0 2,-1 1,-1 1,-3 3,-4 1,-1 2,-2 2,-3 1,0 1,-1 2,-1 1,-1 0,-1 1,-2 2,0 1,-1 6,-4 3,0 3,-1 4,-2 2,-1 2,-1 4,-2 1,1 1,1 2,0 3,0 1,0 2,0 6,2 10,-3 15,-2 1,1 0,0 1,1 3,1 11,2 13,1 1,1 -1,1 2,1 0,1 1,1 1,2 3,2 2,-1 7,4 1,2 2,1 4,4 2,2 2,1 3,3 2,2 0,1 3,4 3,3 2,5 3,8 1,2 1,1 1,2 3,4 1,55 1,62 0,11 -1,2 -3,12 0,5 -1,4 -2,5 -2,2 0,2 -2,4l-1 1c-2,2 -1,2 -3,3 -1,0 -2,0 -3,1 -1,1 0,1 -1,2 -2,1 -4,0 -6,1 -2,1 1,2 -4,3 -8,0 -21,-1 -28,1 -2,0 -3,0 -5,1 -4,3 -8,0 -10,4 -2,3 -1,2 -4,4 0,8 0,17 0,26 0,7 1,19 -1,25 -2,0 -11,1 -12,-1 -2,-3 -1,-64 -1,-74 0,-7 0,-71 0,-76l-1 0c0,1 0,0 0,1l0 7c0,4 0,7 0,10l0 116c0,19 -2,18 11,18 4,0 4,0 5,-3 1,-3 1,-32 1,-37 0,-8 0,-11 4,-15 5,-4 5,-2 14,-4 5,-1 12,-2 17,-2 6,0 12,0 16,-2 2,-2 6,-3 11,-8 5,-4 5,-7 7,-11 3,-7 3,-7 3,-16 0,-3 0,-5 0,-8l-1 -50c0,-1 0,-1 0,-1l-1 -3c-3,-6 -5,-11 -11,-16 -7,-5 -4,-3 -9,-5 -2,-1 -1,-1 -3,-2 -1,-1 0,0 -2,-1l-2 -1c-1,0 -5,0 -5,0 -4,-1 -10,-3 -15,-1 -4,2 -6,1 -7,2z"/>
    <path class="fil3" d="M156 336c-3,0 -1,1 -6,2 0,0 0,1 0,1 -2,0 -2,1 -2,1 -1,0 -1,-1 -1,0 -1,1 1,0 -1,1l-1 1c-1,1 0,0 -1,1 -1,0 0,-1 -1,0l-1 1c-1,0 -1,0 -1,1 0,0 0,0 0,0 -2,2 -5,5 -6,7 0,1 0,0 0,1 0,0 -1,0 -1,0 -2,5 -2,2 -2,5 -1,1 -1,2 -1,4 0,2 0,3 -1,5 0,1 0,2 0,4 -1,2 -1,3 -1,5l-1 25c1,3 1,3 1,5 1,2 0,7 0,10 1,3 1,6 1,9 1,4 0,6 1,9 0,0 0,0 0,0 0,0 0,0 0,0 0,3 2,3 3,5 0,1 0,3 2,4 3,4 8,10 13,11 4,2 3,3 9,4 7,1 6,2 10,3 12,1 14,-2 17,-2 2,-1 7,-1 10,-3l4 -2c4,0 3,-2 6,-4 3,-2 2,-2 5,-4 1,-2 2,-5 3,-7 1,-1 1,-1 1,-3l3 -11c1,-5 1,-22 1,-27 0,-20 3,-40 -13,-54l-5 -4c1,-1 1,-1 0,0 -1,-1 1,-1 -1,-1l-2 -1c-5,-1 -2,-1 -5,-2 2,4 1,3 7,3 0,1 -1,1 1,1 -1,1 -1,0 0,0 0,4 2,2 4,5 3,4 2,0 4,4 1,3 2,1 3,4 0,0 0,1 0,1 0,1 1,4 1,4 0,1 0,1 1,1 4,4 2,25 2,33 0,11 0,22 0,33 0,3 0,7 -2,9 -3,4 -1,7 -4,10 -1,1 -1,1 -2,2 -1,1 0,1 -1,2 -1,2 -3,1 -4,3l-3 2c0,0 0,1 0,0 0,0 0,1 0,1 -6,-1 -3,3 -10,3 -16,0 -10,4 -23,1 -4,-1 -7,-1 -12,-1 0,-2 0,-3 -1,-3 -2,-1 -3,0 -5,-1 -2,0 0,-1 -2,-2 -2,-1 -2,0 -4,-2l-4 -5c-2,-3 -3,0 -3,-7 -1,0 -1,0 -2,-1l-2 -2c0,-3 1,-6 1,-10l-1 -19c-1,-4 -1,-5 0,-9 1,-5 0,-13 0,-19 0,-4 1,-7 1,-10 0,-3 0,-7 0,-9 3,-1 4,-3 3,-6l1 0c0,0 0,0 0,-1 4,-2 2,-2 4,-4 2,-1 1,1 3,-3 0,0 0,0 0,0l1 -1c0,0 0,0 0,0 2,0 2,0 3,-1l0 -2c1,1 1,1 1,0 2,0 5,-1 7,-3l1 -1c1,0 15,-1 16,-1 4,-1 3,-1 7,0 3,0 6,0 8,0 0,0 1,0 -1,0 0,-1 -1,-1 -1,-1 -8,0 -8,-3 -14,-1 -8,3 -10,1 -14,2 -2,1 -1,0 -1,1z"/>
    <path class="fil2" d="M276 338c0,0 0,0 0,0l-2 1c-1,0 -1,1 -1,1 -2,2 -2,1 -3,2l-8 9c0,1 0,1 0,1l-1 0c0,2 0,1 0,1 0,5 -2,2 -4,9 -1,8 0,73 0,82 0,10 -1,63 0,71 0,5 1,6 6,6 3,0 9,-1 11,0 0,-1 -1,-1 1,-1 0,0 0,0 0,0l3 -3 0 -29c0,-9 -2,-18 6,-24 5,-3 30,-1 34,-3 3,-1 2,-1 6,-2 7,-1 2,0 9,-4 1,-1 -1,-1 1,0 0,-1 0,-1 1,-1 -1,-1 -1,-1 0,0 0,-1 0,-1 1,-1 -1,-2 0,-1 0,-1 0,-1 0,-1 1,0 0,-1 -2,-2 1,-1 1,-2 3,-4 4,-5l2 -2c0,-2 1,-1 3,-5l1 -1c0,-1 0,-13 0,-15 1,-2 1,-4 2,-6l0 -40c-1,-2 -1,-4 -1,-7 0,-2 0,-5 -1,-7 -1,-8 -2,-7 -4,-11 -1,-3 -2,-3 -3,-5 -5,-6 -7,-5 -9,-7 -2,-2 -1,-1 -3,-2 -2,-1 -1,0 -1,-1 -4,0 -2,-2 -5,-3l2 3c1,1 2,1 4,2l1 0c2,1 1,2 3,3 3,1 6,5 8,7 3,4 2,5 4,8 1,1 1,2 1,3 3,5 2,45 2,55 0,3 0,4 0,7 0,7 0,10 -2,14 -4,9 -1,4 -6,11 -3,3 -5,4 -7,6 -3,3 -2,1 -5,3 -1,1 -1,1 -2,1 -4,2 -17,3 -21,4 -4,0 -11,0 -15,1 -6,0 -8,0 -12,5 -4,5 -1,38 -2,47 0,6 -4,6 -10,6 -7,0 -8,0 -9,-7 0,-5 0,-11 0,-16 0,-22 0,-43 0,-65 0,-16 0,-51 1,-65 0,-4 0,-4 1,-7 2,-2 2,-3 3,-5 1,-3 6,-10 8,-12l7 -5c8,-3 3,-3 9,-4l3 -1c-2,1 -3,1 -4,0l-1 1c0,0 -1,0 -1,0 0,0 -1,0 -1,0 -3,2 -2,4 -6,4z"/>
    <path class="fil2" d="M146 455c2,1 0,0 1,1 1,0 1,0 1,0 3,1 1,1 4,3 2,0 4,0 6,1 4,2 5,2 11,3 4,0 9,0 13,-1 6,-1 8,-3 12,-3l3 -1c1,-1 1,-2 3,-3 7,-2 3,-1 7,-4 2,-1 1,-1 2,-2 2,-2 2,-1 3,-3 1,-2 1,-2 2,-3 1,-2 2,-2 2,-4 0,0 1,1 0,-1 1,-1 0,0 1,-1 0,-1 1,-2 1,-2 0,-2 1,-2 1,-3 2,-7 2,-47 2,-57l-1 -7c0,-2 0,-1 0,-1 0,-2 0,-3 -1,-5 0,-1 -4,-10 -5,-11 -1,-1 0,-1 -1,-1 0,-1 0,0 0,-1 -1,-1 0,-1 -1,-1 -1,-2 0,-2 -2,-2 0,-1 0,0 -1,0 1,-1 1,-1 0,-1 0,0 0,0 -1,0 0,-3 -2,-2 -4,-4 -2,-2 -2,-3 -6,-4l8 6c1,2 1,2 2,2 0,1 0,1 1,0 -1,1 -1,1 0,1 0,1 0,1 1,0 0,2 -1,1 0,2 1,0 0,0 2,0 -1,2 -1,2 1,2 0,2 1,2 2,4l3 9c0,0 0,1 0,2 1,2 1,2 2,2 -1,2 1,55 -2,63 -1,3 -2,6 -2,8 -1,0 -1,-1 0,1 0,0 0,0 -1,0 0,0 0,0 0,0 -1,2 -2,4 -3,6l-5 5c-1,1 -2,1 -3,2 -1,1 -1,1 -2,2 -5,2 -1,0 -6,3 -1,1 -14,4 -16,4 -9,2 -16,0 -25,-3 -4,-1 -4,-2 -6,-3 -5,-2 -13,-9 -15,-14 -2,-2 -2,-2 -3,-4 -5,-9 -3,-45 -3,-56 0,-6 1,-21 4,-25 3,-5 3,-8 8,-11l2 -2c0,0 0,-1 0,-1 7,-5 6,-3 10,-5 2,-2 1,-2 6,-3 3,0 6,0 9,-1 3,0 1,-1 3,-1 1,-1 3,-1 4,-1 9,0 9,4 16,3l0 -1c-2,0 -2,0 -4,-1 -1,-1 -1,-1 -3,-2 -5,0 -15,-1 -19,1 -4,2 -2,2 -8,2 -7,1 -6,3 -8,4l-2 0c-2,1 -3,2 -4,3 -2,2 -2,1 -3,3 -2,1 -1,0 -2,1 -2,3 -3,0 -4,8 -3,1 -3,2 -4,5 0,5 -1,3 -2,6 -2,3 -1,55 -1,64 0,3 1,4 2,6 2,2 1,4 2,6 1,2 2,2 3,5 2,4 2,2 4,4 1,2 1,2 2,3l7 4z"/>
    <path class="fil5" d="M259 367l0 -4c0,-1 0,-1 1,-1 0,-1 0,-1 1,-2 0,0 0,-2 1,-2 0,-1 -1,-2 0,-2 0,-1 0,-1 1,-1 0,-1 -1,-1 0,-1 0,-1 1,-1 2,-3 2,-2 6,-7 8,-8l1 -1c0,0 1,-1 1,-1 3,-3 2,-2 4,-2 1,-1 1,-1 2,-1 1,-1 1,-1 2,-1 1,-1 2,-2 4,-2 0,0 0,0 1,0 0,0 0,0 1,0 1,0 1,0 2,0 1,-1 3,0 7,-2 5,-2 11,0 15,1 0,0 4,0 5,0l2 1c2,1 1,0 2,1 2,1 1,1 3,2 5,2 2,0 9,5 6,5 8,10 11,16l1 3c0,0 0,0 0,1l1 50c0,3 0,5 0,8 0,9 0,9 -3,16 -2,4 -2,7 -7,11 -5,5 -9,6 -11,8 -4,2 -10,2 -16,2 -5,0 -12,1 -17,2 -9,2 -9,0 -14,4 -4,4 -4,7 -4,15 0,5 0,34 -1,37 -1,3 -1,3 -5,3 -13,0 -11,1 -11,-18l0 -116c0,-3 0,-6 0,-10l0 -7c0,-1 0,0 0,-1l1 0zm30 -34l-3 1c-6,1 -1,1 -9,4l-7 5c-2,2 -7,9 -8,12 -1,2 -1,3 -3,5 -1,3 -1,3 -1,7 -1,14 -1,49 -1,65 0,22 0,43 0,65 0,5 0,11 0,16 1,7 2,7 9,7 6,0 10,0 10,-6 1,-9 -2,-42 2,-47 4,-5 6,-5 12,-5 4,-1 11,-1 15,-1 4,-1 17,-2 21,-4 1,0 1,0 2,-1 3,-2 2,0 5,-3 2,-2 4,-3 7,-6 5,-7 2,-2 6,-11 2,-4 2,-7 2,-14 0,-3 0,-4 0,-7 0,-10 1,-50 -2,-55 0,-1 0,-2 -1,-3 -2,-3 -1,-4 -4,-8 -2,-2 -5,-6 -8,-7 -2,-1 -1,-2 -3,-3l-1 0c-2,-1 -3,-1 -4,-2l-2 -3c-15,-2 -7,-1 -12,-3 -3,-1 -12,0 -14,1 -4,1 -3,1 -8,1z"/>
    <path class="fil1" d="M630 334l0 0c1,-1 9,-1 12,1l3 2 0 105c0,5 1,13 -2,16 0,0 -4,3 -5,3 -1,1 -7,1 -8,0 -1,0 -5,-2 -6,-3 -1,-2 -1,-5 -1,-7l0 -106c0,-8 -1,-11 7,-11zm15 3c0,-5 -9,-4 -13,-4 -6,0 -10,0 -11,6l0 0c-1,37 0,76 0,113 0,4 -1,4 2,6 5,5 2,5 12,5 4,0 5,0 7,-2 2,-2 3,-1 4,-5 0,-4 0,-89 0,-103 0,-3 1,-15 -1,-16z"/>
    <path class="fil3" d="M19 336c5,-2 10,0 15,-1 2,-1 1,-2 2,-3 1,-1 0,0 1,-1 1,0 1,0 1,0 1,-7 1,-16 1,-24l-1 -20c1,-2 1,-1 2,-2 4,0 7,-1 12,1 1,4 0,34 1,41 0,10 7,8 13,8 4,0 17,1 21,0 1,1 1,1 3,2 0,3 -1,3 -1,5 0,2 0,4 0,6 -3,2 -2,2 -6,2 -4,-1 -20,-1 -23,0 -3,1 -2,1 -5,3 -2,1 -2,2 -2,5 -1,22 -1,57 0,77 3,2 2,-1 3,3 1,2 1,1 3,2l1 1c2,2 -2,3 13,3 4,0 13,1 12,-3 1,0 1,0 1,-1 1,1 1,1 0,0l2 0c2,-4 1,-4 5,-5 2,-1 2,0 5,0 1,0 2,-1 4,-1 4,7 -1,9 -2,12 -1,2 0,3 -2,4 -1,1 -1,-1 -2,1 -1,2 0,1 -3,2 -7,3 -2,4 -9,4 -3,0 -5,0 -8,0 -6,1 -12,-1 -17,0 1,1 3,1 4,1 7,1 2,2 13,1 3,0 4,-1 8,-1 4,0 5,-1 8,-2 4,-4 4,-1 10,-10 2,-3 5,-11 1,-13 -4,-1 -9,-1 -12,0 -1,1 -2,2 -2,3 -2,3 -2,3 -3,4 -1,0 -1,-1 0,0 -2,0 -1,0 -1,1 -3,1 0,2 -9,2 -6,1 -11,1 -14,-2 -2,-1 -3,-2 -4,-3 0,0 -4,-5 -4,-7 -1,-5 -1,-59 0,-69 0,-9 3,-10 12,-10l17 0c9,0 8,-5 8,-10 0,-4 1,-7 -4,-7 -1,0 -1,0 -1,0 -5,-2 -25,1 -29,-2 0,0 -2,-2 -3,-3 -1,-2 0,-32 0,-36 0,-4 0,-8 -3,-9 -2,-1 -9,-1 -11,0 -3,1 -2,4 -2,7l0 27c0,9 0,9 -4,14 -2,3 -10,1 -14,2 -2,0 0,0 -1,1z"/>
    <path class="fil3" d="M702 367c0,-1 1,-2 1,-3 0,-1 0,-1 1,-1 0,-1 -1,-1 0,0 0,-2 0,-1 1,-1 0,-1 -1,-1 0,-1 0,-2 2,-3 4,-4 1,-2 2,-3 4,-3 1,-1 -1,-1 1,0l3 -2c1,0 2,-1 3,-1 4,-1 10,-2 14,0l4 1c1,1 1,1 2,1 1,0 1,0 3,0 0,1 0,1 1,1 1,1 0,0 1,1 1,0 0,0 0,1 1,-1 1,-1 1,0 2,0 3,3 5,4 1,2 3,4 2,7 0,0 1,0 1,0 0,0 0,0 0,0l1 2c2,5 1,36 1,43 0,4 1,11 -2,14 1,5 -7,12 -10,13 -8,4 -10,4 -19,4 -3,0 -5,0 -7,-1 -1,-1 -1,-1 -3,-1 0,-1 0,-1 -1,-1 -1,-1 0,0 -1,-1 -2,1 0,0 -1,0 -2,0 -2,-2 -4,-3 -2,-1 -3,-1 -3,-4 -2,-1 -3,-3 -3,-5 -2,-5 -1,-36 -1,-43 0,-3 -1,-15 1,-17zm-4 46c0,3 0,4 0,7 0,4 1,2 2,5 1,2 1,6 1,6 2,3 2,1 3,3 2,4 0,0 4,5 2,2 3,0 5,2 2,2 1,3 5,3l11 0c17,0 11,-1 16,-3 1,-1 3,-1 3,-2 2,-1 0,-1 2,-3 2,-1 2,0 3,-2 0,-1 0,-2 1,-3 2,-3 2,-1 3,-7 1,-5 1,-50 0,-56 -1,-3 -4,-9 -5,-10 -1,-1 -1,0 -2,-2 -3,-2 -1,-2 -6,-4 -3,-1 -1,-2 -6,-3 -7,-1 -19,-1 -23,1 -1,1 -1,1 -2,1 -2,2 -2,1 -3,2 -3,1 -1,2 -3,3 -3,2 -1,1 -2,4 -1,1 -1,0 -3,1 -1,1 -1,7 -2,9 -2,4 -1,2 -2,7 -1,7 0,27 0,36z"/>
    <path class="fil5" d="M132 358c0,-3 0,0 2,-5 0,0 1,0 1,0 0,-1 0,0 0,-1 1,-2 4,-5 6,-7 0,0 0,0 0,0 0,-1 0,-1 1,-1l1 -1c1,-1 0,0 1,0 1,-1 0,0 1,-1l1 -1c2,-1 0,0 1,-1 0,-1 0,0 1,0 0,0 0,-1 2,-1 0,0 0,-1 0,-1 5,-1 3,-2 6,-2 0,-1 -1,0 1,-1 4,-1 6,1 14,-2 6,-2 6,1 14,1 0,0 1,0 1,1 2,0 1,0 1,0 3,0 4,0 5,1 3,1 0,1 5,2l2 1c2,0 0,0 1,1 1,-1 1,-1 0,0l5 4c16,14 13,34 13,54 0,5 0,22 -1,27l-3 11c0,2 0,2 -1,3 -1,2 -2,5 -3,7 -3,2 -2,2 -5,4 -3,2 -2,4 -6,4l-4 2c-3,2 -8,2 -10,3 -3,0 -5,3 -17,2 -4,-1 -3,-2 -10,-3 -6,-1 -5,-2 -9,-4 -5,-1 -10,-7 -13,-11 -2,-1 -2,-3 -2,-4 -1,-2 -3,-2 -3,-5 0,0 0,0 0,0 0,0 0,0 0,0 -1,-3 0,-5 -1,-9 0,-3 0,-6 -1,-9 0,-3 1,-8 0,-10 0,-2 0,-2 -1,-5l1 -25c0,-2 0,-3 1,-5 0,-2 0,-3 0,-4 1,-2 1,-3 1,-5 0,-2 0,-3 1,-4zm84 81c-1,-2 -1,-1 0,-1 0,-2 1,-5 2,-8 3,-8 1,-61 2,-63 -1,0 -1,0 -2,-2 0,-1 0,-2 0,-2l-3 -9c-1,-2 -2,-2 -2,-4 -2,0 -2,0 -1,-2 -2,0 -1,0 -2,0 -1,-1 0,0 0,-2 -1,1 -1,1 -1,0 -1,0 -1,0 0,-1 -1,1 -1,1 -1,0 -1,0 -1,0 -2,-2l-8 -6c-3,0 -3,-3 -8,-3 -7,1 -7,-3 -16,-3 -1,0 -3,0 -4,1 -2,0 0,1 -3,1 -3,1 -6,1 -9,1 -5,1 -4,1 -6,3 -4,2 -3,0 -10,5 0,0 0,1 0,1l-2 2c-5,3 -5,6 -8,11 -3,4 -4,19 -4,25 0,11 -2,47 3,56 1,2 1,2 3,4 2,5 10,12 15,14 2,1 2,2 6,3 9,3 16,5 25,3 2,0 15,-3 16,-4 5,-3 1,-1 6,-3 1,-1 1,-1 2,-2 1,-1 2,-1 3,-2l5 -5c1,-2 2,-4 3,-6 0,0 0,0 0,0 1,0 1,0 1,0z"/>
    <path class="fil3" d="M280 361c0,-2 1,-3 3,-3 0,-1 -1,-1 1,-1 0,-1 0,-1 1,0 -1,-1 -1,-1 0,-1 0,-1 0,-1 1,0 -1,-1 -1,-1 0,-1 0,-1 -1,-1 1,0 0,-1 -1,-1 0,-1 0,0 1,-1 2,-1 1,0 1,0 3,0 0,-1 -2,-1 1,-1 2,0 3,-2 6,-1 1,-1 0,-1 2,-1l4 0c1,0 3,0 3,0 4,1 2,0 2,1 2,0 1,0 2,0 1,1 0,0 0,1 3,0 1,0 2,1 3,-1 7,3 10,5 2,2 4,6 5,8 2,3 2,5 2,9 0,12 0,26 0,38 0,14 1,7 -3,17 -1,4 -7,9 -10,10 -6,2 -4,1 -7,2 -3,2 -16,1 -18,1l-6 -4c-3,0 -2,-1 -4,-2 -1,-1 -2,-1 -3,-3 -3,-3 -3,-3 -4,-8 -2,-6 -1,-15 -1,-23 0,-8 0,-16 0,-24 0,-6 0,-10 2,-15 2,-4 3,-3 3,-3zm-7 4l0 61c0,3 1,3 2,4 1,2 1,4 2,5 1,1 2,1 3,1 1,2 0,1 1,3 1,1 3,1 5,2 5,2 -3,3 17,3 20,0 10,-2 16,-4 3,0 4,0 5,-1 1,-2 0,-2 2,-3 1,0 1,0 2,-1 1,0 1,-4 1,-5 2,-4 3,1 3,-11 -1,-18 1,-37 0,-54 -2,-2 -2,0 -3,-3 -3,-6 -2,-3 -5,-6 -1,-1 -2,-2 -4,-3 -1,-1 -2,-1 -3,-2 -4,-2 -10,-3 -15,-3 -14,1 -12,3 -16,4 -1,1 -1,1 -2,1 -2,2 -4,5 -5,6 -5,5 -2,4 -4,5 0,0 -2,1 -2,1z"/>
    <path class="fil5" d="M639 335l2 1c2,6 1,25 1,34l0 70c0,5 1,14 -1,17 -2,3 -12,1 -15,0l0 -121c3,-1 9,-2 13,-1 0,0 0,0 0,0zm-9 -1l0 0c-2,1 -5,1 -5,4l0 117c0,5 15,8 18,1 1,-2 1,-6 1,-9 0,-14 0,-103 -1,-108 -1,-7 -7,-4 -13,-5z"/>
    <path class="fil1" d="M163 355c5,0 16,-1 20,1l1 1c2,2 3,2 6,2l1 2c0,0 0,0 0,0 1,1 1,1 1,1 1,1 0,0 1,1 4,1 1,3 4,7 1,2 1,1 1,4l0 41c0,4 1,7 -1,9 -3,4 -1,5 -3,6l-2 1c-1,2 0,0 0,2 -2,3 -2,-1 -5,4 0,0 0,0 0,0l0 1c-3,-1 -8,0 -12,0 -2,0 -5,0 -7,0 -2,0 -3,-1 -6,0 0,-1 1,0 -1,-1 -4,-2 -1,-3 -6,-3 0,-2 0,-3 0,-4 -1,-1 -1,0 -2,-1 0,0 0,0 0,0l-1 0c0,-3 -1,-5 -1,-7 -1,-3 -1,-20 -1,-24l1 -31c1,-1 1,-2 3,-3 2,-3 1,-2 2,-3 1,-2 3,-2 4,-3 0,0 1,0 1,-1 1,-1 1,-1 2,-2 -3,0 -3,1 -7,4 -2,1 -1,1 -2,2 -2,2 -4,2 -3,6l-1 2c-3,9 -2,6 -2,17 0,4 0,32 1,36l2 8c2,2 7,6 8,8l3 0 6 2c3,2 3,1 7,1 6,0 4,0 6,-2 1,0 5,-1 6,-1 0,0 0,0 0,0 4,0 10,-10 10,-10 2,-3 2,-5 2,-9l0 -42c0,-3 0,-7 0,-10 -1,0 0,0 -1,-1 0,0 -1,0 -1,0 -1,-2 0,-2 0,-3 -1,1 -1,1 -1,0l-1 -2c-5,-5 -3,-2 -7,-5 -1,-1 -2,-1 -3,-2 -3,0 -4,-1 -12,-1 -3,0 -3,0 -5,1 -3,0 -5,0 -5,1z"/>
    <path class="fil8" d="M262 382c0,-3 0,-7 0,-10 0,-3 2,-6 -2,-7 -1,4 -1,5 -1,9l0 135c0,3 0,5 1,7 4,-1 2,-3 2,-7l0 -127z"/>
    <path class="fil2" d="M630 334c-8,0 -7,3 -7,11l0 106c0,2 0,5 1,7 1,1 5,3 6,3 1,1 7,1 8,0 1,0 5,-3 5,-3 3,-3 2,-11 2,-16l0 -105 -3 -2c-3,-2 -11,-2 -12,-1 6,1 12,-2 13,5 1,5 1,94 1,108 0,3 0,7 -1,9 -3,7 -18,4 -18,-1l0 -117c0,-3 3,-3 5,-4z"/>
    <path class="fil1" d="M198 337c4,1 4,2 6,4 2,2 4,1 4,4 1,0 1,0 1,0 1,0 1,0 0,1 1,0 1,-1 1,0 2,0 1,0 2,2 1,0 0,0 1,1 0,1 0,0 0,1 1,0 0,0 1,1 1,1 5,10 5,11 1,2 1,3 1,5 0,0 0,-1 0,1l1 7c0,10 0,50 -2,57 0,1 -1,1 -1,3 0,0 -1,1 -1,2 -1,1 0,0 -1,1 1,2 0,1 0,1 0,2 -1,2 -2,4 -1,1 -1,1 -2,3 -1,2 -1,1 -3,3 -1,1 0,1 -2,2 -4,3 0,2 -7,4 -2,1 -2,2 -3,3l-3 1c-4,0 -6,2 -12,3 -4,1 -9,1 -13,1 -6,-1 -7,-1 -11,-3 -2,-1 -4,-1 -6,-1 -3,-2 -1,-2 -4,-3 0,0 0,0 -1,0 -1,-1 1,0 -1,-1 1,1 -1,2 2,1 0,3 1,3 4,4 4,0 2,0 5,2 3,2 28,2 33,0l3 -2c0,-1 1,0 1,-1 5,1 6,-2 7,-3 2,-1 3,0 4,-2 2,-3 -1,0 3,-2 2,-1 5,-4 6,-6 1,-3 1,-1 2,-3 1,-1 1,-3 2,-4 1,-2 2,-2 3,-8 0,-8 1,-7 1,-10 1,-3 0,-3 1,-10l0 -33c0,-14 -1,-10 -2,-14 -1,-5 0,-5 -3,-8 -1,-2 -1,-3 -1,-5 -1,-3 -1,-1 -3,-3 -2,-1 0,-2 -2,-3 -4,-2 -1,0 -3,-3 -1,-1 -2,0 -4,-2 -1,-1 1,-1 -2,-2 -1,-1 -3,-1 -5,-1 -1,-1 0,-4 -8,-4l0 1c5,0 5,3 8,3z"/>
    <path class="fil2" d="M289 437l-1 1c-2,-1 -1,-1 -3,-3 -1,-1 -3,-1 -6,-7 -2,-4 -1,-10 -1,-15 0,-12 0,-23 0,-35 0,-6 -1,-10 3,-14 2,-4 5,-7 8,-9 8,-3 22,-3 29,2 2,1 6,4 8,9 2,5 2,9 2,15 0,12 0,23 0,35 0,7 -1,15 -7,19 -3,2 -2,2 -5,3 -5,1 -7,3 -8,3 -1,0 0,0 -1,0l-5 0c-3,0 -6,0 -8,-1 -1,0 -4,-1 -5,-3zm4 -85c-1,1 1,2 -1,1 -1,0 0,0 -1,1 -1,0 -2,0 -2,0 -1,1 -1,1 -2,1 0,1 0,1 -1,0 0,1 1,1 0,1 0,1 0,1 -1,0 1,1 1,1 0,1 0,1 0,0 -1,0 0,1 1,1 -1,1 0,1 0,0 0,1 0,0 -1,1 -1,1 -1,1 0,0 -2,1 0,4 -4,-1 -4,19 0,8 -1,40 1,46 2,7 5,8 9,12 0,0 0,0 0,0 1,1 0,0 1,1 3,0 5,2 7,3 3,0 13,1 17,-1 3,-1 5,-2 7,-3 4,-1 8,-5 9,-10 3,-7 3,-7 3,-16 0,-13 0,-25 0,-38 -1,-9 -5,-14 -11,-18 -4,-3 -3,-1 -5,-3l0 0c-3,1 -2,0 -2,-1 -1,0 -1,1 -1,0 -1,-1 -1,0 -1,-1 -1,0 -9,0 -11,0 -3,-1 -4,1 -6,1z"/>
    <path class="fil1" d="M288 438c0,-2 0,-1 -1,-2 0,0 0,-1 0,-1 -2,-2 -1,-1 -3,-2 -1,0 -5,-8 -5,-11 0,-3 -1,-49 0,-53 1,-1 4,-6 5,-7 3,-3 0,-1 5,-4 3,-1 1,-2 5,-3 6,-1 18,-1 21,2 2,2 3,2 5,3 1,1 3,3 4,5 3,4 2,7 2,14 0,6 1,44 -1,48 -1,3 0,0 -3,5 -1,2 -1,0 -5,4 -2,2 -15,4 -21,2 -2,0 -6,-1 -7,-1 1,2 4,3 5,3 2,1 5,1 8,1l5 0c1,0 0,0 1,0 1,0 3,-2 8,-3 3,-1 2,-1 5,-3 6,-4 7,-12 7,-19 0,-12 0,-23 0,-35 0,-6 0,-10 -2,-15 -2,-5 -6,-8 -8,-9 -7,-5 -21,-5 -29,-2 -3,2 -6,5 -8,9 -4,4 -3,8 -3,14 0,12 0,23 0,35 0,5 -1,11 1,15 3,6 5,6 6,7 2,2 1,2 3,3z"/>
    <path class="fil5" d="M401 338c0,0 1,0 -1,0l-10 8c-2,2 -10,15 -9,19 0,1 0,1 0,2 -1,1 0,2 0,3 0,3 1,1 1,2 0,1 -1,1 0,0 0,1 0,1 1,1 -1,1 -1,0 0,0 1,1 11,1 12,0 2,0 3,-1 3,-3 1,0 0,1 0,0 1,-2 1,-1 0,-2 2,0 1,2 1,-1 2,0 1,1 1,-1 1,-1 1,0 1,-1l1 -2c5,-6 7,-6 8,-8 1,0 1,0 2,-1 3,-1 1,0 1,-1 2,1 1,1 2,-1 -3,0 -1,0 -2,1 -1,0 -1,0 -2,0 -2,1 -1,1 -1,2 -2,0 -2,0 -4,1 -1,1 -1,1 -2,3 -1,1 -4,3 -3,6 -1,0 -1,-1 -1,1 -1,0 -1,-2 -1,1 -1,0 -1,-1 -1,1 -1,1 1,-1 0,1 -1,1 -1,0 0,1l-2 1c-1,2 -1,1 -1,2l-12 0c1,-1 1,-1 0,0 0,-1 0,-1 -1,-1 1,-1 1,-1 0,0 0,-3 0,-1 -1,-2l0 -5 1 0c0,0 0,-1 0,-1 0,0 0,-1 0,-1 1,-4 2,-4 3,-6 0,-2 1,-3 2,-4 1,-2 1,-2 2,-3 2,-3 0,-2 3,-4 1,-1 1,-1 2,-3 2,-1 2,0 4,-2l3 -2c3,-1 2,-1 4,-2 4,-3 10,-2 15,-3 7,-1 16,2 22,1 0,0 0,0 0,0 0,0 0,0 0,0 1,0 0,0 1,0 3,3 7,3 9,6 3,2 8,5 11,11 1,2 2,2 3,4 1,3 1,3 1,6 0,2 1,4 2,5 1,5 2,55 -1,62 -2,7 0,8 -3,12 -2,2 -2,2 -3,4l-3 4c-2,2 -3,1 -4,3 -2,2 -3,1 -5,3 -3,1 -2,1 -6,2 0,0 0,0 0,0 0,0 -1,1 -2,1 -1,0 -2,0 -3,0 -2,0 -4,1 -6,1 -2,1 -2,2 -6,2 -2,0 -4,0 -7,0 -4,-1 -6,-3 -11,-3 -10,-1 -6,-4 -11,-3l-2 -2c-3,-2 -2,-3 -5,-3 0,-1 0,0 -1,-1l-6 -7c1,-2 1,-1 0,-1 0,-1 0,-1 -1,-2 0,-1 0,-1 0,-1 -3,-4 2,1 -1,-1 0,1 0,2 1,3 0,0 0,0 0,0 1,1 0,1 1,1 0,2 0,1 0,1 1,2 2,4 3,5 2,1 2,3 4,3 1,1 0,1 1,2 1,0 1,0 2,1 1,1 2,2 4,2 0,0 0,0 1,1l19 6c8,0 12,0 19,-2 1,-1 3,-1 5,-1 7,-2 6,-3 10,-4 2,-1 7,-5 7,-6 1,-1 1,-1 2,-2 1,0 1,0 2,-1 1,-2 1,-3 2,-4 1,-2 2,-3 3,-5 0,-2 0,-3 1,-5 3,-8 2,-41 2,-52 0,-11 -1,-13 -4,-23 -2,-6 -5,-9 -8,-12 -2,-2 -3,-2 -3,-3 -1,-1 -1,0 -2,-1 -2,-2 -1,0 -1,-2 -1,1 -1,1 -1,0 -1,0 0,0 -1,-1 -1,1 0,1 -1,0l-1 -1c-3,0 -3,-2 -6,-2 0,0 0,0 0,0 0,0 0,0 0,0 -2,-1 0,-1 -1,0 -2,-1 -7,-1 -11,-2 -3,-2 -7,-2 -11,-1 -3,2 -6,2 -10,2 -6,1 -5,4 -9,4z"/>
    <path class="fil9" d="M434 318c-3,-1 -4,-1 -5,-2 -2,-2 -1,-3 -1,-6l0 -27c0,-6 0,-8 1,-13 8,1 3,2 7,3l8 2c0,1 0,2 1,3 9,0 8,-1 10,2 2,2 3,0 7,1 2,1 1,2 3,3 1,1 5,0 7,3 2,2 2,1 4,1 6,2 7,9 3,11l-1 1c-2,0 -2,0 -4,1 -1,0 -1,0 -2,1 -2,1 -5,1 -9,4 -2,1 -4,1 -6,2 -2,1 -2,2 -5,3 -11,3 -2,2 -13,4 -3,1 -3,1 -5,3zm49 -21c0,-4 -1,-8 -4,-9 -2,-1 -3,-1 -5,-2 -1,-1 -2,-2 -4,-2 -3,-1 -3,-1 -5,-2l-5 -2c-4,-1 -3,-2 -7,-3 -10,-3 -1,-2 -12,-5 -3,0 -7,-5 -12,-3 0,0 0,1 0,1l-1 0c-2,3 -2,5 -2,8l0 27c0,5 -1,13 6,14 4,1 4,-1 10,-2 5,-2 6,-3 10,-4 10,-4 10,-5 19,-8 1,-1 3,-1 5,-2 4,-2 6,-3 7,-6z"/>
    <path class="fil2" d="M707 430c-1,1 -1,1 -1,0 -1,-1 0,0 -1,-1 0,0 0,-1 -1,-1 0,-1 -1,-1 0,-2 -1,-1 -1,-1 -1,-4 0,-1 0,-2 0,-3l0 -45c0,-1 0,-2 0,-2 0,-1 0,-1 1,-1 -2,-4 0,-5 2,-8 3,-5 4,-4 8,-7 4,-4 24,-3 28,0 6,5 4,1 6,5 1,2 3,2 3,6l0 0c1,1 0,-2 1,2 0,1 0,1 -1,2 2,0 1,-2 2,1l0 46c0,4 -1,10 -4,13 -2,3 1,1 -4,4 -2,2 0,2 -5,3 -7,2 -3,3 -12,3 -8,0 -4,0 -13,-3 -4,-1 -3,-2 -5,-3 -2,-2 -4,-1 -3,-5zm7 -76c0,0 1,1 -1,0 0,2 -4,4 -6,5l-1 2c-1,1 0,0 -1,0 1,1 1,1 0,1 0,1 0,1 -1,1 1,1 1,1 0,0 0,1 0,1 -1,1 0,1 -1,2 -1,3 0,6 0,11 0,17l0 35c0,13 2,10 3,13l7 7c2,-1 1,-1 1,0 3,0 13,7 25,1 4,-2 8,-1 13,-9 1,-1 1,-1 1,-3 1,-2 1,-2 2,-2 -1,-3 0,-5 1,-7l0 -45c-1,-3 -2,-5 -2,-7 -1,-1 0,-3 -5,-8 -1,-1 -1,-1 -1,-1 -2,-2 -1,-1 -1,-2 -1,1 -1,1 -1,0 -1,0 -1,0 0,-1 -2,0 -2,0 -3,-1 0,0 -1,0 -2,0 0,-1 0,0 0,-1 -3,0 -10,-4 -20,-1 -1,1 -4,2 -6,2z"/>
    <path class="fil9" d="M491 276c0,-2 2,-5 3,-6 2,0 3,0 4,1 2,0 1,1 3,2 1,1 4,0 6,1 3,2 0,2 6,3 8,2 5,1 7,3 1,2 5,1 7,2 3,1 -1,3 6,3 3,0 3,1 5,4 7,0 5,1 7,4 2,3 1,2 -1,4 -3,3 -2,1 -6,4 -5,3 -7,2 -10,4 -2,1 -3,2 -6,3 -3,0 -1,-1 -3,1 -3,3 -7,1 -10,4 -3,2 -3,1 -7,2 -2,1 -4,2 -7,3l-2 -3c-1,-1 -1,-1 -2,-1l0 -38zm33 3l-2 0c-2,-3 -5,-2 -9,-4 -6,-4 -6,-2 -10,-4 -2,-1 -6,-3 -10,-2 -4,2 -4,6 -4,10 0,9 0,18 0,27 0,7 -1,8 3,11 5,5 8,1 15,-1l14 -6c8,-4 33,-9 25,-19 -4,-6 -3,-2 -8,-6 -1,-1 -2,-1 -5,-2 -4,0 -2,-1 -6,-3 -2,0 -2,0 -3,-1z"/>
    <path class="fil1" d="M704 371c-1,0 -1,0 -1,1 0,0 0,1 0,2l0 45c0,1 0,2 0,3 0,3 0,3 1,4 -1,1 0,1 0,2 1,0 1,1 1,1 1,1 0,0 1,1 0,1 0,1 1,0 -1,4 1,3 3,5 2,1 1,2 5,3 9,3 5,3 13,3 9,0 5,-1 12,-3 5,-1 3,-1 5,-3 5,-3 2,-1 4,-4 3,-3 4,-9 4,-13l0 -46c-1,-3 0,-1 -2,-1 1,-1 1,-1 1,-2 -1,-4 0,-1 -1,-2 0,1 0,1 0,2 0,3 0,1 0,2 -1,7 2,47 0,56 -1,2 -1,1 -2,2 -2,2 -1,1 -2,3 -1,2 -1,1 -3,2 -2,1 -1,1 -2,3 -7,1 -9,2 -15,2 -7,0 -2,-1 -9,-1 -4,-1 -3,0 -5,-2l-5 -5c-1,-1 0,0 -1,-1 0,-1 0,-1 -1,0 1,-2 1,-2 0,-3 -1,-1 -1,-1 -2,-1 0,-3 0,-52 0,-55 2,-1 0,0 1,-3 1,-2 1,-1 2,-3 1,-3 0,-2 2,-3 1,-1 1,-2 2,-2 1,-2 2,-1 3,-2 2,-1 0,-3 11,-3 2,0 11,0 13,1 2,0 1,1 3,2 4,3 0,-2 9,7 0,1 0,1 0,1l1 1c0,-4 -2,-4 -3,-6 -2,-4 0,0 -6,-5 -4,-3 -24,-4 -28,0 -4,3 -5,2 -8,7 -2,3 -4,4 -2,8z"/>
    <path class="fil1" d="M483 297c-1,3 -3,4 -7,6 -2,1 -4,1 -5,2 -9,3 -9,4 -19,8 -4,1 -5,2 -10,4 -6,1 -6,3 -10,2 -7,-1 -6,-9 -6,-14l0 -27c0,-3 0,-5 2,-8l1 0c0,0 0,-1 0,-1 5,-2 9,3 12,3 11,3 2,2 12,5 4,1 3,2 7,3l5 2c2,1 2,1 5,2 2,0 3,1 4,2 2,1 3,1 5,2 3,1 4,5 4,9zm1 -1c0,-2 0,-3 -1,-6 -1,-3 -1,-2 -3,-3 -2,-1 -2,-2 -5,-3 -2,-1 -4,-1 -6,-2 -2,-1 -1,-2 -4,-2 -2,-1 -4,-1 -6,-2 -1,-1 -2,-2 -4,-2 -8,-2 -2,-3 -11,-4 -4,-1 -2,-1 -4,-3 -2,-1 -10,-2 -12,-1 -1,1 -1,1 -2,3 -2,3 -3,0 -3,8 1,4 0,33 1,35 0,1 2,2 3,4 1,2 1,3 4,3 3,0 5,0 7,-1 2,0 3,-1 5,-2 2,-1 5,-2 8,-3 1,0 1,0 2,-1 1,-1 3,-1 5,-2 2,0 4,-1 5,-2 3,-2 3,-1 10,-4 2,-1 3,-1 5,-2 6,-3 5,-5 6,-8z"/>
    <path class="fil5" d="M310 351c0,1 0,0 1,1 0,1 0,0 1,0 0,1 -1,2 2,1l0 0c2,2 1,0 5,3 6,4 10,9 11,18 0,13 0,25 0,38 0,9 0,9 -3,16 -1,5 -5,9 -9,10 -2,1 -4,2 -7,3 -4,2 -14,1 -17,1 -2,-1 -4,-3 -7,-3 -1,-1 0,0 -1,-1 0,0 0,0 0,0 -4,-4 -7,-5 -9,-12 -2,-6 -1,-38 -1,-46 0,-20 4,-15 4,-19 2,-1 1,0 2,-1 0,0 1,-1 1,-1 0,-1 0,0 0,-1 2,0 1,0 1,-1 1,0 1,1 1,0 1,0 1,0 0,-1 1,1 1,1 1,0 1,0 0,0 0,-1 1,1 1,1 1,0 1,0 1,0 2,-1 0,0 1,0 2,0 1,-1 0,-1 1,-1 2,1 0,0 1,-1 -3,0 -1,0 -1,1 -2,0 -2,0 -3,0 -1,0 -2,1 -2,1 -1,0 0,0 0,1 -2,-1 -1,-1 -1,0 -1,0 -1,0 0,1 -1,-1 -1,-1 -1,0 -1,0 -1,0 0,1 -1,-1 -1,-1 -1,0 -2,0 -1,0 -1,1 -2,0 -3,1 -3,3 0,0 -1,-1 -3,3 -2,5 -2,9 -2,15 0,8 0,16 0,24 0,8 -1,17 1,23 1,5 1,5 4,8 1,2 2,2 3,3 2,1 1,2 4,2l6 4c2,0 15,1 18,-1 3,-1 1,0 7,-2 3,-1 9,-6 10,-10 4,-10 3,-3 3,-17 0,-12 0,-26 0,-38 0,-4 0,-6 -2,-9 -1,-2 -3,-6 -5,-8 -3,-2 -7,-6 -10,-5 -1,-1 1,-1 -2,-1 0,-1 1,0 0,-1 -1,0 0,0 -2,0 0,-1 2,0 -2,-1 0,0 -2,0 -3,0l-4 0c-2,0 -1,0 -2,1 2,0 10,0 11,0z"/>
    <path class="fil2" d="M151 367c-1,-4 1,-4 3,-6 1,-1 0,-1 2,-2 4,-3 4,-4 7,-4l0 0c0,-1 2,-1 5,-1 2,-1 2,-1 5,-1 8,0 9,1 12,1 1,1 2,1 3,2 4,3 2,0 7,5l1 2c0,1 0,1 1,0 0,1 -1,1 0,3 0,0 1,0 1,0 1,1 0,1 1,1 0,3 0,7 0,10l0 42c0,4 0,6 -2,9 0,0 -6,10 -10,10 0,0 0,0 0,0 -1,0 -5,1 -6,1 -2,2 0,2 -6,2 -4,0 -4,1 -7,-1l-6 -2 -3 0c-1,-2 -6,-6 -8,-8l-2 -8c-1,-4 -1,-32 -1,-36 0,-11 -1,-8 2,-17l1 -2zm48 0c0,-1 0,-1 -2,-3l0 -1c0,-1 0,-1 -1,0 0,-1 1,-1 -2,-4 -1,-1 -6,-5 -9,-5 0,-1 -1,-1 -3,-1 -1,-1 -2,-1 -3,-1 -5,-2 -17,1 -21,3 -1,1 -7,6 -8,8 -1,3 0,4 -2,7 -1,2 -1,3 -1,6 0,11 0,22 0,33 0,5 -1,11 1,15 3,5 1,6 6,11 6,5 7,4 10,5 3,2 3,2 7,2 13,0 7,0 14,-2 4,-2 4,0 10,-6 5,-6 5,-11 5,-20l0 -40c0,-1 0,-3 0,-4 0,-1 0,-2 -1,-3z"/>
    <path class="fil5" d="M714 354c-2,-1 0,-1 -1,0 -2,0 -3,1 -4,3 -2,1 -4,2 -4,4 -1,0 0,0 0,1 -1,0 -1,-1 -1,1 -1,-1 0,-1 0,0 -1,0 -1,0 -1,1 1,0 1,0 1,-1 1,1 1,1 0,0 1,0 1,0 1,-1 1,0 1,0 0,-1 1,0 0,1 1,0l1 -2c2,-1 6,-3 6,-5 2,1 1,0 1,0 2,0 5,-1 6,-2 10,-3 17,1 20,1 0,1 0,0 0,1 1,0 2,0 2,0 1,1 1,1 3,1 -1,1 -1,1 0,1 0,1 0,1 1,0 0,1 -1,0 1,2 0,0 0,0 1,1 5,5 4,7 5,8 0,2 1,4 2,7l0 45c-1,2 -2,4 -1,7 -1,0 -1,0 -2,2 0,2 0,2 -1,3 -5,8 -9,7 -13,9 -12,6 -22,-1 -25,-1 0,-1 1,-1 -1,0l-7 -7c-1,-3 -3,0 -3,-13l0 -35c0,-6 0,-11 0,-17 -2,2 -1,14 -1,17 0,7 -1,38 1,43 0,2 1,4 3,5 0,3 1,3 3,4 2,1 2,3 4,3 1,0 -1,1 1,0 1,1 0,0 1,1 1,0 1,0 1,1 2,0 2,0 3,1 2,1 4,1 7,1 9,0 11,0 19,-4 3,-1 11,-8 10,-13 3,-3 2,-10 2,-14 0,-7 1,-38 -1,-43l-1 -2c0,0 0,0 0,0 0,0 -1,0 -1,0 1,-3 -1,-5 -2,-7 -2,-1 -3,-4 -5,-4 0,-1 0,-1 -1,0 0,-1 1,-1 0,-1 -1,-1 0,0 -1,-1 -1,0 -1,0 -1,-1 -2,0 -2,0 -3,0 -1,0 -1,0 -2,-1l-4 -1c-4,-2 -10,-1 -14,0 -1,0 -2,1 -3,1l-3 2z"/>
    <path class="fil1" d="M402 417c0,0 0,0 0,1 -1,2 -1,7 -1,9 0,0 0,0 1,0l0 -10 2 -1c2,-3 1,-3 6,-3l24 0c2,0 10,-1 11,0 2,2 3,9 2,13 -3,9 1,3 -6,10 -3,3 -24,2 -28,2 -5,-1 -2,0 -7,-4l-4 -6c0,0 0,0 0,0 0,2 0,3 0,6 3,0 3,2 6,4 1,0 4,1 6,2 4,1 1,1 8,1 13,0 6,0 15,-2 6,-2 4,0 6,-3 2,-2 2,0 3,-4 1,0 1,0 1,-1 1,-2 2,-3 3,-5 0,-3 0,-7 0,-9 -1,-1 -3,-5 -4,-5 -5,-3 -20,0 -25,-2 -5,-1 -4,1 -8,1 -4,0 -12,1 -11,6z"/>
    <path class="fil1" d="M437 355c0,1 0,1 0,1l1 1c1,2 2,1 4,2 1,1 2,4 4,4 0,1 0,1 0,2 1,2 0,1 1,1 0,1 0,2 1,3 0,2 0,2 1,2 0,2 0,8 0,11 0,0 -1,-2 0,1 -1,-1 -1,-1 -1,0 -1,0 -1,0 0,1 -1,-1 -1,-1 -1,0 -1,0 -1,0 0,1 -1,0 -1,-2 -1,1 -1,0 0,-1 -1,1 2,0 2,1 1,-1 1,0 1,2 1,-1 1,0 1,0 0,-1 1,1 1,1 1,0 1,0 1,0 0,-1 1,1 1,1 1,0 0,0 1,2 0,-1 2,-2 1,-4 1,-6 0,-1 0,-3 0,-3 0,-3 -1,-2 -1,-2 0,-1 1,-2 0,-3 0,-1 0,-1 -1,-2 -1,0 1,0 -1,0 0,-1 1,0 0,-1 0,-2 0,-1 -1,-2 0,-3 -6,-5 -8,-8l-1 0c-1,0 0,0 -2,-1 -1,0 -1,0 -2,0 -9,-1 -9,-2 -19,1 -4,0 -3,1 -5,3 -2,1 -2,1 -3,2 -5,6 -5,9 -8,13 -2,2 -3,2 -6,2 -7,0 -11,1 -12,-6 -1,-6 3,-16 6,-19 2,-3 5,-7 8,-9 3,-2 2,-3 6,-3 0,0 -2,-1 1,0 0,-1 0,-1 0,-1 0,0 0,0 1,0l3 -2c0,0 0,-1 0,-1 0,0 0,0 0,0 0,0 0,0 1,0 1,0 0,0 1,0 3,-1 1,0 2,-1 -1,0 -1,0 -2,0 -2,0 -1,0 -1,1 -4,-1 -5,2 -7,3 -7,2 -1,0 -6,3 -1,1 -2,2 -3,3 -1,1 -1,1 -2,2 -3,3 -3,1 -4,5 -1,2 -2,2 -3,3l-2 7c0,2 -1,3 -1,4 -1,3 -1,6 1,8 4,6 5,6 14,5 3,0 2,0 4,-1 7,-7 2,-1 6,-9 0,-1 1,-1 2,-2 5,-9 2,-3 7,-7 3,-3 1,-2 7,-3 10,-1 15,1 18,0z"/>
    <path class="fil8" d="M507 349c3,0 2,-1 2,-3 -1,-2 -1,-4 0,-6 1,0 1,-1 3,-1l64 0c2,0 5,1 5,-2 0,-2 -3,-1 -5,-1l-64 0c-5,0 -6,-1 -6,3 1,3 0,8 1,10z"/>
    <path class="fil3" d="M450 430c1,1 1,1 0,1l0 0c0,2 0,1 -2,2 1,2 1,0 0,1 0,1 0,0 0,0 0,1 0,1 -1,1 0,0 0,0 0,0 0,1 0,1 -1,1 0,0 1,0 0,0 0,1 0,1 -1,0 0,1 1,1 0,1 0,1 0,1 -1,0 1,1 1,1 0,1 0,1 0,1 -1,0 0,1 2,1 -1,1 0,0 1,1 -1,0 -1,1 1,1 -2,1 0,0 2,1 -2,0 0,1 1,1 -1,1 0,1 1,0 -1,1 0,0 0,0 0,1 -6,0 -13,1 -19,0 -4,0 -4,-2 -7,-3 -8,-3 -6,-3 -10,-9 -2,-3 -2,-8 -1,-12 0,-4 3,-7 6,-9 3,-1 2,-2 7,-2 5,-1 22,0 28,0 4,0 6,-1 8,1 2,2 3,3 5,6 2,6 1,14 -2,15zm-43 -23c-2,0 -2,0 -4,2 -2,2 -1,0 -3,2 -1,1 0,1 -1,2 -2,2 -3,1 -3,7 0,3 0,9 1,11l5 7c2,2 1,2 4,2 7,2 -2,5 26,4 7,0 7,-2 9,-3 6,-2 4,-1 8,-5 4,-5 2,-5 4,-8 1,-2 2,-1 2,-3 1,-9 -1,-9 -2,-11 -1,-2 0,-2 -3,-3 -3,-3 -1,-4 -7,-5 -5,0 -33,0 -36,1z"/>
    <path class="fil2" d="M402 428l0 -1c-1,0 -1,0 -1,0 0,-2 0,-7 1,-9 0,-1 0,-1 0,-1 -1,-5 7,-6 11,-6 4,0 3,-2 8,-1 5,2 20,-1 25,2 1,0 3,4 4,5 0,2 0,6 0,9 -1,2 -2,3 -3,5 0,1 0,1 -1,1 -1,4 -1,2 -3,4 -2,3 0,1 -6,3 -9,2 -2,2 -15,2 -7,0 -4,0 -8,-1 -2,-1 -5,-2 -6,-2 -3,-2 -3,-4 -6,-4 0,-3 0,-4 0,-6zm33 14c1,-1 0,-1 1,-1 0,-1 0,-1 1,-1 1,-1 1,0 2,0 1,-1 0,-1 2,-1 0,-1 -1,0 1,0 0,-1 0,-1 1,-1 0,-1 0,0 1,0 -1,-1 -1,-1 0,-1 0,-1 0,0 1,0 -1,-1 -1,-1 0,-1 0,-1 0,0 1,0 -1,-1 -1,-1 0,0 0,-1 0,-1 1,-1 -1,-1 -1,-1 0,0 0,-1 0,-1 1,-1 -1,-1 -1,-1 0,0 0,-2 0,-1 0,-1 1,-2 0,-2 2,-2l0 0c0,-1 -1,-1 0,-1 0,-2 4,-9 0,-16 0,-1 -4,-4 -5,-5 -2,-1 -22,0 -26,-1 -2,0 -7,1 -9,1 -3,0 -4,1 -6,3 -5,2 -6,8 -6,13 1,4 2,4 3,7 2,6 7,6 10,8 3,1 2,2 7,2 6,1 12,0 17,0z"/>
    <path class="fil1" d="M644 315c-1,3 -2,5 -5,6 -3,0 -7,1 -10,0 -4,-1 -5,-2 -6,-6 0,-2 0,-8 0,-11 1,-3 2,-5 6,-5 7,-2 13,-2 15,6 1,2 1,8 0,10zm-24 2c1,0 3,3 4,4 1,1 2,2 3,2 3,1 10,1 13,0 1,0 2,-2 4,-3 1,-1 1,-2 2,-4 0,-3 0,-10 -1,-13 0,-3 -1,-3 -2,-4 -2,-1 -3,-3 -4,-3 -3,-1 -13,-1 -16,4 -1,1 -2,2 -2,4 -1,2 -1,11 -1,13z"/>
    <path class="fil8" d="M40 437c1,-1 0,1 1,-2 2,-4 1,-61 1,-71 0,-3 0,-6 -2,-7 -1,7 -1,76 0,80z"/>
    <path class="fil10" d="M627 306c2,6 1,4 1,11 2,1 9,2 11,1 1,-2 1,-6 1,-9 0,-3 0,-5 -2,-7 -5,1 -1,3 -7,0l-4 4z"/>
    <path class="fil5" d="M435 442c2,-1 1,0 1,-1 2,0 1,0 1,-1 4,1 2,0 2,0 3,0 1,0 2,-1 2,1 1,0 1,0 3,0 1,0 1,-1 1,1 1,1 1,0 1,0 1,0 0,-1 1,1 1,1 1,0 1,0 0,0 0,-1 1,1 1,1 1,0 1,0 0,0 0,0 1,0 1,0 1,-1 0,0 0,0 0,0 1,0 1,0 1,-1 0,0 0,1 0,0 1,-1 1,1 0,-1 2,-1 2,0 2,-2 -2,0 -1,0 -2,2 0,0 0,-1 0,1 -1,-1 -1,-1 0,0 -1,0 -1,0 -1,1 -1,-1 -1,-1 0,0 -1,0 -1,0 -1,1 -1,-1 -1,-1 0,0 -1,0 -1,-1 -1,0 -1,0 -1,0 0,1 -1,0 -1,-1 -1,0 -1,0 -1,0 0,1 -1,0 -1,-1 -1,0 -1,0 -1,0 -1,1 -2,0 -1,-1 -1,0 -2,0 -1,0 -2,1 -1,0 -1,-1 -2,0 -1,0 -1,0 -1,1 -1,0 0,0 -1,1 -5,0 -11,1 -17,0 -5,0 -4,-1 -7,-2 -3,-2 -8,-2 -10,-8 -1,-3 -2,-3 -3,-7 0,-5 1,-11 6,-13 2,-2 3,-3 6,-3 2,0 7,-1 9,-1 4,1 24,0 26,1 1,1 5,4 5,5 4,7 0,14 0,16 -1,0 0,0 0,1 1,0 1,0 0,-1 3,-1 4,-9 2,-15 -2,-3 -3,-4 -5,-6 -2,-2 -4,-1 -8,-1 -6,0 -23,-1 -28,0 -5,0 -4,1 -7,2 -3,2 -6,5 -6,9 -1,4 -1,9 1,12 4,6 2,6 10,9 3,1 3,3 7,3 6,1 13,0 19,0 0,-1 0,-1 0,-1z"/>
    <path class="fil8" d="M333 426l1 -2c1,-1 1,-1 1,-4 0,-2 0,-5 0,-7l0 -32c0,-6 1,-10 -2,-14 -1,5 0,52 0,59z"/>
    <path class="fil8" d="M88 337c-3,-2 -26,-1 -31,0 2,2 2,2 6,2 7,1 11,-1 23,1 1,-1 2,-2 2,-3z"/>
    <path class="fil2" d="M630 300c2,0 8,-1 9,0 6,4 6,19 -1,20 -2,0 -8,0 -9,0 -3,-1 -4,-2 -4,-6 -1,-8 -1,-12 5,-14zm14 15c1,-2 1,-8 0,-10 -2,-8 -8,-8 -15,-6 -4,0 -5,2 -6,5 0,3 0,9 0,11 1,4 2,5 6,6 3,1 7,0 10,0 3,-1 4,-3 5,-6z"/>
    <path class="fil3" d="M631 302c6,3 2,1 7,0 2,2 2,4 2,7 0,3 0,7 -1,9 -2,1 -9,0 -11,-1 0,-7 1,-5 -1,-11l4 -4zm10 12c2,-4 1,-12 -3,-13 -1,0 -7,0 -8,0 -2,1 -4,2 -4,4 0,2 0,8 0,9 0,4 0,4 4,5 1,0 7,0 8,0 2,-1 3,-2 3,-5z"/>
    <path class="fil5" d="M641 314c0,3 -1,4 -3,5 -1,0 -7,0 -8,0 -4,-1 -4,-1 -4,-5 0,-1 0,-7 0,-9 0,-2 2,-3 4,-4 1,0 7,0 8,0 4,1 5,9 3,13zm-11 -14c-6,2 -6,6 -5,14 0,4 1,5 4,6 1,0 7,0 9,0 7,-1 7,-16 1,-20 -1,-1 -7,0 -9,0z"/>
    <path class="fil8" d="M19 347c0,-8 -1,-8 6,-8 3,0 4,1 6,0 2,-1 3,-1 4,-2 -2,-1 -14,-2 -16,0 -1,0 0,0 -1,1 0,1 -1,1 -1,1 -1,2 0,2 0,4 0,4 -1,5 2,4z"/>
    <path class="fil8" d="M507 437c-1,1 0,2 0,3 0,2 0,3 0,5 0,4 -1,6 0,9 2,0 3,0 3,-2 -1,-6 -1,-9 -1,-15 -1,-1 -1,-1 -2,-2l0 2z"/>
    <path class="fil8" d="M585 452c0,-2 0,-6 0,-8 -1,0 0,0 -1,0 -4,0 -2,2 -2,5 0,3 -1,5 -1,7 5,2 4,1 4,-4z"/>
    <path class="fil8" d="M384 434c4,-2 1,-6 1,-9 0,-5 2,-8 -1,-11 -1,2 -2,18 0,20z"/>
    <path class="fil8" d="M767 359c-1,3 2,14 2,18 1,-1 1,-15 1,-16 0,-3 0,-3 -3,-2z"/>
    <path class="fil8" d="M769 411c0,4 0,8 -1,13 0,4 -4,10 2,10 1,-3 0,-6 0,-10l-1 -13z"/>
    <path class="fil8" d="M40 290c2,0 2,-1 5,-1 3,-1 4,0 5,-2 -1,-2 -3,-1 -7,-1 -5,0 -4,0 -3,4z"/>
    <path class="fil8" d="M629 336c1,4 1,3 4,3 2,0 5,1 6,0 4,-5 -9,-3 -10,-3z"/>
    <path class="fil8" d="M561 367c3,-1 3,-4 3,-6 0,-4 -1,-5 -3,-7 -1,2 -1,10 0,13z"/>
    <path class="fil8" d="M409 336c-1,0 -1,1 -1,1 3,4 10,1 13,0 -2,-1 -3,0 -5,-2l-7 1z"/>
    <path class="fil8" d="M710 336c1,4 2,3 6,3 4,0 3,0 6,-2 -2,-3 -12,-1 -12,-1z"/>
    <path class="fil8" d="M157 336c1,3 2,3 6,3 2,0 4,-1 6,-2 -3,-1 -10,-2 -12,-1z"/>
    <path class="fil8" d="M285 337c1,2 2,2 6,2 2,0 4,-1 5,-2 -2,-2 -8,-1 -11,0z"/>
    <path class="fil8" d="M181 336c2,3 8,4 10,2l1 -2c-2,0 -10,0 -11,0z"/>
    <path class="fil8" d="M310 337c3,2 4,2 9,2 1,-1 1,-1 1,-2 -2,-1 -1,-1 -4,-1 -1,0 -6,0 -6,1z"/>
    <path class="fil8" d="M334 446c-1,0 -3,0 -3,2 -1,2 2,2 4,0 1,-3 5,-2 2,-6 -2,1 -2,2 -3,4z"/>
    <path class="fil8" d="M46 447c1,1 1,4 5,2 -1,-3 -2,-2 -4,-3 -1,-2 -1,-4 -3,-5 -3,5 1,4 2,6z"/>
    <path class="fil8" d="M735 337c5,2 7,3 10,0 -1,0 1,-1 -5,-1 -3,0 -3,0 -5,1z"/>
    <path class="fil8" d="M442 336c-2,0 -3,0 -5,0 -3,0 -3,0 -4,1 2,1 11,4 9,-1z"/>
    <path class="fil8" d="M405 395c-1,-1 -10,-3 -7,1 1,2 3,1 4,1 2,-1 2,-1 3,-2z"/>
    <path class="fil8" d="M149 341c0,1 0,2 2,2 2,0 3,0 4,-1 1,-4 -5,-2 -6,-1z"/>
    <path class="fil8" d="M401 340c0,0 0,0 0,0 0,0 0,0 0,0 -1,1 -1,1 0,3 3,0 4,0 5,-3 -2,0 -3,0 -5,0z"/>
    <path class="fil8" d="M703 340c0,1 -1,3 2,3 1,0 2,-2 3,-3l-5 0z"/>
    <path class="fil8" d="M143 346c-3,2 -4,1 -3,5 2,0 3,-2 3,-4l0 -1 0 0z"/>
    <path class="fil8" d="M278 340c0,5 4,2 5,0 -1,0 -4,-1 -5,0z"/>
    <path class="fil8" d="M450 340c-1,0 -1,1 -1,0l-4 0c1,1 1,2 2,2 3,1 3,0 3,-2z"/>
    <path class="fil8" d="M748 340c0,3 3,4 4,0 -1,0 -3,-1 -4,0z"/>
    <path class="fil8" d="M465 359l0 0 0 -1c0,0 -1,0 -1,0l-2 2c1,2 1,2 2,3 0,0 1,0 1,0 0,0 0,-1 0,-4z"/>
    <path class="fil8" d="M136 442c1,0 1,0 3,0 0,-3 -1,-4 -3,-4 0,2 0,3 0,4z"/>
    <path class="fil8" d="M195 341c1,0 4,3 4,1 1,-3 -2,-3 -4,-1z"/>
    <path class="fil8" d="M140 446c2,0 4,-1 2,-3 -2,-2 -3,0 -2,3z"/>
    <path class="fil8" d="M383 370c3,-1 4,-3 1,-5 -2,2 -1,2 -1,5z"/>
    <path class="fil8" d="M538 394c1,-1 2,-2 2,-4 -3,-1 -4,0 -2,4z"/>
    <path class="fil8" d="M146 447c-1,-1 -1,-1 -3,-1 0,2 0,3 1,3 1,1 4,0 2,-2z"/>
    <path class="fil8" d="M766 438c-1,0 -1,0 -2,1 -1,3 3,5 2,1 0,-1 0,-2 0,-2z"/>
    <path class="fil8" d="M760 445c0,1 3,2 3,-1 0,-2 0,0 -1,-1 -1,-1 -2,0 -2,1 -1,2 0,0 0,1z"/>
    <path class="fil8" d="M541 389c2,0 3,-1 3,-2l-3 -1c0,1 0,2 0,3z"/>
    <path class="fil8" d="M323 340c1,2 3,5 4,0l-4 0z"/>
    <path class="fil8" d="M757 449c2,0 2,0 2,-2 0,0 0,0 0,0 -2,0 1,0 -2,0 -2,0 -1,2 -1,2 1,0 -1,0 1,0z"/>
    <path class="fil8" d="M267 354c2,0 2,-1 3,-2 -1,-1 -1,-1 -2,-1 -1,1 -1,1 -1,3z"/>
    <path class="fil11" d="M117 300c0,4 -1,7 -4,9 -3,2 -7,3 -12,3l-17 0 0 -43 16 0c10,0 15,4 15,11 0,2 -1,4 -3,6 -1,2 -3,3 -6,4 4,0 6,1 8,3 2,2 3,4 3,7zm-8 -20c0,-2 -1,-3 -3,-4 -1,-1 -3,-2 -6,-2l-10 0 0 14 10 0c3,0 5,-1 6,-2 2,-1 3,-3 3,-6zm2 20c0,-5 -3,-8 -10,-8l-11 0 0 15 11 0c4,0 6,0 8,-2 1,-1 2,-3 2,-5z"/>
    <path id="1" class="fil11" d="M164 312l-5 -12 -19 0 -5 12 -6 0 17 -43 7 0 17 43 -6 0zm-14 -38l-1 1c0,1 -1,3 -2,6l-5 14 16 0 -6 -14c0,-1 -1,-3 -1,-5l-1 -2z"/>
    <path id="2" class="fil11" d="M212 312l-23 -36 0 3 0 5 0 28 -5 0 0 -43 7 0 23 37c-1,-4 -1,-7 -1,-9l0 -28 6 0 0 43 -7 0z"/>
    <path id="3" class="fil11" d="M256 274c-4,0 -8,1 -11,4 -2,3 -4,7 -4,13 0,5 2,9 4,12 3,3 7,5 11,5 6,0 11,-3 14,-9l5 2c-2,4 -5,7 -8,9 -3,2 -7,3 -11,3 -4,0 -8,-1 -11,-3 -3,-2 -5,-4 -7,-8 -2,-3 -2,-7 -2,-11 0,-7 1,-13 5,-16 4,-4 9,-6 15,-6 5,0 8,1 12,3 3,1 5,4 6,7l-5 2c-1,-2 -3,-4 -5,-5 -2,-2 -5,-2 -8,-2z"/>
    <path id="4" class="fil11" d="M331 291c0,4 -1,8 -3,11 -1,4 -4,6 -7,8 -3,2 -7,3 -11,3 -5,0 -8,-1 -12,-3 -3,-2 -5,-4 -7,-8 -1,-3 -2,-7 -2,-11 0,-7 2,-13 5,-16 4,-4 9,-6 16,-6 4,0 8,1 11,2 3,2 6,5 7,8 2,3 3,7 3,12zm-6 0c0,-6 -1,-10 -4,-13 -3,-3 -6,-4 -11,-4 -5,0 -9,1 -11,4 -3,3 -4,7 -4,13 0,5 1,9 4,12 2,3 6,5 11,5 5,0 8,-2 11,-5 3,-3 4,-7 4,-12z"/>
   </g>
  </g>
 </g>
</svg>
