<?xml version="1.0" encoding="UTF-8"?>
<!DOCTYPE svg PUBLIC "-//W3C//DTD SVG 1.1//EN" "http://www.w3.org/Graphics/SVG/1.1/DTD/svg11.dtd">
<!-- Creator: CorelDRAW Home & Student X7 -->
<svg xmlns="http://www.w3.org/2000/svg" xml:space="preserve" width="30mm" height="30mm" version="1.1" style="shape-rendering:geometricPrecision; text-rendering:geometricPrecision; image-rendering:optimizeQuality; fill-rule:evenodd; clip-rule:evenodd"
viewBox="0 0 652 652"
 xmlns:xlink="http://www.w3.org/1999/xlink">
 <defs>
  <style type="text/css">
   <![CDATA[
    .fil2 {fill:#212121;fill-rule:nonzero}
    .fil0 {fill:#FFD900;fill-rule:nonzero}
    .fil1 {fill:white;fill-rule:nonzero}
   ]]>
  </style>
 </defs>
 <g id="__x0023_Layer_x0020_1">
  <metadata id="CorelCorpID_0Corel-Layer"/>
  <g id="_634342880">
   <g>
    <g>
     <path class="fil0" d="M0 0l652 0 0 652 -652 0 0 -652zm480 224l0 0c-42,3 -76,49 -65,90 8,32 38,59 72,59 15,0 29,-4 42,-12 24,-15 38,-46 33,-74 -2,-15 -8,-29 -18,-40 -16,-17 -40,-26 -64,-23zm-183 19l0 0c4,5 9,11 8,18 0,28 0,56 0,84 1,7 -5,13 -8,19 13,3 26,2 40,1 9,-3 -5,-10 -5,-15 -1,-41 1,-82 -1,-123 -12,4 -23,10 -34,16zm55 0l0 0c4,5 9,11 9,18 0,29 0,58 -1,87 1,6 -12,13 -4,17 12,2 24,0 36,1 1,-1 2,-4 3,-5 -11,-9 -8,-24 -8,-36 0,-33 1,-65 -1,-98 -12,4 -23,10 -34,16zm-104 -3l0 0c-1,3 -2,6 -3,10 2,14 20,20 31,11 7,-5 4,-14 4,-21 -9,-8 -23,-9 -32,0zm-160 43l0 0c19,21 -1,52 16,74 13,16 41,12 53,-4 8,14 25,18 40,12 17,-8 27,-26 29,-43 3,-16 4,-35 -11,-46 -6,1 -16,0 -17,8 -4,15 17,21 16,35 -1,15 -8,32 -23,38 -7,3 -13,-5 -13,-12 -1,-23 1,-45 0,-68 -11,0 -23,2 -33,6 2,3 5,7 7,10 1,14 2,27 0,41 -2,10 -7,22 -19,24 -6,-1 -10,-7 -10,-13 -1,-22 1,-45 -1,-67 -11,-2 -23,2 -34,5zm157 7l0 0c0,1 -1,3 -1,5 3,4 6,7 6,12 0,15 0,29 0,44 -2,4 -5,8 -7,12 3,2 6,3 9,3 12,0 23,1 35,-2 -3,-5 -7,-9 -10,-13 0,-25 1,-50 0,-75 -12,3 -22,9 -32,14zm4 109l0 0c-1,10 0,20 0,30 7,-1 14,0 21,-3 3,-5 0,-10 -2,-14 2,-6 3,-13 -4,-15 -5,0 -12,-3 -15,2zm35 31l0 0c5,-2 7,-6 9,-11 4,0 8,0 11,0 2,5 5,9 10,12 -4,-13 -8,-26 -15,-37 -7,12 -11,24 -15,36zm44 -32l0 0c1,10 1,20 0,30 1,0 3,0 4,1 0,-8 0,-17 0,-25 7,8 12,18 19,26 1,-1 2,-1 3,-2 -1,-11 4,-24 -3,-33 -1,8 -1,17 -1,26 -6,-7 -12,-15 -17,-23 -1,0 -4,0 -5,0zm43 0l0 0c1,10 1,20 0,30 1,0 3,1 4,1 0,-5 1,-10 1,-14 8,0 11,10 15,15 1,-1 4,-1 5,-1 -5,-7 -9,-13 -13,-19 4,-5 8,-9 12,-14 -9,2 -14,10 -19,16 0,-5 -1,-10 -1,-15 -1,0 -3,1 -4,1z"/>
    </g>
    <path class="fil0" d="M253 400c5,0 18,2 11,9 -3,1 -8,2 -10,2 -1,-3 -1,-7 -1,-11z"/>
    <path class="fil0" d="M299 416c-5,-1 -5,-9 0,-10 4,1 5,9 0,10z"/>
    <path class="fil0" d="M253 425c0,-4 0,-8 0,-12 3,0 9,1 12,1 1,3 1,6 1,9 -4,1 -8,2 -13,2z"/>
   </g>
   <g>
    <path class="fil1" d="M480 224c24,-3 48,6 64,23 10,11 16,25 18,40 5,28 -9,59 -33,74 -13,8 -27,12 -42,12 -34,0 -64,-27 -72,-59 -11,-41 23,-87 65,-90z"/>
   </g>
   <g>
    <path class="fil2" d="M297 243c11,-6 22,-12 34,-16 2,41 0,82 1,123 0,5 14,12 5,15 -14,1 -27,2 -40,-1 3,-6 9,-12 8,-19 0,-28 0,-56 0,-84 1,-7 -4,-13 -8,-18z"/>
    <path class="fil2" d="M352 243c11,-6 22,-12 34,-16 2,33 1,65 1,98 0,12 -3,27 8,36 -1,1 -2,4 -3,5 -12,-1 -24,1 -36,-1 -8,-4 5,-11 4,-17 1,-29 1,-58 1,-87 0,-7 -5,-13 -9,-18z"/>
    <path class="fil2" d="M248 240c9,-9 23,-8 32,0 0,7 3,16 -4,21 -11,9 -29,3 -31,-11 1,-4 2,-7 3,-10z"/>
    <path class="fil2" d="M88 283c11,-3 23,-7 34,-5 2,22 0,45 1,67 0,6 4,12 10,13 12,-2 17,-14 19,-24 2,-14 1,-27 0,-41 -2,-3 -5,-7 -7,-10 10,-4 22,-6 33,-6 1,23 -1,45 0,68 0,7 6,15 13,12 15,-6 22,-23 23,-38 1,-14 -20,-20 -16,-35 1,-8 11,-7 17,-8 15,11 14,30 11,46 -2,17 -12,35 -29,43 -15,6 -32,2 -40,-12 -12,16 -40,20 -53,4 -17,-22 3,-53 -16,-74z"/>
    <path class="fil2" d="M245 290c10,-5 20,-11 32,-14 1,25 0,50 0,75 3,4 7,8 10,13 -12,3 -23,2 -35,2 -3,0 -6,-1 -9,-3 2,-4 5,-8 7,-12 0,-15 0,-29 0,-44 0,-5 -3,-8 -6,-12 0,-2 1,-4 1,-5z"/>
    <g>
     <path class="fil2" d="M249 399c3,-5 10,-2 15,-2 7,2 6,9 4,15 2,4 5,9 2,14 -7,3 -14,2 -21,3 0,-10 -1,-20 0,-30zm4 1l0 0c0,4 0,8 1,11 2,0 7,-1 10,-2 7,-7 -6,-9 -11,-9zm0 25l0 0c5,0 9,-1 13,-2 0,-3 0,-6 -1,-9 -3,0 -9,-1 -12,-1 0,4 0,8 0,12z"/>
    </g>
    <g>
     <path class="fil2" d="M284 430c4,-12 8,-24 15,-36 7,11 11,24 15,37 -5,-3 -8,-7 -10,-12 -3,0 -7,0 -11,0 -2,5 -4,9 -9,11zm15 -14l0 0c5,-1 4,-9 0,-10 -5,1 -5,9 0,10z"/>
    </g>
    <path class="fil2" d="M328 398c1,0 4,0 5,0 5,8 11,16 17,23 0,-9 0,-18 1,-26 7,9 2,22 3,33 -1,1 -2,1 -3,2 -7,-8 -12,-18 -19,-26 0,8 0,17 0,25 -1,-1 -3,-1 -4,-1 1,-10 1,-20 0,-30z"/>
    <path class="fil2" d="M371 398c1,0 3,-1 4,-1 0,5 1,10 1,15 5,-6 10,-14 19,-16 -4,5 -8,9 -12,14 4,6 8,12 13,19 -1,0 -4,0 -5,1 -4,-5 -7,-15 -15,-15 0,4 -1,9 -1,14 -1,0 -3,-1 -4,-1 1,-10 1,-20 0,-30z"/>
   </g>
  </g>
 </g>
</svg>
