<?xml version="1.0" encoding="UTF-8"?>
<!DOCTYPE svg PUBLIC "-//W3C//DTD SVG 1.1//EN" "http://www.w3.org/Graphics/SVG/1.1/DTD/svg11.dtd">
<!-- Creator: CorelDRAW Home & Student X7 -->
<svg xmlns="http://www.w3.org/2000/svg" xml:space="preserve" width="29mm" height="29mm" version="1.1" style="shape-rendering:geometricPrecision; text-rendering:geometricPrecision; image-rendering:optimizeQuality; fill-rule:evenodd; clip-rule:evenodd"
viewBox="0 0 1529 1529"
 xmlns:xlink="http://www.w3.org/1999/xlink">
 <defs>
  <style type="text/css">
   <![CDATA[
    .fil1 {fill:black;fill-rule:nonzero}
    .fil0 {fill:#FD6EFF;fill-rule:nonzero}
   ]]>
  </style>
 </defs>
 <g id="__x0023_Layer_x0020_1">
  <metadata id="CorelCorpID_0Corel-Layer"/>
  <g id="_634340000">
   <g>
    <g>
     <path class="fil0" d="M0 0l1529 0 0 1529 -1529 0 0 -1529zm268 363l0 0c0,47 0,95 0,142 129,0 258,1 387,-1 -15,72 -57,138 -115,182 -40,30 -85,56 -122,90 -85,76 -139,186 -148,299 -3,37 -1,73 -2,110 179,0 358,0 537,0 0,-47 0,-95 0,-142 -129,0 -257,0 -386,0 15,-67 54,-129 108,-173 21,-17 44,-31 66,-47 43,-28 81,-62 113,-102 62,-78 97,-176 99,-276 0,-27 0,-55 0,-83 -179,1 -358,0 -537,1zm853 -1l0 0c1,37 0,74 -11,109 -25,91 -99,167 -190,194 -37,13 -76,14 -115,12 0,48 0,96 0,144 31,0 63,1 94,-4 82,-12 160,-49 223,-105 -1,158 0,315 -1,473 48,0 96,0 144,0 0,-274 0,-549 0,-823 -48,0 -96,-1 -144,0z"/>
    </g>
   </g>
   <g>
    <path class="fil1" d="M268 363c179,-1 358,0 537,-1 0,28 0,56 0,83 -2,100 -37,198 -99,276 -32,40 -70,74 -113,102 -22,16 -45,30 -66,47 -54,44 -93,106 -108,173 129,0 257,0 386,0 0,47 0,95 0,142 -179,0 -358,0 -537,0 1,-37 -1,-73 2,-110 9,-113 63,-223 148,-299 37,-34 82,-60 122,-90 58,-44 100,-110 115,-182 -129,2 -258,1 -387,1 0,-47 0,-95 0,-142z"/>
    <path class="fil1" d="M1121 362c48,-1 96,0 144,0 0,274 0,549 0,823 -48,0 -96,0 -144,0 1,-158 0,-315 1,-473 -63,56 -141,93 -223,105 -31,5 -63,4 -94,4 0,-48 0,-96 0,-144 39,2 78,1 115,-12 91,-27 165,-103 190,-194 11,-35 12,-72 11,-109z"/>
   </g>
  </g>
 </g>
</svg>
