<?xml version="1.0" encoding="UTF-8" standalone="no"?>
<!-- Creator: CorelDRAW Home & Student X7 -->

<svg
   xml:space="preserve"
   width="13.0615mm"
   height="13.0615mm"
   version="1.1"
   style="shape-rendering:geometricPrecision; text-rendering:geometricPrecision; image-rendering:optimizeQuality; fill-rule:evenodd; clip-rule:evenodd"
   viewBox="0 0 1306 1306"
   id="svg30"
   sodipodi:docname="logo PPP svgZ.svgz"
   xmlns:inkscape="http://www.inkscape.org/namespaces/inkscape"
   xmlns:sodipodi="http://sodipodi.sourceforge.net/DTD/sodipodi-0.dtd"
   xmlns="http://www.w3.org/2000/svg"
   xmlns:svg="http://www.w3.org/2000/svg"><sodipodi:namedview
   id="namedview32"
   pagecolor="#ffffff"
   bordercolor="#666666"
   borderopacity="1.0"
   inkscape:pageshadow="2"
   inkscape:pageopacity="0.0"
   inkscape:pagecheckerboard="0"
   inkscape:document-units="mm" />
 <defs
   id="defs13">
  <style
   type="text/css"
   id="style2">
   <![CDATA[
    .str2 {stroke:black;stroke-width:0.100001}
    .str1 {stroke:gray;stroke-width:0.100001}
    .str0 {stroke:#B3B3B3;stroke-width:7.62006}
    .str3 {stroke:yellow;stroke-width:7.62006}
    .fil4 {fill:#025DA4}
    .fil3 {fill:#6190FF}
    .fil2 {fill:#9900CC}
    .fil5 {fill:yellow}
    .fil0 {fill:white}
    .fil1 {fill:url(#id0)}
   ]]>
  </style>
  <linearGradient
   id="id0"
   gradientUnits="userSpaceOnUse"
   x1="653.075"
   y1="1061.96"
   x2="653.075"
   y2="612.155">
   <stop
   offset="0"
   style="stop-opacity:1; stop-color:#FFFF61"
   id="stop4" />
   <stop
   offset="0.501961"
   style="stop-opacity:1; stop-color:#FFFFB0"
   id="stop6" />
   <stop
   offset="0.0117647"
   style="stop-opacity:1; stop-color:#FFDF61"
   id="stop8" />
   <stop
   offset="1"
   style="stop-opacity:1; stop-color:white"
   id="stop10" />
  </linearGradient>
 </defs>
 <g
   id="Camada_x0020_1"
   inkscape:label="Camada 1">
  <metadata
   id="CorelCorpID_0Corel-Layer" />
  <g
   id="_483483176">
   <circle
   class="fil0 str0"
   cx="653"
   cy="653"
   r="649"
   id="circle16" />
   <polygon
   class="fil1 str1"
   points="428,1062 878,1062 653,612 "
   id="polygon18" />
   <path
   class="fil2 str2"
   d="M428 1159c0,9 6,16 15,16 9,0 16,-7 16,-16l0 -28 23 0c32,0 57,-17 57,-49l0 -1c0,-28 -20,-48 -54,-48l-42 0c-9,0 -15,7 -15,15l0 111zm31 -55l0 -43 24 0c15,0 25,7 25,21l0 1c0,12 -9,21 -25,21l-24 0zm138 55c0,9 7,16 16,16 9,0 15,-7 15,-16l0 -28 24 0c31,0 57,-17 57,-49l0 -1c0,-28 -21,-48 -54,-48l-42 0c-9,0 -16,7 -16,15l0 111zm31 -55l0 -43 24 0c16,0 25,7 25,21l0 1c0,12 -9,21 -24,21l-25 0zm138 55c0,9 7,16 15,16 9,0 16,-7 16,-16l0 -28 23 0c32,0 57,-17 57,-49l0 -1c0,-28 -20,-48 -54,-48l-42 0c-8,0 -15,7 -15,15l0 111zm31 -55l0 -43 24 0c15,0 25,7 25,21l0 1c0,12 -9,21 -25,21l-24 0z"
   id="path20" />
   <path
   class="fil3"
   d="M844 1247c47,0 84,-21 118,-49 13,-11 23,-21 34,-35 4,-4 14,-15 15,-20 -4,1 -17,14 -27,19 -10,6 -17,11 -30,16 -10,4 -21,8 -32,11 -11,2 -22,6 -35,7 -4,1 -7,1 -10,2 -12,3 -57,3 -69,3 -11,-1 -29,-2 -39,-4l-36 -7c1,6 -1,1 2,6l8 8c4,4 7,6 11,10 28,21 55,32 90,33zm30 -146c2,3 14,10 18,11 23,10 46,9 70,7l22 -5c7,-3 13,-5 21,-7 23,-9 47,-30 65,-50 9,-11 17,-22 25,-35 5,-8 40,-75 37,-83 -7,6 -18,32 -48,62 -23,22 -48,41 -76,56 -5,3 -13,5 -18,8 -6,4 -10,5 -17,9 -6,2 -13,4 -19,6 -12,5 -25,9 -39,12l-41 9zm53 -75c39,0 71,-13 105,-32 39,-22 79,-71 103,-117 22,-42 20,-46 33,-81 7,-21 11,-41 15,-63 1,-6 7,-27 5,-32 -1,2 -9,26 -11,31 -11,24 -15,32 -27,55 -12,23 -34,54 -50,71l-39 40c-7,7 -34,28 -43,35 -14,11 -31,22 -45,32 -25,17 -43,24 -67,37l-19 9c-2,2 -4,2 -6,4 0,0 -3,1 -3,2 -2,2 -1,-2 -1,3 7,4 40,6 50,6zm-214 110c3,-5 4,-12 6,-17 5,-15 12,-29 17,-44 4,-10 9,-20 13,-29 8,-18 37,-67 44,-78 11,-16 21,-32 33,-47l18 -23c11,-14 25,-29 37,-42 7,-7 13,-13 20,-20 20,-21 62,-56 85,-71 30,-19 58,-45 85,-70 9,-9 29,-31 38,-42 12,-16 22,-30 33,-47 17,-27 43,-84 50,-115 3,-10 7,-23 9,-34l7 -36c3,-18 9,-61 8,-78 -2,3 -3,12 -4,17 -5,21 -19,57 -28,77 -6,15 -8,17 -13,28 -9,19 -19,36 -30,52 -5,9 -10,16 -16,25 -6,9 -11,15 -16,23 -6,7 -13,15 -18,22 -6,8 -13,15 -19,21l-19 20 -96 80c-4,2 -6,6 -10,9 -11,8 -32,26 -42,37l-37 44c-19,25 -32,41 -51,68 -3,4 -6,8 -8,12l-23 40c-3,5 -4,8 -7,13l-20 41c-20,42 -31,80 -41,127l-5 27c-1,4 -1,8 0,10zm184 -200c16,-1 38,-6 53,-11 14,-5 34,-12 47,-20 10,-6 19,-11 28,-18 8,-5 18,-14 25,-20 20,-17 39,-39 56,-62 10,-15 27,-43 35,-59l17 -33c2,-4 5,-12 7,-17 8,-17 20,-54 26,-73 2,-7 3,-13 6,-20 3,-11 11,-48 13,-61 2,-8 2,-15 4,-23 1,-5 2,-15 2,-21 -2,2 -12,34 -17,44 -2,3 -2,5 -3,9 -2,4 -5,12 -8,17 -30,69 -61,123 -105,182 -13,18 -40,50 -54,65l-46 47c-4,4 -8,7 -12,11 -4,4 -8,7 -12,11l-51 42c-4,3 -10,5 -11,10zm-435 311c-46,0 -84,-21 -118,-49 -13,-11 -23,-21 -34,-35 -4,-4 -14,-15 -15,-20 4,1 18,14 27,19 10,6 17,11 30,16 10,4 21,8 33,11 10,2 21,6 34,7 4,1 7,1 10,2 12,3 57,3 70,3 10,-1 29,-2 38,-4l36 -7c-1,6 1,1 -2,6l-8 8c-4,4 -7,6 -11,10 -28,21 -55,32 -90,33zm-30 -146c-2,3 -14,10 -17,11 -24,10 -46,9 -71,7l-22 -5c-7,-3 -13,-5 -20,-7 -24,-9 -48,-30 -65,-50 -10,-11 -18,-22 -26,-35 -5,-8 -39,-75 -36,-83 6,6 17,32 47,62 23,22 48,41 76,56 5,3 13,5 18,8 6,4 10,5 17,9 6,2 13,4 19,6 13,5 25,9 39,12l41 9zm-53 -75c-39,0 -71,-13 -105,-32 -39,-22 -79,-71 -103,-117 -22,-42 -20,-46 -32,-81 -8,-21 -12,-41 -16,-63 -1,-6 -7,-27 -5,-32 1,2 9,26 11,31 11,24 15,32 27,55 12,23 34,54 50,71l39 40c8,7 34,28 43,35 14,11 31,22 45,32 25,17 44,24 67,37l19 9c2,2 4,2 6,4 1,0 3,1 3,2 2,2 1,-2 1,3 -7,4 -40,6 -50,6zm214 110c-3,-5 -4,-12 -6,-17 -5,-15 -12,-29 -17,-44 -4,-10 -9,-20 -13,-29 -8,-18 -36,-67 -44,-78 -11,-16 -21,-32 -33,-47l-18 -23c-11,-14 -25,-29 -37,-42 -7,-7 -13,-13 -19,-20 -21,-21 -63,-56 -85,-71 -31,-19 -59,-45 -86,-70 -9,-9 -29,-31 -38,-42 -12,-16 -21,-30 -33,-47 -17,-27 -43,-84 -50,-115 -3,-10 -7,-23 -9,-34l-7 -36c-3,-18 -9,-61 -8,-78 2,3 3,12 5,17 5,21 18,57 27,77 6,15 8,17 13,28 9,19 19,36 30,52 5,9 10,16 16,25 6,9 11,15 17,23 5,7 12,15 18,22 5,8 12,15 18,21l19 20 96 80c4,2 7,6 11,9 10,8 31,26 41,37l37 44c19,25 32,41 52,68 2,4 5,8 7,12l23 40c3,5 5,8 7,13l20 41c20,42 31,80 41,127l5 27c1,4 1,8 0,10zm-184 -200c-16,-1 -37,-6 -53,-11 -14,-5 -33,-12 -47,-20 -10,-6 -18,-11 -28,-18 -8,-5 -18,-14 -25,-20 -20,-17 -39,-39 -55,-62 -11,-15 -28,-43 -36,-59l-17 -33c-2,-4 -5,-12 -7,-17 -8,-17 -20,-54 -26,-73 -2,-7 -3,-13 -5,-20 -4,-11 -11,-48 -14,-61 -2,-8 -2,-15 -4,-23 -1,-5 -2,-15 -2,-21 2,2 13,34 17,44 2,3 2,5 3,9 2,4 5,12 8,17 30,69 61,123 105,182 13,18 40,50 54,65l46 47c4,4 8,7 12,11 4,4 8,7 12,11l51 42c4,3 10,5 11,10z"
   id="path22" />
   <path
   class="fil4"
   d="M633 592c-81,26 -40,149 40,122 81,-27 43,-150 -40,-122zm-4 -175c-62,8 -95,28 -132,57 -97,79 -63,167 7,137 26,-12 7,-19 38,-52 29,-31 74,-61 139,-50 51,10 88,45 105,83 8,18 4,14 20,20 45,19 77,-23 62,-59 -30,-74 -126,-150 -239,-136zm-20 -335c-154,16 -269,73 -367,172 -15,15 -25,30 -41,48 -17,19 -22,47 0,66 22,20 47,13 64,-5 15,-17 19,-25 41,-48 29,-30 60,-56 102,-80 202,-113 437,-80 593,81l42 48c32,40 107,-2 64,-61 -21,-27 -40,-46 -64,-69 -20,-20 -51,-44 -76,-60 -11,-7 -17,-12 -28,-18 -11,-5 -20,-10 -30,-16 -73,-39 -197,-68 -300,-58zm0 168c-106,13 -210,68 -269,145 -16,21 -53,59 -20,91 11,11 32,19 52,10 28,-13 28,-49 105,-103 89,-63 215,-74 322,-19 105,55 108,123 152,126 42,3 62,-41 36,-77 -85,-119 -222,-192 -378,-173z"
   id="path24" />
   <path
   class="fil5 str3"
   d="M697 701l-44 -89 -44 88c15,15 37,23 64,14 10,-3 18,-8 24,-13z"
   id="path26" />
  </g>
 </g>
</svg>
